<svg display="block" role="presentation" viewBox="0 0 276 312" xmlns="http://www.w3.org/2000/svg"><path d="M 76.634 16.279 L 56.99 87.222 L 0 67.069 L 25.298 0 Z" fill="rgb(160, 160, 160)" height="87.22196363636368px" id="m5VmYfAKy" transform="translate(43.248 189.809)" width="76.63381818181847px"/><path d="M 13.895 28.023 L 1.456 11.68 C 0.873 10.924 0.451 10.058 0.216 9.131 C -0.019 8.207 -0.063 7.242 0.088 6.299 C 0.239 5.357 0.581 4.455 1.093 3.65 C 1.606 2.844 2.277 2.15 3.067 1.613 C 6.428 -0.817 11.51 -0.516 13.98 2.613 L 29.466 22.96 L 21.568 28.689 C 20.43 29.538 19.02 29.941 17.605 29.818 C 16.19 29.695 14.87 29.056 13.895 28.023 Z" fill="rgb(253, 100, 182)" height="29.839624594222585px" id="dzwatf5H8" transform="translate(0.075 251.09)" width="29.466456270812735px"/><path d="M 16.781 65.323 L 0 43.275 L 62.341 0 L 79.122 22.048 Z" fill="rgb(80, 90, 205)" height="65.32334545454546px" id="Ab1yQVNTA" transform="translate(12.485 208.959)" width="79.12238690909263px"/><path d="M 22.834 9.53 L 15.078 27.885 C 14.231 29.653 12.752 31.039 10.933 31.771 C 9.113 32.503 7.086 32.525 5.251 31.833 C 1.334 30.453 -1.05 26.304 0.456 22.742 L 10.234 0.739 C 10.403 0.34 10.112 -0.123 10.549 0.03 L 19.78 3.269 C 20.407 3.458 20.988 3.774 21.487 4.198 C 21.985 4.621 22.391 5.143 22.678 5.731 C 22.965 6.319 23.126 6.96 23.153 7.614 C 23.18 8.267 23.072 8.919 22.834 9.53 Z" fill="rgb(253, 100, 182)" height="32.33642570068645px" id="dpoMT4OMF" transform="translate(94.341 279.407)" width="23.157491695021335px"/><path d="M 8.618 0.336 C 5.69 1.08 3.174 2.953 1.623 5.546 C 0.071 8.139 -0.391 11.241 0.337 14.174 L 2.152 20.972 C 3.002 23.871 4.965 26.316 7.611 27.773 C 10.257 29.229 13.373 29.58 16.277 28.748 C 19.131 27.946 21.552 26.045 23.008 23.463 C 24.465 20.88 24.84 17.826 24.05 14.968 L 22.455 8.618 C 21.71 5.69 19.836 3.176 17.244 1.624 C 14.652 0.072 11.551 -0.391 8.618 0.336 Z" fill="rgb(254, 198, 183)" height="29.19055009309102px" id="nFN0KONlQ" transform="translate(23.286 138.911)" width="24.454984138870646px"/><path d="M 12.625 1.291 C 12.241 0.889 11.78 0.567 11.27 0.345 C 10.76 0.123 10.21 0.006 9.653 0 C 9.097 -0.006 8.545 0.1 8.03 0.311 C 7.515 0.522 7.048 0.834 6.655 1.229 L 1.573 5.482 C 0.68 6.234 0.121 7.309 0.017 8.472 C -0.086 9.635 0.275 10.791 1.022 11.689 C 1.774 12.581 2.849 13.14 4.012 13.244 C 5.175 13.347 6.332 12.986 7.229 12.24 L 12.299 7.513 C 13.164 6.73 13.684 5.635 13.745 4.47 C 13.806 3.304 13.404 2.161 12.625 1.291 Z" fill="rgb(254, 198, 183)" height="13.260872222561602px" id="JyXDI7b8v" transform="translate(38.044 142.747)" width="13.751383866167103px"/><path d="M 53.384 34.679 C 33.605 39.736 5.799 22.681 0 0" fill="transparent" height="35.573024351326154px" id="y8yvbUR6K" stroke-dasharray="" stroke-linecap="butt" stroke-linejoin="miter" stroke-miterlimit="10" stroke-width="24.52" stroke="rgb(224, 224, 224)" transform="translate(36.826 155.024)" width="53.3835781818187px"/><path d="M 20.535 44.972 L 16.438 43.295 C 1.998 37.382 -3.594 17.351 2.338 2.859 C 2.801 1.732 3.691 0.834 4.813 0.362 C 5.936 -0.111 7.201 -0.121 8.33 0.335 L 56.44 20.035 C 57.566 20.502 58.461 21.396 58.93 22.521 C 59.399 23.646 59.402 24.911 58.941 26.04 C 53.009 40.53 34.974 50.883 20.535 44.972 Z" fill="rgb(80, 90, 205)" height="46.664461251559516px" id="BtydMt0DD" transform="translate(55.087 208.31)" width="59.28426345096017px"/><path d="M 2.959 42.241 C 2.369 41.999 1.833 41.642 1.384 41.19 C 0.934 40.738 0.58 40.199 0.343 39.607 C 0.105 39.015 -0.011 38.382 0.001 37.745 C 0.013 37.107 0.153 36.48 0.412 35.897 C 11.509 11.123 27.945 -6.534 49.545 2.315 C 71.145 11.164 70.477 35.266 61.014 60.712 C 60.791 61.309 60.45 61.858 60.012 62.321 C 59.573 62.784 59.046 63.155 58.461 63.41 C 57.877 63.665 57.247 63.801 56.609 63.809 C 55.971 63.817 55.338 63.696 54.748 63.454 Z" fill="rgb(2, 1, 3)" height="63.809327432005404px" id="UGzvPYDIK" transform="translate(52.135 181.264)" width="67.28945251005767px"/><path d="M 35.503 14.592 C 32.432 8.937 27.426 4.577 21.403 2.309 C 18.039 0.804 14.398 0.017 10.712 0 C 7.026 -0.017 3.378 0.736 0 2.21 C 1.187 6.314 6.352 10.941 13.726 13.961 C 22.493 17.552 31.491 17.686 35.503 14.592 Z" fill="rgb(176, 112, 86)" height="16.79151319579549px" id="wYMqVEdmi" transform="translate(80.278 181.264)" width="35.50295272727435px"/><path d="M 26.018 4.649 C 27.798 7.09 28.537 10.138 28.076 13.124 C 27.616 16.11 25.992 18.793 23.56 20.585 L 17.823 24.658 C 15.318 26.349 12.247 26.977 9.28 26.409 C 6.313 25.842 3.691 24.123 1.987 21.629 C 0.302 19.19 -0.349 16.181 0.179 13.264 C 0.706 10.346 2.368 7.755 4.8 6.061 L 10.082 2.191 C 12.525 0.413 15.571 -0.326 18.557 0.133 C 21.542 0.595 24.224 2.217 26.018 4.649 Z" fill="rgb(254, 198, 183)" height="26.613073624341666px" id="wmkvl8R5l" transform="translate(166.165 197.626)" width="28.209771967419243px"/><path d="M 3.766 0.029 C 4.318 -0.037 4.879 0.01 5.413 0.165 C 5.948 0.32 6.446 0.581 6.878 0.931 C 7.31 1.283 7.668 1.716 7.93 2.207 C 8.191 2.699 8.352 3.238 8.402 3.792 L 9.599 10.308 C 9.806 11.458 9.551 12.641 8.888 13.604 C 8.225 14.565 7.208 15.224 6.061 15.438 C 4.912 15.646 3.727 15.391 2.766 14.727 C 1.804 14.065 1.144 13.048 0.93 11.9 L 0.045 5.027 C -0.121 3.871 0.177 2.697 0.874 1.759 C 1.571 0.823 2.611 0.201 3.766 0.029 Z" fill="rgb(254, 198, 183)" height="15.508788940903543px" id="cFRQuf4pD" transform="translate(170.913 193.955)" width="9.669059812471517px"/><path d="M 0 0 C 11.997 16.517 44.287 21.137 63.23 7.38" fill="transparent" height="15.482456738236635px" id="uAgwwaVaD" stroke-dasharray="" stroke-linecap="butt" stroke-linejoin="miter" stroke-miterlimit="10" stroke-width="24.52" stroke="rgb(253, 251, 253)" transform="translate(115.094 203.899)" width="63.229920000001925px"/><path d="M 0.815 64.491 L 21.302 76.194 C 21.831 76.408 22.421 76.411 22.954 76.207 C 23.487 76.003 23.922 75.606 24.174 75.093 L 70.49 0.095 C 42.132 -1.721 24.888 22.498 0.456 61.534 C 0.283 61.749 0.155 61.999 0.079 62.266 C 0.004 62.532 -0.018 62.812 0.015 63.088 C 0.049 63.362 0.137 63.629 0.274 63.869 C 0.411 64.111 0.595 64.323 0.815 64.491 Z" fill="rgb(253, 251, 253)" height="76.35738315543978px" id="NhjPJn8d7" transform="translate(15.737 178.878)" width="70.49041659278205px"/><path d="M 14.434 0 L 0 23.368 L 1.227 8.522 C 1.276 8.051 1.437 7.601 1.697 7.206 C 1.958 6.813 2.31 6.488 2.723 6.259 Z" fill="rgb(226, 226, 226)" height="23.36785454545455px" id="QeJWDaCLA" transform="translate(59.12 199.487)" width="14.434065454543187px"/><path d="M 18.305 0 L 3.33 9.33 C 2.806 9.659 2.362 10.099 2.03 10.619 C 1.698 11.141 1.487 11.731 1.413 12.344 L 0 29.636 Z" fill="rgb(191, 191, 191)" height="29.63621818181818px" id="BTIZgK0Df" transform="translate(66.365 181.489)" width="18.304945454542747px"/><path d="M 1.577 0 L 0.041 24.639 C -0.177 28.15 0.472 31.659 1.932 34.861 C 3.392 38.06 5.618 40.853 8.413 42.988 L 22.471 53.732" fill="rgb(80, 90, 205)" height="53.73207272727271px" id="qFtin_dTE" transform="translate(79.868 238.016)" width="22.470611451126274px"/><path d="M 1.577 0 L 0.041 24.639 C -0.177 28.15 0.472 31.659 1.932 34.861 C 3.392 38.06 5.618 40.853 8.413 42.988 L 22.471 53.732" fill="transparent" height="53.73207272727271px" id="HzkRsZ98F" stroke-dasharray="" stroke-linecap="butt" stroke-linejoin="miter" stroke-miterlimit="10" stroke-width="26.17" stroke="rgb(80, 90, 205)" transform="translate(79.868 238.016)" width="22.470611451126274px"/><path d="M 35.404 99.528 L 1.982 86.953 C 1.313 86.749 0.744 86.301 0.389 85.7 C 0.033 85.097 -0.084 84.384 0.06 83.699 L 26.628 0 C 53.145 9.976 52.248 54.388 38.763 98.252 C 38.635 98.564 38.445 98.845 38.203 99.08 C 37.962 99.316 37.675 99.498 37.36 99.619 C 37.045 99.738 36.709 99.791 36.373 99.776 C 36.036 99.761 35.706 99.675 35.404 99.528 Z" fill="rgb(253, 251, 253)" height="99.77823290289282px" id="HWWopjTDZ" transform="translate(85.7 189.414)" width="47.99757751038345px"/><path d="M 8.276 0 L 0 26.072 L 13.648 16.852 C 14.057 16.572 14.352 16.154 14.48 15.676 C 14.608 15.195 14.56 14.687 14.345 14.24 Z" fill="rgb(226, 226, 226)" height="26.071854545454585px" id="f2g9Pft9Q" transform="translate(96.786 212.306)" width="14.550462881297449px"/><path d="M 10.469 0 L 0 32.97 L 17.262 21.311 C 17.781 20.955 18.155 20.426 18.316 19.819 C 18.478 19.212 18.416 18.565 18.142 18 Z" fill="rgb(191, 191, 191)" height="32.96989090909088px" id="uRhT0ABJp" transform="translate(101.028 192.035)" width="18.404526827895012px"/><path d="M 8.023 5.966 L 1.347 3.453 C 0.879 3.298 0.486 2.971 0.247 2.54 C 0.008 2.107 -0.061 1.602 0.055 1.122 C 0.139 0.9 0.268 0.698 0.433 0.528 C 0.598 0.358 0.796 0.223 1.016 0.133 C 1.235 0.042 1.47 -0.004 1.707 0 C 1.944 0.004 2.178 0.057 2.394 0.155 L 9.07 2.666 C 9.538 2.823 9.931 3.149 10.17 3.582 C 10.409 4.013 10.477 4.519 10.361 5 C 10.277 5.221 10.148 5.423 9.983 5.594 C 9.818 5.764 9.62 5.898 9.401 5.989 C 9.182 6.079 8.946 6.125 8.709 6.119 C 8.472 6.115 8.238 6.062 8.023 5.966 Z" fill="rgb(226, 226, 226)" height="6.119673920142077px" id="uwYm2BqwK" transform="translate(114.725 219.37)" width="10.416243384304892px"/><path d="M 59.114 2.096 L 109.387 21.259 C 117.298 24.274 123.687 30.309 127.149 38.035 C 130.611 45.762 130.861 54.547 127.846 62.458 L 112.227 103.433 C 110.593 107.72 108.13 111.643 104.98 114.977 C 101.829 118.313 98.052 120.994 93.865 122.87 C 89.679 124.746 85.163 125.776 80.577 125.907 C 75.991 126.037 71.425 125.262 67.138 123.628 L 22.489 106.608 C 13.832 103.308 6.841 96.705 3.053 88.25 C -0.735 79.796 -1.009 70.183 2.291 61.526 L 17.909 20.553 C 19.403 16.635 21.653 13.05 24.532 10.002 C 27.411 6.954 30.862 4.503 34.689 2.789 C 38.515 1.075 42.641 0.132 46.832 0.013 C 51.023 -0.106 55.197 0.602 59.114 2.096 Z" fill="rgb(254, 198, 183)" height="125.92070235371922px" id="rjwkYh1mb" transform="translate(55.821 80.244)" width="129.93941141764617px"/><path d="M 0 0 C 2.154 2.38 5.103 3.89 8.293 4.247 C 10.919 4.418 13.512 3.588 15.552 1.924" fill="transparent" height="4.2687980150910505px" id="ikXzo0qXN" stroke-dasharray="" stroke-linecap="round" stroke-linejoin="round" stroke-width="2.92" stroke="rgb(0, 0, 0)" transform="translate(96.72 169.088)" width="15.551592727271128px"/><path d="M 35.334 22.511 C 37.846 12.916 32.105 3.102 22.511 0.59 C 12.916 -1.922 3.102 3.819 0.59 13.414 C -1.922 23.008 3.819 32.822 13.414 35.334 C 23.008 37.846 32.822 32.105 35.334 22.511 Z" fill="rgb(254, 198, 183)" height="35.924282270189906px" id="Y2SBVMi_E" transform="translate(43.239 112.721)" width="35.924270221033794px"/><path d="M 9.188 10.49 C 9.359 7.881 8.487 5.311 6.764 3.344 C 5.042 1.378 2.609 0.175 0 0" fill="transparent" height="10.490007272727269px" id="lLcvcKgH1" stroke-dasharray="" stroke-linecap="round" stroke-linejoin="round" stroke-width="2.59" stroke="rgb(230, 154, 123)" transform="translate(56.256 126.27)" width="9.209490667961916px"/><path d="M 35.335 22.511 C 37.846 12.916 32.105 3.102 22.511 0.59 C 12.916 -1.922 3.102 3.819 0.59 13.414 C -1.922 23.008 3.819 32.823 13.414 35.334 C 23.008 37.847 32.822 32.105 35.335 22.511 Z" fill="rgb(254, 198, 183)" height="35.924060265304774px" id="FaMmWvlqF" transform="translate(157.592 156.308)" width="35.92431599664562px"/><path d="M 0 3.793 C 1.61 1.733 3.971 0.396 6.565 0.075 C 9.16 -0.246 11.775 0.475 13.839 2.08" fill="transparent" height="3.793419415422221px" id="sR23liehd" stroke-dasharray="" stroke-linecap="round" stroke-linejoin="round" stroke-width="2.59" stroke="rgb(230, 154, 123)" transform="translate(168.346 172.192)" width="13.838618181820493px"/><path d="M 67.833 9.674 L 48.473 2.295 C 31.485 -4.182 12.775 3.518 6.686 19.494 L 0 37.034 C 11.204 41.306 23.526 41.652 34.953 38.016 C 46.379 34.381 56.235 26.978 62.911 17.018 Z" fill="rgb(255, 235, 130)" height="40.511394068808755px" id="n6e9zGhEN" transform="translate(67.389 80.394)" width="67.83333818181896px"/><path d="M 1.717 0 L 36.822 13.382 C 53.812 19.857 62.649 38.056 56.559 54.032 L 49.872 71.574 L 34.127 65.568 C 22.923 61.298 13.497 53.354 7.39 43.035 C 1.283 32.716 -1.145 20.631 0.503 8.754 Z" fill="rgb(255, 235, 130)" height="71.57355636363636px" id="H2V8KHrvl" transform="translate(127.447 87.762)" width="58.484414904460806px"/><path d="M 7.221 3.057 C 6.903 1.076 5.038 -0.272 3.057 0.047 C 1.076 0.365 -0.272 2.229 0.047 4.211 L 1.344 12.277 C 1.662 14.258 3.526 15.606 5.507 15.288 C 7.489 14.969 8.837 13.105 8.518 11.124 Z" fill="rgb(255, 235, 130)" height="15.334179096107775px" id="hRAWjGz7P" transform="translate(133.478 82.331)" width="8.564540431562506px"/><path d="M 1.34 5.972 C -0.216 7.238 -0.451 9.526 0.815 11.083 C 2.082 12.639 4.37 12.875 5.927 11.608 L 12.264 6.452 C 13.82 5.185 14.056 2.897 12.789 1.34 C 11.523 -0.216 9.234 -0.451 7.678 0.815 Z" fill="rgb(255, 235, 130)" height="12.423283579775585px" id="zQpBTMwJy" transform="translate(136.262 85.806)" width="13.60419032637526px"/><path d="M 0.562 5.032 C -1.463 13.983 2.156 22.918 8.645 24.999 C 15.133 27.08 22.033 21.503 24.058 12.552 C 26.083 3.601 20.011 5.534 13.517 3.457 C 7.023 1.379 2.586 -3.918 0.562 5.032 Z" fill="rgb(0, 0, 0)" height="25.434770706810866px" id="F9zZvUcAd" transform="translate(90.768 160.724)" width="24.45421659644917px"/><path d="M 8.036 14.279 C 4.084 13.011 1.196 9.201 0 4.392 C 1.692 2.266 4.348 0.695 7.575 0.178 C 13.644 -0.794 19.593 2.305 21.457 7.212 C 18.403 12.869 13.094 15.901 8.036 14.279 Z" fill="rgb(198, 74, 138)" height="14.714434746422668px" id="HQCK1dS31" transform="translate(91.376 171.445)" width="21.456638880666954px"/><path d="M 12.578 15.091 C 13.11 13.695 13.912 12.418 14.937 11.332 C 15.963 10.246 17.192 9.373 18.555 8.763 C 19.918 8.152 21.388 7.816 22.881 7.773 C 24.374 7.731 25.861 7.983 27.256 8.515 L 31.145 9.996 L 32.362 8.875 L 9.892 0.311 C 9.311 0.089 8.692 -0.016 8.07 0.002 C 7.448 0.02 6.836 0.16 6.268 0.415 C 5.7 0.669 5.188 1.033 4.761 1.486 C 4.335 1.938 4.001 2.471 3.78 3.052 L 0.31 12.156 C -0.137 13.33 -0.099 14.633 0.415 15.78 C 0.929 16.926 1.877 17.821 3.052 18.268 L 10.315 21.037 L 11.079 19.035 Z" fill="rgb(253, 251, 253)" height="21.037354156515875px" id="LAPRqdYP_" transform="translate(54.619 101.55)" width="32.362123770568836px"/><path d="M 32.508 12.391 L 0 0 L 0.162 1.646 L 4.051 3.129 C 5.447 3.661 6.724 4.463 7.81 5.488 C 8.895 6.514 9.769 7.743 10.379 9.106 C 10.99 10.469 11.326 11.939 11.369 13.432 C 11.411 14.925 11.159 16.412 10.627 17.807 L 9.126 21.748 L 8.362 23.75 L 25.665 30.346 C 26.247 30.567 26.866 30.672 27.488 30.654 C 28.109 30.636 28.722 30.496 29.289 30.241 C 29.857 29.987 30.368 29.623 30.795 29.17 C 31.222 28.718 31.556 28.186 31.777 27.604 L 35.247 18.501 C 35.694 17.327 35.656 16.024 35.143 14.879 C 34.629 13.733 33.681 12.838 32.508 12.391 Z" fill="rgb(253, 251, 253)" height="30.65606904913372px" id="RT7ailR1Z" transform="translate(152.822 135.526)" width="35.55691523972047px"/><path d="M 66.071 16.83 L 56.072 13.018 L 23.876 0.746 C 21.058 -0.328 17.928 -0.239 15.176 0.994 C 12.423 2.227 10.274 4.503 9.199 7.322 L 7.696 11.262 L 0.746 29.496 C -0.328 32.315 -0.239 35.445 0.994 38.197 C 2.227 40.95 4.503 43.1 7.322 44.174 L 28.891 52.399 C 34.766 54.637 40.562 51.26 43.569 45.823 L 48.399 36.785 L 55.971 39.673 L 53.561 49.636 C 52.256 55.461 54.269 62.076 60.137 64.312 L 82.312 72.766 C 85.13 73.84 88.26 73.751 91.013 72.517 C 93.765 71.284 95.916 69.008 96.99 66.19 L 103.941 47.955 L 105.442 44.015 C 105.974 42.62 106.226 41.133 106.184 39.64 C 106.141 38.147 105.805 36.677 105.194 35.314 C 104.584 33.951 103.711 32.722 102.625 31.696 C 101.539 30.671 100.262 29.869 98.866 29.337 Z" fill="rgb(190, 226, 240)" height="73.51148472213833px" id="qW1ptQ04f" transform="translate(57.999 109.318)" width="106.18844316569701px"/><path d="M 66.071 16.83 L 56.072 13.018 L 23.876 0.746 C 21.058 -0.328 17.928 -0.239 15.176 0.994 C 12.423 2.227 10.274 4.503 9.199 7.322 L 7.696 11.262 L 0.746 29.496 C -0.328 32.315 -0.239 35.445 0.994 38.197 C 2.227 40.95 4.503 43.1 7.322 44.174 L 28.891 52.399 C 34.766 54.637 40.562 51.26 43.569 45.823 L 46.489 40.361 C 47.017 39.373 47.888 38.612 48.937 38.219 C 49.986 37.827 51.142 37.83 52.189 38.229 C 53.236 38.628 54.102 39.395 54.624 40.386 C 55.146 41.378 55.288 42.525 55.025 43.614 L 53.568 49.636 C 52.262 55.461 54.276 62.076 60.144 64.312 L 82.318 72.766 C 85.137 73.84 88.267 73.751 91.019 72.517 C 93.772 71.284 95.922 69.008 96.997 66.19 L 103.947 47.955 L 105.449 44.015 C 105.981 42.62 106.233 41.133 106.19 39.64 C 106.148 38.147 105.812 36.677 105.201 35.314 C 104.59 33.951 103.717 32.722 102.631 31.696 C 101.545 30.671 100.268 29.869 98.873 29.337 Z" fill="transparent" height="73.51148472213833px" id="CSWE7m8vJ" stroke-dasharray="" stroke-linecap="round" stroke-linejoin="round" stroke-width="3" stroke="rgb(253, 251, 253)" transform="translate(57.999 109.318)" width="106.1948723281788px"/><path d="M 29.061 23.496 C 32.74 13.846 29.558 3.674 21.956 0.776 C 14.354 -2.122 5.208 3.351 1.53 13.001 C -2.148 22.651 1.033 32.823 8.635 35.721 C 16.238 38.619 25.383 33.146 29.061 23.496 Z" fill="rgb(253, 251, 253)" height="36.49711882252873px" id="gbCOQ8S_p" transform="translate(76.569 121.188)" width="30.591381750936563px"/><path d="M 6.174 25.919 C 0.713 23.837 -1.549 16.471 1.121 9.466 C 3.791 2.461 10.382 -1.53 15.843 0.552 C 19.926 2.108 22.221 6.618 22.003 11.723 L 19.283 10.686 C 17.072 9.843 14.596 10.953 13.753 13.164 C 12.911 15.375 14.02 17.851 16.231 18.694 L 19.042 19.765 C 19.184 19.819 19.327 19.865 19.471 19.904 C 16.302 25.056 10.827 27.692 6.174 25.919 Z" fill="rgb(0, 0, 0)" height="26.470312663891775px" id="GBe5pZ3_P" transform="translate(84.462 127.983)" width="22.01720753313035px"/><path d="M 29.061 23.496 C 32.74 13.846 29.559 3.674 21.956 0.776 C 14.354 -2.122 5.209 3.351 1.53 13.001 C -2.148 22.651 1.033 32.824 8.635 35.722 C 16.238 38.619 25.383 33.146 29.061 23.496 Z" fill="rgb(253, 251, 253)" height="36.497138371560965px" id="tr6ea8DQq" transform="translate(114.402 135.611)" width="30.59148410158528px"/><path d="M 6.174 25.919 C 0.713 23.837 -1.549 16.471 1.121 9.466 C 3.791 2.461 10.383 -1.53 15.843 0.552 C 19.928 2.109 22.223 6.623 22.003 11.731 L 19.282 10.694 C 17.071 9.851 14.595 10.96 13.752 13.171 C 12.909 15.382 14.018 17.858 16.23 18.701 L 19.04 19.773 C 19.181 19.826 19.324 19.872 19.467 19.91 C 16.297 25.059 10.825 27.692 6.174 25.919 Z" fill="rgb(0, 0, 0)" height="26.47031266389173px" id="l0_cHTSmf" transform="translate(122.297 142.402)" width="22.017236092769533px"/><path d="M 6.789 0.378 C 4.536 -0.267 2.127 -0.082 0 0.9" fill="transparent" height="1px" id="r_rcNpedT" stroke-dasharray="" stroke-linecap="round" stroke-linejoin="round" stroke-width="3.57" stroke="rgb(0, 0, 0)" transform="translate(132.714 119.846)" width="6.788930909090624px"/><path d="M 0 0 C 2.109 1.018 3.782 2.76 4.714 4.907" fill="transparent" height="4.907476363636377px" id="eahIvCz2D" stroke-dasharray="" stroke-linecap="round" stroke-linejoin="round" stroke-width="3.57" stroke="rgb(0, 0, 0)" transform="translate(109.706 108.868)" width="4.714414545456066px"/><path d="M 2.338 4.676 C 3.63 4.676 4.676 3.63 4.676 2.338 C 4.676 1.047 3.63 0 2.338 0 C 1.047 0 0 1.047 0 2.338 C 0 3.63 1.047 4.676 2.338 4.676 Z" fill="rgb(0, 0, 0)" height="4.6764072727272605px" id="ce3aWmVqG" transform="translate(102.778 155.176)" width="4.676407272725854px"/><path d="M 2.367 0.114 C 1.934 -0.051 1.453 -0.036 1.031 0.153 C 0.609 0.343 0.279 0.693 0.114 1.125 C -0.051 1.558 -0.036 2.038 0.153 2.461 C 0.343 2.884 0.692 3.213 1.125 3.378 C 1.558 3.543 2.039 3.528 2.461 3.339 C 2.883 3.149 3.213 2.8 3.378 2.367 C 3.543 1.934 3.528 1.453 3.339 1.031 C 3.149 0.609 2.8 0.279 2.367 0.114 Z" fill="rgb(230, 154, 123)" height="3.492046504158111px" id="to6yWkRFb" transform="translate(68.464 159.232)" width="3.492027803084355px"/><path d="M 2.367 0.114 C 1.934 -0.051 1.454 -0.037 1.031 0.153 C 0.609 0.343 0.279 0.692 0.114 1.125 C -0.051 1.558 -0.037 2.039 0.153 2.461 C 0.343 2.884 0.692 3.213 1.125 3.378 C 1.558 3.543 2.039 3.529 2.461 3.339 C 2.883 3.149 3.213 2.8 3.378 2.367 C 3.543 1.934 3.529 1.453 3.339 1.031 C 3.149 0.609 2.8 0.279 2.367 0.114 Z" fill="rgb(230, 154, 123)" height="3.492035934960853px" id="Pg7Po1zEF" transform="translate(61.9 165.86)" width="3.492035934960832px"/><path d="M 2.367 0.114 C 1.934 -0.051 1.453 -0.037 1.031 0.153 C 0.608 0.343 0.279 0.692 0.114 1.125 C -0.051 1.558 -0.037 2.039 0.153 2.461 C 0.343 2.883 0.692 3.213 1.125 3.378 C 1.558 3.543 2.039 3.529 2.461 3.339 C 2.883 3.149 3.213 2.8 3.378 2.367 C 3.543 1.934 3.529 1.453 3.339 1.031 C 3.149 0.609 2.8 0.279 2.367 0.114 Z" fill="rgb(230, 154, 123)" height="3.4920065849561865px" id="BhSL4H7YI" transform="translate(71.565 169.06)" width="3.492006584956897px"/><path d="M 2.366 0.114 C 2.799 0.278 3.149 0.608 3.338 1.03 C 3.528 1.453 3.542 1.933 3.378 2.366 C 3.213 2.799 2.884 3.149 2.461 3.338 C 2.039 3.528 1.558 3.542 1.126 3.378 C 0.911 3.296 0.715 3.173 0.548 3.016 C 0.382 2.859 0.247 2.67 0.153 2.461 C 0.059 2.252 0.008 2.026 0.001 1.797 C -0.006 1.568 0.033 1.34 0.114 1.126 C 0.195 0.911 0.318 0.715 0.476 0.548 C 0.633 0.382 0.821 0.247 1.03 0.153 C 1.24 0.059 1.465 0.008 1.694 0.001 C 1.923 -0.006 2.152 0.033 2.366 0.114 Z" fill="rgb(230, 154, 123)" height="3.4916279287810994px" id="OC5n0btU6" transform="translate(136.833 185.293)" width="3.4916278484979557px"/><path d="M 2.367 0.114 C 2.8 0.279 3.149 0.608 3.339 1.031 C 3.529 1.453 3.543 1.933 3.378 2.366 C 3.213 2.799 2.883 3.149 2.461 3.338 C 2.039 3.529 1.558 3.543 1.125 3.378 C 0.911 3.297 0.715 3.174 0.548 3.017 C 0.381 2.858 0.247 2.671 0.153 2.461 C 0.059 2.251 0.008 2.026 0.001 1.797 C -0.006 1.568 0.032 1.34 0.114 1.126 C 0.196 0.91 0.319 0.714 0.476 0.547 C 0.633 0.381 0.822 0.247 1.031 0.152 C 1.24 0.06 1.466 0.007 1.695 0.001 C 1.924 -0.007 2.153 0.033 2.367 0.114 Z" fill="rgb(230, 154, 123)" height="3.4922680004359563px" id="ovuWs5EnA" transform="translate(137.321 194.61)" width="3.4920430833761884px"/><path d="M 2.367 0.114 C 2.8 0.279 3.149 0.61 3.339 1.031 C 3.529 1.453 3.543 1.935 3.378 2.366 C 3.213 2.799 2.883 3.149 2.461 3.34 C 2.039 3.529 1.558 3.542 1.125 3.378 C 0.692 3.213 0.343 2.884 0.153 2.461 C -0.037 2.039 -0.051 1.559 0.114 1.126 C 0.279 0.693 0.609 0.343 1.031 0.154 C 1.453 -0.037 1.934 -0.05 2.367 0.114 Z" fill="rgb(230, 154, 123)" height="3.492284800780425px" id="TfebfEQn7" transform="translate(127.977 190.565)" width="3.4920065849568545px"/><path d="M 35.033 24.273 C 38.459 14.903 33.642 4.53 24.272 1.104 C 14.903 -2.323 4.53 2.495 1.104 11.864 C -2.323 21.233 2.495 31.606 11.864 35.033 C 21.233 38.459 31.607 33.642 35.033 24.273 Z" fill="rgb(240, 222, 123)" height="36.13677876497886px" id="o6fCQJ0OR" transform="translate(74.874 67.255)" width="36.13670306322942px"/><path d="M 35.033 24.272 C 38.459 14.903 33.642 4.53 24.272 1.104 C 14.903 -2.323 4.53 2.495 1.104 11.864 C -2.323 21.234 2.495 31.607 11.864 35.033 C 21.234 38.459 31.607 33.642 35.033 24.272 Z" fill="rgb(240, 222, 123)" height="36.13667992516103px" id="hG3CVJwKD" transform="translate(60.993 37.912)" width="36.136701090604845px"/><path d="M 24.011 34.94 C 31.005 31.346 32.796 20.883 28.01 11.571 C 23.224 2.258 13.675 -2.377 6.681 1.217 C -0.313 4.812 -2.103 15.274 2.682 24.587 C 7.468 33.899 17.017 38.534 24.011 34.94 Z" fill="rgb(240, 222, 123)" height="36.157435662833905px" id="WJBzsLUMD" transform="translate(49.649 7.23)" width="30.692247310330288px"/><path d="M 27.07 24.714 C 31.688 14.627 29.949 3.941 23.187 0.846 C 16.425 -2.25 7.201 3.418 2.584 13.504 C -2.034 23.591 -0.295 34.276 6.467 37.372 C 13.228 40.467 22.453 34.8 27.07 24.714 Z" fill="rgb(240, 222, 123)" height="38.217665860723535px" id="hbhGLh3C2" transform="translate(59.937 4.759)" width="29.653980514222027px"/><path d="M 39.528 17.65 C 40.968 10.359 33.325 2.709 22.458 0.564 C 11.591 -1.582 1.614 2.588 0.174 9.879 C -1.266 17.17 6.377 24.82 17.245 26.966 C 28.112 29.112 38.089 24.941 39.528 17.65 Z" fill="rgb(240, 222, 123)" height="27.529629492542455px" id="bMczepwRQ" transform="translate(38.252 18.668)" width="39.70253683982557px"/><path d="M 36.007 20.153 C 37.16 10.244 30.062 1.276 20.154 0.123 C 10.244 -1.03 1.276 6.068 0.123 15.977 C -1.03 25.886 6.068 34.854 15.977 36.008 C 25.887 37.161 34.853 30.062 36.007 20.153 Z" fill="rgb(240, 222, 123)" height="36.13031680532346px" id="h0bn_RiW4" transform="translate(173.537 106.736)" width="36.129785085441995px"/><path d="M 36.007 20.153 C 37.16 10.244 30.062 1.276 20.153 0.123 C 10.243 -1.03 1.276 6.068 0.123 15.977 C -1.031 25.886 6.068 34.854 15.976 36.008 C 25.886 37.161 34.855 30.062 36.007 20.153 Z" fill="rgb(240, 222, 123)" height="36.13031680532352px" id="oZKPrF1MQ" transform="translate(205.503 101.087)" width="36.12947703527652px"/><path d="M 20.891 28.446 C 31.257 26.964 38.756 19.452 37.644 11.668 C 36.53 3.883 27.225 -1.226 16.861 0.256 C 6.497 1.738 -1.004 9.249 0.11 17.034 C 1.221 24.818 10.527 29.927 20.891 28.446 Z" fill="rgb(240, 222, 123)" height="28.70124011119958px" id="vYCC3nfvq" transform="translate(237.847 98.524)" width="37.75340801753413px"/><path d="M 27.051 25.398 C 32.609 15.797 31.898 4.994 25.461 1.268 C 19.024 -2.458 9.301 2.304 3.744 11.905 C -1.813 21.505 -1.102 32.308 5.334 36.034 C 11.771 39.76 21.494 34.998 27.051 25.398 Z" fill="rgb(240, 222, 123)" height="37.30240877398202px" id="r13bB42E6" transform="translate(236.84 85.428)" width="30.795285068256902px"/><path d="M 31.799 30.714 C 36.914 25.323 34.547 14.772 26.512 7.147 C 18.476 -0.477 7.815 -2.287 2.7 3.104 C -2.415 8.495 -0.048 19.046 7.987 26.671 C 16.023 34.295 26.684 36.105 31.799 30.714 Z" fill="rgb(240, 222, 123)" height="33.818012892509756px" id="nYlXbaTzP" transform="translate(237.638 105.71)" width="34.49883506047081px"/></svg>