<svg display="block" role="presentation" viewBox="0 0 294 309" xmlns="http://www.w3.org/2000/svg"><path d="M 28.104 30.906 C 24.262 30.882 20.431 30.506 16.658 29.784 C 13.001 29.038 9.257 28.803 5.535 29.086 C 4.641 29.147 3.757 28.865 3.065 28.294 C 2.374 27.723 1.927 26.91 1.818 26.02 L 0.027 11.664 C -0.032 11.194 0.006 10.717 0.136 10.262 C 0.267 9.807 0.488 9.383 0.786 9.017 C 1.085 8.649 1.454 8.345 1.873 8.124 C 2.292 7.903 2.75 7.77 3.222 7.731 C 8.906 7.222 14.634 7.518 20.236 8.613 C 29.809 10.307 39.67 9.077 48.534 5.084 C 53.695 2.647 59.174 0.951 64.81 0.047 C 65.277 -0.03 65.754 -0.013 66.214 0.099 C 66.674 0.21 67.107 0.412 67.487 0.695 C 67.866 0.978 68.185 1.334 68.423 1.744 C 68.662 2.153 68.815 2.606 68.874 3.075 L 70.665 17.431 C 70.778 18.321 70.545 19.219 70.015 19.943 C 69.484 20.666 68.697 21.157 67.815 21.316 C 64.137 21.957 60.566 23.104 57.204 24.727 C 50.93 27.68 44.204 29.56 37.308 30.289 C 34.256 30.686 31.182 30.892 28.104 30.906 Z" fill="rgb(86, 216, 130)" height="30.9058988789792px" id="CU8pbfDh8" transform="translate(12.261 137.136)" width="70.69265931572804px"/><path d="M 47.85 73.639 L 29.007 76.286 C 25.331 76.801 21.585 76.507 18.034 75.423 C 14.483 74.338 11.212 72.492 8.45 70.011 C 5.687 67.529 3.501 64.475 2.044 61.059 C 0.586 57.644 -0.107 53.952 0.013 50.242 L 0.769 26.884 C 0.962 20.944 3.225 15.261 7.166 10.815 C 11.107 6.369 16.478 3.44 22.351 2.536 L 36.901 0.296 C 43.577 -0.731 50.387 0.934 55.835 4.929 C 61.282 8.922 64.92 14.914 65.949 21.591 L 69.482 44.544 C 69.995 47.878 69.84 51.28 69.028 54.554 C 68.215 57.828 66.76 60.907 64.748 63.614 C 62.735 66.32 60.205 68.601 57.304 70.322 C 54.403 72.042 51.19 73.17 47.85 73.639 Z" fill="rgb(245, 245, 245)" height="76.53232956116145px" id="JlN_rVq_n" transform="translate(38.689 152.18)" width="69.77811208279974px"/><path d="M 0 5.817 C 7.461 5.809 21.827 5.033 35.389 0" fill="transparent" height="5.817470852017976px" id="pEtNVmq9t" stroke-dasharray="" stroke-linecap="round" stroke-linejoin="miter" stroke-miterlimit="10" stroke-width="2.6" stroke="rgb(222, 222, 222)" transform="translate(43.179 181.623)" width="35.389334529147376px"/><path d="M 5.262 2.632 C 5.262 1.178 4.084 0 2.631 0 C 1.178 0 0 1.178 0 2.632 L 0 9.368 C 0 10.822 1.178 12 2.631 12 C 4.084 12 5.262 10.822 5.262 9.368 Z" fill="rgb(199, 199, 199)" height="12.000107623318371px" id="v0SyXjU8A" transform="translate(38.896 184.999)" width="5.262446636771465px"/><path d="M 3.463 0 C 14.982 0.896 14.68 4.787 26.199 5.682 C 37.719 6.577 38.023 2.685 49.544 3.58 C 61.065 4.475 60.765 8.367 72.284 9.262 L 68.821 53.843 C 57.3 52.948 57.601 49.056 46.08 48.161 C 34.56 47.266 34.258 51.158 22.736 50.263 C 11.215 49.368 11.519 45.476 0 44.581 Z" fill="rgb(255, 237, 73)" height="53.84322511210763px" id="KtA1327xO" transform="translate(123.942 25.186)" width="72.28410403587452px"/><path d="M 11.75 0 L 0 151.23" fill="transparent" height="151.23031748878924px" id="ioIkD6T5p" stroke-dasharray="" stroke-linecap="round" stroke-linejoin="miter" stroke-miterlimit="10" stroke-width="6.51" stroke="rgb(174, 176, 196)" transform="translate(184.477 34.449)" width="11.749668161433902px"/><path d="M 0.022 4.098 C -0.003 4.223 -0.007 4.351 0.011 4.479 C 0.413 7.35 25.482 52.76 81.367 62.387 C 81.665 62.438 81.971 62.368 82.219 62.193 C 82.465 62.018 82.633 61.752 82.684 61.454 L 85.706 33.03 C 85.748 32.775 85.703 32.514 85.577 32.289 C 85.451 32.063 85.252 31.888 85.013 31.79 C 60.329 29.045 30.449 -0.022 30.339 0 Z" fill="rgb(64, 79, 171)" height="62.40337813769344px" id="MXLphBxG1" transform="translate(104.583 148.263)" width="85.7209398528332px"/><path d="M 26.175 36.988 L 20.416 8.176 C 20.154 6.849 19.631 5.59 18.876 4.471 C 18.12 3.35 17.149 2.393 16.019 1.653 C 14.888 0.914 13.622 0.408 12.293 0.165 C 10.964 -0.077 9.601 -0.052 8.282 0.239 C 5.593 0.828 3.239 2.446 1.728 4.749 C 0.217 7.051 -0.333 9.852 0.196 12.555 L 7.144 47.316 C 7.175 47.464 7.234 47.604 7.318 47.73 C 7.403 47.854 7.511 47.962 7.638 48.045 C 7.764 48.127 7.905 48.185 8.054 48.213 C 8.203 48.239 8.356 48.238 8.503 48.206 L 20.528 45.6 C 22.404 45.182 24.045 44.049 25.099 42.44 C 26.154 40.832 26.54 38.876 26.175 36.988 Z" fill="rgb(2, 1, 3)" height="48.23120661116627px" id="gxYiNMrLT" transform="translate(250.722 170.412)" width="26.30909962402353px"/><path d="M 159.213 36.111 L 151.346 0 L 0 38.502 L 7.866 74.611 Z" fill="rgb(228, 229, 255)" height="74.61137219730941px" id="eHuZOsS_B" transform="translate(99.342 182.706)" width="159.21318026905786px"/><path d="M 4.341 14.862 L 66.49 0.151 C 67.945 -0.193 69.477 0.055 70.75 0.841 C 72.022 1.626 72.93 2.884 73.274 4.339 C 75.403 13.334 73.873 22.807 69.017 30.673 C 64.162 38.539 56.381 44.153 47.387 46.283 L 42.094 47.535 C 33.099 49.664 23.627 48.132 15.761 43.277 C 7.895 38.423 2.281 30.642 0.152 21.647 C -0.193 20.192 0.055 18.659 0.84 17.387 C 1.626 16.115 2.884 15.206 4.339 14.862 Z" fill="rgb(228, 229, 255)" height="48.4722090066403px" id="lyCxQyrhT" transform="translate(87.853 196.31)" width="74.21160284306447px"/><path d="M 59.089 89.568 C 55.709 89.817 52.31 89.555 49.008 88.791 L 0 77.475 L 8.197 41.973 L 53.878 52.52 L 55.999 0 L 92.407 1.472 L 90.149 57.404 C 89.814 65.639 86.465 73.466 80.739 79.395 C 75.013 85.326 67.308 88.945 59.089 89.568 Z" fill="rgb(228, 229, 255)" height="89.65899418529315px" id="g6FzPPQhZ" transform="translate(37.996 218.649)" width="92.4067049327351px"/><path d="M 0 0 L 10.595 44.763" fill="transparent" height="44.76290582959638px" id="XV60llDdl" stroke-dasharray="" stroke-linecap="round" stroke-linejoin="miter" stroke-miterlimit="10" stroke-width="3.25" stroke="rgb(122, 224, 209)" transform="translate(109.857 150.458)" width="10.594568609864211px"/><path d="M 27.375 42.384 L 17.972 2.655 C 17.533 0.802 15.674 -0.346 13.82 0.094 L 2.656 2.737 C 0.802 3.175 -0.345 5.034 0.094 6.888 L 9.497 46.615 C 9.936 48.469 11.795 49.616 13.649 49.178 L 24.813 46.536 C 26.667 46.096 27.814 44.238 27.375 42.384 Z" fill="rgb(82, 205, 124)" height="49.27164448136671px" id="mxG0PGNmb" transform="translate(82.255 143.006)" width="27.46898045442623px"/><path d="M 19.064 98.585 L 89.457 81.923 C 93.248 81.025 95.326 76.551 93.94 72.266 L 72.291 5.392 C 71.075 1.637 67.606 -0.631 64.283 0.155 L 4.913 14.208 C 1.589 14.994 -0.495 18.577 0.102 22.478 L 10.728 91.962 C 11.408 96.414 15.272 99.482 19.064 98.585 Z" fill="rgb(80, 90, 205)" height="98.74108100747404px" id="WS5gIqALf" transform="translate(71.772 127.231)" width="94.37102965572801px"/><path d="M 22.044 11.031 L 0 0" fill="transparent" height="11.030529147982065px" id="F8Pi0qgWn" stroke-dasharray="" stroke-linecap="round" stroke-linejoin="miter" stroke-miterlimit="10" stroke-width="2.6" stroke="rgb(46, 56, 171)" transform="translate(127.934 142.045)" width="22.043709417040958px"/><path d="M 33.443 0 L 36.68 14.901 C 36.68 14.901 40.742 33.571 7.723 39.984 L 0 4.448 Z" fill="rgb(70, 50, 79)" height="39.984129147982046px" id="ohtOaGyqL" transform="translate(120.672 87.852)" width="36.83862380070187px"/><path d="M 0 14.283 L 5.306 28.579 C 5.306 28.579 11.95 46.493 43.218 34.093 L 30.565 0 Z" fill="rgb(70, 50, 79)" height="38.46547775455967px" id="fRpHxMZtZ" transform="translate(33.536 108.855)" width="43.21829596412474px"/><path d="M 31.129 34.219 L 26.813 35.482 C 26.813 35.482 5.662 24.427 0 6.178 L 21.113 0 Z" fill="rgb(70, 50, 79)" height="35.481675336322866px" id="Xp99sl7FR" transform="translate(121.188 40.426)" width="31.12920538116677px"/><path d="M 15.894 31.786 C 24.67 31.786 31.786 24.671 31.786 15.893 C 31.786 7.116 24.67 0 15.894 0 C 7.116 0 0 7.116 0 15.893 C 0 24.671 7.116 31.786 15.894 31.786 Z" fill="rgb(255, 228, 199)" height="31.786084304932743px" id="LwqnBcjEV" transform="translate(129.112 65.6)" width="31.785944394619605px"/><path d="M 0 8.61 C 0.034 6.296 0.984 4.09 2.642 2.476 C 4.299 0.862 6.53 -0.028 8.844 0.001" fill="transparent" height="8.610212738238232px" id="DTXtapj9I" stroke-dasharray="" stroke-linecap="round" stroke-linejoin="round" stroke-width="3.25" stroke="rgb(230, 154, 123)" transform="translate(140.834 77.945)" width="8.84373094170391px"/><path d="M 90.639 108.34 L 58.51 117.741 C 50.612 120.053 42.119 119.132 34.9 115.182 C 27.681 111.231 22.327 104.575 20.016 96.677 L 0.1 28.618 C -0.085 27.985 -0.011 27.305 0.305 26.727 C 0.621 26.149 1.154 25.72 1.787 25.535 L 88.706 0.1 C 89.339 -0.085 90.019 -0.011 90.597 0.305 C 91.175 0.621 91.604 1.154 91.789 1.787 L 111.704 69.846 C 114.015 77.744 113.095 86.237 109.144 93.456 C 105.194 100.674 98.538 106.028 90.64 108.34 Z" fill="rgb(255, 226, 192)" height="118.99038509353439px" id="iiPj2pQNP" transform="translate(34.917 23.919)" width="112.95322526138435px"/><path d="M 10.015 47.299 C 16.637 45.36 22.617 41.679 27.33 36.639 C 35.922 27.465 47.795 12.109 44.695 0 L 0 13.078 Z" fill="rgb(70, 50, 79)" height="47.29864035874439px" id="HW6noEW89" transform="translate(21.101 62.813)" width="45.19868319445604px"/><path d="M 10.231 13.27 C 14.724 11.956 17.525 8.015 16.487 4.469 C 15.45 0.923 10.966 -0.886 6.473 0.429 C 1.979 1.744 -0.822 5.684 0.216 9.23 C 1.254 12.777 5.737 14.585 10.231 13.27 Z" fill="rgb(194, 81, 135)" height="13.699514417919737px" id="JWA26viqT" transform="translate(61.663 0.15)" width="16.7032609193107px"/><path d="M 9.282 22.437 L 37.423 14.2 C 41.264 13.076 43.465 9.052 42.341 5.211 C 41.217 1.371 37.193 -0.83 33.353 0.294 L 5.212 8.531 C 1.372 9.655 -0.83 13.679 0.294 17.519 C 1.418 21.359 5.442 23.561 9.282 22.437 Z" fill="rgb(252, 105, 175)" height="22.730744723462827px" id="uaSImTReu" transform="translate(0.581 58.333)" width="42.63501063737783px"/><path d="M 1.833 74.758 C -6.549 46.114 14.666 12.511 48.135 2.716 C 81.604 -7.078 114.653 10.646 123.036 39.29 Z" fill="rgb(252, 105, 175)" height="74.75753721165299px" id="Yw_oEFlOU" transform="translate(19.753 2.793)" width="123.0355706567228px"/><path d="M 15.893 31.786 C 24.671 31.786 31.786 24.67 31.786 15.893 C 31.786 7.115 24.671 0 15.893 0 C 7.116 0 0 7.115 0 15.893 C 0 24.67 7.116 31.786 15.893 31.786 Z" fill="rgb(255, 228, 199)" height="31.785944394618824px" id="NSmw_bSEO" transform="translate(27.873 95.226)" width="31.786084304932515px"/><path d="M 12.089 3.921 C 10.814 1.99 8.825 0.644 6.558 0.179 C 4.292 -0.287 1.933 0.166 0 1.438" fill="transparent" height="3.921145890932948px" id="cwnMP0IaO" stroke-dasharray="" stroke-linecap="round" stroke-linejoin="round" stroke-width="3.25" stroke="rgb(230, 154, 123)" transform="translate(37.916 109.214)" width="12.08937040358635px"/><path d="M 18.743 33.513 C 25.939 31.407 29.606 22.296 26.933 13.162 C 24.26 4.029 16.26 -1.668 9.064 0.438 C 1.868 2.543 -1.799 11.655 0.873 20.788 C 3.546 29.921 11.546 35.618 18.743 33.513 Z" fill="rgb(255, 255, 255)" height="33.950164955493776px" id="TUOhhWIH0" transform="translate(107.758 61.903)" width="27.80643341329622px"/><path d="M 6.477 0.311 C 11.645 -1.201 17.408 2.947 19.348 9.578 C 21.288 16.208 18.671 22.809 13.502 24.321 C 9.1 25.609 4.266 22.791 1.731 17.83 C 1.864 17.805 1.998 17.773 2.131 17.735 L 4.791 16.956 C 6.884 16.344 8.084 14.15 7.472 12.058 C 6.859 9.965 4.666 8.765 2.573 9.377 L 0 10.13 C 0.171 5.421 2.61 1.442 6.477 0.311 Z" fill="rgb(0, 0, 0)" height="24.632315453367475px" id="F_cHs7Rzp" transform="translate(108.23 67.935)" width="19.98860790137112px"/><path d="M 20.136 26.634 C 28.924 24.062 34.358 16.198 32.272 9.069 C 30.186 1.94 21.37 -1.754 12.582 0.818 C 3.793 3.39 -1.64 11.254 0.446 18.383 C 2.532 25.511 11.348 29.206 20.136 26.634 Z" fill="rgb(255, 226, 192)" height="27.451753781603628px" id="NkJ0VtMci" transform="translate(112.396 87.71)" width="32.71803467879752px"/><path d="M 2.069 4.138 C 3.212 4.138 4.138 3.212 4.138 2.069 C 4.138 0.926 3.212 0 2.069 0 C 0.926 0 0 0.926 0 2.069 C 0 3.212 0.926 4.138 2.069 4.138 Z" fill="rgb(0, 0, 0)" height="4.138267264573997px" id="kaSHh4o6c" transform="translate(109.029 96.72)" width="4.138267264574182px"/><path d="M 20.909 3.944 C 20.909 3.944 11.681 -6.06 0 5.798" fill="transparent" height="5.798393495564852px" id="qAipvITiN" stroke-dasharray="" stroke-linecap="round" stroke-linejoin="round" stroke-width="3.61" stroke="rgb(0, 0, 0)" transform="translate(74.599 85.036)" width="20.90917668161437px"/><path d="M 14.898 0.651 C 14.898 0.651 6.571 6.876 0 0" fill="transparent" height="3.234432039933367px" id="QQDI5w4wu" stroke-dasharray="" stroke-linecap="round" stroke-linejoin="round" stroke-width="3.16" stroke="rgb(0, 0, 0)" transform="translate(101.059 107.377)" width="14.89793004484254px"/><path d="M 3.713 0 C 3.713 0 4.76 4.061 0 6.526" fill="transparent" height="6.525556950672637px" id="PY4JP8_f3" stroke-dasharray="" stroke-linecap="round" stroke-linejoin="round" stroke-width="3.16" stroke="rgb(0, 0, 0)" transform="translate(97.48 103.712)" width="3.810984230804621px"/><path d="M 38.358 40.126 C 19.112 44.751 5.654 33.774 1.161 29.343 C 0.639 28.831 0.272 28.181 0.104 27.47 C -0.064 26.758 -0.028 26.013 0.21 25.321 C 2.284 19.33 9.56 3.357 28.916 0.275 C 39.488 -1.407 51.476 4.721 54.463 15.794 C 57.223 26.048 47.915 37.828 38.358 40.126 Z" fill="rgb(70, 50, 79)" height="41.240857770922226px" id="Q69MB_cWZ" transform="translate(56.742 17.733)" width="54.95555331599317px"/><path d="M 0 2.076 C 3.55 -0.341 7.782 -0.619 10.616 1.093" fill="transparent" height="2.0763667125206666px" id="tEZCqYil7" stroke-dasharray="" stroke-linecap="round" stroke-linejoin="round" stroke-width="3.16" stroke="rgb(0, 0, 0)" transform="translate(80.973 63.281)" width="10.61583497757951px"/><path d="M 9.471 0.005 C 5.178 -0.117 1.464 1.93 0 4.9" fill="transparent" height="4.899809737755312px" id="K2FYNN_BP" stroke-dasharray="" stroke-linecap="round" stroke-linejoin="round" stroke-width="3.16" stroke="rgb(0, 0, 0)" transform="translate(106.817 55.018)" width="9.471228699552043px"/><path d="M 0 0 L 7.866 36.109" fill="transparent" height="36.1094529147982px" id="o7KapIYYW" stroke-dasharray="" stroke-linecap="butt" stroke-linejoin="round" stroke-width="2.6" stroke="rgb(184, 186, 224)" transform="translate(232.814 187.302)" width="7.8657578475327625px"/><path d="M 6.404 5.736 L 0.23 34.458 C -0.055 35.781 -0.075 37.148 0.171 38.48 C 0.417 39.812 0.925 41.082 1.665 42.217 C 2.405 43.352 3.363 44.328 4.482 45.091 C 5.602 45.853 6.861 46.386 8.188 46.659 C 10.877 47.218 13.677 46.691 15.98 45.196 C 18.283 43.7 19.903 41.357 20.486 38.673 L 27.935 4.023 C 27.966 3.875 27.968 3.722 27.941 3.572 C 27.913 3.424 27.856 3.281 27.773 3.154 C 27.69 3.027 27.583 2.918 27.458 2.832 C 27.333 2.747 27.192 2.687 27.043 2.656 L 14.999 0.147 C 13.119 -0.236 11.164 0.135 9.556 1.18 C 7.948 2.225 6.816 3.862 6.404 5.736 Z" fill="rgb(2, 1, 3)" height="46.876831272833556px" id="bA9shiO1F" transform="translate(19.318 258.192)" width="27.95999080333209px"/><path d="M 8.58 36.854 L 76.263 20.834 C 78.832 20.227 80.421 17.653 79.813 15.084 L 77.114 3.679 C 76.505 1.111 73.931 -0.478 71.362 0.13 L 3.679 16.149 C 1.111 16.757 -0.478 19.332 0.13 21.901 L 2.829 33.305 C 3.437 35.873 6.012 37.463 8.58 36.854 Z" fill="rgb(95, 238, 144)" height="36.98403058446908px" id="GyrN_pjE1" transform="translate(68.804 124.103)" width="79.94238106286632px"/><path d="M 7.689 0 L 0 35.621" fill="transparent" height="35.62116591928253px" id="gkTVNbgs9" stroke-dasharray="" stroke-linecap="butt" stroke-linejoin="round" stroke-width="2.6" stroke="rgb(184, 186, 224)" transform="translate(52.637 263.885)" width="7.689191031390969px"/><path d="M 12.465 32.518 C 19.348 32.518 24.929 25.238 24.929 16.259 C 24.929 7.28 19.348 0 12.465 0 C 5.581 0 0 7.28 0 16.259 C 0 25.238 5.581 32.518 12.465 32.518 Z" fill="rgb(255, 226, 192)" height="32.517955156950705px" id="a3TAVK9KK" transform="translate(170.898 173.14)" width="24.92921973094073px"/><path d="M 0 10.745 C 0 10.745 29.199 -10.99 49.436 7.366 C 69.673 25.724 46.51 63.611 3.076 60.136" fill="transparent" height="60.35961035355098px" id="HpYuJAcJS" stroke-dasharray="" stroke-linecap="butt" stroke-linejoin="miter" stroke-miterlimit="10" stroke-width="11.71" stroke="rgb(245, 245, 245)" transform="translate(69.467 151.116)" width="56.83769668073137px"/><path d="M 32.427 6.863 C 34.246 10.014 34.738 13.759 33.797 17.274 C 32.855 20.788 30.557 23.785 27.404 25.605 L 20.581 29.544 C 17.43 31.364 13.685 31.857 10.17 30.915 C 6.656 29.973 3.659 27.674 1.839 24.522 C 0.938 22.962 0.353 21.239 0.118 19.453 C -0.117 17.666 0 15.851 0.467 14.11 C 0.933 12.369 1.738 10.738 2.835 9.308 C 3.932 7.878 5.299 6.679 6.86 5.778 L 13.683 1.838 C 15.243 0.937 16.967 0.352 18.754 0.117 C 20.54 -0.118 22.355 0.001 24.095 0.468 C 25.836 0.934 27.467 1.739 28.897 2.837 C 30.327 3.934 31.526 5.302 32.427 6.863 Z" fill="rgb(255, 226, 192)" height="31.382369521371288px" id="Q7TUB7LcV" transform="translate(194.065 99.986)" width="34.26440212958667px"/><path d="M 0 59.808 L 118.145 0" fill="transparent" height="59.80774170403589px" id="blUUkUP2g" stroke-dasharray="" stroke-linecap="butt" stroke-linejoin="miter" stroke-miterlimit="10" stroke-width="29.28" stroke="rgb(80, 90, 205)" transform="translate(90.627 117.425)" width="118.14460627802748px"/><path d="M 19.302 9.896 C 21.839 8.431 22.707 5.188 21.243 2.652 C 19.779 0.116 16.536 -0.753 13.999 0.711 L 2.651 7.263 C 0.116 8.727 -0.753 11.97 0.711 14.507 C 2.176 17.043 5.419 17.912 7.954 16.447 Z" fill="rgb(255, 226, 192)" height="17.158666888302136px" id="JkNbqWewO" transform="translate(209.228 92.671)" width="21.954366074716944px"/><path d="M 0.083 11.467 L 2.535 2.332 C 2.77 1.574 3.27 0.926 3.941 0.505 C 4.613 0.084 5.415 -0.082 6.198 0.038 L 34.218 4.08 C 37.783 4.594 40.357 6.982 39.714 9.373 L 35.802 23.943 C 35.16 26.337 31.735 27.118 28.392 25.782 L 2.104 15.284 C 1.366 14.995 0.756 14.451 0.385 13.751 C 0.014 13.05 -0.094 12.24 0.083 11.467 Z" fill="rgb(94, 239, 144)" height="26.431082378815034px" id="kkpbDMctz" transform="translate(253.617 102.723)" width="39.812588325489855px"/><path d="M 9.797 39.272 L 1.572 34.614 C 0.898 34.197 0.395 33.552 0.155 32.796 C -0.085 32.04 -0.045 31.223 0.267 30.494 L 11.177 4.37 C 12.566 1.047 15.518 -0.848 17.676 0.373 L 30.798 7.805 C 32.954 9.026 32.853 12.538 30.726 15.443 L 13.997 38.269 C 13.533 38.912 12.854 39.367 12.083 39.551 C 11.312 39.735 10.501 39.636 9.797 39.272 Z" fill="rgb(94, 239, 144)" height="39.64130889596879px" id="ZNl9jk_kA" transform="translate(230.222 40.025)" width="32.368757998330864px"/><path d="M 3.918 26.072 L 0.217 17.368 C -0.065 16.626 -0.072 15.809 0.198 15.063 C 0.466 14.317 0.995 13.692 1.686 13.303 L 20.643 1.165 C 23.765 -0.629 27.265 -0.337 28.234 1.945 L 34.14 15.827 C 35.109 18.109 32.895 20.837 29.437 21.845 L 7.863 27.831 C 7.105 28.06 6.288 28.008 5.563 27.685 C 4.84 27.362 4.255 26.79 3.918 26.072 Z" fill="rgb(94, 239, 144)" height="27.97155769705057px" id="NLcFkvnkl" transform="translate(248.208 69.413)" width="34.36860364426485px"/></svg>