<svg display="block" role="presentation" viewBox="0 0 268 308" xmlns="http://www.w3.org/2000/svg"><path d="M 81.897 31.298 C 86.657 29.046 89.408 26.489 91.559 24.492 C 92.593 23.535 93.389 22.79 94.379 22.146 C 96.555 20.724 97.571 18.066 96.776 15.594 L 91.763 0 C 83.685 2.599 79.815 6.179 76.995 8.804 C 74.938 10.717 73.794 11.767 70.246 12.91 C 66.698 14.053 65.156 13.858 62.362 13.502 C 58.543 13.02 53.311 12.351 45.232 14.95 C 37.154 17.55 33.284 21.13 30.464 23.755 C 28.398 25.668 27.263 26.727 23.715 27.861 C 20.167 29.003 18.626 28.809 15.832 28.453 C 12.894 28.081 9.125 27.598 3.858 28.581 C 1.064 29.097 -0.638 31.967 0.226 34.667 L 3.926 46.181 C 4.612 48.314 6.687 49.669 8.922 49.466 C 10.328 49.338 11.521 49.491 13.13 49.694 C 16.949 50.177 22.182 50.846 30.261 48.247 C 38.348 45.648 42.209 42.067 45.029 39.442 C 47.095 37.529 48.23 36.471 51.777 35.328 C 55.326 34.185 56.867 34.38 59.653 34.735 C 63.472 35.217 68.705 35.886 76.783 33.287 C 78.705 32.67 80.399 31.992 81.889 31.29 Z" fill="rgb(241, 90, 36)" height="50.14563243881693px" id="xq4soxsY3" transform="translate(40.167 209.96)" width="97.04522840858364px"/><path d="M 23.488 103.373 C 27.9 101.282 29.789 96.016 27.698 91.605 L 18.391 71.931 C 17.73 70.534 18.205 68.917 19.441 68.333 L 49.315 54.195 C 59.367 49.437 63.186 36.366 57.834 25.055 L 47.859 3.975 C 46.301 0.673 42.643 -0.876 39.713 0.504 L 34.37 3.035 C 31.44 4.424 30.322 8.234 31.889 11.535 L 41.864 32.615 C 42.524 34.012 42.05 35.629 40.814 36.213 L 27.248 42.63 L 19.517 26.613 C 17.942 23.353 14.301 21.821 11.397 23.201 L 6.028 25.8 C 4.614 26.486 3.59 27.747 3.132 29.364 C 2.675 30.973 2.853 32.742 3.615 34.334 L 11.269 50.199 L 10.939 50.36 C 0.889 55.117 -2.931 68.189 2.421 79.499 L 11.727 99.174 C 13.818 103.585 19.086 105.472 23.497 103.381 Z" fill="rgb(107, 74, 61)" height="104.23390393619506px" id="RoOphFTTu" transform="translate(112.522 0.4)" width="60.25507658777826px"/><path d="M 104.381 61.901 C 108.792 59.81 110.68 54.545 108.589 50.134 L 99.282 30.459 C 93.931 19.149 81.399 13.815 71.347 18.573 L 68.307 20.012 L 60.898 4.029 C 60.153 2.429 58.9 1.176 57.367 0.507 C 55.834 -0.162 54.2 -0.17 52.777 0.49 L 47.358 2.987 C 44.454 4.359 43.327 8.152 44.852 11.428 L 52.337 27.564 L 30.109 38.079 C 28.864 38.663 27.315 38.011 26.654 36.605 L 16.679 15.525 C 15.121 12.224 11.463 10.674 8.533 12.054 L 3.19 14.586 C 0.26 15.974 -0.857 19.784 0.709 23.085 L 10.684 44.165 C 16.036 55.476 28.568 60.809 38.619 56.051 L 79.866 36.537 C 81.111 35.954 82.66 36.605 83.321 38.011 L 92.627 57.685 C 94.719 62.096 99.985 63.984 104.397 61.893 Z" fill="rgb(107, 74, 61)" height="62.74561680396744px" id="LaDL5mEyj" transform="translate(0.867 56.424)" width="109.44176900705645px"/><path d="M 9.729 0 C 9.729 0 31.051 4.004 39.468 22.375 C 39.468 22.375 16.554 36.785 15.174 33.863 C 13.794 30.952 0 1.804 0 1.804 Z" fill="rgb(232, 203, 190)" height="34.25429653612261px" id="QIVhclnfo" transform="translate(199.088 194.128)" width="39.46760705289671px"/><path d="M 26.993 10.691 C 29.084 17.608 19.711 26.099 8.457 19.673 C 3.935 17.092 1.505 12.478 0.209 8.6 C -0.629 6.094 1.149 3.461 3.791 3.309 C 6.518 3.148 8.964 2.047 8.964 2.047 C 23.495 -4.666 26.484 7.28 26.484 7.28 Z" fill="rgb(242, 228, 220)" height="21.953298355812024px" id="Yvp8mkcqZ" transform="translate(133.287 285.935)" width="27.2864791234459px"/><path d="M 123.7 206.748 L 125.444 205.918 C 146.884 195.776 157.122 169.667 146.978 148.231 L 103.377 60.169 L 114.783 58.315 L 92.97 31.063 L 81.539 12.752 C 76.272 1.628 62.994 -3.113 51.867 2.144 L 12.755 20.642 C 1.628 25.908 -3.114 39.182 2.145 50.307 L 39.547 129.327 C 45.821 145.64 52.105 161.946 58.379 178.26 C 62.994 190.264 69.015 203.107 79.583 211.158 C 88.796 218.176 100.066 217.194 110.405 213.241 C 115.02 211.479 119.441 209.219 123.708 206.739 Z" fill="rgb(232, 203, 190)" height="216.32424600490995px" id="CfqP3C8ju" transform="translate(84.525 91.638)" width="150.91941048158031px"/><path d="M 30.327 45.124 C 39.779 40.653 42.816 27.254 37.11 15.196 C 31.403 3.138 19.115 -3.012 9.663 1.459 C 0.21 5.93 -2.826 19.33 2.879 31.388 C 8.586 43.446 20.875 49.595 30.327 45.124 Z" fill="rgb(252, 243, 222)" height="46.583283535985856px" id="qWC4MB4pc" transform="translate(181.924 222.907)" width="39.989755743828226px"/><path d="M 21.069 30.021 C 27.972 26.754 30.512 17.648 26.743 9.681 C 22.973 1.714 14.322 -2.097 7.419 1.169 C 0.515 4.435 -2.025 13.541 1.745 21.509 C 5.514 29.475 14.165 33.287 21.069 30.021 Z" fill="rgb(253, 251, 253)" height="31.18977239352685px" id="N7XcQPIFn" transform="translate(115.342 125.935)" width="28.487469678568516px"/><path d="M 5.302 0.832 C 10.261 -1.514 16.499 1.272 19.235 7.054 C 21.971 12.836 20.169 19.424 15.211 21.77 C 10.839 23.837 5.473 21.917 2.389 17.471 C 2.631 17.413 2.872 17.329 3.106 17.218 L 6.313 15.702 C 8.139 14.838 8.919 12.658 8.055 10.831 C 7.191 9.006 5.011 8.226 3.184 9.09 L 0.015 10.589 C -0.194 6.395 1.739 2.518 5.302 0.832 Z" fill="rgb(0, 0, 0)" height="22.60104115348905px" id="MJx6jqhjr" transform="translate(122.936 132.747)" width="20.51294896901549px"/><path d="M 20.501 29.907 C 27.045 26.81 29.294 17.842 25.524 9.875 C 21.755 1.908 13.395 -2.041 6.85 1.055 C 0.307 4.151 -1.942 13.119 1.828 21.087 C 5.597 29.054 13.957 33.002 20.501 29.907 Z" fill="rgb(253, 251, 253)" height="30.961635890607866px" id="vl3ELqmEy" transform="translate(142.661 113.397)" width="27.351876972469682px"/><path d="M 4.896 0.751 C 9.596 -1.473 15.625 1.412 18.361 7.193 C 21.097 12.975 19.505 19.464 14.805 21.688 C 10.77 23.597 5.757 21.742 2.687 17.522 C 2.989 17.564 3.307 17.522 3.604 17.381 L 6.49 16.017 L 6.482 16.02 C 8.258 15.18 9.016 13.061 8.176 11.285 L 8.089 11.102 C 7.249 9.326 5.129 8.568 3.353 9.408 L 2.152 9.976 C 1.208 10.423 0.558 11.239 0.293 12.169 C -0.744 7.322 1.018 2.585 4.896 0.751 Z" fill="rgb(0, 0, 0)" height="22.438471774055056px" id="FANC4oMfD" transform="translate(146.305 121.928)" width="19.69976595577693px"/><path d="M 1.617 12.569 C -2.642 22.135 2.523 30.745 5.52 34.597 C 6.63 36.028 8.467 36.756 10.381 36.51 C 15.428 35.875 25.471 33.412 29.603 23.913 C 33.287 15.456 28.731 6.592 25.886 2.274 C 24.743 0.539 22.584 -0.316 20.399 0.107 C 15.115 1.14 5.36 4.154 1.617 12.569 Z" fill="rgb(232, 203, 190)" height="36.557220326289695px" id="wASbdTzZY" transform="translate(139.686 69.413)" width="30.981051544782844px"/><path d="M 5.558 0 C 5.558 0 -0.386 4.513 0.02 12.022" fill="transparent" height="12.021823677581864px" id="Y23Ge8Ud3" stroke-dasharray="" stroke-linecap="round" stroke-linejoin="round" stroke-width="2.68" stroke="rgb(181, 141, 123)" transform="translate(152.427 81.871)" width="5.55811469089565px"/><path d="M 23.566 0.594 C 33.668 3.371 37.047 12.819 38.13 17.577 C 38.528 19.338 37.927 21.226 36.529 22.547 C 32.838 26.042 24.565 32.249 14.598 29.421 C 5.724 26.897 1.753 17.763 0.22 12.828 C -0.398 10.838 0.313 8.629 2.023 7.215 C 6.173 3.786 14.692 -1.844 23.566 0.594 Z" fill="rgb(232, 203, 190)" height="30.138468605895355px" id="Js8HdPEW7" transform="translate(62.282 109.039)" width="38.25067676512535px"/><path d="M 0 0.286 C 0 0.286 7.257 -1.449 12.812 3.63" fill="transparent" height="3.6298990569206495px" id="TemMLWdP_" stroke-dasharray="" stroke-linecap="round" stroke-linejoin="round" stroke-width="2.68" stroke="rgb(181, 141, 123)" transform="translate(75.187 122.171)" width="12.811647355163643px"/><path d="M 45.567 51.271 L 47.819 50.077 C 48.336 49.807 48.81 49.451 49.225 49.028 C 53.501 44.659 58.362 34.695 66.651 32.968 C 68.607 32.562 70.851 29.353 70.428 27.592 L 66.296 7.629 C 66.236 7.324 66.101 7.054 65.898 6.825 C 64.696 5.454 60.326 0.45 60.114 0.29 C 60.114 0.29 59.809 0.044 59.352 0.027 C 51.206 -0.337 42.823 2.965 37.708 9.128 C 35.99 11.193 35.245 13.428 34.516 15.96 C 34.17 17.162 32.915 17.061 31.849 16.951 C 23.093 16.096 14.066 18.618 7.148 23.841 C 4.701 25.695 2.448 27.778 0.407 30.047 C 0.407 30.047 0.408 30.055 0.4 30.064 C 0.027 30.487 -0.083 31.097 0.061 31.647 C 0.527 33.484 2.017 38.343 2.381 39.376 C 2.415 39.478 2.466 39.58 2.517 39.672 L 13.736 59.237 C 14.609 60.965 18.698 61.066 20.578 59.424 C 28.301 52.677 38.031 52.812 43.763 51.932 C 44.314 51.847 44.855 51.66 45.372 51.389 L 47.625 50.196" fill="rgb(253, 251, 253)" height="60.59639264774398px" id="z3EsHusf3" transform="translate(179.162 191.901)" width="70.48017198190735px"/><path d="M 45.676 52.838 L 47.92 51.61 C 48.428 51.33 48.902 50.967 49.317 50.534 C 53.576 46.081 59.622 35.372 67.887 33.535 C 69.835 33.103 70.867 30.445 70.436 28.675 L 63.763 1.12 C 63.678 0.756 63.5 0.467 63.264 0.272 C 63.264 0.272 62.959 0.036 62.51 0.019 C 54.101 -0.278 48.039 3.066 48.039 3.066 C 42.052 6.369 39.198 13.005 36.819 16.527 C 35.641 18.263 33.541 19.168 31.39 18.906 C 27.428 18.415 21.475 18.398 14.836 21.031 C 14.836 21.031 7.571 23.91 0.517 31.918 C 0.128 32.358 0.034 32.833 0.034 32.833 C -0.042 33.205 0.009 33.594 0.195 33.958 L 13.888 61.219 C 14.76 62.954 18.85 63.005 20.721 61.329 C 28.418 54.429 38.14 54.463 43.855 53.514 C 44.406 53.422 44.948 53.235 45.464 52.948 L 47.708 51.72" fill="rgb(80, 90, 205)" height="62.553589382084226px" id="n1UV4auFf" transform="translate(182.186 199.087)" width="70.5331929067095px"/><path d="M 0 0 L 6.757 18.837" fill="transparent" height="18.83709823677583px" id="xSdEVgSFp" stroke-dasharray="" stroke-linecap="round" stroke-linejoin="round" stroke-width="2.85" stroke="rgb(70, 80, 195)" transform="translate(221.943 223.251)" width="6.757118387909287px"/><path d="M 10.17 18.727 L 14.173 16.833 C 16.262 15.845 17.153 13.352 16.165 11.264 L 11.968 2.395 C 10.98 0.307 8.486 -0.585 6.398 0.403 L 2.395 2.297 C 0.307 3.285 -0.585 5.777 0.403 7.866 L 4.6 16.734 C 5.588 18.823 8.082 19.715 10.17 18.727 Z" fill="rgb(71, 50, 39)" height="19.129374358446597px" id="cI7FI_fH_" transform="translate(240.391 204.76)" width="16.568275709783933px"/><path d="M 62.391 25.829 L 59.198 15.577 C 58.343 12.834 55.431 11.302 52.678 12.157 L 35.42 17.524 C 33.727 18.049 31.932 17.77 30.501 16.779 L 16.004 0 L 0 13.816 L 15.665 31.958 L 16.266 32.475 C 23.278 38.477 32.889 40.459 41.704 37.715 L 58.962 32.348 C 61.705 31.493 63.238 28.581 62.383 25.829 Z" fill="rgb(232, 203, 190)" height="38.92769060758016px" id="vqwGXlqMs" transform="translate(131.769 223.005)" width="62.61962157401561px"/><path d="M 3.58 19.998 C 2.945 17.373 3.47 14.698 4.85 12.421 C 2.589 11.058 0.904 8.941 0.269 6.309 C -0.037 5.048 -0.075 3.778 0.119 2.546 L 7.543 0.237 C 10.295 -0.618 13.208 0.914 14.063 3.657 L 17.255 13.909 L 17.247 13.909 C 18.102 16.661 16.57 19.573 13.826 20.428 L 5.004 23.172 C 4.351 22.228 3.862 21.163 3.58 19.998 Z" fill="rgb(71, 50, 39)" height="23.171696160226674px" id="G6a7IP93T" transform="translate(176.904 234.925)" width="17.484291306558674px"/><path d="M 13.68 59.605 L 92.673 22.241 C 95.661 20.827 96.938 17.258 95.525 14.27 L 90.393 3.427 C 88.979 0.439 85.409 -0.837 82.421 0.576 L 3.428 37.941 C 0.439 39.355 -0.838 42.923 0.577 45.911 L 5.708 56.755 C 7.122 59.743 10.691 61.019 13.68 59.605 Z" fill="rgb(241, 90, 36)" height="60.18186658665019px" id="qpm49YfBT" transform="translate(116.085 171.726)" width="96.10087752134498px"/><path d="M 29.987 54.821 L 47.905 46.347 C 57.625 41.75 61.681 29.949 56.965 19.984 L 52.968 11.544 C 48.251 1.579 36.549 -2.763 26.836 1.834 L 8.919 10.308 C 1.433 13.855 -1.743 22.888 0.942 30.973 C 1.001 31.151 1.077 31.329 1.153 31.498 L 8.681 47.397 C 8.766 47.566 8.85 47.736 8.953 47.896 C 13.5 55.101 22.501 58.378 29.995 54.83 Z" fill="rgb(181, 141, 123)" height="56.26880262517065px" id="zgGlmRlJ0" transform="translate(156.01 136.295)" width="58.93192541209231px"/><path d="M 3.878 7.755 C 6.02 7.755 7.756 6.019 7.756 3.878 C 7.756 1.736 6.02 0 3.878 0 C 1.737 0 0 1.736 0 3.878 C 0 6.019 1.737 7.755 3.878 7.755 Z" fill="rgb(0, 0, 0)" height="7.755204030226679px" id="hhle7kSLa" transform="translate(185.683 147.526)" width="7.75598992443318px"/><path d="M 3.878 7.755 C 6.02 7.755 7.756 6.019 7.756 3.878 C 7.756 1.736 6.02 0 3.878 0 C 1.736 0 0 1.736 0 3.878 C 0 6.019 1.736 7.755 3.878 7.755 Z" fill="rgb(0, 0, 0)" height="7.755204030226679px" id="hUEhfHJBb" transform="translate(174.074 153.012)" width="7.75598992443318px"/><path d="M 0 2.811 C 1 6.595 4.886 8.855 8.671 7.857 C 12.456 6.858 14.81 3.336 13.93 0" fill="transparent" height="8.092851227488921px" id="LLhALs4jR" stroke-dasharray="" stroke-linecap="round" stroke-linejoin="round" stroke-width="2.68" stroke="rgb(0, 0, 0)" transform="translate(176.495 167.158)" width="14.114472987117438px"/><path d="M 73.088 12.151 L 68.771 3.029 C 67.521 0.388 64.365 -0.74 61.724 0.51 L 3.03 28.272 C 0.388 29.522 -0.741 32.677 0.51 35.318 L 4.827 44.44 C 6.076 47.081 9.232 48.21 11.874 46.96 L 70.567 19.197 C 73.209 17.947 74.338 14.793 73.088 12.151 Z" fill="rgb(232, 203, 190)" height="47.469513544033276px" id="jsTJfy5P0" transform="translate(193.321 252.841)" width="73.59731904130234px"/><path d="M 15.174 2.718 L 19.756 12.386 C 20.933 14.875 19.62 17.965 16.817 19.294 L 8.866 23.053 C 7.816 22.274 6.945 21.258 6.36 20.03 C 5.251 17.694 5.386 15.061 6.478 12.741 C 3.989 12.115 1.872 10.549 0.763 8.212 C 0.178 6.985 -0.05 5.664 0.009 4.36 L 7.96 0.602 C 10.763 -0.727 13.989 0.22 15.167 2.709 Z" fill="rgb(71, 50, 39)" height="23.052929974173338px" id="XNQMhSy_S" transform="translate(246.956 252.815)" width="20.187467307516016px"/><path d="M 49.076 3.029 L 53.392 12.151 C 54.642 14.791 53.513 17.947 50.872 19.197 L 20.997 33.328 C 13.32 36.96 4.141 33.677 0.509 26.002 C -0.74 23.361 0.389 20.205 3.03 18.957 L 42.028 0.509 C 44.669 -0.74 47.827 0.389 49.076 3.029 Z" fill="rgb(232, 203, 190)" height="34.80809921786886px" id="yAzrg27J3" transform="translate(172.805 271.857)" width="53.90173613382245px"/><path d="M 15.175 2.718 L 19.756 12.386 C 20.934 14.875 19.62 17.965 16.818 19.294 L 8.867 23.053 C 7.817 22.274 6.944 21.259 6.36 20.031 C 5.25 17.694 5.386 15.061 6.479 12.742 C 3.989 12.116 1.872 10.549 0.763 8.212 C 0.178 6.985 -0.051 5.664 0.009 4.36 L 7.96 0.602 C 10.763 -0.727 13.989 0.22 15.167 2.709 Z" fill="rgb(71, 50, 39)" height="23.05292997417331px" id="cYUSTEbQN" transform="translate(206.75 271.829)" width="20.188004189547087px"/><path d="M 4.92 0.745 C 3.227 1.27 1.431 0.99 0 0" fill="transparent" height="1.0052470766228225px" id="zR_XM3Q_O" stroke-dasharray="" stroke-linecap="round" stroke-linejoin="round" stroke-width="2.68" stroke="rgb(193, 157, 143)" transform="translate(162.278 239.794)" width="4.920483627204021px"/><path d="M 0 0 L 0.601 0.516 C 7.612 6.518 17.224 8.499 26.038 5.757" fill="transparent" height="6.968810550663477px" id="Eih8txPmD" stroke-dasharray="" stroke-linecap="round" stroke-linejoin="round" stroke-width="2.68" stroke="rgb(193, 157, 143)" transform="translate(147.443 254.966)" width="26.038246851385452px"/><path d="M 22.491 9.016 L 14.302 11.607 C 12.608 12.131 10.814 11.852 9.383 10.862 L 0 0" fill="transparent" height="11.866741620108115px" id="lgIBu2RpV" stroke-dasharray="" stroke-linecap="round" stroke-linejoin="round" stroke-width="2.68" stroke="rgb(193, 157, 143)" transform="translate(152.887 228.933)" width="22.490720403022607px"/><path d="M 0 0 L 10.889 12.606 L 11.491 13.122 C 18.502 19.124 28.113 21.105 36.928 18.362 L 43.296 16.398" fill="transparent" height="19.57455362371124px" id="szTzNZhrW" stroke-dasharray="" stroke-linecap="round" stroke-linejoin="round" stroke-width="2.68" stroke="rgb(193, 157, 143)" transform="translate(136.553 242.361)" width="43.29569773299741px"/></svg>