<svg display="block" role="presentation" viewBox="0 0 312 305" xmlns="http://www.w3.org/2000/svg"><path d="M 8.481 8.644 C 8.481 8.644 8.524 8.717 8.815 8.456 C 9.481 7.79 9.857 6.906 9.872 5.761 C 9.844 4.689 9.51 3.965 9.061 3.342 C 8.886 3.11 8.873 3.11 8.959 3.125 C 11.596 4.298 15.074 5.443 18.016 6.848 C 33.463 13.048 43.257 28.289 44.735 44.702 C 45.287 49.903 45.184 54.771 45.402 59.045 C 45.387 72.445 53.068 79.253 63.818 85.555 C 67.369 87.612 68.557 92.191 66.442 95.725 C 64.413 99.1 60.109 100.273 56.661 98.463 C 49.864 94.841 42.838 90.046 37.969 83.585 C 32.622 76.922 30.405 67.939 30.317 59.653 C 30.086 50.555 30.854 42.747 27.521 34.736 C 26.101 31.215 23.986 27.897 21.623 24.898 C 17.884 20.378 12.06 16.917 6.597 13.787 C 5.134 12.875 3.032 11.774 1.511 10.006 C -0.517 7.848 -0.561 3.864 1.729 1.792 C 5.047 -1.859 10.612 0.445 9.495 5.312 L 8.481 8.659 Z" fill="rgb(235, 118, 35)" height="99.31002666732893px" id="n_hVbF9l8" transform="translate(219.667 117.819)" width="67.49101984694778px"/><path d="M 16.154 1.621 C 31.021 10.516 48.801 14.254 65.799 11.139 C 71.464 10.111 77.014 8.488 82.332 6.315 C 89.519 3.403 97.706 6.866 100.617 14.051 C 102.502 19.571 101.662 26.003 101.952 31.813 C 101.923 39.389 95.764 45.516 88.186 45.488 C 81.202 45.459 75.464 40.228 74.623 33.492 C 74.072 29.132 73.667 24.771 73.334 20.396 L 93.054 32.566 C 78.304 39.099 61.64 41.041 45.758 38.418 C 30.065 35.883 15.285 28.944 3.491 18.397 C -5.797 9.531 5.186 -4.869 16.154 1.636 Z" fill="rgb(0, 0, 0)" height="45.48821275159696px" id="xVTxq7f_J" transform="translate(209.168 102.099)" width="101.9515294739534px"/><path d="M 44.383 55.824 C 45.181 55.041 45.427 54.476 45.571 53.52 C 46.542 47.711 43.427 40.656 39.283 36.093 C 32.762 28.617 24.068 28.081 14.997 29.153 C 7.346 29.762 0.652 24.039 0.043 16.39 C -0.478 9.741 3.782 3.801 9.94 1.976 C 17.098 -0.24 25.401 -0.661 32.921 1.063 C 53.7 5.887 68.465 26.039 68.06 47.247 C 68.075 57.939 61.612 70.296 50.135 72.933 C 41.862 75.308 35.718 65.168 41.485 58.953 Z" fill="rgb(0, 0, 0)" height="73.2865480516413px" id="FLVvBGbG9" transform="translate(94.665 61.573)" width="68.06835949070307px"/><path d="M 2.376 10.774 C 15.65 -6.799 42.689 -0.699 56.091 13.527 C 73.35 30.925 67.206 58.973 46.079 70.069 C 35.212 75.53 24.59 76.182 13.331 74.343 C 12.36 74.183 11.201 73.923 10.129 73.647 C 10.796 73.806 8.173 73.227 6.898 72.488 C 5.334 71.72 3.768 70.518 2.565 69.127 C 1.348 67.737 0.507 66.201 0 64.839 C 4.115 37.372 11.173 50.077 7.999 46.934 C 8.085 46.889 8.318 46.818 8.419 46.789 C 26.242 40.893 35.473 65.752 18.302 72.967 L 18.157 73.038 C 18.157 73.038 18.113 73.053 18.186 73.038 L 18.317 72.995 C 15.128 69.866 22.156 82.572 26.271 55.118 C 25.285 52.134 22.46 48.874 19.489 47.484 C 18.244 46.746 15.635 46.181 16.317 46.339 C 17.243 46.339 18.824 46.542 19.983 46.557 C 25.546 46.716 31.836 46.239 35.965 43.152 C 40.413 39.458 41.543 34.606 37.791 29.622 C 33.922 24.247 25.634 19.525 19.012 20.901 C 17.635 21.176 16.317 22.161 15.215 23.089 C 6.926 29.419 -3.564 19.206 2.348 10.789 Z" fill="rgb(0, 0, 0)" height="75.26741070060294px" id="LW6H_Tc6s" transform="translate(164.942 154.936)" width="66.10778556615884px"/><path d="M 11.199 100.321 C -1.088 79.46 -3.262 53.239 4.665 30.408 C 7.287 22.686 11.084 15.385 15.924 8.736 L 23.662 30.596 C 19.502 29.379 15.359 28.076 11.257 26.641 C -4.754 20.499 1.854 -2.781 18.619 0.275 C 22.864 1.173 27.095 2.202 31.283 3.317 C 38.774 5.302 43.237 12.98 41.267 20.484 C 40.803 22.237 40.035 23.787 39.02 25.193 C 35.847 29.828 33.167 34.87 31.022 40.129 C 24.357 56.31 24.313 74.709 30.153 91.238 C 34.354 103.378 17.995 111.158 11.214 100.336 Z" fill="rgb(0, 0, 0)" height="105.48466487279396px" id="zRVQ5Hxrd" transform="translate(189.2 0.384)" width="41.73241749756471px"/><path d="M 0 50.093 L 30.329 22.076 C 54.571 -0.379 88.491 -14.388 109.546 23.988 C 129.948 61.147 100.954 84.152 69.35 93.177 L 29.285 103.449" fill="rgb(255, 206, 153)" height="103.4485423676673px" id="l2Wz9DFc5" transform="translate(133.759 72.331)" width="116.35384939084528px"/><path d="M 41.719 48.479 C 55.535 40.028 60.757 23.406 53.381 11.353 C 46.005 -0.7 28.825 -3.618 15.009 4.833 C 1.192 13.285 -4.028 29.906 3.347 41.959 C 10.723 54.012 27.902 56.931 41.719 48.479 Z" fill="rgb(253, 251, 253)" height="53.312583838478304px" id="YNsM9G5Vj" transform="translate(170.933 94.198)" width="56.72844301327916px"/><path d="M 46.543 92.233 C 35.603 100.157 20.228 96.55 14.084 84.511 C 9.81 76.123 5.709 65.838 3.057 53.495 C 0.623 42.209 -0.116 31.548 0.014 22.159 C 0.217 8.006 13.186 -2.454 26.879 0.502 C 41.355 3.647 55.83 6.789 70.306 9.919 C 83.406 12.758 90.955 26.636 86.347 39.371 C 83.144 48.222 78.276 58.218 70.872 68.2 C 63.047 78.746 54.41 86.539 46.543 92.218 Z" fill="rgb(235, 118, 35)" height="96.45213920505427px" id="A514EkPw9" transform="translate(88.071 208.058)" width="87.7058624898583px"/><path d="M 5.775 44.982 C 3.674 40.694 0.791 33.407 0.139 23.933 C -0.614 13.198 1.849 4.68 3.587 0" fill="transparent" height="44.98179310344818px" id="OP_H2tDjW" stroke-dasharray="" stroke-linecap="round" stroke-linejoin="round" stroke-width="4.45" stroke="rgb(186, 93, 28)" transform="translate(117.275 231.433)" width="5.774992632800064px"/><path d="M 3.912 42.798 C -3.695 54.011 0.173 69.468 12.215 75.422 C 20.605 79.565 30.863 83.492 43.137 85.925 C 54.352 88.156 64.93 88.678 74.203 88.359 C 88.201 87.867 98.301 74.553 95.084 60.79 C 91.679 46.231 88.273 31.672 84.868 17.128 C 81.782 3.959 67.9 -3.386 55.395 1.54 C 46.701 4.958 36.906 10.073 27.183 17.765 C 16.91 25.877 9.375 34.772 3.912 42.827 Z" fill="rgb(235, 118, 35)" height="88.44474466103384px" id="rfZRH1_kI" transform="translate(0.986 129.14)" width="95.68444811955435px"/><path d="M 0 0 C 4.289 2.029 11.563 4.796 20.953 5.26 C 31.603 5.795 39.979 3.129 44.572 1.29" fill="transparent" height="5.329312413708266px" id="SVFRmGFSZ" stroke-dasharray="" stroke-linecap="round" stroke-linejoin="round" stroke-width="4.45" stroke="rgb(186, 93, 28)" transform="translate(28.763 183.125)" width="44.572158620689564px"/><path d="M 8.175 25.372 C 27.795 -4.196 63.02 -15.292 112.011 33.195 C 158.683 79.379 150.758 117.479 121.894 137.906 C 97.073 155.464 56.948 145.831 29.301 118.48 C 1.654 91.128 -8.706 50.81 8.16 25.372 Z" fill="rgb(255, 206, 153)" height="146.75807874722793px" id="WJhw89toK" transform="translate(52.293 105.495)" width="145.2834956010804px"/><path d="M 2.942 3.121 C 6.912 -0.965 13.389 -1.051 17.418 2.933 C 21.446 6.917 21.504 13.465 17.534 17.55 C 13.564 21.635 7.086 21.723 3.058 17.739 C -0.97 13.754 -1.029 7.206 2.942 3.121 Z" fill="rgb(253, 251, 253)" height="20.671093676227088px" id="UJZH2xiYA" transform="translate(130.962 164.24)" width="20.475388868156415px"/><path d="M 2.942 3.121 C 6.912 -0.964 13.39 -1.052 17.418 2.933 C 21.447 6.916 21.504 13.464 17.535 17.55 C 13.564 21.636 7.086 21.722 3.058 17.738 C -0.97 13.754 -1.029 7.206 2.942 3.121 Z" fill="rgb(253, 251, 253)" height="20.670916789161197px" id="Fkfqrr2ke" transform="translate(119.283 152.676)" width="20.476033091883636px"/><path d="M 0.499 0 C -1.022 3.174 1.049 8.475 5.135 11.836" fill="transparent" height="11.835827586206875px" id="EizjCdREv" stroke-dasharray="" stroke-linecap="round" stroke-linejoin="round" stroke-width="3.84" stroke="rgb(0, 0, 0)" transform="translate(82.167 189.349)" width="5.134568284303214px"/><path d="M 10.65 6.809 C 7.289 7.735 2.521 4.693 0 0" fill="transparent" height="6.975005603916117px" id="SN8Fu7F87" stroke-dasharray="" stroke-linecap="round" stroke-linejoin="round" stroke-width="3.84" stroke="rgb(0, 0, 0)" transform="translate(103.982 215.935)" width="10.650496551724359px"/><path d="M 1.85 1.96 C 4.342 -0.604 8.413 -0.662 10.934 1.843 C 13.47 4.35 13.499 8.464 11.007 11.028 C 8.515 13.593 4.443 13.651 1.922 11.144 C -0.614 8.639 -0.643 4.524 1.85 1.96 Z" fill="rgb(0, 0, 0)" height="12.988625779630723px" id="ZtkXU9EB5" transform="translate(123.462 167.951)" width="12.856163960082156px"/><path d="M 36.946 37.544 C 44.332 30.368 43.134 17.154 34.269 8.028 C 25.404 -1.098 12.229 -2.678 4.842 4.498 C -2.544 11.672 -1.346 24.888 7.519 34.013 C 16.385 43.139 29.559 44.72 36.946 37.544 Z" fill="rgb(253, 251, 253)" height="42.041477217935125px" id="fE34RPZYy" transform="translate(74.631 144.39)" width="41.78819348303978px"/><path d="M 26.644 24.547 C 32.038 17.836 31.248 8.249 24.88 3.132 C 18.511 -1.987 8.975 -0.696 3.581 6.015 C -1.813 12.724 -1.024 22.313 5.345 27.43 C 11.714 32.548 21.25 31.257 26.644 24.547 Z" fill="rgb(0, 0, 0)" height="30.561719170754913px" id="MUVewBjo_" transform="translate(84.844 154.902)" width="30.224944971133453px"/><path d="M 8.298 1.401 L 12.848 5.908 C 14.775 7.806 14.789 10.935 12.905 12.876 C 11.007 14.831 7.921 14.861 6.008 12.963 L 1.458 8.458 C -0.469 6.559 -0.483 3.431 1.4 1.489 C 3.298 -0.466 6.385 -0.496 8.298 1.401 Z" fill="rgb(253, 251, 253)" height="14.364433405124004px" id="WlfUKXOHN" transform="translate(86.019 153.789)" width="14.3058744952328px"/><path d="M 15.491 0 L 58.888 42.954 L 43.398 58.918 L 0 15.979 Z" fill="rgb(255, 206, 153)" height="58.91824137931033px" id="zA58zDrlu" transform="translate(59.105 145.095)" width="58.88825172413802px"/><path d="M 36.946 37.544 C 44.333 30.368 43.134 17.154 34.269 8.028 C 25.403 -1.098 12.229 -2.678 4.842 4.498 C -2.544 11.672 -1.346 24.888 7.519 34.014 C 16.385 43.14 29.559 44.72 36.946 37.544 Z" fill="rgb(253, 251, 253)" height="42.04199368328892px" id="E7aVsFr8S" transform="translate(118.563 187.85)" width="41.78841959453908px"/><path d="M 26.647 24.543 C 32.04 17.831 31.246 8.244 24.876 3.128 C 18.505 -1.988 8.97 -0.693 3.578 6.019 C -1.814 12.731 -1.022 22.32 5.349 27.434 C 11.719 32.55 21.255 31.255 26.647 24.543 Z" fill="rgb(0, 0, 0)" height="30.562328529096504px" id="hsoUZSirI" transform="translate(119.151 188.852)" width="30.224746548254856px"/><path d="M 12.858 5.914 L 7.613 0.729 C 6.613 -0.257 5.019 -0.242 4.033 0.772 L 0.73 4.175 C -0.255 5.189 -0.241 6.798 0.759 7.784 L 6.005 12.969 C 7.83 14.766 10.757 14.736 12.554 12.883 L 12.901 12.52 C 14.699 10.665 14.669 7.711 12.843 5.914 Z" fill="rgb(253, 251, 253)" height="14.295177070288162px" id="rlJIU4o_V" transform="translate(122.031 189.417)" width="14.231387301612202px"/><path d="M 58.889 42.939 L 15.504 0 L 0 15.964 L 43.398 58.918 Z" fill="rgb(255, 206, 153)" height="58.91824137931036px" id="s0XMvyVMT" transform="translate(100.838 186.411)" width="58.88878965517236px"/><path d="M 0 0 C 1.724 2.158 4.361 5.055 8.027 7.823 C 13.533 11.98 18.634 13.806 21.59 14.632" fill="transparent" height="14.63172413793103px" id="ky9ANkcPN" stroke-dasharray="" stroke-linecap="round" stroke-linejoin="round" stroke-width="3.84" stroke="rgb(0, 0, 0)" transform="translate(178.549 220.495)" width="21.58986206896563px"/><path d="M 0 0 C 2.145 1.767 5.289 4.028 9.317 5.882 C 15.374 8.663 20.46 9.17 23.329 9.228" fill="transparent" height="9.22820689655174px" id="q6HMfoVA5" stroke-dasharray="" stroke-linecap="round" stroke-linejoin="round" stroke-width="3.84" stroke="rgb(0, 0, 0)" transform="translate(181.606 207.297)" width="23.328724137931317px"/><path d="M 14.925 21.513 C 12.751 19.804 9.839 17.21 7.028 13.56 C 2.797 8.084 0.884 2.97 0 0" fill="transparent" height="21.513072413793097px" id="Pd1iAyOdK" stroke-dasharray="" stroke-linecap="round" stroke-linejoin="round" stroke-width="3.84" stroke="rgb(0, 0, 0)" transform="translate(68.032 104.401)" width="14.92462758620691px"/><path d="M 9.608 23.367 C 7.825 21.238 5.521 18.109 3.594 14.081 C 0.71 8.026 0.116 2.897 0 0" fill="transparent" height="23.367186206896548px" id="J1zbJ3LCO" stroke-dasharray="" stroke-linecap="round" stroke-linejoin="round" stroke-width="3.84" stroke="rgb(0, 0, 0)" transform="translate(86.361 99.199)" width="9.607582758620666px"/><path d="M 34.704 34.333 L 0 0" fill="transparent" height="34.333448275862054px" id="sr3sXMhVZ" stroke-dasharray="" stroke-linecap="round" stroke-linejoin="round" stroke-width="3.84" stroke="rgb(0, 0, 0)" transform="translate(76.813 147.296)" width="34.704217241379155px"/><path d="M 33.081 32.74 L 0 0" fill="transparent" height="32.7398275862069px" id="SZcneaVAC" stroke-dasharray="" stroke-linecap="round" stroke-linejoin="round" stroke-width="3.84" stroke="rgb(0, 0, 0)" transform="translate(122.442 192.452)" width="33.080606896551515px"/><path d="M 24.836 0.941 C 27.487 2.694 28.227 6.315 26.488 9.01 L 10.578 33.551 C 8.839 36.245 5.245 37.013 2.593 35.26 C -0.059 33.507 -0.798 29.886 0.941 27.191 L 16.851 2.65 C 18.59 -0.044 22.184 -0.812 24.836 0.941 Z" fill="rgb(80, 90, 205)" height="36.20110818155854px" id="Jr4mKDfi6" transform="translate(90.463 70.821)" width="27.428944780419585px"/><g opacity="0.51"><path d="M 9.147 4.901 C 19.362 -3.038 33.968 -1.126 41.779 9.145 C 49.589 19.417 47.633 34.193 37.418 42.131 C 27.202 50.071 12.596 48.159 4.786 37.887 C -3.025 27.602 -1.069 12.839 9.147 4.901 Z" fill="rgb(253, 251, 253)" height="47.03277369817856px" id="tGJnVuLFm" transform="translate(58.377 100.414)" width="46.56433564522148px"/></g><path d="M 13.904 57.233 C 28.133 66.606 47.232 62.52 56.578 48.107 C 65.924 33.692 61.968 14.41 47.739 5.037 C 33.509 -4.336 14.411 -0.251 5.065 14.163 C -4.281 28.578 -0.325 47.86 13.904 57.233 Z M 41.841 14.149 C 51.1 20.248 53.665 32.793 47.594 42.181 C 41.508 51.555 29.075 54.22 19.83 48.12 C 10.571 42.021 8.007 29.476 14.078 20.089 C 20.164 10.716 32.596 8.05 41.841 14.149 Z" fill="rgb(80, 90, 205)" height="62.269504873074645px" id="YDSY3N0Rb" transform="translate(50.171 93.527)" width="61.64272569259781px"/></svg>