<svg display="block" role="presentation" viewBox="0 0 120 168" xmlns="http://www.w3.org/2000/svg"><path d="M 29.574 24.716 C 27.163 24.716 24.504 24.179 21.536 22.804 C 17.194 20.793 12.802 16.331 8.927 12.406 C 7.473 10.932 5.591 9.03 4.435 8.084 C 3.579 8.214 2.672 8.054 1.876 7.576 C 0.043 6.481 -0.545 4.1 0.551 2.278 C 1.308 1.023 2.563 0.206 3.997 0.036 C 7.194 -0.342 9.764 2.257 14.435 6.988 C 17.682 10.285 21.725 14.378 24.793 15.803 C 30.331 18.373 33.468 16.42 37.8 13.712 C 42.87 10.545 49.812 6.212 60.13 13.154 C 61.903 14.349 62.372 16.749 61.177 18.512 C 59.981 20.275 57.581 20.753 55.818 19.558 C 49.663 15.414 46.734 17.238 41.894 20.265 C 38.717 22.247 34.743 24.727 29.574 24.727 Z" fill="rgb(235, 118, 35)" height="24.72652868058509px" id="JXPYquv2T" transform="translate(57.383 117.111)" width="61.83811674208465px"/><path d="M 18.017 0 C 12.021 0.647 6.016 1.086 0 0.847 C 1.036 5.767 5.099 9.522 9.412 12.39 C 9.671 12.569 9.88 12.739 10.039 12.878 C 10.527 15.986 13.007 18.545 16.284 18.974 C 24.74 19.73 26.712 9.821 22.37 4.203 C 20.975 2.321 19.501 1.096 18.017 0.01 Z" fill="rgb(0, 0, 0)" height="19.01468049223277px" id="pPXRBYNjf" transform="translate(17.746 103.961)" width="24.602471911324244px"/><path d="M 19.894 5.121 C 20.551 15.428 20.751 25.747 20.83 36.065 C 20.84 39.502 20.83 42.937 20.731 46.374 C 20.631 50.009 17.942 52.967 14.486 53.535 C 12.225 53.904 9.954 54.213 7.654 54.351 C 3.68 54.6 0.263 51.573 0.014 47.599 C -0.205 44.113 2.106 41.045 5.373 40.189 C 7.594 39.601 9.835 39.183 12.096 38.824 L 5.831 45.985 C 6.02 39.113 6.478 32.251 6.976 25.399 C 7.474 18.536 8.082 11.674 8.899 4.832 C 9.825 -1.802 19.356 -1.513 19.904 5.131 Z" fill="rgb(0, 0, 0)" height="54.36565491341989px" id="JfBUclYRH" transform="translate(36.715 112.704)" width="20.833376449616324px"/><path d="M 28.489 0.961 C 27.483 1.728 26.975 2.146 25.72 3.072 C 24.226 4.178 19.415 6.907 17.742 7.903 C 10.88 12.185 3.689 16.189 0.651 24.745 C -1.938 33.021 3.629 38.778 9.685 42.792 C 9.944 42.971 10.153 43.14 10.312 43.28 C 10.8 46.387 13.28 48.947 16.557 49.375 C 25.013 50.132 26.985 40.222 22.642 34.605 C 20.073 31.129 17.234 29.874 14.495 27.663 C 15.332 25.611 17.862 23.181 19.625 21.557 C 24.784 16.677 31.258 13.201 35.291 6.956 C 37.801 2.644 32.523 -2.077 28.509 0.971 Z" fill="rgb(0, 0, 0)" height="49.41630394839733px" id="TD9PF3vGW" transform="translate(17.483 73.549)" width="35.94239503594301px"/><path d="M 25.609 15.341 C 24.982 17.035 24.294 18.678 23.567 20.072 C 22.85 21.417 22.133 22.433 21.346 23.22 C 18 15.571 13.717 8.27 8.488 1.786 C 4.923 -2.516 -1.84 1.667 0.471 6.796 C 2.253 10.551 3.877 14.345 5.311 18.18 C 6.566 21.497 7.682 24.873 8.648 28.279 C 9.773 32.014 12.512 35.749 16.486 37.392 C 28.288 42.014 37.71 29.494 39.573 19.445 C 41.256 10.591 29.015 6.935 25.599 15.332 Z" fill="rgb(0, 0, 0)" height="38.38150656940857px" id="HpvKjSyVt" transform="translate(65.561 73.649)" width="39.73072825992561px"/><path d="M 11.93 4.845 C 13.484 18.52 14.509 32.244 14.997 45.998 L 8.733 38.838 C 10.994 39.196 13.235 39.625 15.456 40.202 C 19.3 41.218 21.601 45.162 20.585 49.007 C 19.689 52.382 16.541 54.564 13.175 54.365 C 10.884 54.226 8.613 53.917 6.362 53.548 C 2.767 52.971 0.187 49.903 0.098 46.387 C -0.171 32.633 0.118 18.868 0.934 5.134 C 1.502 -1.549 11.033 -1.769 11.94 4.835 Z" fill="rgb(0, 0, 0)" height="54.3771833096483px" id="AA4avTL_W" transform="translate(60.306 112.691)" width="20.82505457667176px"/><path d="M 38.972 0 L 43.952 21.005 C 47.965 37.807 45.635 56.93 22.727 56.93 C 0.537 56.93 -2.511 37.807 1.503 21.005 L 7.11 0" fill="rgb(255, 206, 153)" height="56.92956241610737px" id="MvK4oFX5c" transform="translate(36.112 77.965)" width="45.55011205216911px"/><path d="M 13.396 30.755 C 20.794 30.755 26.792 23.871 26.792 15.378 C 26.792 6.885 20.794 0 13.396 0 C 5.998 0 0 6.885 0 15.378 C 0 23.871 5.998 30.755 13.396 30.755 Z" fill="rgb(255, 255, 255)" height="30.755275167785243px" id="lQD_eAf4H" transform="translate(45.494 93.105)" width="26.79182818791972px"/><path d="M 0.007 11.474 C 0.127 4.402 6.471 -0.976 13.453 0.149 C 18.313 0.936 23.911 2.39 29.936 5.089 C 35.434 7.549 40.145 10.537 44.04 13.495 C 49.916 17.957 50.225 26.672 44.677 31.533 C 38.811 36.672 32.934 41.821 27.068 46.96 C 21.76 51.611 13.563 50.516 9.668 44.62 C 6.959 40.526 4.3 35.377 2.438 29.172 C 0.476 22.609 -0.072 16.553 0.007 11.474 Z" fill="rgb(235, 118, 35)" height="49.84963259865875px" id="RotbNdUuy" transform="translate(0.389 11.514)" width="48.64951836286702px"/><path d="M 20.734 15.325 C 20.355 15.325 19.977 15.136 19.758 14.798 C 17.537 11.391 14.569 8.443 11.152 6.282 C 8.035 4.31 4.609 2.965 0.964 2.318 C 0.326 2.199 -0.092 1.601 0.017 0.964 C 0.137 0.326 0.725 -0.092 1.372 0.017 C 5.316 0.724 9.021 2.169 12.397 4.31 C 16.093 6.651 19.309 9.838 21.71 13.523 C 22.058 14.061 21.909 14.788 21.371 15.136 C 21.172 15.266 20.953 15.325 20.734 15.325 Z" fill="rgb(186, 93, 28)" height="15.325496143125974px" id="bWZal0MWe" transform="translate(12.878 24.335)" width="21.897831416257333px"/><path d="M 43.288 7.871 C 40.978 1.188 33.279 -1.959 26.994 1.288 C 22.612 3.549 17.742 6.666 12.861 11.098 C 8.399 15.142 4.854 19.454 2.075 23.468 C -2.118 29.534 0.292 37.92 7.075 40.818 C 14.256 43.886 21.427 46.943 28.608 50.011 C 35.101 52.78 42.551 49.194 44.414 42.382 C 45.709 37.651 46.645 31.934 46.485 25.45 C 46.306 18.598 44.952 12.672 43.288 7.871 Z" fill="rgb(235, 118, 35)" height="50.95110142724758px" id="mnfPnilFs" transform="translate(51.746 0.047)" width="46.503023606192045px"/><path d="M 1.166 20.757 C 1.066 20.757 0.967 20.747 0.867 20.717 C 0.25 20.548 -0.129 19.91 0.04 19.293 C 1.176 15.05 3.247 11.016 6.026 7.65 C 8.566 4.572 11.644 2.043 15.169 0.14 C 15.737 -0.168 16.444 0.051 16.753 0.618 C 17.062 1.186 16.843 1.893 16.275 2.202 C 13.018 3.955 10.17 6.295 7.829 9.134 C 5.259 12.251 3.347 15.976 2.291 19.901 C 2.152 20.418 1.684 20.767 1.166 20.767 Z" fill="rgb(186, 93, 28)" height="20.767036870560467px" id="wn4hJtwnG" transform="translate(67.116 13.386)" width="16.893271770457076px"/><path d="M 82.979 20.566 C 89.213 37.995 82.789 56.301 47.044 61.998 C 12.991 67.416 -0.494 52.278 0.014 33.782 C 0.452 17.867 17.115 3.903 37.283 0.696 C 57.452 -2.511 77.62 5.576 82.989 20.576 Z" fill="rgb(255, 206, 153)" height="63.11243572113297px" id="m30o31s73" transform="translate(11.806 23.536)" width="85.079033012652px"/><path d="M 10.031 8.125 C 11.542 5.562 10.689 2.259 8.125 0.747 C 5.562 -0.764 2.259 0.089 0.747 2.653 C -0.764 5.216 0.089 8.52 2.653 10.031 C 5.216 11.542 8.52 10.689 10.031 8.125 Z" fill="rgb(255, 255, 255)" height="10.778191395931238px" id="Ny4TA1evY" transform="translate(45.655 59.339)" width="10.778191395929738px"/><path d="M 10.031 8.125 C 11.542 5.562 10.689 2.259 8.125 0.747 C 5.562 -0.764 2.259 0.089 0.747 2.653 C -0.764 5.216 0.089 8.52 2.653 10.031 C 5.216 11.542 8.52 10.689 10.031 8.125 Z" fill="rgb(255, 255, 255)" height="10.778187152050933px" id="N7HyPEcVy" transform="translate(54.178 57.974)" width="10.7782124099095px"/><path d="M 3.386 6.773 C 5.256 6.773 6.773 5.257 6.773 3.386 C 6.773 1.516 5.256 0 3.386 0 C 1.516 0 0 1.516 0 3.386 C 0 5.257 1.516 6.773 3.386 6.773 Z" fill="rgb(0, 0, 0)" height="6.772655033557051px" id="NPcmRwYV_" transform="translate(51.281 56.542)" width="6.772542281879893px"/><path d="M 0.999 4.094 C 0.73 4.094 0.461 3.985 0.272 3.776 C -0.107 3.367 -0.087 2.74 0.312 2.352 C 2.692 0.111 6.068 -0.656 7.991 0.609 C 8.459 0.917 8.588 1.535 8.28 2.003 C 7.981 2.471 7.353 2.601 6.885 2.292 C 5.889 1.634 3.509 2.102 1.686 3.816 C 1.487 3.995 1.248 4.094 0.999 4.094 Z" fill="rgb(0, 0, 0)" height="4.094465779311719px" id="qB326BQXm" transform="translate(55.839 32.25)" width="8.44727118327306px"/><path d="M 1.008 3.228 C 0.789 3.228 0.57 3.158 0.381 3.009 C -0.057 2.66 -0.127 2.033 0.222 1.594 C 1.666 -0.208 5.102 -0.527 8.07 0.867 C 8.568 1.106 8.787 1.704 8.548 2.202 C 8.309 2.7 7.711 2.919 7.213 2.68 C 4.952 1.614 2.542 1.913 1.795 2.849 C 1.596 3.098 1.307 3.228 1.008 3.228 Z" fill="rgb(0, 0, 0)" height="3.22773677577824px" id="fm0wrVQ0_" transform="translate(37.991 35.347)" width="8.64500508742529px"/><path d="M 13.582 19.427 C 20.182 18.376 24.846 13.217 24 7.904 C 23.154 2.592 17.118 -0.863 10.518 0.188 C 3.917 1.24 -0.747 6.399 0.099 11.711 C 0.945 17.024 6.982 20.478 13.582 19.427 Z" fill="rgb(255, 255, 255)" height="19.61558540220019px" id="JrQHEQC2z" transform="translate(57.338 38.392)" width="24.099261075241046px"/><path d="M 0.107 9.36 C -0.6 4.916 2.262 0.767 6.499 0.093 C 10.205 -0.496 13.735 1.767 15.036 5.316 C 14.961 5.321 14.886 5.33 14.81 5.342 L 11.495 5.87 C 10.094 6.093 9.139 7.41 9.362 8.812 C 9.585 10.213 10.902 11.169 12.304 10.945 L 15.265 10.474 C 14.469 13.393 12.124 15.697 9.06 16.185 C 4.822 16.859 0.814 13.803 0.107 9.36 Z" fill="rgb(0, 0, 0)" height="16.278184592051726px" id="Ks5qj3tgu" transform="translate(65.554 39.352)" width="15.264752766834587px"/><path d="M 28.868 0 L 0 4.598 L 1.83 16.086 L 30.698 11.488 Z" fill="rgb(255, 206, 153)" height="16.086281879194622px" id="py_b2k6op" transform="translate(53.682 34.17)" width="30.697884563758237px"/><path d="M 1.009 6.046 C 0.521 6.046 0.093 5.698 0.013 5.2 C -0.076 4.652 0.302 4.134 0.85 4.045 L 26.167 0.011 C 26.725 -0.069 27.233 0.3 27.323 0.847 C 27.412 1.395 27.034 1.913 26.486 2.003 L 1.169 6.037 C 1.119 6.037 1.059 6.046 1.009 6.046 Z" fill="rgb(0, 0, 0)" height="6.046428100800199px" id="zaFNBR1gZ" transform="translate(56.426 44.908)" width="27.335991744004758px"/><path d="M 13.582 19.427 C 20.182 18.376 24.846 13.217 24 7.904 C 23.154 2.592 17.118 -0.863 10.518 0.188 C 3.917 1.24 -0.747 6.399 0.099 11.711 C 0.945 17.024 6.982 20.478 13.582 19.427 Z" fill="rgb(255, 255, 255)" height="19.61555378780718px" id="FoExTJdME" transform="translate(25.284 43.5)" width="24.099262954578407px"/><path d="M 0.108 9.361 C -0.6 4.918 2.261 0.768 6.498 0.093 C 10.217 -0.499 13.761 1.783 15.05 5.355 C 14.928 5.34 14.801 5.341 14.673 5.361 L 10.847 5.971 C 9.519 6.182 8.61 7.437 8.821 8.765 L 8.864 9.03 C 9.075 10.358 10.329 11.268 11.657 11.056 L 15.263 10.482 C 14.465 13.397 12.122 15.697 9.061 16.185 C 4.824 16.86 0.815 13.805 0.108 9.361 Z" fill="rgb(0, 0, 0)" height="16.27811623505913px" id="PInHLU45l" transform="translate(32.666 44.537)" width="15.26262668182951px"/><path d="M 1.83 16.144 L 31.062 11.488 L 29.232 0 L 0 4.656 Z" fill="rgb(255, 206, 153)" height="16.14423624161074px" id="WIeiB82UR" transform="translate(20.41 39.416)" width="31.061734228188463px"/><path d="M 1.009 5.855 C 0.521 5.855 0.093 5.506 0.013 5.008 C -0.076 4.461 0.302 3.943 0.85 3.853 L 24.982 0.009 C 25.53 -0.061 26.048 0.298 26.138 0.845 C 26.227 1.393 25.849 1.911 25.301 2.001 L 1.169 5.845 C 1.119 5.845 1.059 5.855 1.009 5.855 Z" fill="rgb(0, 0, 0)" height="5.855036989124692px" id="vntoqOy0C" transform="translate(24.316 50.209)" width="26.15074610641899px"/><path d="M 1.007 6.603 C 0.708 6.603 0.409 6.474 0.21 6.215 C -0.129 5.777 -0.049 5.139 0.389 4.801 C 2.53 3.137 5.11 1.833 7.839 1.016 C 9.791 0.428 11.833 0.09 13.895 0 C 14.462 0 14.92 0.408 14.94 0.966 C 14.96 1.524 14.532 1.992 13.974 2.012 C 12.082 2.092 10.209 2.41 8.417 2.938 C 5.927 3.685 3.576 4.88 1.624 6.384 C 1.445 6.524 1.226 6.593 1.007 6.593 Z" fill="rgb(0, 0, 0)" height="6.603414765100666px" id="EKd_MUPgk" transform="translate(6.113 65.227)" width="14.940939300315986px"/><path d="M 1.007 9.013 C 0.787 9.013 0.578 8.943 0.389 8.803 C -0.049 8.465 -0.129 7.827 0.21 7.389 C 1.783 5.357 3.895 3.584 6.325 2.24 C 8.058 1.284 9.95 0.537 11.962 0.029 C 12.5 -0.101 13.048 0.218 13.187 0.756 C 13.327 1.294 12.998 1.842 12.46 1.981 C 10.618 2.449 8.885 3.126 7.301 4.003 C 5.11 5.208 3.208 6.811 1.803 8.624 C 1.604 8.883 1.305 9.013 1.007 9.013 Z" fill="rgb(0, 0, 0)" height="9.012527114440275px" id="fBJnfh_21" transform="translate(12.407 70.597)" width="13.219387909921958px"/><path d="M 14.718 3.234 C 14.609 3.234 14.489 3.214 14.38 3.174 C 12.059 2.348 9.45 1.939 6.85 2.009 C 4.978 2.059 3.105 2.338 1.273 2.856 C 0.745 3.005 0.187 2.696 0.038 2.158 C -0.112 1.621 0.197 1.073 0.735 0.923 C 2.717 0.366 4.759 0.057 6.8 0.007 C 9.639 -0.063 12.497 0.385 15.057 1.292 C 15.575 1.481 15.854 2.049 15.664 2.577 C 15.515 2.985 15.127 3.244 14.718 3.244 Z" fill="rgb(0, 0, 0)" height="3.2439465594242094px" id="NfUuW_Zw4" transform="translate(88.791 53.248)" width="15.723825433523572px"/><path d="M 13.847 5.236 C 13.647 5.236 13.458 5.176 13.279 5.066 C 11.377 3.781 9.076 2.855 6.616 2.387 C 4.833 2.048 2.971 1.939 1.078 2.068 C 0.501 2.118 0.042 1.69 0.003 1.132 C -0.037 0.574 0.381 0.096 0.939 0.056 C 3 -0.083 5.032 0.037 6.984 0.405 C 9.713 0.923 12.273 1.959 14.394 3.403 C 14.853 3.712 14.972 4.339 14.663 4.797 C 14.464 5.086 14.155 5.236 13.827 5.236 Z" fill="rgb(0, 0, 0)" height="5.235615064770464px" id="kXn8UYnWw" transform="translate(86.088 60.599)" width="14.834782892453632px"/><path d="M 0.021 18.699 L 2.312 3.321 C 2.412 2.644 2.949 2.126 3.627 2.036 C 7.979 1.489 17.023 1.608 21.206 3.102 L 22.132 3.431 L 23.516 2.744 C 25.568 1.738 27.421 1.02 29.383 0.552 C 31.444 0.064 32.321 -0.125 33.626 0.084 C 35.648 0.682 37.838 2.345 38.934 3.481 C 39.104 3.65 39.173 4.008 39.243 4.407 C 39.293 4.706 39.293 4.975 39.273 5.184 C 38.077 9.556 36.872 13.928 35.677 18.301 C 35.568 19.008 33.297 17.633 32.58 17.633 L 31.962 17.633 C 29.114 17.653 26.315 18.251 23.736 19.386 L 19.513 21.259 L 19.513 21.309 L 19.453 21.289 L 19.363 21.328 L 19.363 21.259 L 18.756 21.03 C 14.573 19.506 5.519 19.356 1.157 19.874 C 0.48 19.954 -0.088 19.366 0.011 18.689 Z" fill="rgb(255, 255, 255)" height="21.32847871508983px" id="iVr1sgq2j" transform="translate(78.42 66.238)" width="39.28539181463738px"/><path d="M 2.59 7.669 L 0 1.006 L 2.351 0 L 5.797 1.265 Z" fill="rgb(255, 255, 255)" height="7.6689181208053725px" id="hM2OaXEck" transform="translate(78.541 84.529)" width="5.796563758388828px"/><path d="M 0.001 22.479 L 2.899 3.755 C 2.979 3.257 3.377 2.858 3.875 2.789 L 4.333 2.719 C 9.323 1.992 14.413 2.45 19.193 4.064 C 19.193 4.064 20.249 4.422 20.249 4.402 L 21.843 4.303 C 25.836 2.281 30.189 0.349 34.66 0 C 35.776 0 36.632 0.996 36.453 2.101 L 33.755 18.973 C 33.625 19.78 32.937 20.388 32.121 20.407 L 31.414 20.427 C 30.697 20.447 29.98 20.497 29.273 20.577 C 26.055 20.955 22.988 22.121 20.289 23.903 C 19.671 24.312 18.954 24.541 18.217 24.561 L 17.221 24.591 C 16.594 24.611 15.976 24.511 15.379 24.322 C 12.132 23.306 8.745 22.828 5.339 22.957 C 4.184 23.007 2.999 22.987 1.873 23.296 C 1.425 23.415 1.037 23.545 0.578 23.346 C 0.22 23.196 -0.059 22.878 0.011 22.469 Z" fill="rgb(98, 237, 142)" height="24.593094118498627px" id="pqax3P0_s" transform="translate(81.11 69.34)" width="36.47682412806678px"/><path d="M 0.945 12.727 C 0.945 12.727 0.855 12.727 0.815 12.727 C 0.297 12.658 -0.061 12.18 0.009 11.662 L 1.493 0.815 C 1.562 0.298 2.04 -0.061 2.558 0.009 C 3.076 0.078 3.435 0.557 3.365 1.074 L 1.881 11.921 C 1.821 12.399 1.413 12.737 0.945 12.737 Z" fill="rgb(84, 181, 155)" height="12.737304000316186px" id="nOVRNvd7U" transform="translate(99.288 77.568)" width="3.3737265344786778px"/><path d="M 9.492 4.731 C 8.864 6.424 8.177 8.068 7.45 9.462 C 6.733 10.806 6.016 11.822 5.229 12.609 C 4.711 11.424 4.163 10.259 3.595 9.093 C 2.36 10.428 1.175 11.842 0 13.296 C 0.807 18.157 2.38 22.858 3.575 27.648 C 13.844 29.122 21.762 17.967 23.455 8.844 C 25.138 -0.01 12.898 -3.665 9.482 4.731 Z" fill="rgb(0, 0, 0)" height="27.780486155959196px" id="NBDkIRgqW" transform="translate(81.677 84.26)" width="23.613204827729646px"/></svg>