<svg display="block" role="presentation" viewBox="0 0 269 312" xmlns="http://www.w3.org/2000/svg"><path d="M 7.943 5.647 C 17.117 2.847 26.547 1.099 36.07 0.186 C 39.218 -0.026 42.367 -0.118 45.547 0.247 C 53.669 1.175 59.495 8.521 58.567 16.641 C 57.822 23.059 53.06 28.047 47.083 29.401 C 34.608 31.667 21.558 30.131 9.13 28.017 C -2.476 25.478 -3.176 9.296 7.943 5.631 Z" fill="rgb(0, 0, 0)" height="30.521096011829314px" id="SDJGujlPw" transform="translate(145.675 244.278)" width="58.6644843393413px"/><path d="M 17.501 15.702 C 25.746 8.372 33.428 0.328 45.217 0.007 C 63.881 -0.479 70.741 24.082 59.926 36.978 C 50.206 48.551 34.158 50.681 20.361 46.103 C 12.694 43.563 4.952 38.651 0.799 31.533 C -0.92 28.583 0.251 26.712 3.187 25.497 C 8.572 23.276 13.12 19.58 17.501 15.688 Z" fill="rgb(80, 90, 205)" height="48.34737181839594px" id="MlynaBSfD" transform="translate(58.311 243.395)" width="65.071881352655px"/><path d="M 23.987 9.468 C 25.371 14.822 26.832 19.931 28.916 24.934 C 30.908 29.755 33.312 34.12 35.167 39.002 C 41.8 54.909 21.569 67.365 10.419 54.499 C 5.277 48.187 2.341 40.294 0.957 32.34 C -0.443 24.386 -0.366 16.205 1.581 8.555 C 4.882 -3.428 21.645 -2.546 23.972 9.468 Z" fill="rgb(0, 0, 0)" height="59.837035405549955px" id="qKdYIKvil" transform="translate(112.352 251.924)" width="36.47326968944418px"/><path d="M 73.416 40 C 73.081 68.758 56.531 79.373 36.254 79.146 C 15.977 78.917 -0.33 67.907 0.005 39.149 C 0.34 10.39 16.89 -0.225 37.167 0.004 C 57.444 0.231 73.75 11.241 73.416 40 Z" fill="rgb(232, 230, 242)" height="79.1492921629868px" id="NP7D7P_Os" transform="translate(96.449 200.285)" width="73.42061105347588px"/><path d="M 33.13 19.2 C 33.251 8.702 25.932 0.105 16.785 0.001 C 7.636 -0.105 0.122 8.321 0.001 18.818 C -0.12 29.316 7.199 37.913 16.347 38.017 C 25.495 38.123 33.008 29.697 33.13 19.2 Z" fill="rgb(253, 251, 253)" height="38.01797426522367px" id="B3pRrWDQm" transform="translate(115.92 223.27)" width="33.13115611328929px"/><path d="M 102.391 25.278 C 123.809 49.458 121.558 86.414 97.372 107.826 C 73.185 129.239 36.222 126.988 14.804 102.808 C -2.004 83.828 -0.621 31.057 0.764 9.233 C 1.098 3.819 5.753 -0.302 11.183 0.017 C 33.012 1.295 85.582 6.298 102.391 25.278 Z" fill="rgb(80, 90, 205)" height="122.52304284178715px" id="aoG4qJiAm" transform="translate(0.239 0.23)" width="117.09126123185413px"/><path d="M 0 0 C 5.263 1.764 13.645 5.292 21.996 12.455 C 31.457 20.576 36.447 29.534 38.866 34.796" fill="rgb(80, 90, 205)" height="34.795764705882355px" id="xnVKYsWGK" transform="translate(45.268 34.948)" width="38.865600000000356px"/><path d="M 0 0 C 5.263 1.764 13.645 5.292 21.996 12.455 C 31.457 20.576 36.447 29.534 38.866 34.796" fill="transparent" height="34.795764705882355px" id="ddCh6O8es" stroke-dasharray="" stroke-linecap="round" stroke-linejoin="round" stroke-width="7.73" stroke="rgb(70, 80, 195)" transform="translate(45.268 34.948)" width="38.865600000000356px"/><path d="M 15.607 23.167 C -6.358 46.846 -4.975 83.847 18.725 105.807 C 42.41 127.767 79.419 126.383 101.385 102.689 C 118.634 84.105 118.452 31.304 117.569 9.465 C 117.356 4.036 112.793 -0.177 107.378 0.006 C 85.519 0.781 32.842 4.568 15.607 23.152 Z" fill="rgb(80, 90, 205)" height="121.41015554417767px" id="cG24WmkiM" transform="translate(150.516 3.068)" width="117.88159592036038px"/><path d="M 39.672 0 C 34.362 1.642 25.906 4.973 17.387 11.953 C 7.744 19.846 2.555 28.697 0 33.898" fill="rgb(80, 90, 205)" height="33.89844705882353px" id="epEEZFSo2" transform="translate(183.57 37.004)" width="39.671999999999514px"/><path d="M 39.672 0 C 34.362 1.642 25.906 4.973 17.387 11.953 C 7.744 19.846 2.555 28.697 0 33.898" fill="transparent" height="33.89844705882353px" id="xaX3Kuwy0" stroke-dasharray="" stroke-linecap="round" stroke-linejoin="round" stroke-width="7.73" stroke="rgb(70, 80, 195)" transform="translate(183.57 37.004)" width="39.671999999999514px"/><path d="M 257.488 95.024 C 260.013 98.736 259.602 103.692 256.514 106.948 C 240.512 123.858 189.143 165.209 128.815 164.524 C 68.486 163.841 18.076 121.304 2.469 104.027 C -0.543 100.697 -0.832 95.738 1.784 92.074 C 16.813 71.057 69.277 -0.709 130.716 0.005 C 192.141 0.705 242.946 73.672 257.488 95.024 Z" fill="rgb(232, 230, 242)" height="164.53229078536808px" id="pPCTT7dsr" transform="translate(3.295 57.575)" width="259.1376267444763px"/><path d="M 0 6.396 C 1.536 1.56 6.709 -1.101 11.545 0.435" fill="transparent" height="6.39632034674095px" id="nTJ34mKUc" stroke-dasharray="" stroke-linecap="round" stroke-linejoin="round" stroke-width="4.82" stroke="rgb(0, 0, 0)" transform="translate(143.625 92.931)" width="11.545411764705705px"/><path d="M 0 0.212 C 4.959 -0.868 9.857 2.28 10.922 7.238" fill="transparent" height="7.23811857696154px" id="efmSoRISG" stroke-dasharray="" stroke-linecap="round" stroke-linejoin="round" stroke-width="4.82" stroke="rgb(0, 0, 0)" transform="translate(111.407 92.254)" width="10.922117647058784px"/><path d="M 43.826 25.231 C 39.672 17.155 39.764 16.958 38.136 11.117 C 36.373 4.776 30.607 0.077 23.686 0.001 C 16.765 -0.075 10.893 4.488 8.992 10.783 C 7.242 16.578 7.334 16.79 2.984 24.759 C 1.128 28.06 0.047 31.846 0.002 35.906 C -0.151 48.758 10.163 59.296 23.017 59.449 C 35.871 59.6 46.412 49.29 46.565 36.439 C 46.61 32.394 45.622 28.576 43.841 25.231 Z" fill="rgb(253, 251, 253)" height="59.45058017397099px" id="GtYMYB6w5" transform="translate(109.032 141.754)" width="46.566111222811955px"/><path d="M 25.252 0.289 C 25.191 5.369 19.486 9.414 12.519 9.337 C 5.537 9.261 -0.06 5.08 0 0" fill="transparent" height="9.338471955121236px" id="lSGX0pGDb" stroke-dasharray="" stroke-linecap="round" stroke-linejoin="miter" stroke-miterlimit="10" stroke-width="4.82" stroke="rgb(0, 0, 0)" transform="translate(119.773 169.828)" width="25.251738439492144px"/><path d="M 18.74 9.488 C 18.806 4.315 14.666 0.067 9.491 0.001 C 4.317 -0.067 0.068 4.072 0.001 9.246 C -0.066 14.419 4.075 18.667 9.249 18.735 C 14.424 18.801 18.674 14.662 18.74 9.488 Z" fill="rgb(0, 0, 0)" height="18.735724652388086px" id="pYDwrXh0m" transform="translate(123.661 147.095)" width="18.74064178961129px"/><path d="M 42.532 27.223 C 42.703 12.324 33.321 0.136 21.578 0.001 C 9.834 -0.134 0.175 11.834 0.002 26.733 C -0.169 41.632 9.213 53.82 20.956 53.956 C 32.7 54.09 42.359 42.122 42.532 27.223 Z" fill="rgb(253, 251, 253)" height="53.95679261258583px" id="Pg8k4V7pg" transform="translate(144.758 104.163)" width="42.534004490909325px"/><path d="M 30.544 19.764 C 30.669 8.946 23.933 0.098 15.499 0.001 C 7.065 -0.096 0.126 8.595 0.002 19.412 C -0.123 30.229 6.613 39.078 15.047 39.174 C 23.481 39.271 30.42 30.582 30.544 19.764 Z" fill="rgb(0, 0, 0)" height="39.17441733800459px" id="tsESC8JWd" transform="translate(145.445 112.012)" width="30.545538329209336px"/><path d="M 10.597 0.051 L 6.247 0 C 2.837 -0.039 0.04 2.693 0 6.103 L 0 6.118 C -0.039 9.528 2.694 12.324 6.105 12.364 L 10.455 12.414 C 13.865 12.453 16.662 9.721 16.702 6.311 L 16.702 6.296 C 16.741 2.886 14.008 0.09 10.597 0.051 Z" fill="rgb(253, 251, 253)" height="12.414061652831833px" id="ZpENBcmaX" transform="translate(163.532 124.167)" width="16.702023328104843px"/><path d="M 42.531 27.223 C 42.702 12.324 33.321 0.137 21.577 0.001 C 9.833 -0.134 0.174 11.834 0.002 26.733 C -0.169 41.632 9.212 53.819 20.956 53.955 C 32.699 54.09 42.359 42.121 42.531 27.223 Z" fill="rgb(253, 251, 253)" height="53.955968930534056px" id="sr6KSS3Pd" transform="translate(79.28 103.42)" width="42.532920344608186px"/><path d="M 30.544 19.763 C 30.669 8.946 23.933 0.098 15.499 0.001 C 7.065 -0.096 0.126 8.594 0.002 19.411 C -0.123 30.228 6.613 39.076 15.047 39.173 C 23.481 39.271 30.419 30.58 30.544 19.763 Z" fill="rgb(0, 0, 0)" height="39.1741349197646px" id="PkZQ5riXn" transform="translate(90.565 111.441)" width="30.545805329777238px"/><g d="M 6.105 12.364 L 10.455 12.414 C 13.865 12.453 16.662 9.721 16.701 6.311 L 16.702 6.296 C 16.741 2.886 14.008 0.09 10.597 0.051 L 6.247 0 C 2.837 -0.039 0.04 2.693 0.001 6.103 L 0 6.119 C -0.039 9.528 2.694 12.324 6.105 12.364 Z" fill="transparent" height="12.41419983855845px" id="fwCWawFQw" transform="translate(109.272 123.28)" width="16.702011390363506px"><path d="M 6.105 12.364 L 10.455 12.414 C 13.865 12.453 16.662 9.721 16.701 6.311 L 16.702 6.296 C 16.741 2.886 14.008 0.09 10.597 0.051 L 6.247 0 C 2.837 -0.039 0.04 2.693 0.001 6.103 L 0 6.119 C -0.039 9.528 2.694 12.324 6.105 12.364 Z" fill="rgb(253, 251, 253)" height="12.414199838558446px" id="m7Khj34jI" transform="translate(0 0)" width="16.702011390363495px"/></g><path d="M 102.391 25.278 C 123.809 49.458 121.558 86.414 97.372 107.826 C 73.185 129.239 36.222 126.988 14.804 102.808 C -2.004 83.828 -0.621 31.057 0.764 9.233 C 1.098 3.819 5.753 -0.302 11.183 0.017 C 33.012 1.295 85.582 6.298 102.391 25.278 Z" fill="rgb(80, 90, 205)" height="122.52305316274423px" id="rFzw78QUV" transform="translate(0.239 0.232)" width="117.09126123185413px"/><path d="M 0 0 C 5.263 1.764 13.645 5.292 21.996 12.455 C 31.457 20.576 36.447 29.534 38.866 34.796" fill="rgb(80, 90, 205)" height="34.79562352941177px" id="z23dlzeYd" transform="translate(45.268 34.95)" width="38.865600000000356px"/><path d="M 0 0 C 5.263 1.764 13.645 5.292 21.996 12.455 C 31.457 20.576 36.447 29.534 38.866 34.796" fill="transparent" height="34.79562352941177px" id="iplf7DesY" stroke-dasharray="" stroke-linecap="round" stroke-linejoin="round" stroke-width="7.73" stroke="rgb(70, 80, 195)" transform="translate(45.268 34.95)" width="38.865600000000356px"/><path d="M 15.607 23.167 C -6.358 46.846 -4.975 83.847 18.725 105.807 C 42.41 127.767 79.419 126.383 101.385 102.689 C 118.634 84.105 118.452 31.304 117.569 9.465 C 117.356 4.036 112.793 -0.177 107.378 0.006 C 85.519 0.781 32.842 4.568 15.607 23.152 Z" fill="rgb(80, 90, 205)" height="121.41019702952892px" id="EA_xsCEUp" transform="translate(150.516 3.069)" width="117.88159592036038px"/><path d="M 39.672 0 C 34.362 1.642 25.906 4.973 17.387 11.953 C 7.744 19.846 2.555 28.697 0 33.898" fill="rgb(80, 90, 205)" height="33.89844705882355px" id="ErGiVZ4oA" transform="translate(183.57 37.005)" width="39.671999999999514px"/><path d="M 39.672 0 C 34.362 1.642 25.906 4.973 17.387 11.953 C 7.744 19.846 2.555 28.697 0 33.898" fill="transparent" height="33.89844705882355px" id="hxuONbu3D" stroke-dasharray="" stroke-linecap="round" stroke-linejoin="round" stroke-width="7.73" stroke="rgb(70, 80, 195)" transform="translate(183.57 37.005)" width="39.671999999999514px"/><path d="M 257.488 95.024 C 260.013 98.736 259.602 103.692 256.514 106.948 C 240.512 123.858 189.143 165.209 128.815 164.524 C 68.486 163.825 18.076 121.304 2.469 104.027 C -0.543 100.697 -0.832 95.738 1.784 92.074 C 16.813 71.057 69.277 -0.709 130.716 0.005 C 192.141 0.705 242.946 73.672 257.488 95.024 Z" fill="rgb(232, 230, 242)" height="164.5322907853681px" id="OQJVtyE3C" transform="translate(3.295 57.576)" width="259.1376267444763px"/><path d="M 8.166 0 C 3.116 0.563 -0.506 5.11 0.058 10.144" fill="transparent" height="10.143811764705887px" id="exesydNtn" stroke-dasharray="" stroke-linecap="round" stroke-linejoin="round" stroke-width="4.82" stroke="rgb(0, 0, 0)" transform="translate(145.483 91.115)" width="8.165505292441395px"/><path d="M 8.61 9.733 C 8.929 4.669 5.065 0.304 0 0" fill="transparent" height="9.733129411764708px" id="ukbF301Hd" stroke-dasharray="" stroke-linecap="round" stroke-linejoin="round" stroke-width="4.82" stroke="rgb(0, 0, 0)" transform="translate(112.442 91.023)" width="8.628256922551103px"/><path d="M 42.532 27.223 C 42.703 12.324 33.321 0.136 21.578 0.001 C 9.834 -0.134 0.175 11.834 0.002 26.733 C -0.169 41.632 9.213 53.82 20.956 53.956 C 32.7 54.09 42.359 42.122 42.532 27.223 Z" fill="rgb(253, 251, 253)" height="53.95679261258583px" id="edP9x7Jis" transform="translate(144.758 104.163)" width="42.534004490909325px"/><path d="M 15.047 39.174 C 6.613 39.078 -0.123 30.229 0.002 19.412 C 0.126 8.595 7.065 -0.096 15.499 0.001 C 21.865 0.074 27.265 5.135 29.475 12.264 C 29.217 12.228 28.953 12.208 28.685 12.205 L 24.335 12.155 C 20.924 12.116 18.127 14.848 18.088 18.258 L 18.088 18.273 C 18.048 21.683 20.781 24.479 24.192 24.518 L 28.542 24.568 C 29.065 24.574 29.573 24.515 30.06 24.398 C 28.336 32.958 22.235 39.257 15.047 39.174 Z" fill="rgb(0, 0, 0)" height="39.17441733800461px" id="P1er68Qdz" transform="translate(145.445 112.012)" width="30.059537605631608px"/><path d="M 42.531 27.223 C 42.702 12.324 33.321 0.137 21.577 0.001 C 9.833 -0.134 0.174 11.834 0.002 26.733 C -0.169 41.632 9.212 53.819 20.956 53.955 C 32.699 54.09 42.359 42.121 42.531 27.223 Z" fill="rgb(253, 251, 253)" height="53.955968930534056px" id="Ge7YOC7C9" transform="translate(79.28 103.42)" width="42.532920344608186px"/><path d="M 15.047 39.173 C 6.613 39.076 -0.123 30.228 0.002 19.411 C 0.126 8.594 7.065 -0.096 15.499 0.001 C 21.754 0.073 27.076 4.959 29.357 11.892 C 29.339 11.892 29.321 11.892 29.303 11.891 L 24.953 11.841 C 21.543 11.802 18.746 14.534 18.707 17.944 L 18.706 17.959 C 18.667 21.369 21.4 24.165 24.811 24.205 L 29.161 24.255 C 29.48 24.258 29.793 24.238 30.1 24.195 C 28.432 32.857 22.292 39.257 15.047 39.173 Z" fill="rgb(0, 0, 0)" height="39.174134919764654px" id="rIKZLHSYI" transform="translate(90.565 111.441)" width="30.09960998094694px"/><path d="M 57.618 21.487 C 57.753 9.805 44.963 0.185 29.053 0.003 C 13.142 -0.181 0.136 9.141 0.001 20.823 C -0.134 32.506 12.655 42.125 28.566 42.308 C 44.476 42.491 57.483 33.169 57.618 21.487 Z" fill="rgb(232, 230, 242)" height="42.31027750656622px" id="hc4gjzgC8" transform="translate(138.798 141.235)" width="57.61946407284299px"/><path d="M 57.618 21.487 C 57.753 9.805 44.964 0.186 29.053 0.003 C 13.143 -0.181 0.136 9.141 0.001 20.824 C -0.133 32.506 12.655 42.126 28.566 42.309 C 44.476 42.491 57.483 33.17 57.618 21.487 Z" fill="rgb(232, 230, 242)" height="42.31191495928519px" id="UJe2cMNU6" transform="translate(67.78 139.46)" width="57.61918611480749px"/><g opacity="0.3"><path d="M 43.472 16.326 C 43.574 7.449 33.926 0.14 21.922 0.002 C 9.917 -0.136 0.103 6.948 0.001 15.826 C -0.102 24.704 9.547 32.011 21.551 32.149 C 33.555 32.288 43.37 25.203 43.472 16.326 Z" fill="rgb(234, 109, 164)" height="32.151279057773735px" id="WkuxuqpHO" transform="translate(50.985 148.459)" width="43.47281150200613px"/></g><path d="M 6.734 0 C 6.734 0 -0.309 9.034 0.011 8.729" fill="transparent" height="8.736491070786542px" id="a4Mw7ppsz" stroke-dasharray="" stroke-linecap="round" stroke-linejoin="miter" stroke-miterlimit="10" stroke-width="4.82" stroke="rgb(240, 155, 165)" transform="translate(63.025 159.476)" width="6.733797020960878px"/><path d="M 6.734 0 C 6.734 0 -0.309 9.032 0.011 8.729" fill="transparent" height="8.736423234056872px" id="aAe4eP3aP" stroke-dasharray="" stroke-linecap="round" stroke-linejoin="miter" stroke-miterlimit="10" stroke-width="4.82" stroke="rgb(240, 155, 165)" transform="translate(75.468 160.842)" width="6.733929012847852px"/><g opacity="0.3"><path d="M 43.472 16.326 C 43.574 7.449 33.926 0.14 21.921 0.002 C 9.917 -0.136 0.102 6.948 0.001 15.825 C -0.102 24.702 9.546 32.012 21.55 32.151 C 33.554 32.288 43.369 25.203 43.472 16.326 Z" fill="rgb(234, 109, 164)" height="32.152650702548925px" id="cyYQpOCLp" transform="translate(171.309 149.855)" width="43.47267269671249px"/></g><path d="M 6.733 0 C 6.733 0 -0.31 9.034 0.011 8.73" fill="transparent" height="8.73783385519505px" id="WxY0Ah1MI" stroke-dasharray="" stroke-linecap="round" stroke-linejoin="miter" stroke-miterlimit="10" stroke-width="4.82" stroke="rgb(240, 155, 165)" transform="translate(183.332 160.861)" width="6.733437066422084px"/><path d="M 6.735 0 C 6.735 0 -0.309 9.034 0.011 8.729" fill="transparent" height="8.73649107078657px" id="HLPUdjuWh" stroke-dasharray="" stroke-linecap="round" stroke-linejoin="miter" stroke-miterlimit="10" stroke-width="4.82" stroke="rgb(240, 155, 165)" transform="translate(195.789 162.229)" width="6.7347568953145185px"/><path d="M 43.825 25.231 C 39.673 17.155 39.765 16.958 38.137 11.117 C 36.373 4.776 30.608 0.077 23.686 0.001 C 16.765 -0.075 10.893 4.488 8.992 10.784 C 7.243 16.578 7.334 16.791 2.983 24.759 C 1.127 28.06 0.047 31.846 0.002 35.906 C -0.15 48.758 10.164 59.297 23.017 59.449 C 35.871 59.602 46.412 49.29 46.564 36.439 C 46.611 32.394 45.621 28.577 43.841 25.231 Z" fill="rgb(253, 251, 253)" height="59.45074482573338px" id="Rwm_PBwxk" transform="translate(109.063 140.337)" width="46.56563345294178px"/><path d="M 25.251 0.289 C 25.191 5.369 19.486 9.414 12.519 9.337 C 5.553 9.261 -0.06 5.08 0 0" fill="transparent" height="9.338471955121207px" id="vRQPoBlOr" stroke-dasharray="" stroke-linecap="round" stroke-linejoin="miter" stroke-miterlimit="10" stroke-width="4.82" stroke="rgb(0, 0, 0)" transform="translate(119.803 168.411)" width="25.251454769612053px"/><path d="M 18.74 9.489 C 18.806 4.317 14.666 0.069 9.491 0.001 C 4.317 -0.066 0.068 4.074 0.001 9.248 C -0.066 14.421 4.075 18.67 9.249 18.736 C 14.424 18.803 18.673 14.663 18.74 9.489 Z" fill="rgb(0, 0, 0)" height="18.737102824962534px" id="ZSZ47XBzz" transform="translate(123.691 145.669)" width="18.740359489466286px"/><path d="M 29.625 9.681 C 34.721 21.619 35.649 35.018 32.851 47.472 C 28.333 64.885 3.31 60.414 5.014 42.591 C 6.018 35.717 5.014 28.539 1.789 22.546 C -2.181 15.05 0.678 5.758 8.177 1.788 C 16.163 -2.501 26.309 1.24 29.625 9.665 Z" fill="rgb(0, 0, 0)" height="58.4754507906826px" id="GCsvHre0E" transform="translate(80.382 185.71)" width="34.404324215263486px"/><path d="M 34.105 24.11 C 30.225 29.601 28.4 36.49 28.566 43.319 C 28.674 51.12 22.437 57.554 14.618 57.659 C 7.256 57.765 1.11 52.154 0.35 44.976 C -1.004 32.369 1.582 19.107 7.986 8.02 C 12.078 0.493 21.57 -2.229 29.038 1.984 C 36.887 6.363 39.261 16.765 34.105 24.11 Z" fill="rgb(0, 0, 0)" height="57.66089850778292px" id="dS_qIRhnI" transform="translate(150.241 183.488)" width="36.84156415397936px"/></svg>