<svg display="block" role="presentation" viewBox="0 0 167 64" xmlns="http://www.w3.org/2000/svg"><path d="M 2.264 0.945 L 0.945 0 L 0 1.319 L 1.319 2.264 Z" fill="rgb(255, 223, 73)" height="2.263869709280674px" id="UE2kydVaN" transform="translate(113.037 1.671)" width="2.263805339155624px"/><path d="M 0 1.719 C 0.608 0.725 1.669 0.067 2.877 0 L 2.952 1.368 C 2.226 1.408 1.586 1.791 1.204 2.372 L 0 1.717 Z" fill="rgb(94, 239, 144)" height="2.3719471491665303px" id="LMpNqZeBe" transform="translate(141.16 23.595)" width="2.9516461035103703px"/><path d="M 0.956 1.912 C 1.484 1.912 1.912 1.484 1.912 0.956 C 1.912 0.428 1.484 0 0.956 0 C 0.428 0 0 0.428 0 0.956 C 0 1.484 0.428 1.912 0.956 1.912 Z" fill="rgb(253, 100, 182)" height="1.9117927126918133px" id="woTsdTZpc" transform="translate(2.737 19.295)" width="1.9118478870846598px"/><path d="M 0.173 3.07 L 0.477 2.802 C 0.669 2.634 0.706 2.35 0.565 2.136 L 0.341 1.799 C 0.093 1.426 0.413 0.936 0.856 1.015 L 1.254 1.086 C 1.505 1.13 1.752 0.983 1.829 0.739 L 1.953 0.354 C 2.09 -0.073 2.673 -0.128 2.886 0.266 L 3.08 0.622 C 3.201 0.846 3.47 0.946 3.709 0.855 L 4.087 0.711 C 4.507 0.552 4.913 0.974 4.738 1.387 L 4.581 1.76 C 4.481 1.995 4.571 2.267 4.79 2.398 L 5.138 2.604 C 5.523 2.834 5.447 3.412 5.015 3.534 L 4.625 3.643 C 4.38 3.712 4.222 3.951 4.257 4.204 L 4.313 4.606 C 4.374 5.05 3.873 5.352 3.509 5.089 L 3.181 4.852 C 2.974 4.703 2.689 4.729 2.513 4.915 L 2.234 5.208 C 1.925 5.533 1.377 5.329 1.356 4.881 L 1.336 4.478 C 1.324 4.223 1.125 4.016 0.87 3.995 L 0.466 3.96 C 0.02 3.922 -0.163 3.366 0.173 3.07 Z" fill="rgb(94, 239, 144)" height="5.367547728382775px" id="pK_tr4CAP" transform="translate(78.026 36.076)" width="5.387649795544235px"/><path d="M 0.198 3.691 L 0.476 3.351 C 0.65 3.137 0.64 2.827 0.45 2.625 L 0.15 2.305 C -0.182 1.95 0.073 1.37 0.56 1.375 L 0.998 1.379 C 1.274 1.382 1.51 1.181 1.55 0.907 L 1.614 0.473 C 1.685 -0.008 2.297 -0.17 2.595 0.213 L 2.866 0.558 C 3.037 0.775 3.341 0.834 3.579 0.695 L 3.958 0.474 C 4.378 0.229 4.886 0.606 4.774 1.079 L 4.672 1.506 C 4.608 1.775 4.752 2.05 5.01 2.15 L 5.419 2.309 C 5.872 2.485 5.894 3.118 5.454 3.323 L 5.056 3.51 C 4.806 3.627 4.682 3.911 4.765 4.175 L 4.895 4.594 C 5.04 5.058 4.559 5.47 4.123 5.254 L 3.73 5.059 C 3.482 4.936 3.182 5.016 3.027 5.246 L 2.782 5.61 C 2.51 6.012 1.887 5.894 1.785 5.418 L 1.691 4.988 C 1.633 4.718 1.383 4.534 1.107 4.555 L 0.67 4.59 C 0.186 4.629 -0.108 4.067 0.198 3.69 Z" fill="rgb(80, 90, 205)" height="5.853438397141302px" id="NlMG4QvrX" transform="translate(57.817 2.995)" width="5.771796634904518px"/><path d="M 28.548 4.648 L 27.806 4.352 C 23.751 2.736 19.489 1.822 15.139 1.635 C 10.423 1.434 5.754 2.09 1.264 3.584 L 0.505 3.837 L 0 2.32 L 0.758 2.067 C 5.434 0.51 10.295 -0.174 15.207 0.038 C 19.737 0.231 24.175 1.183 28.398 2.867 L 29.14 3.163 L 28.548 4.649 Z" fill="rgb(95, 238, 144)" height="4.649284947887651px" id="Ir_V9Pqu7" transform="translate(136.891 47.808)" width="29.14035559042304px"/><path d="M 0 0.846 L 0.847 3.085 L 3.084 2.238 L 2.237 0 Z" fill="rgb(80, 90, 205)" height="3.0846163903093924px" id="NZ9xJ6UKl" transform="translate(2.056 29.163)" width="3.0838071658807333px"/><path d="M 19.776 9.59 C 15.507 6.036 10.733 3.62 5.588 2.412 C 3.765 1.984 1.885 1.709 0 1.597 L 0.096 0 C 2.071 0.119 4.042 0.405 5.953 0.855 C 11.342 2.12 16.337 4.645 20.8 8.361 Z" fill="rgb(252, 105, 175)" height="9.589925777501609px" id="k1cNDnfWy" transform="translate(0 0.942)" width="20.79980408555451px"/><path d="M 8.641 7.68 C 8.265 7.68 7.887 7.591 7.539 7.404 C 6.766 6.987 6.233 6.151 6.149 5.221 C 6.077 4.427 6.32 3.599 6.833 2.891 C 7.078 2.552 7.357 2.27 7.661 2.035 C 7.541 1.979 7.415 1.93 7.286 1.884 C 5.192 1.16 2.48 1.927 0.845 2.944 L 0 1.586 C 2.01 0.334 5.205 -0.527 7.809 0.371 C 8.403 0.576 8.934 0.866 9.394 1.232 C 10.693 0.931 12.114 1.123 13.25 1.52 C 15.328 2.248 17.124 3.836 18.053 5.771 L 16.612 6.464 C 15.863 4.904 14.408 3.622 12.722 3.031 C 12.092 2.811 11.35 2.666 10.629 2.682 C 10.786 2.958 10.922 3.252 11.036 3.566 C 11.386 4.525 11.328 5.535 10.882 6.336 C 10.406 7.189 9.526 7.679 8.643 7.679 Z M 8.978 3.082 C 8.653 3.26 8.362 3.504 8.127 3.828 C 7.845 4.218 7.705 4.672 7.742 5.075 C 7.778 5.471 7.997 5.831 8.299 5.995 C 8.745 6.236 9.261 5.955 9.483 5.556 C 9.701 5.167 9.719 4.627 9.531 4.111 C 9.39 3.723 9.206 3.379 8.978 3.08 Z" fill="rgb(80, 90, 205)" height="7.67995963751813px" id="GQmcpxo2H" transform="translate(3.634 34.049)" width="18.053226867846618px"/><path d="M 2.213 1.409 L 1.41 0 L 0 0.804 L 0.804 2.213 Z" fill="rgb(94, 239, 144)" height="2.2132986999291706px" id="L2GribufV" transform="translate(21.848 1.638)" width="2.213412727007743px"/><path d="M 12.642 9.132 C 12.072 9.132 11.511 8.984 11.043 8.68 C 10.535 8.351 9.426 7.343 10.086 5.103 C 10.258 4.519 10.56 3.991 10.942 3.514 C 9.702 3.226 8.358 3.298 7.395 3.529 C 4.377 4.251 1.92 7.023 1.238 7.856 L 0 6.843 C 0.761 5.913 3.518 2.813 7.022 1.973 C 8.474 1.625 10.511 1.581 12.263 2.241 C 12.97 1.694 13.732 1.25 14.391 0.896 C 16.811 -0.404 19.852 -0.287 23.186 1.233 L 22.522 2.689 C 20.526 1.778 17.628 0.973 15.148 2.305 C 14.653 2.57 14.211 2.834 13.819 3.095 C 14.447 3.582 14.975 4.218 15.336 5.034 C 15.905 6.319 15.676 7.571 14.725 8.383 C 14.147 8.876 13.387 9.131 12.642 9.131 Z M 12.519 4.147 C 12.058 4.617 11.76 5.085 11.62 5.557 C 11.44 6.166 11.346 6.97 11.914 7.339 C 12.398 7.652 13.21 7.575 13.687 7.167 C 14.092 6.822 14.155 6.322 13.872 5.683 C 13.575 5.01 13.095 4.51 12.516 4.147 Z" fill="rgb(254, 223, 72)" height="9.132335735681737px" id="W_IDmqKFW" transform="translate(127.979 3.32)" width="23.186119027325788px"/><path d="M 2.218 0.193 C 2.518 0.812 3.021 1.314 3.639 1.614 C 3.897 1.738 3.897 2.096 3.639 2.22 C 3.021 2.519 2.517 3.022 2.218 3.641 C 2.094 3.898 1.737 3.898 1.613 3.641 C 1.313 3.022 0.811 2.519 0.193 2.22 C -0.064 2.096 -0.064 1.738 0.193 1.614 C 0.811 1.314 1.314 0.813 1.613 0.193 C 1.737 -0.064 2.094 -0.064 2.219 0.193 Z" fill="rgb(252, 100, 181)" height="3.8337099264737926px" id="nwB_Ftqwv" transform="translate(131.433 11.236)" width="3.832321370920056px"/><path d="M 2.218 0.193 C 2.518 0.812 3.021 1.314 3.639 1.614 C 3.897 1.738 3.897 2.096 3.639 2.22 C 3.021 2.519 2.517 3.022 2.218 3.641 C 2.094 3.898 1.737 3.898 1.613 3.641 C 1.313 3.022 0.812 2.519 0.193 2.22 C -0.064 2.096 -0.064 1.738 0.193 1.614 C 0.812 1.314 1.314 0.813 1.613 0.193 C 1.737 -0.064 2.094 -0.064 2.22 0.193 Z" fill="rgb(255, 223, 73)" height="3.8337926880630775px" id="ix13qxFwi" transform="translate(13.566 51.491)" width="3.8323719474469335px"/><path d="M 2.218 0.193 C 2.518 0.812 3.021 1.314 3.639 1.614 C 3.897 1.738 3.897 2.096 3.639 2.219 C 3.021 2.519 2.517 3.022 2.218 3.641 C 2.094 3.898 1.737 3.898 1.613 3.641 C 1.313 3.022 0.812 2.519 0.193 2.219 C -0.064 2.096 -0.064 1.738 0.193 1.614 C 0.812 1.314 1.314 0.813 1.613 0.193 C 1.737 -0.064 2.094 -0.064 2.219 0.193 Z" fill="rgb(89, 100, 239)" height="3.8336938339425806px" id="uCNiR1sXd" transform="translate(137.13 1.206)" width="3.8324593069022512px"/><path d="M 5.521 5.608 L 5.023 5.477 C 4.71 5.395 4.385 5.556 4.261 5.855 L 4.065 6.329 C 3.847 6.855 3.105 6.864 2.875 6.343 L 2.667 5.873 C 2.537 5.577 2.207 5.424 1.897 5.513 L 1.404 5.656 C 0.857 5.813 0.388 5.239 0.652 4.735 L 0.89 4.28 C 1.041 3.993 0.956 3.64 0.692 3.453 L 0.273 3.156 C -0.191 2.827 -0.035 2.102 0.525 1.993 L 1.029 1.896 C 1.346 1.835 1.57 1.548 1.552 1.226 L 1.522 0.712 C 1.49 0.144 2.156 -0.185 2.587 0.184 L 2.978 0.518 C 3.225 0.727 3.587 0.723 3.829 0.508 L 4.211 0.166 C 4.635 -0.213 5.307 0.1 5.289 0.67 L 5.271 1.183 C 5.261 1.506 5.49 1.788 5.81 1.842 L 6.316 1.927 C 6.878 2.022 7.051 2.743 6.594 3.083 L 6.182 3.389 C 5.922 3.583 5.846 3.937 6.002 4.221 L 6.25 4.671 C 6.526 5.168 6.07 5.753 5.519 5.609 Z" fill="rgb(255, 223, 73)" height="6.72843651045433px" id="tajyFpafW" transform="translate(26.012 52.18)" width="6.855563374614306px"/><path d="M 0.774 4.364 L 0.067 3.315 C -0.049 3.143 -0.012 2.889 0.156 2.744 L 3.024 0.269 C 3.389 -0.045 3.856 -0.096 4.041 0.179 L 5.169 1.853 C 5.355 2.128 5.133 2.543 4.704 2.763 L 1.336 4.494 C 1.138 4.597 0.89 4.536 0.774 4.364 Z" fill="rgb(253, 100, 182)" height="4.544452309528447px" id="iPXr9MVVg" transform="translate(102.461 9.674)" width="5.23527955674011px"/><path d="M 3.527 4.903 L 2.334 5.324 C 2.138 5.394 1.902 5.295 1.803 5.095 L 0.123 1.701 C -0.09 1.269 -0.022 0.805 0.29 0.694 L 2.193 0.022 C 2.504 -0.089 2.851 0.23 2.958 0.699 L 3.794 4.392 C 3.843 4.61 3.722 4.835 3.526 4.904 Z" fill="rgb(253, 100, 182)" height="5.3463690567838755px" id="nyRxOqnM3" transform="translate(94.984 7.454)" width="3.804786006090282px"/><path d="M 1.494 4.593 L 0.29 4.202 C 0.093 4.138 -0.035 3.917 0.009 3.697 L 0.447 0.717 C 0.541 0.244 0.877 -0.083 1.193 0.018 L 3.112 0.641 C 3.428 0.744 3.508 1.206 3.307 1.644 L 2.018 4.347 C 1.924 4.55 1.691 4.655 1.494 4.591 Z" fill="rgb(253, 100, 182)" height="4.6101304228325235px" id="kZ6YVR9G1" transform="translate(99.714 7.963)" width="3.4173003140685836px"/><path d="M 10.225 4.905 C 10.227 4.974 10.229 5.044 10.229 5.114 C 10.229 7.939 7.938 10.229 5.114 10.229 C 2.29 10.229 0 7.939 0 5.114 C 0 2.289 2.29 0 5.114 0 L 5.114 4.906 L 10.225 4.906 Z" fill="rgb(80, 90, 205)" height="10.22850482084742px" id="lst1mUpwq" transform="translate(11.092 15.537)" width="10.228559995240339px"/><path d="M 5.11 4.906 L 0 4.906 L 0 0 C 2.754 0 5.001 2.178 5.11 4.906 Z" fill="rgb(95, 238, 144)" height="4.906254145063542px" id="E685O7KQ0" transform="translate(16.207 15.535)" width="5.1102522669412025px"/><path d="M 5.277 0.041 C 5.154 -0.041 4.989 0.005 4.925 0.137 C 4.543 0.926 4.038 1.818 3.362 2.74 C 2.261 4.246 1.073 5.333 0.094 6.091 C -0.038 6.192 -0.03 6.392 0.109 6.484 C 1.953 7.715 3.797 8.946 5.64 10.177 C 5.735 10.24 5.859 10.23 5.942 10.153 C 6.796 9.345 7.746 8.336 8.683 7.1 C 9.543 5.967 10.215 4.879 10.74 3.91 C 10.8 3.799 10.764 3.662 10.659 3.592 C 8.866 2.408 7.072 1.223 5.278 0.039 Z" fill="rgb(238, 240, 255)" height="10.21832299309245px" id="cRQCK0XcM" transform="translate(136.278 32.24)" width="10.769160468634738px"/><path d="M 8.603 0.919 C 8.613 0.789 8.495 0.688 8.349 0.705 C 7.483 0.805 6.466 0.861 5.339 0.808 C 3.505 0.721 1.987 0.369 0.858 0.012 C 0.706 -0.036 0.538 0.065 0.525 0.212 C 0.35 2.171 0.176 4.128 0.001 6.086 C -0.009 6.186 0.06 6.274 0.167 6.297 C 1.279 6.538 2.613 6.752 4.135 6.848 C 5.531 6.936 6.798 6.906 7.891 6.826 C 8.015 6.817 8.118 6.725 8.127 6.613 C 8.285 4.714 8.444 2.817 8.603 0.919 Z" fill="rgb(238, 240, 255)" height="6.901301315562286px" id="ovk7sO8Cs" transform="translate(129.331 56.253)" width="8.603399916198015px"/></svg>