<svg display="block" role="presentation" viewBox="0 0 312 254" xmlns="http://www.w3.org/2000/svg"><path d="M 8.936 1.187 L 9.27 1.747 C 9.807 2.648 10.858 3.1 11.879 2.871 L 12.518 2.726 C 14.801 2.211 16.41 4.916 14.867 6.677 L 14.437 7.168 C 13.747 7.954 13.641 9.096 14.175 9.996 L 14.509 10.556 C 15.705 12.568 13.629 14.935 11.478 14.011 L 10.879 13.752 C 9.918 13.339 8.798 13.592 8.108 14.378 L 7.677 14.869 C 6.132 16.628 3.24 15.384 3.454 13.053 L 3.514 12.402 C 3.611 11.36 3.023 10.376 2.062 9.96 L 1.463 9.701 C -0.688 8.777 -0.399 5.642 1.884 5.127 L 2.523 4.982 C 3.544 4.75 4.3 3.889 4.397 2.847 L 4.457 2.196 C 4.671 -0.135 7.743 -0.827 8.939 1.184 Z" fill="rgb(63, 218, 124)" height="15.698217687289798px" id="QHTQ4h8ND" transform="translate(103.581 211.151)" width="15.476376697526177px"/><path d="M 19.705 12.16 L 18.257 12.82 C 17.348 13.235 16.884 14.262 17.172 15.22 L 17.633 16.741 C 18.142 18.427 16.384 19.9 14.815 19.105 L 13.395 18.388 C 12.503 17.936 11.413 18.213 10.845 19.038 L 9.94 20.346 C 8.942 21.794 6.691 21.339 6.336 19.617 L 6.012 18.06 C 5.81 17.081 4.913 16.4 3.915 16.47 L 2.333 16.581 C 0.577 16.705 -0.469 14.663 0.655 13.308 L 1.67 12.085 C 2.307 11.314 2.279 10.191 1.606 9.453 L 0.529 8.281 C -0.659 6.983 0.286 4.893 2.045 4.926 L 3.635 4.956 C 4.636 4.977 5.497 4.254 5.654 3.264 L 5.903 1.695 C 6.174 -0.046 8.399 -0.612 9.467 0.788 L 10.435 2.05 C 11.044 2.845 12.145 3.068 13.018 2.571 L 14.396 1.785 C 15.925 0.912 17.754 2.3 17.326 4.008 L 16.943 5.549 C 16.697 6.522 17.211 7.522 18.139 7.893 L 19.616 8.48 C 21.251 9.13 21.31 11.425 19.708 12.157 Z" fill="rgb(253, 100, 182)" height="21.211258143708328px" id="JummzXU3B" transform="translate(291.124 63.565)" width="20.87641580587365px"/><path d="M 18.173 10.86 L 16.281 11.725 C 15.57 12.05 15.209 12.851 15.434 13.598 L 16.037 15.586 C 16.434 16.902 15.061 18.052 13.832 17.432 L 11.98 16.492 C 11.281 16.14 10.431 16.354 9.985 16.998 L 8.804 18.706 C 8.024 19.838 6.265 19.483 5.985 18.133 L 5.563 16.101 C 5.403 15.336 4.705 14.806 3.925 14.86 L 1.852 15.005 C 0.479 15.101 -0.338 13.505 0.542 12.448 L 1.87 10.851 C 2.37 10.249 2.349 9.373 1.819 8.797 L 0.415 7.268 C -0.516 6.256 0.222 4.62 1.599 4.651 L 3.678 4.693 C 4.461 4.708 5.133 4.145 5.253 3.374 L 5.575 1.323 C 5.789 -0.036 7.527 -0.478 8.362 0.615 L 9.624 2.265 C 10.1 2.886 10.961 3.06 11.639 2.675 L 13.443 1.648 C 14.639 0.968 16.067 2.052 15.736 3.383 L 15.233 5.398 C 15.043 6.156 15.443 6.936 16.169 7.229 L 18.1 8 C 19.377 8.508 19.423 10.3 18.17 10.873 Z" fill="rgb(255, 223, 73)" height="19.382381240399667px" id="G1cGlfWSD" transform="translate(23.473 148.807)" width="19.08436548523301px"/><path d="M 4.498 0 L 0 4.575 L 4.577 9.071 L 9.075 4.496 Z" fill="rgb(244, 214, 80)" height="9.071483870967654px" id="M1KNQrnkC" transform="translate(283.176 244.265)" width="9.074838709677465px"/><path d="M 0 2.039 L 2.041 7.431 L 7.434 5.392 L 5.393 0 Z" fill="rgb(63, 218, 124)" height="7.430688172043006px" id="okFW6lJgQ" transform="translate(294.552 170.856)" width="7.433763440860275px"/><path d="M 6.088 0.274 L 0.23 0 L 0 4.907 L 5.859 5.181 Z" fill="rgb(253, 100, 182)" height="5.1809892473118px" id="okJA8d0px" transform="translate(0 116.338)" width="6.088259862086136px"/><path d="M 13.543 2.62 C 11.058 7.421 6.359 10.818 0.795 11.531 L 0 5.231 C 3.344 4.804 6.178 2.819 7.76 0 Z" fill="rgb(94, 239, 144)" height="11.531419354838718px" id="KBQKuYEqa" transform="translate(262.757 45.519)" width="13.54320430107532px"/><path d="M 4.532 0 L 0 2.351 L 2.351 6.882 L 6.884 4.531 Z" fill="rgb(63, 218, 124)" height="6.882172043010769px" id="JD7t5WTJA" transform="translate(15.054 205.503)" width="6.883541935483898px"/><path d="M 6.018 3.032 C 6.031 1.37 4.694 0.013 3.032 0 C 1.371 -0.013 0.013 1.324 0 2.985 C -0.013 4.647 1.324 6.004 2.986 6.017 C 4.648 6.03 6.006 4.693 6.018 3.032 Z" fill="rgb(226, 101, 160)" height="6.017169294111769px" id="xJiDi0MHs" transform="translate(230.452 0.659)" width="6.018485090886912px"/></svg>