<svg display="block" role="presentation" viewBox="0 0 288 307" xmlns="http://www.w3.org/2000/svg"><path d="M 58.998 25.211 C 61.133 15.479 49.714 4.704 33.493 1.146 C 17.272 -2.412 2.391 2.594 0.257 12.326 C -1.878 22.059 9.541 32.833 25.762 36.391 C 41.983 39.949 56.863 34.944 58.998 25.211 Z" fill="rgb(2, 1, 3)" height="37.53659149248131px" id="D_Zz4by2m" transform="translate(0.463 256.774)" width="59.254473377176964px"/><path d="M 58.998 25.209 C 61.133 15.477 49.714 4.704 33.493 1.146 C 17.272 -2.412 2.391 2.592 0.257 12.324 C -1.878 22.058 9.541 32.831 25.762 36.389 C 41.983 39.947 56.863 34.943 58.998 25.209 Z" fill="rgb(2, 1, 3)" height="37.535208447187244px" id="B6nS6IAwo" transform="translate(26.106 268.714)" width="59.254363215796694px"/><path d="M 31.894 70.319 L 25.456 67.58 C 2.757 57.929 -5.714 26.633 3.922 4.314 C 4.7 2.568 6.134 1.199 7.914 0.5 C 9.693 -0.196 11.676 -0.165 13.433 0.589 L 89.064 32.748 C 89.934 33.114 90.722 33.647 91.385 34.316 C 92.049 34.986 92.573 35.78 92.931 36.653 C 93.287 37.524 93.468 38.46 93.464 39.403 C 93.459 40.345 93.268 41.278 92.903 42.148 C 83.267 64.47 54.593 79.972 31.894 70.319 Z" fill="rgb(80, 90, 205)" height="73.24268050593645px" id="CFer3GClA" transform="translate(94.228 216.283)" width="93.46369465239553px"/><path d="M 98.937 60.838 L 110.436 32.216 L 69.476 16.657 L 28.958 0 L 17.458 28.627 L 3.418 39.81 C -2.298 45.026 -0.742 56.879 7.313 60.063 L 45.105 75.004 L 46.714 75.641 L 84.506 90.584 C 92.561 93.767 101.908 86.224 101.374 78.539 Z" fill="rgb(181, 255, 245)" height="91.33147613517772px" id="I854YG6vJ" transform="translate(97.904 161.517)" width="110.43648786461442px"/><path d="M 21.171 0 L 0 52.7" fill="transparent" height="52.69963636363633px" id="jQb3k6KQK" stroke-dasharray="" stroke-linecap="round" stroke-linejoin="miter" stroke-miterlimit="10" stroke-width="3.27" stroke="rgb(122, 224, 209)" transform="translate(138.811 180.322)" width="21.17109090909028px"/><path d="M 59.109 59.052 C 62.106 37.466 58.812 3.546 45.195 0.248 C 27.518 -4.031 8.976 48.156 0 68.313" fill="transparent" height="68.31317094152436px" id="wFV5rQ2lm" stroke-dasharray="" stroke-linecap="butt" stroke-linejoin="miter" stroke-miterlimit="10" stroke-width="46.73" stroke="rgb(80, 90, 205)" transform="translate(44.785 185.062)" width="60.13076992924613px"/><path d="M 58.543 54.555 C 61.54 32.97 62.981 3.57 49.364 0.27 C 32.047 -3.923 9.356 41.738 0 62.551" fill="transparent" height="62.55058218639468px" id="oRocOGf8Q" stroke-dasharray="" stroke-linecap="butt" stroke-linejoin="miter" stroke-miterlimit="10" stroke-width="46.73" stroke="rgb(80, 90, 205)" transform="translate(69.715 200.902)" width="60.546826734282675px"/><path d="M 25.786 0 L 0 51.776" fill="transparent" height="51.77624242424244px" id="UN72ldMUL" stroke-dasharray="" stroke-linecap="round" stroke-linejoin="round" stroke-width="3.27" stroke="rgb(61, 71, 189)" transform="translate(68.237 189.512)" width="25.78648484848435px"/><path d="M 18.674 0.738 L 82.409 30.41 C 84.307 31.294 85.777 32.897 86.494 34.863 C 87.211 36.83 87.118 39.003 86.234 40.9 L 78.79 56.891 C 77.906 58.789 76.304 60.26 74.337 60.977 C 72.369 61.693 70.197 61.601 68.299 60.717 L 4.564 31.045 C 2.665 30.161 1.196 28.56 0.478 26.592 C -0.24 24.624 -0.146 22.452 0.738 20.554 L 8.182 4.563 C 9.066 2.666 10.667 1.195 12.635 0.478 C 14.602 -0.24 16.774 -0.146 18.673 0.737 Z" fill="rgb(245, 252, 255)" height="61.45415964509195px" id="Bp0Gbajld" transform="translate(14.643 228.881)" width="86.97146388964805px"/><path d="M 44.895 0 C 46.099 18.301 46.584 45.03 46.072 60.783 C 46.047 61.555 45.818 62.307 45.409 62.963 C 44.999 63.618 44.424 64.154 43.74 64.516 C 43.058 64.877 42.29 65.052 41.518 65.022 C 40.746 64.992 39.996 64.759 39.342 64.344 L 0 39.498" fill="transparent" height="65.02534984106524px" id="oSO6QZ14G" stroke-dasharray="" stroke-linecap="butt" stroke-linejoin="round" stroke-width="37.38" stroke="rgb(181, 255, 245)" transform="translate(155.414 186.125)" width="46.27419560978578px"/><path d="M 0 0 L 15.936 10.829" fill="transparent" height="10.828606060606091px" id="rxByxNGHC" stroke-dasharray="" stroke-linecap="round" stroke-linejoin="miter" stroke-miterlimit="10" stroke-width="3.27" stroke="rgb(122, 224, 209)" transform="translate(170.347 219.021)" width="15.935636363635382px"/><path d="M 6.017 0 L 0 18.314 L 4.58 26.306 L 18.566 4.046 Z" fill="rgb(176, 159, 57)" height="26.306169696969697px" id="gVhzoUhRZ" transform="translate(137.541 63.552)" width="18.565733333333867px"/><path d="M 36.595 28.092 C 41.399 18.372 37.563 6.674 28.03 1.963 C 18.496 -2.748 6.874 1.312 2.071 11.031 C -2.732 20.75 1.103 32.449 10.637 37.16 C 20.17 41.871 31.792 37.811 36.595 28.092 Z" fill="rgb(255, 228, 199)" height="39.12275487213121px" id="IRfAzXG0C" transform="translate(115.624 80.023)" width="38.66661840614887px"/><path d="M 10.353 10.835 C 10.398 9.441 10.165 8.051 9.667 6.748 C 9.168 5.444 8.415 4.253 7.451 3.244 C 6.487 2.235 5.332 1.429 4.052 0.872 C 2.773 0.315 1.395 0.018 0 0" fill="transparent" height="10.835381818181816px" id="ErvY0d4I1" stroke-dasharray="" stroke-linecap="round" stroke-linejoin="round" stroke-width="3.27" stroke="rgb(230, 154, 123)" transform="translate(129.44 95.093)" width="10.358555725716059px"/><path d="M 64.407 145.695 L 25.789 133.24 C 6.022 126.864 -4.651 105.401 1.957 85.3 L 29.287 2.125 C 29.533 1.357 30.073 0.717 30.79 0.345 C 31.505 -0.027 32.339 -0.102 33.11 0.138 L 137.581 33.833 C 137.959 33.959 138.309 34.158 138.608 34.419 C 138.909 34.68 139.155 34.998 139.333 35.355 C 139.511 35.712 139.615 36.1 139.642 36.498 C 139.669 36.895 139.617 37.294 139.487 37.671 L 112.159 120.843 C 105.553 140.944 84.175 152.07 64.407 145.695 Z" fill="rgb(255, 228, 199)" height="147.49174887490426px" id="x36NvxLG8" transform="translate(131.632 29.712)" width="139.6486724643137px"/><path d="M 28.858 9.307 L 22.841 27.622 L 2.687 27.637 L 0 0 Z" fill="rgb(176, 159, 57)" height="27.636896969696977px" id="STZhSWMHU" transform="translate(243.725 95.857)" width="28.858424242424746px"/><path d="M 2.472 0.085 C 0.246 -0.63 -1.081 3.387 1.15 4.106 C 3.381 4.825 4.703 0.8 2.472 0.085 Z" fill="rgb(230, 154, 123)" height="4.191489331682163px" id="sTiBYWgFK" transform="translate(145.809 122.514)" width="3.6235634652231px"/><path d="M 2.472 0.085 C 0.247 -0.63 -1.081 3.386 1.15 4.105 C 3.381 4.824 4.703 0.804 2.472 0.085 Z" fill="rgb(230, 154, 123)" height="4.190802966720327px" id="E4Tw7cxbO" transform="translate(138.828 131.14)" width="3.623523840987815px"/><path d="M 2.472 0.085 C 0.246 -0.63 -1.081 3.386 1.151 4.106 C 3.383 4.826 4.704 0.8 2.472 0.085 Z" fill="rgb(230, 154, 123)" height="4.191666117137032px" id="bRLL9Zedu" transform="translate(149.101 133.879)" width="3.6241090258845645px"/><path d="M 2.694 0.11 C 5.238 0.931 3.922 4.953 1.374 4.131 C -1.174 3.309 0.146 -0.712 2.694 0.11 Z" fill="rgb(230, 154, 123)" height="4.241089121679153px" id="C3N5EY2CV" transform="translate(216.18 145.253)" width="4.066086201252972px"/><path d="M 2.696 0.11 C 5.239 0.931 3.923 4.953 1.374 4.13 C -1.174 3.309 0.146 -0.712 2.696 0.11 Z" fill="rgb(230, 154, 123)" height="4.240646132778636px" id="n9jtSGLfb" transform="translate(217.226 156.472)" width="4.067491541853116px"/><path d="M 2.695 0.11 C 5.239 0.931 3.923 4.953 1.373 4.131 C -1.175 3.309 0.147 -0.712 2.695 0.11 Z" fill="rgb(230, 154, 123)" height="4.241085493964704px" id="MCU7cWttb" transform="translate(205.861 152.231)" width="4.067071331504565px"/><path d="M 104.194 4.253 C 62.361 -9.239 18.272 9.775 0.413 55.509 C 0.128 56.219 -0.013 56.978 0.001 57.743 C 0.014 58.508 0.181 59.262 0.491 59.961 C 0.802 60.661 1.249 61.29 1.808 61.813 C 2.366 62.336 3.023 62.742 3.741 63.006 L 29.798 72.833 C 30.888 73.216 32.07 73.258 33.185 72.955 C 34.303 72.651 35.3 72.016 36.047 71.133 L 61.877 40.994 L 51.143 73.665 C 50.897 74.384 50.799 75.144 50.853 75.902 C 50.906 76.659 51.113 77.399 51.456 78.076 C 51.8 78.753 52.276 79.354 52.856 79.845 C 53.435 80.335 54.108 80.705 54.833 80.932 L 150.428 110.236 C 151.172 110.452 151.95 110.518 152.719 110.428 C 153.488 110.338 154.23 110.095 154.903 109.713 C 155.576 109.331 156.167 108.818 156.638 108.204 C 157.109 107.59 157.451 106.888 157.647 106.139 C 170.341 58.785 146.003 17.738 104.194 4.253 Z" fill="rgb(255, 244, 176)" height="110.46688639014384px" id="PtCRuwEiR" transform="translate(126.584 0.445)" width="161.0161159890043px"/><path d="M 4.491 3.447 C 5.08 2.255 4.61 0.819 3.44 0.241 C 2.27 -0.337 0.844 0.161 0.255 1.354 C -0.336 2.547 0.135 3.982 1.306 4.56 C 2.475 5.138 3.901 4.64 4.491 3.447 Z" fill="rgb(0, 0, 0)" height="4.801222240286222px" id="n7wePFysx" transform="translate(172.818 124.068)" width="4.744934099891736px"/><path d="M 0 0 C 1.07 3.669 4.836 6.681 9.667 7.312 C 14.497 7.943 18.953 5.995 20.991 2.729" fill="transparent" height="7.430379675603547px" id="vU1zXfBUO" stroke-dasharray="" stroke-linecap="round" stroke-linejoin="round" stroke-width="3.27" stroke="rgb(0, 0, 0)" transform="translate(167.413 136.657)" width="20.990666666666527px"/><path d="M 28.12 23.5 C 31.145 12.857 27.543 2.507 20.074 0.384 C 12.605 -1.74 4.098 5.167 1.072 15.81 C -1.954 26.454 1.647 36.803 9.116 38.927 C 16.585 41.05 25.094 34.144 28.12 23.5 Z" fill="rgb(255, 255, 255)" height="39.31037574180297px" id="SeRgd0BML" transform="translate(148.957 83.422)" width="29.19107268020676px"/><path d="M 6.536 28.259 C 1.169 26.74 -1.409 19.243 0.779 11.514 C 2.967 3.785 9.092 -1.249 14.459 0.27 C 18.337 1.368 20.759 5.589 20.978 10.762 L 18.267 10.158 C 16.061 9.665 13.768 11.258 13.144 13.715 C 12.517 16.172 13.8 18.562 16.006 19.054 L 18.809 19.679 C 18.95 19.711 19.092 19.734 19.233 19.748 C 16.525 25.888 11.24 29.591 6.536 28.259 Z" fill="rgb(0, 0, 0)" height="28.529417007876404px" id="bZAwDy1sX" transform="translate(149.815 92.845)" width="20.977533316487673px"/><path d="M 30.717 24.595 C 34.261 14.107 30.559 3.383 22.447 0.643 C 14.337 -2.098 4.888 4.182 1.345 14.669 C -2.199 25.157 1.504 35.88 9.614 38.621 C 17.725 41.362 27.173 35.082 30.717 24.595 Z" fill="rgb(255, 255, 255)" height="39.26363985026728px" id="nLNhxouDR" transform="translate(188.211 96.674)" width="32.06151747200764px"/><path d="M 6.886 28.043 C 1.058 26.077 -1.587 18.308 0.982 10.69 C 3.552 3.072 10.359 -1.51 16.19 0.455 C 20.512 1.913 23.083 6.562 23.076 11.974 L 20.159 11.036 C 19.004 10.678 17.756 10.791 16.684 11.349 C 15.611 11.907 14.804 12.866 14.436 14.017 C 14.244 14.582 14.166 15.179 14.206 15.774 C 14.245 16.369 14.403 16.951 14.667 17.485 C 14.934 18.019 15.302 18.495 15.752 18.886 C 16.202 19.277 16.725 19.576 17.291 19.764 L 20.305 20.736 C 20.456 20.783 20.608 20.822 20.762 20.852 C 17.615 26.593 11.891 29.73 6.886 28.043 Z" fill="rgb(0, 0, 0)" height="28.49782485185055px" id="uSiT_gz_g" transform="translate(189.187 105.284)" width="23.075899532697935px"/><path d="M 12.118 2.578 C 8.156 -0.318 3.32 -0.751 0 1.161" fill="transparent" height="2.577904696154917px" id="gi8exNqm6" stroke-dasharray="" stroke-linecap="round" stroke-linejoin="round" stroke-width="3.27" stroke="rgb(0, 0, 0)" transform="translate(201.747 82.438)" width="12.11757575757656px"/><path d="M 0 0 C 4.923 -0.03 9.089 2.44 10.638 5.922" fill="transparent" height="5.922284167232888px" id="Pke2TFQyt" stroke-dasharray="" stroke-linecap="round" stroke-linejoin="round" stroke-width="3.27" stroke="rgb(0, 0, 0)" transform="translate(172.233 71.588)" width="10.637939393939718px"/><path d="M 36.595 28.092 C 41.397 18.372 37.564 6.674 28.029 1.963 C 18.495 -2.748 6.874 1.312 2.071 11.031 C -2.732 20.75 1.102 32.449 10.636 37.16 C 20.17 41.871 31.792 37.811 36.595 28.092 Z" fill="rgb(255, 228, 199)" height="39.122751310353706px" id="iKpxZJF1H" transform="translate(238.466 119.643)" width="38.665791949609684px"/><path d="M 0 4.615 C 0.791 3.461 1.803 2.474 2.977 1.712 C 4.149 0.95 5.462 0.428 6.839 0.175 C 8.214 -0.078 9.626 -0.056 10.994 0.239 C 12.362 0.534 13.659 1.097 14.807 1.895" fill="transparent" height="4.615360085200308px" id="Bp8V0mMLK" stroke-dasharray="" stroke-linecap="round" stroke-linejoin="round" stroke-width="3.27" stroke="rgb(230, 154, 123)" transform="translate(250.121 136.899)" width="14.807393939395297px"/><path d="M 0.449 32.506 C 1.272 22.751 1.12 12.939 0 3.215 L 23.361 0 C 24.765 11.705 24.936 23.526 23.874 35.267 C 23.781 36.224 23.495 37.152 23.03 37.992 C 22.566 38.833 21.936 39.572 21.177 40.161 C 20.417 40.751 19.547 41.178 18.616 41.419 C 17.686 41.66 16.717 41.709 15.767 41.564 L 6.415 40.127 C 4.637 39.854 3.03 38.913 1.922 37.498 C 0.815 36.082 0.287 34.296 0.449 32.506 Z" fill="rgb(0, 163, 240)" height="41.645164651279px" id="Famigyb9X" transform="translate(189.004 192.12)" width="24.560088528813594px"/><path d="M 86.849 52.79 L 80.834 52.463 C 57.697 51.205 35.219 44.308 15.358 32.372 L 3.478 25.232 C 2.085 24.395 1.017 23.109 0.45 21.586 C -0.117 20.062 -0.149 18.39 0.358 16.846 L 4.272 4.934 C 4.616 3.888 5.196 2.935 5.967 2.15 C 6.738 1.364 7.679 0.766 8.718 0.402 C 9.758 0.039 10.867 -0.081 11.959 0.053 C 13.052 0.187 14.1 0.571 15.02 1.175 L 18.3 3.326 C 40.082 17.613 65.371 25.637 91.404 26.521 C 92.517 26.559 93.605 26.857 94.584 27.388 C 95.563 27.919 96.404 28.67 97.041 29.583 C 97.679 30.497 98.095 31.544 98.257 32.646 C 98.419 33.747 98.322 34.871 97.975 35.928 L 94.053 47.868 C 93.56 49.366 92.588 50.66 91.286 51.55 C 89.983 52.441 88.424 52.877 86.849 52.79 Z" fill="rgb(36, 180, 247)" height="52.801221082549915px" id="rJcUMO4Qi" transform="translate(126.22 146.256)" width="98.3334372917689px"/><path d="M 74.815 72.413 L 85.077 37.76 C 85.295 37.021 85.266 36.23 84.994 35.509 C 84.721 34.787 84.22 34.176 83.566 33.766 C 74.916 28.342 55.74 19.718 45.452 18.756 L 43.182 18.544 L 43.189 18.519 L 40.931 15.737 C 37.924 11.905 34.496 8.423 30.712 5.354 C 26.852 2.295 25.179 1.05 22.231 0.198 C 17.377 -0.517 11.133 0.838 7.7 2.139 C 7.044 2.543 6.506 3.112 6.139 3.789 C 5.799 4.285 5.521 4.821 5.312 5.384 C 3.55 15.775 1.788 26.166 0.025 36.557 C -0.438 38.147 5.7 37.489 7.206 38.202 L 8.501 38.813 C 14.461 41.626 19.779 45.633 24.125 50.587 L 31.203 58.672 L 31.171 58.781 L 31.308 58.794 L 31.453 58.958 L 31.496 58.809 L 33.021 58.942 C 43.333 59.835 62.559 68.409 71.251 73.785 C 71.566 73.979 71.921 74.097 72.289 74.131 C 72.657 74.165 73.027 74.113 73.372 73.981 C 73.717 73.848 74.027 73.637 74.277 73.366 C 74.527 73.094 74.712 72.768 74.815 72.413 Z" fill="rgb(255, 255, 255)" height="74.14100840040498px" id="peyIs_6d6" transform="translate(74.471 130.65)" width="85.22153825300062px"/><path d="M 67.848 81.799 L 80.126 39.484 C 80.287 38.929 80.265 38.339 80.065 37.798 C 79.865 37.258 79.496 36.796 79.014 36.481 L 78.104 35.883 C 68.301 29.459 57.121 25.433 45.471 24.135 L 42.899 23.848 L 42.907 23.82 L 39.656 22.049 C 33.218 13.863 25.933 5.521 16.864 0.395 C 16.31 0.137 15.706 0.002 15.095 0 C 14.483 -0.002 13.879 0.129 13.323 0.383 C 12.766 0.637 12.272 1.009 11.874 1.473 C 11.476 1.937 11.183 2.482 11.015 3.07 L 0.151 41.296 C -0.102 42.185 -0.036 43.134 0.337 43.98 C 0.71 44.824 1.367 45.513 2.194 45.924 L 3.66 46.655 C 5.154 47.401 6.612 48.211 8.032 49.084 C 14.422 53.064 19.789 58.489 23.701 64.92 C 24.602 66.382 25.891 67.566 27.426 68.338 L 29.492 69.379 C 30.795 70.024 32.196 70.446 33.638 70.629 C 44.535 72.094 54.973 75.949 64.206 81.919 C 64.345 82.297 64.6 82.624 64.935 82.849 C 65.27 83.074 65.667 83.188 66.07 83.175 C 66.474 83.161 66.863 83.021 67.182 82.775 C 67.501 82.527 67.734 82.186 67.848 81.799 Z" fill="rgb(98, 237, 142)" height="83.17607398980925px" id="h5ylQcaLw" transform="translate(69.07 133.167)" width="80.23279869155576px"/><path d="M 25.574 42.189 L 45.385 24.575 L 23.099 3.643 C 20.982 1.654 18.277 0.405 15.39 0.083 C 12.503 -0.24 9.589 0.381 7.085 1.853 L 6.631 2.121 C 4.796 3.199 3.243 4.697 2.1 6.494 C 0.958 8.288 0.258 10.331 0.059 12.45 C -0.14 14.569 0.167 16.704 0.954 18.682 C 1.742 20.66 2.988 22.421 4.59 23.824 Z" fill="rgb(36, 180, 247)" height="42.189204713507536px" id="UvDsi0wU3" transform="translate(118.841 195.118)" width="45.3854238850688px"/><path d="M 4.978 21.416 L 4.979 21.416 C 8.335 22.092 11.603 19.917 12.278 16.561 L 14.115 7.422 C 14.79 4.065 12.615 0.797 9.259 0.123 L 9.258 0.123 C 5.902 -0.552 2.634 1.623 1.96 4.979 L 0.123 14.119 C -0.552 17.475 1.622 20.741 4.978 21.416 Z" fill="rgb(36, 180, 247)" height="21.539042807722495px" id="ZliJS7TVl" transform="translate(142.283 193.82)" width="14.23780890725996px"/><path d="M 20.9 1.799 L 0.97 27.555 C -0.597 29.58 -0.226 32.49 1.799 34.056 L 11.4 41.486 C 13.424 43.052 16.336 42.682 17.902 40.657 L 37.833 14.902 C 39.399 12.877 39.027 9.966 37.004 8.398 L 27.403 0.97 C 25.378 -0.598 22.466 -0.226 20.9 1.799 Z" fill="rgb(245, 252, 255)" height="42.455817451550416px" id="c_mX62Sq2" transform="translate(133.477 202.046)" width="38.80178137928846px"/><path d="M 7.505 0 L 0 24.322" fill="transparent" height="24.3218181818182px" id="g5VTTI0J7" stroke-dasharray="" stroke-linecap="round" stroke-linejoin="round" stroke-width="3.54" stroke="rgb(84, 181, 155)" transform="translate(99.016 166.657)" width="7.505333333334633px"/><path d="M 22.641 17.451 C 24.584 9.426 21.213 1.723 15.113 0.247 C 9.013 -1.23 2.492 4.079 0.55 12.105 C -1.393 20.13 1.978 27.832 8.078 29.309 C 14.179 30.785 20.699 25.477 22.641 17.451 Z" fill="rgb(36, 180, 247)" height="29.55532991405414px" id="B4OLrwjwm" transform="translate(59.943 148.473)" width="23.19103293564322px"/><path d="M 12.268 0 L 0 26.351" fill="transparent" height="26.351393939393972px" id="WruevbksU" stroke-dasharray="" stroke-linecap="round" stroke-linejoin="miter" stroke-miterlimit="10" stroke-width="3.27" stroke="rgb(204, 240, 255)" transform="translate(47.539 244.016)" width="12.267745454544745px"/></svg>