<svg display="block" role="presentation" viewBox="0 0 279 218" xmlns="http://www.w3.org/2000/svg"><path d="M 153.796 18.031 C 161.157 27.571 154.879 38.612 143.659 47.602 L 16.973 134.472 L 0 112.478 L 115.425 11.014 C 126.526 1.869 136.082 -4.923 143.443 4.615 Z" fill="rgb(177, 198, 227)" height="134.4721567427939px" id="BFZcHD0BF" transform="translate(0.448 177.283)" width="156.97343531640576px"/><path d="M 2.12 28.407 L 37.197 95.733 C 38.43 98.099 40.174 100.161 42.303 101.768 C 44.431 103.376 46.892 104.489 49.505 105.027 C 52.117 105.565 54.817 105.514 57.408 104.878 C 59.998 104.242 62.414 103.037 64.482 101.35 L 122.147 54.295 L 106.878 35.828 L 60.938 65.575 L 45.943 17.505 C 44.792 13.815 42.799 10.443 40.121 7.656 C 37.442 4.869 34.153 2.743 30.512 1.445 C 26.87 0.148 22.977 -0.284 19.141 0.182 C 15.303 0.647 11.627 1.999 8.402 4.13 C 4.538 6.684 1.758 10.578 0.598 15.061 C -0.563 19.545 -0.021 24.3 2.12 28.407 Z" fill="rgb(184, 204, 233)" height="105.39555049809923px" id="XGN8b0o0R" transform="translate(112.526 185.061)" width="122.14712507754373px"/><path d="M 0 25.658 L 14.575 46.671 L 26.475 37.822 L 41.146 27.095 L 59.605 34.112 C 60.09 34.362 60.635 34.47 61.179 34.426 C 61.722 34.382 62.244 34.187 62.682 33.863 C 63.33 33.385 63.767 32.673 63.901 31.878 C 64.034 31.084 63.854 30.269 63.399 29.605 L 43.748 1.271 C 43.318 0.644 42.662 0.209 41.916 0.058 C 41.172 -0.093 40.397 0.053 39.757 0.463 L 12.547 17.74 Z" fill="rgb(42, 49, 55)" height="46.67116761646318px" id="LvbjL2gTs" transform="translate(215.049 197.534)" width="63.94371116965152px"/><path d="M 0 19.338 L 46.708 0 L 67.215 33.863" fill="transparent" height="33.862646884272976px" id="aZRiama7P" stroke-dasharray="" stroke-linecap="butt" stroke-linejoin="round" stroke-width="20.26" stroke="rgb(196, 148, 108)" transform="translate(136.808 110.206)" width="67.21516913946641px"/><path d="M 17.641 27.779 C 14.856 28.855 11.759 28.781 9.03 27.574 C 6.299 26.365 4.162 24.123 3.086 21.338 L 0.756 15.31 C -0.319 12.526 -0.245 9.43 0.963 6.699 C 2.17 3.97 4.413 1.832 7.197 0.756 C 9.981 -0.319 13.079 -0.245 15.808 0.963 C 18.538 2.17 20.675 4.413 21.751 7.197 L 24.081 13.225 C 25.157 16.009 25.082 19.107 23.875 21.836 C 22.667 24.566 20.425 26.703 17.641 27.779 Z" fill="rgb(196, 148, 108)" height="28.535807176858413px" id="iIrthu49V" transform="translate(191.145 131.912)" width="24.83753924271366px"/><path d="M 1.316 12.153 L 1.316 12.153 C 3.038 13.828 5.791 13.79 7.466 12.069 L 12.027 7.383 C 13.703 5.662 13.666 2.908 11.945 1.233 L 11.944 1.233 C 10.223 -0.443 7.469 -0.405 5.795 1.316 L 1.232 6.002 C -0.443 7.723 -0.406 10.477 1.316 12.153 Z" fill="rgb(196, 148, 108)" height="13.385102691953477px" id="v5p689LfI" transform="translate(187.279 141.762)" width="13.260214893760264px"/><path d="M 26.694 2.652 L 38.163 22.657 C 38.534 23.305 38.763 24.023 38.836 24.766 C 38.908 25.508 38.823 26.258 38.584 26.966 C 38.346 27.672 37.96 28.321 37.453 28.868 C 36.946 29.415 36.328 29.849 35.641 30.139 L 21.561 36.094 C 14.057 39.27 5.63 36.735 1.868 30.174 C -1.894 23.613 0.178 15.06 6.71 10.188 L 18.962 1.046 C 19.561 0.6 20.247 0.286 20.976 0.125 C 21.705 -0.037 22.459 -0.041 23.19 0.11 C 23.92 0.262 24.611 0.567 25.214 1.005 C 25.818 1.444 26.323 2.005 26.694 2.652 Z" fill="rgb(255, 223, 73)" height="37.45717642841879px" id="RHWPVkRlm" transform="translate(122.506 106.015)" width="38.86077119261793px"/><path d="M 27.793 0 L 0 4.306 L 5.132 37.424 L 32.925 33.117 Z" fill="rgb(166, 125, 92)" height="37.42426112759644px" id="jQ_yVO6cO" transform="translate(101.778 95.846)" width="32.92479525222562px"/><path d="M 2.084 18.271 L 0.017 56.423 C -0.102 58.618 0.402 60.801 1.471 62.722 C 2.539 64.642 4.129 66.222 6.056 67.278 C 8.309 68.513 10.906 68.971 13.445 68.578 L 50.303 62.867 C 52.136 62.582 53.874 61.865 55.374 60.773 L 56.01 60.31 C 58.101 58.79 59.627 56.619 60.348 54.137 C 61.07 51.655 60.946 49.004 59.996 46.6 L 41.592 0 L 21.403 15.28 Z" fill="rgb(255, 223, 73)" height="68.71485306661003px" id="vBltJaZY7" transform="translate(97.822 115.302)" width="60.81157393674523px"/><path d="M 1.905 2.455 C 1.996 1.136 1.645 0.036 1.122 0.001 C 0.6 -0.034 0.104 1.006 0.014 2.327 C -0.076 3.647 0.274 4.746 0.797 4.782 C 1.319 4.817 1.816 3.775 1.905 2.455 Z" fill="rgb(255, 255, 255)" height="4.782645975669794px" id="vdfslDX_U" transform="translate(98.995 138.435)" width="1.919781347615043px"/><path d="M 1.905 2.455 C 1.996 1.135 1.645 0.037 1.123 0.001 C 0.601 -0.034 0.105 1.006 0.014 2.326 C -0.076 3.646 0.274 4.745 0.796 4.78 C 1.319 4.816 1.816 3.774 1.905 2.455 Z" fill="rgb(255, 255, 255)" height="4.780839824523014px" id="Pf755DCnO" transform="translate(98.506 148.918)" width="1.9197835422245504px"/><path d="M 5.207 28.976 L 0 24.273 L 31.328 0 C 31.377 -0.007 35.868 1.483 39.738 2.773 C 40.255 2.945 40.715 3.258 41.065 3.676 C 41.415 4.093 41.643 4.599 41.724 5.139 C 41.803 5.679 41.732 6.23 41.518 6.732 C 41.304 7.233 40.955 7.665 40.511 7.981 L 10.454 29.285 C 9.675 29.838 8.73 30.108 7.777 30.052 C 6.822 29.996 5.916 29.617 5.207 28.976 Z" fill="rgb(255, 193, 99)" height="30.059363864805604px" id="wbQxGpATa" transform="translate(100.322 109.236)" width="41.755411553019556px"/><path d="M 36.406 0 L 0 5.641 L 1.247 13.693 L 37.654 8.052 Z" fill="rgb(2, 1, 3)" height="13.692818991097909px" id="sD4hxQ51R" transform="translate(110.173 178.408)" width="37.653863501483954px"/><path d="M 4.942 0 L 0 0.766 L 2.095 14.289 L 7.038 13.523 Z" fill="rgb(184, 204, 233)" height="14.289044510385736px" id="gGNb_sa_j" transform="translate(117.641 182.127)" width="7.038053412463626px"/><path d="M 22.131 27.508 C 29.179 23.43 31.587 14.41 27.508 7.362 C 23.43 0.314 14.41 -2.093 7.362 1.985 C 0.314 6.063 -2.093 15.083 1.985 22.131 C 6.063 29.179 15.083 31.586 22.131 27.508 Z" fill="rgb(196, 148, 108)" height="29.493150975353515px" id="D2UxDOwQu" transform="translate(41.742 69.479)" width="29.493394847776308px"/><path d="M 10.819 4.559 C 9.88 2.628 8.213 1.149 6.185 0.447 C 4.156 -0.256 1.932 -0.125 0 0.81" fill="transparent" height="4.558619795425116px" id="p8y7VP186" stroke-dasharray="" stroke-linecap="round" stroke-linejoin="round" stroke-width="3.02" stroke="rgb(147, 99, 79)" transform="translate(51.168 82.275)" width="10.818900890207061px"/><path d="M 74.528 0.3 L 21.294 8.549 C 7.573 10.675 -1.826 23.521 0.3 37.242 L 6.871 79.651 C 8.997 93.372 21.844 102.771 35.564 100.645 L 88.798 92.396 C 102.519 90.27 111.918 77.424 109.793 63.703 L 103.221 21.294 C 101.095 7.573 88.249 -1.826 74.528 0.3 Z" fill="rgb(196, 148, 108)" height="100.94486189264049px" id="IbwAZ3g9D" transform="translate(52.788 13.282)" width="110.09273394210311px"/><path d="M 50.718 50.072 L 60.371 45.514 L 55.83 16.215 C 55.445 13.73 54.575 11.345 53.269 9.197 C 51.962 7.049 50.245 5.179 48.216 3.694 C 46.187 2.21 43.886 1.139 41.442 0.544 C 38.999 -0.051 36.463 -0.159 33.978 0.226 L 0 5.491 L 2.605 22.305 L 19.146 19.742 C 24.563 18.903 30.104 19.959 34.832 22.733 C 39.56 25.507 43.187 29.827 45.097 34.965 Z" fill="rgb(153, 100, 70)" height="50.07206972955959px" id="Z4dAyrdJu" transform="translate(99.262 12.436)" width="60.370611275964876px"/><path d="M 11.065 37.703 L 0 32.485 L 16.296 0 L 27.363 5.218 Z" fill="rgb(252, 105, 175)" height="37.70302433234423px" id="nO8szJxfE" transform="translate(145.509 36.682)" width="27.36341839762656px"/><path d="M 10.589 2.156 L 11.059 9.611 L 0 4.387 L 6.066 0 Z" fill="rgb(232, 194, 127)" height="9.610803560830867px" id="e7WgWI5yM" transform="translate(161.811 32.292)" width="11.05887240356057px"/><path d="M 16.215 5.266 L 50.195 0 L 52.8 16.814 L 27.848 20.681 C 7.718 23.8 1.434 34.916 1.434 34.916 L 0.226 27.118 C -0.159 24.633 -0.051 22.097 0.544 19.654 C 1.139 17.211 2.21 14.909 3.694 12.88 C 5.179 10.851 7.049 9.134 9.197 7.828 C 11.345 6.521 13.73 5.651 16.215 5.266 Z" fill="rgb(153, 100, 70)" height="34.916225519287835px" id="raMMbN4Gi" transform="translate(51.947 17.481)" width="52.80042312486563px"/><path d="M 7.285 0.213 C 7.285 0.213 2.662 -1.148 0 3.005" fill="transparent" height="3.0049630095863478px" id="ElZ_SBUiV" stroke-dasharray="" stroke-linecap="round" stroke-linejoin="miter" stroke-miterlimit="10" stroke-width="3.05" stroke="rgb(0, 0, 0)" transform="translate(104.09 37.096)" width="7.285246290801737px"/><path d="M 0 1.074 C 0 1.074 3.993 -1.623 7.787 1.53" fill="transparent" height="1.5300692107271843px" id="JxIo5HUaT" stroke-dasharray="" stroke-linecap="round" stroke-linejoin="miter" stroke-miterlimit="10" stroke-width="3.05" stroke="rgb(0, 0, 0)" transform="translate(78.014 48.601)" width="7.786760830860871px"/><path d="M 13.86 31.561 C 20.021 30.606 23.925 22.788 22.579 14.1 C 21.232 5.411 15.146 -0.859 8.984 0.096 C 2.823 1.051 -1.081 8.868 0.266 17.557 C 1.612 26.246 7.698 32.515 13.86 31.561 Z" fill="rgb(255, 255, 255)" height="31.656822229752628px" id="B3wM8uQsG" transform="translate(69.869 50.99)" width="22.844224651516214px"/><path d="M 6.258 0.07 C 10.773 -0.629 15.232 3.964 16.218 10.33 C 17.205 16.696 14.345 22.423 9.83 23.123 C 5.629 23.774 1.476 19.841 0.125 14.162 C 0.525 14.243 0.947 14.256 1.374 14.19 L 3.833 13.809 C 5.768 13.509 7.093 11.698 6.793 9.764 C 6.493 7.829 4.682 6.504 2.748 6.804 L 0.289 7.185 C 0.191 7.2 0.095 7.219 0 7.242 C 0.823 3.422 3.148 0.552 6.258 0.07 Z" fill="rgb(0, 0, 0)" height="23.19294116315059px" id="FlXCgxCSu" transform="translate(76.666 57.399)" width="16.41269553729982px"/><path d="M 22.807 29.223 C 33.386 26.734 40.46 18.331 38.608 10.454 C 36.754 2.578 26.676 -1.79 16.096 0.699 C 5.516 3.188 -1.558 11.591 0.295 19.468 C 2.148 27.345 12.227 31.713 22.807 29.223 Z" fill="rgb(196, 148, 108)" height="29.922321550043847px" id="ZZ5ig8EZn" transform="translate(102.43 71.269)" width="38.902461360865914px"/><path d="M 0.852 18.436 C 2.705 26.313 10.31 30.214 16.692 29.224 C 27.432 27.559 34.344 18.331 32.493 10.455 C 30.642 2.578 20.561 -1.79 9.981 0.699 C -0.599 3.188 -1 10.559 0.852 18.436 Z" fill="rgb(196, 148, 108)" height="29.37505229757133px" id="QAMUY3Hwg" transform="translate(67.531 77.624)" width="32.79211141767807px"/><path d="M 0 7.826 C 0 7.826 7.909 -4.49 19.436 1.779" fill="transparent" height="7.826042795827114px" id="lwVnbRFNu" stroke-dasharray="" stroke-linecap="round" stroke-linejoin="round" stroke-width="3.04" stroke="rgb(0, 0, 0)" transform="translate(105.804 59.566)" width="19.43565578635051px"/><path d="M 1.435 2.87 C 2.228 2.87 2.87 2.228 2.87 1.435 C 2.87 0.642 2.228 0 1.435 0 C 0.643 0 0 0.642 0 1.435 C 0 2.228 0.643 2.87 1.435 2.87 Z" fill="rgb(0, 0, 0)" height="2.870029673590494px" id="xpA6s8xdF" transform="translate(123.888 86.094)" width="2.8700296735908353px"/><path d="M 78.007 14.062 C 76.82 6.404 73.377 -1.955 58.146 0.407 L 7.56 8.246 C 7.56 8.246 9.627 21.582 20.355 19.92 C 20.355 19.92 -5.147 19.337 0.939 58.613 L 37.652 52.924 C 37.652 52.924 54.71 52.019 57.945 33.394 C 61.18 14.769 78.007 14.062 78.007 14.062 Z" fill="rgb(79, 46, 31)" height="58.61310238267766px" id="yhunpbNer" transform="translate(41.595 0.712)" width="78.00656579751272px"/><path d="M 2.692 3.443 C 3.583 2.966 3.919 1.858 3.443 0.967 C 2.966 0.076 1.858 -0.26 0.968 0.216 C 0.076 0.693 -0.26 1.801 0.217 2.692 C 0.693 3.583 1.802 3.919 2.692 3.443 Z" fill="rgb(0, 0, 0)" height="3.659007459096145px" id="wKGwMD24B" transform="translate(96.209 78.582)" width="3.6593642960386887px"/><path d="M 22.132 27.508 C 29.18 23.43 31.587 14.41 27.509 7.362 C 23.431 0.314 14.41 -2.093 7.362 1.985 C 0.314 6.063 -2.093 15.083 1.985 22.131 C 6.063 29.179 15.083 31.587 22.132 27.508 Z" fill="rgb(196, 148, 108)" height="29.493391524000003px" id="x610hnvbZ" transform="translate(145.496 53.403)" width="29.493727041891304px"/><path d="M 0 6.93 C 0.31 4.806 1.452 2.892 3.172 1.609 C 4.893 0.325 7.052 -0.224 9.177 0.083" fill="transparent" height="6.930118576016682px" id="BGJJfjDR3" stroke-dasharray="" stroke-linecap="round" stroke-linejoin="round" stroke-width="3.02" stroke="rgb(147, 99, 79)" transform="translate(155.796 65.366)" width="9.17668842729995px"/><path d="M 9.726 0.396 C 10.039 0.206 10.386 0.081 10.748 0.028 C 11.11 -0.024 11.479 -0.004 11.832 0.089 C 12.186 0.182 12.517 0.345 12.807 0.568 C 13.096 0.791 13.338 1.071 13.517 1.389 C 19.618 12.266 19.413 18.219 16.024 20.274 C 12.636 22.327 7.262 19.755 0.441 9.316 C 0.242 9.009 0.106 8.666 0.042 8.306 C -0.022 7.946 -0.013 7.577 0.069 7.22 C 0.15 6.864 0.302 6.527 0.516 6.231 C 0.73 5.935 1.002 5.684 1.314 5.495 Z" fill="rgb(0, 0, 0)" height="20.925706527350982px" id="fwqxEMiMQ" transform="translate(97.161 82.41)" width="18.38238709761559px"/><path d="M 1.015 5.235 C 2.257 2.528 4.365 0.622 6.502 0 C 9.808 7.597 9.181 11.956 6.382 13.653 C 4.936 14.529 3.13 14.563 1.003 13.504 C -0.295 11.47 -0.377 8.269 1.015 5.235 Z" fill="rgb(197, 74, 137)" height="14.304569862006769px" id="yUMdJzOxC" transform="translate(106.804 89.031)" width="8.740096028584516px"/><path d="M 76.827 18.908 L 20.031 42.423 L 0 0" fill="transparent" height="42.42274183976261px" id="bWDL4r8tY" stroke-dasharray="" stroke-linecap="butt" stroke-linejoin="round" stroke-width="20.26" stroke="rgb(196, 148, 108)" transform="translate(48.165 124.498)" width="76.82717626112813px"/><path d="M 7.428 0.67 C 10.235 -0.344 13.33 -0.203 16.033 1.065 C 18.735 2.332 20.823 4.621 21.838 7.428 L 24.035 13.505 C 25.05 16.312 24.908 19.407 23.64 22.11 C 22.373 24.812 20.084 26.901 17.277 27.915 C 14.47 28.93 11.375 28.787 8.673 27.521 C 5.97 26.253 3.882 23.964 2.867 21.158 L 0.67 15.08 C -0.344 12.273 -0.202 9.178 1.065 6.475 C 2.332 3.773 4.621 1.685 7.428 0.67 Z" fill="rgb(196, 148, 108)" height="28.58541254658806px" id="k5NI02HV0" transform="translate(33.311 103.488)" width="24.705243478503505px"/><path d="M 12.113 1.3 L 12.113 1.3 C 10.429 -0.413 7.675 -0.436 5.963 1.248 L 1.3 5.835 C -0.413 7.519 -0.436 10.272 1.248 11.985 L 1.249 11.985 C 2.933 13.697 5.686 13.721 7.399 12.037 L 12.062 7.45 C 13.774 5.766 13.797 3.013 12.113 1.3 Z" fill="rgb(196, 148, 108)" height="13.284613083705509px" id="W1XMKctuR" transform="translate(48.685 109.075)" width="13.361415394751731px"/><path d="M 12.167 34.806 L 0.698 14.8 C 0.327 14.153 0.097 13.434 0.025 12.691 C -0.048 11.949 0.038 11.199 0.276 10.493 C 0.515 9.785 0.9 9.137 1.408 8.59 C 1.915 8.043 2.532 7.61 3.219 7.319 L 17.299 1.363 C 24.804 -1.812 33.232 0.722 36.992 7.284 C 40.754 13.844 38.682 22.397 32.15 27.27 L 19.896 36.411 C 19.298 36.856 18.612 37.17 17.884 37.331 C 17.156 37.492 16.401 37.498 15.671 37.346 C 14.94 37.194 14.25 36.889 13.647 36.451 C 13.042 36.014 12.539 35.453 12.167 34.806 Z" fill="rgb(255, 223, 73)" height="37.45589210055047px" id="gL38DkC0v" transform="translate(97.956 129.392)" width="38.86023576784582px"/></svg>