<svg display="block" role="presentation" viewBox="0 0 301 296" xmlns="http://www.w3.org/2000/svg"><path d="M 76.042 5.061 C 67.644 -1.12 54.865 1.648 45.903 11.019 C 44.623 8.059 42.585 5.488 39.995 3.566 C 30.254 -3.605 15.142 0.379 6.246 12.464 C -2.65 24.549 -1.96 40.16 7.782 47.333 C 16.466 53.725 29.411 51.248 38.422 42.075 C 39.612 44.754 41.474 47.08 43.828 48.827 C 53.183 55.714 67.977 51.498 76.873 39.408 C 85.768 27.319 85.399 11.947 76.042 5.061 Z" fill="rgb(133, 84, 84)" height="52.13426095338609px" id="jBhPZcEzD" transform="translate(6.33 115.686)" width="83.30939326581465px"/><path d="M 14.554 10.157 C 16.012 6.271 14.043 1.939 10.157 0.481 C 6.271 -0.977 1.939 0.991 0.481 4.877 C -0.977 8.764 0.991 13.096 4.877 14.554 C 8.764 16.012 13.096 14.043 14.554 10.157 Z" fill="rgb(94, 239, 144)" height="15.034680651449321px" id="dn6jabIWJ" transform="translate(285.497 280.62)" width="15.034680651449946px"/><path d="M 0.244 59.657 C -1.541 49.385 6.638 39.184 19.023 35.344 C 16.945 32.878 15.554 29.907 14.991 26.732 C 12.92 14.812 23.227 3.067 38.013 0.5 C 52.798 -2.068 66.462 5.512 68.531 17.429 C 70.378 28.054 62.384 38.535 50.154 42.505 C 52.019 44.766 53.267 47.471 53.779 50.356 C 55.766 61.802 45.392 73.161 30.608 75.729 C 15.822 78.298 2.233 71.109 0.244 59.657 Z" fill="rgb(133, 84, 84)" height="76.24989636227279px" id="XHSx4ptRW" transform="translate(118.102 49.763)" width="68.79615639572069px"/><path d="M 26.29 2.293 C 29.387 4.343 31.546 7.537 32.296 11.175 C 33.044 14.813 32.321 18.6 30.284 21.707 L 25.424 28.86 C 23.263 31.879 19.994 33.92 16.333 34.537 C 12.673 35.154 8.915 34.298 5.882 32.155 C 2.896 30.066 0.859 26.88 0.216 23.293 C -0.427 19.705 0.378 16.01 2.453 13.014 L 6.879 6.292 C 8.931 3.196 12.122 1.038 15.76 0.289 C 19.397 -0.46 23.182 0.26 26.29 2.293 Z" fill="rgb(247, 206, 168)" height="34.73269086018725px" id="n6irHSp5B" transform="translate(174.023 78.992)" width="32.583578915158824px"/><path d="M 4.651 0.053 C 7.601 -0.366 9.802 1.771 10.329 4.704 L 11.765 12.722 C 12.013 14.135 11.692 15.59 10.872 16.767 C 10.052 17.945 8.798 18.75 7.387 19.007 C 5.973 19.256 4.519 18.935 3.341 18.115 C 2.165 17.294 1.359 16.041 1.103 14.63 L 0.052 6.175 C -0.146 4.754 0.227 3.312 1.089 2.165 C 1.95 1.018 3.231 0.258 4.651 0.053 Z" fill="rgb(247, 206, 168)" height="19.089361018625553px" id="fy53OvpYy" transform="translate(181.734 68.952)" width="11.846914861243192px"/><path d="M 0 41.53 C 14.175 45.54 50.733 33.641 67.624 0" fill="transparent" height="42.2767252005019px" id="OCUH5zTZ_" stroke-dasharray="" stroke-linecap="butt" stroke-linejoin="miter" stroke-miterlimit="10" stroke-width="33.23" stroke="rgb(255, 187, 187)" transform="translate(122.38 95.786)" width="67.6237714285711px"/><path d="M 30.333 33.379 C 42.122 27.319 48.253 15.742 44.027 7.521 C 39.801 -0.7 26.819 -2.452 15.03 3.608 C 3.241 9.669 -2.89 21.245 1.336 29.466 C 5.562 37.687 18.545 39.439 30.333 33.379 Z" fill="rgb(203, 148, 126)" height="36.98726874421419px" id="UtJYiuTOr" transform="translate(89.308 118.136)" width="45.36332634700386px"/><path d="M 22.983 69.415 L 0 21.943 C 3.469 28.69 15.837 29.247 27.626 23.188 C 39.415 17.129 46.159 6.745 42.691 0 L 66.797 46.892" fill="rgb(253, 251, 253)" height="69.41496149068323px" id="VvaPj0zVI" transform="translate(89.837 122.694)" width="66.79726211179822px"/><path d="M 22.694 0 C 10.576 6.23 -4.746 21.086 1.404 51.853" fill="transparent" height="51.853431055900614px" id="XdsxzxuVC" stroke-dasharray="" stroke-linecap="butt" stroke-linejoin="miter" stroke-miterlimit="10" stroke-width="33.23" stroke="rgb(255, 187, 187)" transform="translate(73.161 155.668)" width="22.693978705544254px"/><path d="M 86.774 0 L 0 44.606 L 17.949 73.842 L 104.723 29.236 Z" fill="rgb(72, 99, 107)" height="73.84245465838512px" id="KmBdYSWCp" transform="translate(96.193 171.489)" width="104.72289689441223px"/><path d="M 7.473 16.055 C 7.473 16.055 -0.018 21.361 0 30.121 C 0.009 34.407 5.158 36.983 9.338 34.835 L 34.924 21.683 C 35.565 21.373 36.114 20.904 36.518 20.319 C 36.923 19.734 37.168 19.053 37.231 18.346 L 37.401 15.654 L 39.396 17.352 C 39.855 17.724 40.413 17.955 41.001 18.013 C 41.588 18.073 42.181 17.96 42.705 17.687 L 45.736 16.127 C 46.015 16.005 46.264 15.823 46.468 15.596 C 46.672 15.371 46.825 15.104 46.92 14.815 C 47.014 14.524 47.046 14.218 47.013 13.916 C 46.981 13.614 46.886 13.321 46.733 13.057 L 38.717 0 Z" fill="rgb(44, 43, 71)" height="35.607550731831225px" id="kYYtTryvA" transform="translate(129.386 246.269)" width="47.02552757818907px"/><path d="M 41.589 0 L 0 21.379 L 33.348 75.702 L 74.937 54.321 Z" fill="rgb(72, 99, 107)" height="75.70166459627333px" id="KAFH154lw" transform="translate(96.193 194.718)" width="74.93736149068533px"/><path d="M 9.234 11.087 C 9.234 11.087 12.901 2.564 21.627 0.197 C 25.898 -0.963 29.578 3.2 28.342 7.732 L 20.78 35.491 C 20.596 36.196 20.243 36.847 19.751 37.386 C 19.259 37.923 18.642 38.334 17.956 38.578 L 15.311 39.473 L 17.435 40.895 C 17.904 41.229 18.257 41.702 18.445 42.246 C 18.631 42.789 18.644 43.378 18.48 43.93 L 17.584 47.221 C 17.441 47.833 17.063 48.364 16.53 48.697 C 15.997 49.031 15.354 49.139 14.74 48.998 L 0 44.986 Z" fill="rgb(44, 43, 71)" height="49.05842467312564px" id="aj_LnZ65r" transform="translate(204.776 185.303)" width="28.58420835653851px"/><path d="M 12.293 0 L 0 45.117 L 61.323 61.827 L 73.617 16.709 Z" fill="rgb(72, 99, 107)" height="61.82716024844723px" id="kXLTxc9C9" transform="translate(146.021 170.606)" width="73.61669068322723px"/><path d="M 113.283 42.168 L 23.669 88.235 C 23.215 88.467 22.721 88.609 22.213 88.651 C 21.705 88.692 21.193 88.634 20.708 88.479 C 20.223 88.322 19.773 88.072 19.384 87.743 C 18.995 87.413 18.675 87.01 18.442 86.557 L 0.429 51.515 C 0.116 50.905 -0.03 50.224 0.005 49.539 C 0.041 48.855 0.257 48.192 0.632 47.618 L 18.846 19.735 C 19.366 18.938 20.162 18.36 21.081 18.111 C 22 17.863 22.978 17.961 23.83 18.387 L 46.868 29.902 C 47.409 30.173 48.006 30.313 48.61 30.312 C 49.215 30.312 49.811 30.169 50.351 29.897 C 50.891 29.625 51.36 29.231 51.72 28.745 C 52.081 28.26 52.322 27.697 52.427 27.101 L 56.347 4.703 C 56.5 3.833 56.944 3.041 57.608 2.458 C 58.271 1.875 59.114 1.536 59.996 1.496 L 93.428 0.004 C 94.17 -0.029 94.906 0.151 95.548 0.524 C 96.191 0.896 96.713 1.446 97.053 2.107 L 114.96 36.941 C 115.192 37.395 115.336 37.889 115.376 38.398 C 115.419 38.905 115.361 39.417 115.204 39.902 C 115.049 40.388 114.799 40.837 114.469 41.226 C 114.14 41.615 113.737 41.935 113.283 42.168 Z" fill="rgb(255, 187, 187)" height="88.664026085606px" id="hy9eXsPHq" transform="translate(76.412 134.026)" width="115.38976035085952px"/><path d="M 13.579 0.33 L 1.617 6.479 C 0.154 7.231 -0.422 9.026 0.33 10.488 L 0.718 11.243 C 1.469 12.705 3.264 13.281 4.726 12.529 L 16.689 6.38 C 18.151 5.628 18.728 3.833 17.976 2.371 L 17.588 1.617 C 16.836 0.154 15.041 -0.422 13.579 0.33 Z" fill="rgb(253, 251, 253)" height="12.859041300982653px" id="p7n3K0lsK" transform="translate(146.208 144.942)" width="18.30575524073214px"/><path d="M 3.249 5.886 C 4.87 5.721 6.051 4.273 5.885 2.652 C 5.72 1.03 4.272 -0.15 2.651 0.015 C 1.03 0.181 -0.15 1.629 0.015 3.25 C 0.181 4.871 1.629 6.051 3.249 5.886 Z" fill="rgb(222, 222, 222)" height="5.901078289617146px" id="IouJgWXio" transform="translate(129.711 173.878)" width="5.900884548534577px"/><path d="M 3.25 5.886 C 4.87 5.72 6.051 4.272 5.885 2.652 C 5.72 1.03 4.272 -0.15 2.652 0.015 C 1.03 0.181 -0.15 1.629 0.015 3.249 C 0.181 4.871 1.629 6.051 3.25 5.886 Z" fill="rgb(222, 222, 222)" height="5.90159097687561px" id="ZmF70z_kv" transform="translate(135.183 184.522)" width="5.900884548533469px"/><path d="M 1.217 20.366 L 38.082 43.36 L 40.835 0 L 53.486 7.57 C 54.633 8.256 55.465 9.365 55.803 10.657 C 56.141 11.95 55.959 13.324 55.296 14.484 L 47.763 27.669 C 48.625 27.896 49.412 28.344 50.047 28.969 C 50.682 29.595 51.142 30.375 51.382 31.234 C 51.621 32.092 51.632 32.998 51.413 33.862 C 51.193 34.726 50.751 35.517 50.131 36.157 L 41.248 45.331 C 40.386 46.332 39.167 46.959 37.851 47.077 L 25.219 48.965 C 24.337 49.097 23.437 48.995 22.607 48.671 C 21.776 48.347 21.046 47.811 20.487 47.116 C 19.929 46.422 19.562 45.593 19.422 44.713 C 19.284 43.833 19.377 42.932 19.695 42.099 L 4.586 40.554 C 3.257 40.418 2.034 39.766 1.179 38.739 C 0.325 37.711 -0.092 36.39 0.017 35.058 Z" fill="rgb(125, 124, 125)" height="49.02117465959728px" id="X4ujUPeYM" transform="translate(88.277 121.207)" width="55.96923958374951px"/><path d="M 1.217 20.366 L 38.082 43.36 L 40.835 0 L 53.486 7.57 C 54.633 8.256 55.465 9.365 55.803 10.657 C 56.141 11.95 55.959 13.324 55.296 14.484 L 47.763 27.669 C 48.625 27.896 49.412 28.344 50.047 28.969 C 50.682 29.595 51.142 30.375 51.382 31.234 C 51.621 32.092 51.632 32.998 51.413 33.862 C 51.193 34.726 50.751 35.517 50.131 36.157 L 41.248 45.331 C 40.386 46.332 39.167 46.959 37.851 47.077 L 25.219 48.965 C 24.337 49.097 23.437 48.995 22.607 48.671 C 21.776 48.347 21.046 47.811 20.487 47.116 C 19.929 46.422 19.562 45.593 19.422 44.713 C 19.284 43.833 19.377 42.932 19.695 42.099 L 4.586 40.554 C 3.257 40.418 2.034 39.766 1.179 38.739 C 0.325 37.711 -0.092 36.39 0.017 35.058 Z" fill="rgb(234, 150, 150)" height="49.02117465959728px" id="p4rNqN3pS" transform="translate(88.277 121.207)" width="55.96923958374951px"/><path d="M 138.511 33.723 C 156.279 68.287 133.477 96.865 96.895 115.671 C 60.313 134.477 23.802 136.387 6.034 101.823 C -9.267 72.058 5.21 27.285 41.792 8.475 C 78.375 -10.336 123.21 3.96 138.511 33.723 Z" fill="rgb(247, 206, 168)" height="129.01443992135856px" id="j5fzJzyyd" transform="translate(15.551 21.832)" width="144.66405887033295px"/><path d="M 41.768 8.475 C 67.988 -5.007 98.448 -1.483 119.234 12.555 C 109.053 18.561 93.584 22.767 76.123 23.521 C 66.86 23.97 57.577 23.299 48.476 21.523 C 44.623 29.96 39.766 37.901 34.011 45.174 C 23.235 58.937 10.811 69.07 0 73.853 C 0.681 48.78 15.546 21.958 41.768 8.475 Z" fill="rgb(133, 84, 84)" height="73.85315969112924px" id="CV1kx55oV" transform="translate(15.575 21.832)" width="119.23364061570146px"/><path d="M 21.57 39.068 C 32.331 37.972 40.165 28.361 39.069 17.601 C 37.972 6.84 28.361 -0.994 17.601 0.102 C 6.84 1.199 -0.994 10.81 0.102 21.57 C 1.199 32.331 10.81 40.165 21.57 39.068 Z" fill="rgb(247, 206, 168)" height="39.17084600677758px" id="xlYsPaYtC" transform="translate(140.24 38.446)" width="39.17100557981658px"/><path d="M 0.166 12.477 C -0.333 9.669 0.303 6.779 1.933 4.44 C 3.564 2.1 6.056 0.504 8.862 0" fill="transparent" height="12.47651180124224px" id="Lqk9wzhK1" stroke-dasharray="" stroke-linecap="round" stroke-linejoin="round" stroke-width="4.01" stroke="rgb(230, 154, 123)" transform="translate(155.795 52.65)" width="8.86209083109037px"/><path d="M 0 2.611 C 1.274 1.519 2.784 0.737 4.411 0.328 C 6.039 -0.082 7.739 -0.108 9.378 0.252" fill="transparent" height="2.611378960191587px" id="yVLn79ETS" stroke-dasharray="" stroke-linecap="round" stroke-linejoin="round" stroke-width="3.32" stroke="rgb(0, 0, 0)" transform="translate(85.655 52.048)" width="9.378409937884754px"/><path d="M 7.22 0 C 5.623 0.415 4.141 1.191 2.89 2.267 C 1.638 3.343 0.65 4.692 0 6.209" fill="transparent" height="6.209381366459624px" id="e5lYfh3Bu" stroke-dasharray="" stroke-linecap="round" stroke-linejoin="round" stroke-width="3.32" stroke="rgb(0, 0, 0)" transform="translate(53.294 67.55)" width="7.220183850932003px"/><path d="M 0 1.035 L 11.558 0" fill="transparent" height="1.0348322981366351px" id="EixeefOoH" stroke-dasharray="" stroke-linecap="round" stroke-linejoin="round" stroke-width="2.66" stroke="rgb(217, 172, 132)" transform="translate(38.912 101.804)" width="11.557565217391193px"/><path d="M 5.6 0 L 0 6.467" fill="transparent" height="6.466539130434782px" id="YBYFM2jrK" stroke-dasharray="" stroke-linecap="round" stroke-linejoin="round" stroke-width="2.66" stroke="rgb(217, 172, 132)" transform="translate(47.307 109.047)" width="5.600496894408806px"/><path d="M 7.567 0 L 0 8.796" fill="transparent" height="8.796074534161505px" id="poEAdLJ6X" stroke-dasharray="" stroke-linecap="round" stroke-linejoin="round" stroke-width="2.66" stroke="rgb(217, 172, 132)" transform="translate(119.483 57.53)" width="7.56725962733185px"/><path d="M 0 0.791 L 8.517 0" fill="transparent" height="1px" id="p87WpYUfh" stroke-dasharray="" stroke-linecap="round" stroke-linejoin="round" stroke-width="2.66" stroke="rgb(217, 172, 132)" transform="translate(123.955 71.732)" width="8.517406211178212px"/><path d="M 21.571 39.069 C 32.331 37.972 40.165 28.361 39.069 17.601 C 37.972 6.84 28.361 -0.994 17.601 0.102 C 6.84 1.199 -0.994 10.81 0.102 21.57 C 1.199 32.331 10.81 40.165 21.571 39.069 Z" fill="rgb(247, 206, 168)" height="39.17100557981833px" id="y6m3ZSUsP" transform="translate(0.816 110.119)" width="39.170871246376414px"/><path d="M 15.207 3.24 C 13.214 1.201 10.494 0.036 7.643 0.001 C 4.792 -0.035 2.043 1.062 0 3.051" fill="transparent" height="3.2404105066983107px" id="giSNtxhRV" stroke-dasharray="" stroke-linecap="round" stroke-linejoin="round" stroke-width="4.01" stroke="rgb(230, 154, 123)" transform="translate(13.215 127.452)" width="15.207190062114258px"/><path d="M 18.846 0 C 11.648 2.53 5.178 6.782 0 12.386" fill="transparent" height="12.386012422360267px" id="NnElRIVS5" stroke-dasharray="" stroke-linecap="round" stroke-linejoin="round" stroke-width="3.69" stroke="rgb(0, 0, 0)" transform="translate(60.513 90.506)" width="18.84576894410145px"/><path d="M 17.04 0.441 C 17.483 0.204 17.969 0.059 18.47 0.015 C 18.97 -0.03 19.474 0.027 19.952 0.183 C 20.43 0.338 20.871 0.588 21.25 0.918 C 21.629 1.248 21.937 1.652 22.156 2.104 C 28.674 15.386 26.969 23.031 21.412 26.02 C 15.856 29.01 8.423 26.314 0.579 13.835 C 0.306 13.402 0.124 12.919 0.045 12.413 C -0.034 11.908 -0.008 11.392 0.121 10.897 C 0.25 10.402 0.479 9.939 0.795 9.536 C 1.111 9.134 1.506 8.8 1.956 8.557 Z" fill="rgb(0, 0, 0)" height="27.133858519448893px" id="R0uSmxMfK" transform="translate(86.759 101.661)" width="26.357913881586967px"/><path d="M 12.765 15.196 C 9.203 17.112 4.869 16.692 0.15 12.854 C -0.812 9.089 2.936 4.2 8.946 1.606 C 11.698 0.419 14.475 -0.094 16.876 0.014 C 18.965 8.017 16.965 12.936 12.765 15.196 Z" fill="rgb(198, 74, 138)" height="16.308916884284343px" id="PcXxmdr_N" transform="translate(95.406 112.486)" width="17.71104040746586px"/><path d="M 2.328 4.217 C 3.49 4.099 4.336 3.061 4.217 1.9 C 4.099 0.738 3.061 -0.107 1.9 0.011 C 0.738 0.129 -0.107 1.167 0.011 2.328 C 0.129 3.49 1.167 4.336 2.328 4.217 Z" fill="rgb(0, 0, 0)" height="4.228468511066481px" id="W1HyhBRvG" transform="translate(90.492 96.643)" width="4.228308927910248px"/><path d="M 0 8.115 C 6.247 3.735 13.471 0.949 21.041 0" fill="transparent" height="8.115100621118017px" id="DTf0WEB_O" stroke-dasharray="" stroke-linecap="round" stroke-linejoin="round" stroke-width="3.69" stroke="rgb(0, 0, 0)" transform="translate(93.55 75.095)" width="21.041202484475136px"/><path d="M 40.003 45.801 L 37.795 46.417 C 37.29 46.559 36.765 46.609 36.243 46.565 C 30.832 46.122 21.909 43.911 14.711 48.356 C 12.987 49.42 9.406 48.458 8.71 46.739 L 0 27.091 C 0 27.091 0.651 17.508 0.728 17.184 C 0.809 16.903 0.962 16.649 1.174 16.447 C 5.177 12.361 10.632 10.022 16.351 9.94 C 20.715 9.933 25.034 10.82 29.042 12.547 C 29.273 12.644 29.502 12.745 29.73 12.848 C 33.322 7.527 38.473 3.449 44.476 1.174 C 49.335 -0.231 54.471 -0.378 59.402 0.749 C 59.688 0.812 59.951 0.949 60.165 1.148 C 60.399 1.386 62.73 8.834 62.792 9.219 L 65.256 30.961 C 65.551 32.793 62.984 35.47 60.96 35.451 C 52.497 35.371 46.007 41.878 41.608 45.059 C 41.181 45.367 40.704 45.598 40.198 45.74 L 37.99 46.357" fill="rgb(253, 251, 253)" height="48.801505387244106px" id="K8iVj1n1K" transform="translate(70.572 136.04)" width="65.27945694165051px"/><path d="M 42.401 45.802 L 40.194 46.417 C 39.689 46.558 39.163 46.609 38.641 46.566 C 33.231 46.122 24.308 43.911 17.109 48.356 C 15.387 49.42 11.805 48.459 11.11 46.738 L 0.145 19.638 C 0 19.309 -0.037 18.943 0.038 18.592 C 0.118 18.312 0.272 18.058 0.484 17.857 C 4.119 14.34 8.589 11.806 13.474 10.493 C 19.79 9.332 26.31 10.154 32.139 12.848 C 35.731 7.528 40.883 3.45 46.886 1.174 C 51.745 -0.231 56.881 -0.378 61.812 0.75 C 62.098 0.813 62.361 0.951 62.575 1.149 C 62.821 1.411 62.979 1.743 63.026 2.099 L 67.667 30.965 C 67.961 32.796 65.394 35.473 63.37 35.453 C 54.908 35.374 48.417 41.882 44.016 45.062 C 43.591 45.37 43.113 45.603 42.606 45.742 L 40.399 46.359" fill="rgb(255, 237, 102)" height="48.80202638407266px" id="YzmVxvvKV" transform="translate(70.628 144.85)" width="67.6898357060643px"/><path d="M 0 0 L 5.337 19.133" fill="transparent" height="19.133351552795034px" id="iCYqn5Eb7" stroke-dasharray="" stroke-linecap="round" stroke-linejoin="miter" stroke-miterlimit="10" stroke-width="2.9" stroke="rgb(255, 179, 28)" transform="translate(104.425 164.064)" width="5.337137888195443px"/><path d="M 33.4 7.106 C 35.215 10.347 35.674 14.174 34.674 17.753 C 33.674 21.331 31.299 24.367 28.066 26.197 L 20.471 30.334 C 17.167 32.028 13.328 32.347 9.79 31.22 C 6.253 30.094 3.305 27.615 1.589 24.323 C -0.11 21.098 -0.462 17.333 0.608 13.848 C 1.679 10.366 4.086 7.447 7.302 5.734 L 14.315 1.792 C 17.553 -0.021 21.377 -0.48 24.953 0.515 C 28.528 1.511 31.565 3.88 33.4 7.106 Z" fill="rgb(247, 206, 168)" height="31.883010088962152px" id="cPQ28WPTw" transform="translate(79.819 180.462)" width="35.19213007767361px"/><path d="M 5.163 0.006 C 8.138 -0.133 10.13 2.203 10.377 5.172 L 11.051 13.289 C 11.165 14.719 10.709 16.137 9.782 17.232 C 8.854 18.327 7.531 19.011 6.102 19.133 C 4.671 19.248 3.253 18.792 2.158 17.864 C 1.063 16.938 0.379 15.614 0.255 14.184 L 0.005 5.67 C -0.058 4.236 0.45 2.836 1.416 1.774 C 2.382 0.713 3.729 0.077 5.163 0.006 Z" fill="rgb(247, 206, 168)" height="19.150559071810676px" id="lZ4O5UCga" transform="translate(84.702 176.91)" width="11.068256488800415px"/><path d="M 26.395 0.469 L 42.326 28.964 C 42.444 29.177 42.474 29.427 42.408 29.662 C 42.342 29.896 42.185 30.094 41.973 30.212 L 25.655 39.336 C 23.678 40.44 21.504 41.146 19.255 41.411 C 17.006 41.675 14.727 41.495 12.548 40.878 C 10.369 40.262 8.333 39.221 6.556 37.818 C 4.779 36.415 3.296 34.675 2.192 32.699 C -0.039 28.708 -0.594 23.995 0.651 19.596 C 1.895 15.197 4.836 11.473 8.826 9.242 L 25.148 0.117 C 25.36 -0.002 25.611 -0.032 25.845 0.035 C 26.079 0.101 26.277 0.257 26.395 0.469 Z" fill="rgb(255, 187, 187)" height="41.52885623984983px" id="aLkg1laho" transform="translate(57.922 183.33)" width="42.442375144624876px"/><path d="M 28.607 36.902 C 38.694 31.985 43.077 20.22 38.399 10.624 C 33.719 1.028 21.751 -2.765 11.665 2.153 C 1.579 7.07 -2.805 18.835 1.874 28.431 C 6.552 38.027 18.52 41.819 28.607 36.902 Z" fill="rgb(255, 237, 102)" height="39.0546776193383px" id="KYKXmjrer" transform="translate(168.821 0.086)" width="40.27290877733134px"/><path d="M 12.433 22.731 C 7.927 20.193 -0.703 14.655 0.046 8.832 C 0.271 7.407 1.038 6.124 2.187 5.251 C 3.846 3.936 6.767 2.842 10.536 6.367 C 11.179 6.974 14.136 11.758 11.458 11.617 C 10.662 11.576 9.98 10.109 9.7 9.561 C 8.797 7.695 8.584 5.569 9.1 3.56 C 9.487 2.386 10.282 1.389 11.34 0.749 C 12.398 0.109 13.65 -0.132 14.871 0.069 C 21.868 1.605 20.797 13.434 19.94 19.07" fill="transparent" height="22.73065380748437px" id="ZBIbt1fnp" stroke-dasharray="" stroke-linecap="round" stroke-linejoin="miter" stroke-miterlimit="10" stroke-width="2.9" stroke="rgb(255, 179, 28)" transform="translate(179.917 13.359)" width="20.563533592668023px"/><path d="M 19.806 0.328 L 1.82 9.097 C 0.212 9.88 -0.455 11.818 0.328 13.424 L 0.345 13.461 C 1.13 15.067 3.066 15.735 4.673 14.951 L 22.66 6.183 C 24.267 5.399 24.933 3.462 24.15 1.855 L 24.133 1.819 C 23.348 0.212 21.412 -0.455 19.806 0.328 Z" fill="rgb(194, 193, 188)" height="15.279542593457833px" id="KcNkQ5Qsn" transform="translate(184.542 28.535)" width="24.478353191332474px"/><path d="M 17.573 0.293 L 1.624 8.069 C 0.19 8.768 -0.407 10.499 0.293 11.935 L 0.295 11.938 C 0.994 13.374 2.725 13.97 4.161 13.27 L 20.11 5.495 C 21.544 4.795 22.141 3.064 21.441 1.628 L 21.439 1.625 C 20.74 0.19 19.009 -0.407 17.573 0.293 Z" fill="rgb(194, 193, 188)" height="13.563207909024058px" id="BS35kJxzs" transform="translate(188.449 34.88)" width="21.733897602089172px"/><path d="M 14.062 0.291 L 1.611 6.361 C 0.189 7.055 -0.402 8.77 0.289 10.193 C 0.983 11.615 2.7 12.206 4.123 11.512 L 16.573 5.441 C 17.996 4.748 18.587 3.032 17.893 1.61 C 17.199 0.188 15.484 -0.403 14.062 0.291 Z" fill="rgb(194, 193, 188)" height="11.802620314643661px" id="v9q9GuwUo" transform="translate(192.551 40.531)" width="18.183727834483733px"/></svg>