<svg display="block" role="presentation" viewBox="0 0 332 300" xmlns="http://www.w3.org/2000/svg"><g d="M 205.37 176.426 C 207.934 195.859 209.715 215.444 206.906 234.864 C 202.696 255.409 173.458 253.875 171.203 233.271 C 170.145 213.682 173.674 194.337 177.958 175.208 C 179.624 168.823 185.543 164.469 192.154 164.766 C 198.765 165.061 204.269 169.924 205.358 176.432 Z M 144.617 17.473 C 172.658 13.59 201.098 20.972 223.68 37.995 C 246.262 55.018 261.135 80.287 265.028 108.243 L 275.935 186.535 C 276.604 191.323 275.337 196.181 272.412 200.037 C 269.487 203.894 265.145 206.433 260.341 207.097 L 85.102 231.363 C 80.299 232.03 75.426 230.767 71.557 227.851 C 67.688 224.935 65.141 220.606 64.475 215.817 L 53.568 137.526 C 49.67 109.569 57.073 81.213 74.149 58.698 C 91.224 36.183 116.573 21.353 144.617 17.473 Z M 86.398 144.69 L 95.324 208.754 M 236.489 123.905 L 245.417 187.968 M 165.5 163.419 L 170.371 198.363 M 289.413 66.355 L 289.411 66.355 C 287.898 65.985 286.3 66.23 284.968 67.036 C 283.636 67.841 282.68 69.141 282.31 70.649 L 273.613 106.054 C 272.842 109.195 274.771 112.364 277.921 113.133 L 277.924 113.133 C 281.074 113.902 284.252 111.98 285.025 108.841 L 293.72 73.434 C 294.491 70.293 292.563 67.124 289.413 66.355 Z M 311.163 71.23 C 314.535 57.511 307.417 43.984 295.264 41.016 C 283.111 38.047 270.527 46.761 267.155 60.48 C 263.783 74.199 270.902 87.727 283.054 90.696 C 295.207 93.664 307.792 84.949 311.163 71.232 Z M 266.318 68.792 C 279.539 73.984 293.356 77.52 307.45 79.318 C 306.166 81.336 304.615 83.171 302.838 84.775 C 290.868 82.983 279.113 79.975 267.756 75.8 C 266.964 73.539 266.481 71.182 266.318 68.792 Z M 274.66 46.651 C 286.348 51.257 298.508 54.571 310.921 56.531 C 311.495 58.573 311.826 60.675 311.909 62.795 C 297.762 60.718 283.917 56.947 270.675 51.564 C 271.805 49.775 273.142 48.126 274.66 46.651 Z M 278.228 66.376 C 279.596 65.599 280.442 64.151 280.445 62.582 C 280.448 61.012 279.608 59.561 278.244 58.778 C 276.879 57.995 275.198 58.001 273.839 58.793 C 271.753 60.008 271.043 62.675 272.251 64.761 C 273.458 66.847 276.129 67.569 278.228 66.376 Z M 290.828 70.786 C 292.93 69.576 293.65 66.898 292.437 64.803 C 291.224 62.708 288.537 61.99 286.435 63.199 C 284.334 64.408 283.614 67.087 284.827 69.182 C 286.04 71.277 288.727 71.995 290.828 70.786 Z M 304.543 73.386 C 306.645 72.177 307.366 69.498 306.153 67.403 C 304.941 65.307 302.254 64.588 300.152 65.797 C 298.05 67.006 297.329 69.685 298.542 71.78 C 299.754 73.876 302.441 74.595 304.543 73.386 Z M 86.045 179.988 C 66.446 179.251 45.143 171.144 33.818 154.354 C 24.477 139.951 41.826 123.547 55.705 133.283 C 57.862 134.691 59.847 136.345 61.619 138.213 L 65.041 141.653 C 72.649 149.433 81.509 155.889 91.254 160.755 C 95.353 163.069 97.36 167.857 96.133 172.391 C 94.906 176.925 90.756 180.056 86.045 180.001 Z M 234.631 140.541 C 242.512 133.315 249.133 124.833 254.223 115.442 C 256.05 111.686 258.29 108.144 260.901 104.88 C 271.796 91.575 292.769 103.005 287.738 119.184 C 281.434 138.421 263.155 152.008 244.5 158.045 C 239.88 159.402 234.933 157.397 232.573 153.211 C 230.213 149.026 231.067 143.77 234.631 140.541 Z M 140.094 37.963 C 139.132 36.065 137.107 34.942 134.982 35.128 C 132.857 35.314 131.06 36.772 130.444 38.808 C 128.823 42.696 127.377 46.655 126.112 50.672 C 124.984 54.242 123.995 57.854 123.148 61.501 C 122.017 66.35 125.184 71.265 129.26 70.956 L 146.17 69.678 C 150.168 69.372 152.578 64.211 150.861 59.62 C 149.688 56.474 148.379 53.38 146.938 50.347 C 144.92 46.08 142.634 41.943 140.094 37.963 Z M 143.254 42.213 C 144.008 43.528 144.733 44.859 145.433 46.204 L 127.37 47.571 C 127.867 46.101 128.374 44.677 128.889 43.3 L 143.254 42.212 Z M 170.38 35.305 C 169.42 33.403 167.394 32.278 165.267 32.464 C 163.14 32.65 161.342 34.111 160.73 36.15 C 159.107 40.038 157.661 43.996 156.396 48.014 C 155.269 51.585 154.281 55.198 153.431 58.845 C 152.3 63.693 155.468 68.607 159.543 68.298 L 176.452 67.016 C 180.452 66.714 182.862 61.553 181.144 56.961 C 179.972 53.815 178.664 50.722 177.222 47.69 C 175.205 43.422 172.92 39.286 170.38 35.305 Z M 173.538 40.436 C 174.291 41.752 175.016 43.084 175.715 44.428 L 157.653 45.795 C 158.152 44.323 158.66 42.899 159.175 41.522 Z M 123.705 56.692 L 185.226 52.032 C 190.039 51.666 194.802 53.223 198.464 56.359 C 202.127 59.495 204.39 63.953 204.755 68.752 L 208.587 119.004 C 209.008 124.523 207.213 129.983 203.595 134.182 C 199.978 138.382 194.836 140.976 189.3 141.395 L 133.227 145.645 C 127.69 146.064 122.214 144.274 118.002 140.668 C 113.789 137.061 111.187 131.934 110.767 126.415 L 106.937 76.163 C 106.174 66.17 113.681 57.452 123.705 56.692 Z M 140.319 106.627 C 146.812 106.135 151.57 99.074 150.943 90.857 C 150.316 82.639 144.544 76.378 138.049 76.869 C 131.556 77.361 126.798 84.423 127.425 92.64 C 128.052 100.857 133.824 107.119 140.319 106.627 Z M 142.915 102.906 C 147.579 102.551 150.99 97.429 150.536 91.463 C 150.082 85.496 145.931 80.948 141.266 81.301 C 136.602 81.655 133.191 86.777 133.645 92.744 C 134.099 98.711 138.25 103.259 142.914 102.906 Z M 134.622 95.014 L 137.023 94.833 C 138.912 94.69 140.327 93.047 140.183 91.164 C 140.04 89.281 138.392 87.87 136.503 88.013 L 134.103 88.196 C 132.214 88.339 130.799 89.981 130.942 91.865 C 131.085 93.748 132.733 95.159 134.622 95.016 Z M 175.663 103.963 C 182.156 103.471 186.913 96.41 186.287 88.193 C 185.66 79.976 179.889 73.714 173.394 74.206 C 166.901 74.697 162.142 81.757 162.77 89.976 C 163.395 98.193 169.168 104.455 175.663 103.963 Z M 177.652 100.242 C 182.316 99.888 185.729 94.766 185.275 88.799 C 184.82 82.834 180.67 78.286 176.006 78.637 C 171.341 78.991 167.929 84.114 168.382 90.08 C 168.838 96.047 172.988 100.595 177.652 100.242 Z M 171.24 85.734 L 168.84 85.915 C 166.952 86.058 165.536 87.7 165.679 89.583 C 165.823 91.466 167.47 92.877 169.359 92.735 L 171.76 92.552 C 173.649 92.408 175.064 90.766 174.92 88.883 C 174.777 86.999 173.129 85.589 171.24 85.732 Z M 193.869 63.523 L 111.337 69.774 L 113.036 92.075 L 195.568 85.823 Z M 142.805 108.653 C 146.939 106.738 150.139 103.264 151.704 98.996 C 153.268 94.729 153.067 90.016 151.146 85.896 C 147.145 77.318 136.925 73.596 128.319 77.584 C 119.77 81.605 116.083 91.754 120.068 100.299 C 124.052 108.844 134.211 112.577 142.805 108.653 Z M 185.063 105.072 C 193.669 101.084 197.403 90.895 193.402 82.315 C 189.401 73.738 179.181 70.014 170.575 74.004 C 161.971 77.991 158.236 88.18 162.238 96.759 C 166.238 105.337 176.458 109.061 185.063 105.071 Z M 152.68 91.671 L 159.859 91.064 M 146.422 69.609 C 144.765 67.34 140.22 66.834 136.276 68.476 M 163.489 68.317 C 164.786 65.825 169.198 64.64 173.347 65.67 M 177.858 115.913 C 177.858 115.913 169.774 124.771 159.028 125.585 C 148.283 126.396 138.949 118.861 138.949 118.861 M 161.024 141.559 L 159.032 125.583 M 128.417 64.075 C 92.964 19.276 72.089 37.56 76.229 51.639 C 77.734 55.934 80.617 59.613 84.432 62.109 C 91.562 67.298 100.274 69.868 109.089 69.381 C 115.838 69.011 122.429 67.201 128.417 64.075 Z M 176.764 60.409 C 205.018 10.784 228.428 25.711 226.466 40.256 C 225.629 44.726 223.337 48.797 219.945 51.838 C 213.683 58.043 205.46 61.895 196.673 62.743 C 189.945 63.393 183.156 62.597 176.764 60.407 Z M 24.364 103.351 C 23.007 104.114 22.01 105.383 21.592 106.879 C 21.174 108.375 21.369 109.976 22.135 111.328 L 40.108 143.071 C 40.873 144.423 42.146 145.417 43.647 145.833 C 45.147 146.25 46.752 146.055 48.108 145.291 L 48.11 145.291 C 50.933 143.701 51.93 140.131 50.336 137.315 L 32.368 105.571 C 31.602 104.218 30.329 103.224 28.828 102.808 C 27.327 102.391 25.722 102.587 24.365 103.351 Z M 36.029 124.894 C 46.926 118.762 50.115 103.819 43.149 91.519 C 36.186 79.219 21.707 74.218 10.808 80.35 C -0.089 86.482 -3.275 101.425 3.688 113.725 C 10.653 126.025 25.132 131.026 36.029 124.894 Z M 13.487 113.089 C 15.657 112.006 16.534 109.374 15.448 107.212 C 14.361 105.049 11.722 104.174 9.552 105.257 C 7.383 106.341 6.505 108.972 7.592 111.135 C 8.678 113.297 11.318 114.172 13.487 113.089 Z M 25.7 107.701 C 27.87 106.618 28.748 103.986 27.661 101.823 C 26.574 99.661 23.935 98.786 21.765 99.869 C 19.596 100.952 18.718 103.584 19.805 105.746 C 20.892 107.909 23.531 108.784 25.7 107.701 Z M 37.486 100.235 C 39.656 99.151 40.533 96.519 39.446 94.356 C 38.359 92.194 35.719 91.319 33.549 92.403 C 31.38 93.487 30.503 96.119 31.59 98.281 C 32.677 100.444 35.317 101.319 37.486 100.235 Z M 46.364 100.265 C 46.818 102.666 46.941 105.066 46.747 107.394 C 36.791 114.256 26.158 120.087 15.013 124.794 C 12.881 123.686 10.907 122.296 9.146 120.664 C 15.964 117.961 22.601 114.825 29.017 111.276 C 35.015 107.954 40.808 104.278 46.364 100.265 Z M 23.028 94.643 C 15.771 98.657 8.241 102.16 0.493 105.126 C 0.089 103.051 -0.068 100.936 0.027 98.825 C 6.912 96.106 13.613 92.946 20.089 89.364 Z M 33.237 81.282 C 35.059 82.377 36.745 83.682 38.261 85.17 C 33.346 88.579 28.262 91.738 23.028 94.635 L 20.089 89.356 C 24.59 86.862 28.977 84.168 33.235 81.282 Z M 155.313 199.929 C 157.182 205.05 158.228 210.272 159.04 215.575 C 159.8 220.787 160.313 226.012 159.071 231.198 C 154.239 249.226 128.912 248.76 124.522 230.908 C 123.353 225.691 123.97 220.49 124.805 215.286 C 125.712 209.985 126.847 204.793 128.799 199.691 C 133.553 187.588 150.841 187.893 155.315 199.916 Z M 263.89 1.714 L 244.27 0.007 C 243.356 -0.074 242.536 0.545 242.348 1.432 L 241.11 7.294 L 237.896 22.512 L 241.245 22.808 L 244.458 7.589 L 260.998 9.028 L 257.784 24.246 L 261.133 24.542 L 264.346 9.324 L 265.49 3.892 C 265.718 2.83 264.965 1.809 263.876 1.714 Z M 244.306 23.692 C 244.819 21.266 242.647 18.752 239.457 18.079 C 236.268 17.406 233.267 18.827 232.754 21.253 C 232.243 23.68 234.413 26.193 237.603 26.866 C 240.793 27.539 243.794 26.118 244.306 23.692 Z M 262.995 25.026 C 263.508 22.6 261.336 20.087 258.146 19.414 C 254.956 18.741 251.955 20.162 251.443 22.588 C 250.93 25.014 253.102 27.527 256.292 28.2 C 259.482 28.874 262.483 27.453 262.995 25.026 Z M 55.479 39.957 L 47.911 45.707 L 56.475 58.698 L 53.906 60.88 L 45.342 47.889 L 42.046 42.885 C 41.538 42.126 41.691 41.102 42.382 40.514 L 52.297 32.761 C 53.117 32.059 54.382 32.241 54.974 33.138 L 57.226 36.552 C 57.69 37.248 57.551 38.193 56.91 38.735 L 55.466 39.954 Z M 55.283 65.146 C 58.445 63.063 59.724 59.423 58.138 57.018 C 56.553 54.612 52.704 54.351 49.541 56.434 C 46.378 58.517 45.1 62.156 46.686 64.562 C 48.271 66.968 52.12 67.229 55.283 65.146 Z" fill="transparent" height="249.52066877575257px" id="kWTmIAZNB" transform="translate(0 25.235) rotate(-10 156 124.76)" width="311.9999967101059px"><path d="M 34.357 11.675 C 36.92 31.107 38.701 50.692 35.892 70.112 C 31.683 90.658 2.445 89.124 0.189 68.519 C -0.869 48.931 2.66 29.585 6.944 10.457 C 8.611 4.072 14.529 -0.282 21.14 0.014 C 27.751 0.31 33.255 5.173 34.344 11.68 Z" fill="rgb(0, 0, 0)" height="84.76940229626035px" id="Veb5ZCc8Q" transform="translate(171.014 164.751)" width="37.318926273697315px"/><path d="M 92.065 1.012 C 120.107 -2.871 148.547 4.512 171.129 21.534 C 193.711 38.557 208.584 63.826 212.477 91.782 L 223.384 170.074 C 224.053 174.863 222.786 179.72 219.861 183.577 C 216.936 187.433 212.594 189.973 207.79 190.636 L 32.551 214.903 C 27.747 215.57 22.875 214.307 19.006 211.391 C 15.137 208.475 12.59 204.145 11.924 199.356 L 1.017 121.066 C -2.881 93.108 4.522 64.752 21.598 42.237 C 38.673 19.722 64.022 4.893 92.065 1.012 Z" fill="rgb(255, 255, 255)" height="215.07707941657307px" id="Lmk0b33U7" transform="translate(52.551 16.46)" width="223.559111085176px"/><path d="M 0 20.786 L 8.927 84.849 M 150.091 0 L 159.02 64.063 M 79.103 39.515 L 83.973 74.458" fill="transparent" height="84.84899017375093px" id="B56Qiuc6Z" stroke-dasharray="" stroke-linecap="round" stroke-linejoin="round" stroke-width="5.69" stroke="rgb(221, 221, 221)" transform="translate(86.398 123.905)" width="159.0195231073654px"/><path d="M 15.969 0.168 L 15.967 0.168 C 14.454 -0.201 12.856 0.043 11.524 0.849 C 10.193 1.654 9.237 2.954 8.866 4.462 L 0.17 39.868 C -0.601 43.008 1.327 46.177 4.477 46.946 L 4.481 46.946 C 7.63 47.715 10.809 45.794 11.581 42.654 L 20.276 7.247 C 21.047 4.107 19.119 0.938 15.969 0.168 Z" fill="rgb(253, 100, 182)" height="47.115696475407034px" id="pNHDSr8wa" transform="translate(273.444 66.187)" width="20.44597089602555px"/><path d="M 44.845 30.795 C 48.217 17.075 41.098 3.548 28.946 0.58 C 16.793 -2.389 4.209 6.326 0.837 20.045 C -2.535 33.764 4.583 47.291 16.736 50.261 C 28.889 53.228 41.474 44.514 44.845 30.796 Z" fill="rgb(255, 223, 73)" height="50.84046286129612px" id="s4hU20S_J" transform="translate(266.318 40.436)" width="45.681881475730876px"/><path d="M 0 22.141 C 13.221 27.333 27.037 30.869 41.132 32.667 C 39.848 34.684 38.297 36.52 36.52 38.124 C 24.55 36.331 12.795 33.324 1.438 29.148 C 0.646 26.887 0.162 24.53 0 22.141 Z M 8.342 0 C 20.03 4.606 32.19 7.919 44.602 9.88 C 45.176 11.922 45.508 14.024 45.591 16.143 C 31.443 14.067 17.599 10.296 4.357 4.912 C 5.487 3.124 6.824 1.475 8.342 0 Z" fill="rgb(0, 169, 157)" height="38.124065323609074px" id="ABJ89X5uD" transform="translate(266.318 46.651)" width="45.59116795323126px"/><path d="M 6.566 8.181 C 7.934 7.404 8.78 5.956 8.783 4.387 C 8.786 2.817 7.946 1.366 6.581 0.583 C 5.217 -0.2 3.536 -0.194 2.177 0.598 C 0.091 1.813 -0.619 4.48 0.589 6.566 C 1.796 8.652 4.467 9.374 6.566 8.181 Z M 19.166 12.591 C 21.267 11.381 21.987 8.703 20.774 6.608 C 19.561 4.513 16.874 3.795 14.773 5.004 C 12.671 6.213 11.951 8.892 13.164 10.987 C 14.377 13.082 17.064 13.8 19.166 12.591 Z M 32.881 15.191 C 34.983 13.982 35.704 11.303 34.491 9.208 C 33.279 7.112 30.592 6.393 28.49 7.602 C 26.388 8.811 25.667 11.49 26.879 13.585 C 28.092 15.681 30.779 16.4 32.881 15.191 Z" fill="rgb(89, 100, 239)" height="15.777531717023631px" id="kzoU_LXNp" transform="translate(271.662 58.195)" width="35.07976647717232px"/><path d="M 54.871 80.947 C 35.272 80.21 13.968 72.102 2.644 55.313 C -6.698 40.91 10.651 24.506 24.53 34.241 C 26.688 35.649 28.673 37.304 30.444 39.171 L 33.866 42.611 C 41.475 50.391 50.335 56.848 60.08 61.713 C 64.179 64.028 66.186 68.815 64.959 73.349 C 63.732 77.883 59.581 81.014 54.871 80.959 Z M 203.457 41.5 C 211.338 34.274 217.959 25.792 223.048 16.4 C 224.876 12.644 227.116 9.102 229.727 5.839 C 240.622 -7.467 261.594 3.963 256.564 20.142 C 250.259 39.379 231.98 52.967 213.326 59.003 C 208.706 60.36 203.758 58.355 201.398 54.17 C 199.038 49.984 199.892 44.729 203.457 41.5 Z" fill="rgb(0, 0, 0)" height="80.95980131350902px" id="csXGqhqKM" transform="translate(31.174 99.042)" width="257.33000390080787px"/><path d="M 17.178 2.855 C 16.216 0.957 14.191 -0.166 12.066 0.02 C 9.941 0.206 8.143 1.664 7.528 3.7 C 5.907 7.588 4.461 11.547 3.196 15.564 C 2.068 19.134 1.079 22.747 0.232 26.393 C -0.9 31.242 2.268 36.158 6.344 35.849 L 23.254 34.57 C 27.252 34.264 29.662 29.104 27.945 24.513 C 26.772 21.367 25.463 18.272 24.022 15.239 C 22.004 10.972 19.718 6.836 17.178 2.855 Z" fill="rgb(255, 200, 46)" height="35.86237216614756px" id="sFbxQWmHB" transform="translate(122.916 35.108)" width="28.506022614104104px"/><path d="M 15.885 0.002 C 16.638 1.316 17.363 2.648 18.063 3.992 L 0 5.36 C 0.497 3.889 1.005 2.465 1.52 1.089 L 15.885 0 Z" fill="rgb(204, 157, 51)" height="5.359780961447925px" id="mw0uEoKfs" transform="translate(127.37 42.212)" width="18.063314637078193px"/><path d="M 17.18 2.861 C 16.22 0.96 14.194 -0.166 12.067 0.02 C 9.94 0.206 8.142 1.667 7.53 3.706 C 5.907 7.594 4.461 11.552 3.196 15.57 C 2.07 19.141 1.081 22.754 0.232 26.401 C -0.9 31.25 2.268 36.164 6.344 35.855 L 23.253 34.572 C 27.252 34.27 29.662 29.11 27.945 24.517 C 26.773 21.372 25.464 18.279 24.022 15.247 C 22.005 10.978 19.72 6.842 17.18 2.861 Z" fill="rgb(255, 200, 46)" height="35.868380868604866px" id="xCwQi0wn3" transform="translate(153.2 32.444)" width="28.506002758905883px"/><path d="M 15.885 0 C 16.638 1.316 17.363 2.648 18.062 3.992 L 0 5.36 C 0.499 3.888 1.006 2.463 1.521 1.087 Z" fill="rgb(204, 157, 51)" height="5.359780961447228px" id="qsGXzIFFO" transform="translate(157.653 40.436)" width="18.061533245099668px"/><path d="M 16.822 4.712 L 78.342 0.052 C 83.156 -0.313 87.918 1.244 91.581 4.38 C 95.244 7.515 97.506 11.973 97.871 16.773 L 101.703 67.025 C 102.124 72.544 100.329 78.004 96.712 82.203 C 93.095 86.402 87.952 88.997 82.416 89.416 L 26.343 93.666 C 20.807 94.085 15.33 92.295 11.118 88.688 C 6.906 85.082 4.303 79.955 3.883 74.436 L 0.053 24.184 C -0.71 14.191 6.798 5.473 16.822 4.712 Z" fill="rgb(255, 221, 189)" height="93.72567749860701px" id="ZBRucEJeW" transform="translate(106.884 51.979)" width="101.7635594700018px"/><path d="M 12.949 29.785 C 19.442 29.293 24.2 22.232 23.573 14.014 C 22.946 5.797 17.175 -0.465 10.68 0.027 C 4.187 0.519 -0.572 7.58 0.056 15.797 C 0.683 24.015 6.454 30.277 12.949 29.785 Z" fill="rgb(255, 255, 255)" height="29.811837120895408px" id="Xcs1RCOn0" transform="translate(127.37 76.842)" width="23.62894304183711px"/><path d="M 9.311 21.624 C 13.975 21.268 17.386 16.147 16.932 10.181 C 16.477 4.214 12.327 -0.334 7.661 0.019 C 2.998 0.373 -0.414 5.494 0.041 11.462 C 0.495 17.429 4.645 21.977 9.309 21.624 Z" fill="rgb(0, 0, 0)" height="21.64284110246092px" id="W41VesXgZ" transform="translate(133.604 81.282)" width="16.972322060132285px"/><path d="M 3.689 20.836 L 6.091 20.655 C 7.98 20.511 9.395 18.869 9.251 16.986 C 9.107 15.102 7.46 13.692 5.571 13.835 L 3.171 14.018 C 1.282 14.161 -0.133 15.803 0.01 17.686 C 0.153 19.569 1.8 20.98 3.689 20.838 Z M 44.731 29.785 C 51.224 29.293 55.98 22.232 55.355 14.014 C 54.728 5.797 48.956 -0.465 42.461 0.027 C 35.968 0.519 31.21 7.578 31.837 15.797 C 32.462 24.015 38.236 30.277 44.731 29.785 Z" fill="rgb(255, 255, 255)" height="29.811837120895618px" id="deeArNTzk" transform="translate(130.932 74.178)" width="55.41036253043446px"/><path d="M 9.311 21.623 C 13.974 21.27 17.387 16.148 16.933 10.181 C 16.479 4.216 12.328 -0.333 7.665 0.019 C 2.999 0.373 -0.412 5.496 0.04 11.461 C 0.496 17.429 4.647 21.977 9.311 21.623 Z" fill="rgb(0, 0, 0)" height="21.642654039332392px" id="f8aaHrUXr" transform="translate(168.342 78.618)" width="16.973783467523138px"/><g d="M 5.571 0.012 L 3.171 0.193 C 1.282 0.336 -0.133 1.978 0.01 3.861 C 0.153 5.744 1.8 7.155 3.689 7.013 L 6.091 6.83 C 7.98 6.686 9.395 5.044 9.251 3.161 C 9.107 1.277 7.46 -0.133 5.571 0.01 Z" fill="transparent" height="7.022469450230318px" id="l6KkmtR1E" transform="translate(165.669 85.722)" width="9.260977944868847px"><path d="M 5.571 0.012 L 3.171 0.193 C 1.282 0.336 -0.133 1.978 0.01 3.861 C 0.153 5.744 1.8 7.155 3.689 7.013 L 6.091 6.83 C 7.98 6.686 9.395 5.044 9.251 3.161 C 9.107 1.277 7.46 -0.133 5.571 0.01 Z" fill="rgb(255, 255, 255)" height="7.022469450230325px" id="fFzivPqlk" transform="translate(0 0)" width="9.260977944868866px"/></g><path d="M 82.532 0 L 0 6.251 L 1.699 28.552 L 84.231 22.3 Z" fill="rgb(255, 221, 189)" height="28.5517556385676px" id="OIlj0ODnO" transform="translate(111.337 63.523)" width="84.23133819522528px"/><path d="M 24.343 36.25 C 28.476 34.335 31.677 30.862 33.241 26.594 C 34.805 22.326 34.605 17.614 32.683 13.493 C 28.682 4.915 18.462 1.193 9.856 5.182 C 1.308 9.202 -2.379 19.351 1.605 27.896 C 5.59 36.442 15.749 40.174 24.343 36.25 Z M 66.601 32.67 C 75.207 28.681 78.941 18.493 74.94 9.913 C 70.939 1.335 60.719 -2.389 52.113 1.602 C 43.509 5.589 39.773 15.777 43.776 24.357 C 47.775 32.934 57.995 36.659 66.601 32.668 Z M 34.217 19.269 L 41.396 18.661" fill="transparent" height="37.81007327643539px" id="qMcopaSIK" stroke-dasharray="" stroke-linecap="butt" stroke-linejoin="miter" stroke-miterlimit="10" stroke-width="4.38" stroke="rgb(237, 43, 149)" transform="translate(118.463 72.402)" width="76.5452610060469px"/><path d="M 10.145 4.311 C 8.488 2.041 3.944 1.535 0 3.178 M 27.213 3.018 C 28.509 0.526 32.922 -0.658 37.071 0.372" fill="transparent" height="4.310665730616993px" id="gfTWxBAc4" stroke-dasharray="" stroke-linecap="round" stroke-linejoin="round" stroke-width="3.51" stroke="rgb(0, 0, 0)" transform="translate(136.276 65.299)" width="37.07077049766778px"/><g d="M 38.909 0 C 38.909 0 30.825 8.858 20.08 9.672 C 9.334 10.483 0 2.948 0 2.948 M 22.075 25.646 L 20.083 9.67" fill="transparent" height="25.645884606006234px" id="hxJis3apo" transform="translate(138.949 115.913)" width="38.909163540733374px"><path d="M 38.909 0 C 38.909 0 30.825 8.858 20.08 9.672 C 9.334 10.483 0 2.948 0 2.948 M 22.075 25.646 L 20.083 9.67" fill="transparent" height="25.645884606006234px" id="AftNvW5MR" stroke-dasharray="" stroke-linecap="round" stroke-linejoin="round" stroke-width="4.88" stroke="rgb(0, 0, 0)" width="38.909163540733374px"/></g><path d="M 52.708 37.846 C 17.254 -6.952 -3.62 11.332 0.52 25.411 C 2.025 29.706 4.908 33.385 8.723 35.88 C 15.853 41.07 24.565 43.64 33.38 43.153 C 40.129 42.782 46.72 40.973 52.708 37.846 Z M 101.055 34.181 C 129.309 -15.444 152.719 -0.517 150.757 14.028 C 149.92 18.498 147.628 22.569 144.236 25.61 C 137.974 31.814 129.751 35.667 120.963 36.514 C 114.236 37.165 107.447 36.369 101.055 34.179 Z" fill="rgb(255, 221, 189)" height="43.21125036618802px" id="VoA5lSisK" transform="translate(75.709 26.228)" width="150.8721518952475px"/><path d="M 2.987 0.757 C 1.63 1.52 0.633 2.79 0.215 4.286 C -0.203 5.782 -0.007 7.382 0.758 8.735 L 18.731 40.478 C 19.496 41.83 20.769 42.824 22.27 43.24 C 23.77 43.656 25.375 43.461 26.731 42.698 L 26.733 42.698 C 29.556 41.108 30.553 37.538 28.96 34.722 L 10.991 2.977 C 10.225 1.625 8.952 0.631 7.451 0.214 C 5.95 -0.202 4.345 -0.007 2.989 0.757 Z" fill="rgb(253, 100, 182)" height="43.45425911902835px" id="Rkwpo348V" transform="translate(21.377 102.593)" width="29.718868453136164px"/><path d="M 36.029 47.164 C 46.926 41.031 50.115 26.089 43.149 13.789 C 36.186 1.488 21.707 -3.513 10.808 2.62 C -0.089 8.752 -3.275 23.695 3.688 35.995 C 10.653 48.295 25.132 53.296 36.029 47.164 Z" fill="rgb(255, 223, 73)" height="49.78344079360228px" id="AFgHmu9jF" transform="translate(0 77.73)" width="46.83819102871009px"/><path d="M 6.362 21.151 C 8.531 20.068 9.409 17.437 8.322 15.274 C 7.235 13.111 4.596 12.236 2.427 13.319 C 0.257 14.403 -0.62 17.034 0.466 19.197 C 1.553 21.36 4.192 22.235 6.362 21.151 Z M 18.575 15.763 C 20.744 14.68 21.622 12.048 20.535 9.886 C 19.449 7.723 16.809 6.848 14.64 7.931 C 12.47 9.015 11.593 11.646 12.679 13.809 C 13.766 15.971 16.406 16.846 18.575 15.763 Z M 30.361 8.297 C 32.53 7.213 33.407 4.581 32.32 2.419 C 31.233 0.256 28.593 -0.619 26.424 0.465 C 24.254 1.549 23.377 4.181 24.464 6.344 C 25.551 8.506 28.191 9.381 30.361 8.297 Z" fill="rgb(89, 100, 239)" height="21.616044792403414px" id="dkqgBvVEr" transform="translate(7.126 91.938)" width="32.78673544513394px"/><path d="M 46.364 18.983 C 46.818 21.384 46.941 23.783 46.747 26.112 C 36.791 32.974 26.158 38.805 15.013 43.512 C 12.881 42.404 10.907 41.014 9.146 39.381 C 15.964 36.679 22.601 33.543 29.017 29.994 C 35.015 26.672 40.808 22.995 46.364 18.983 Z M 23.028 13.36 C 15.771 17.375 8.241 20.878 0.493 23.844 C 0.089 21.769 -0.068 19.654 0.027 17.543 C 6.912 14.824 13.613 11.664 20.089 8.082 Z M 33.237 0 C 35.059 1.095 36.745 2.4 38.261 3.888 C 33.346 7.296 28.262 10.456 23.028 13.353 L 20.089 8.073 C 24.59 5.58 28.977 2.886 33.235 0 Z" fill="rgb(0, 169, 157)" height="43.51226344147304px" id="h6TePurjE" transform="translate(0 81.282)" width="46.83596201925257px"/><path d="M 27.38 6.946 C 30.109 11.665 32.046 16.626 33.767 21.708 C 35.42 26.709 36.833 31.764 36.51 37.088 C 34.883 55.681 9.859 59.62 2.436 42.801 C 0.379 37.867 0.083 32.638 0.002 27.367 C -0.025 21.99 0.191 16.68 1.227 11.316 C 3.807 -1.429 20.885 -4.131 27.38 6.933 Z" fill="rgb(0, 0, 0)" height="53.468573106422326px" id="FjJmbfBt0" transform="translate(124.636 191.102) rotate(10 18.278 26.734)" width="36.55639573041474px"/><path d="M 25.993 1.714 L 6.374 0.007 C 5.46 -0.074 4.64 0.545 4.452 1.432 L 3.214 7.294 L 0 22.512 L 3.348 22.808 L 6.562 7.589 L 23.102 9.028 L 19.888 24.246 L 23.237 24.542 L 26.45 9.324 L 27.593 3.892 C 27.822 2.83 27.069 1.809 25.98 1.714 Z" fill="rgb(94, 239, 144)" height="24.541952210029766px" id="BzJslIwXz" transform="translate(237.896 0)" width="27.634238197420515px"/><path d="M 11.626 5.78 C 12.139 3.354 9.968 0.84 6.778 0.167 C 3.588 -0.506 0.588 0.915 0.075 3.342 C -0.437 5.768 1.733 8.281 4.923 8.954 C 8.113 9.628 11.115 8.207 11.626 5.78 Z" fill="rgb(94, 239, 144)" height="9.121458594130969px" id="n7DdrvCTp" transform="translate(232.68 17.912)" width="11.701241808371392px"/><path d="M 11.627 5.779 C 12.139 3.353 9.968 0.84 6.778 0.167 C 3.588 -0.506 0.587 0.915 0.075 3.341 C -0.438 5.768 1.734 8.28 4.924 8.954 C 8.113 9.627 11.115 8.206 11.627 5.779 Z" fill="rgb(94, 239, 144)" height="9.120712728402465px" id="L5bxBsBBt" transform="translate(251.368 19.247)" width="11.701541453912654px"/><g d="M 13.216 7.187 L 6.762 14.164 L 17.451 25.47 L 15.3 28.065 L 4.61 16.759 L 0.495 12.403 C -0.137 11.744 -0.164 10.709 0.414 10.01 L 8.832 0.653 C 9.518 -0.18 10.795 -0.221 11.535 0.559 L 14.345 3.53 C 14.923 4.135 14.951 5.09 14.413 5.735 L 13.203 7.187 Z M 17.397 32.027 C 20.149 29.427 20.777 25.621 18.798 23.527 C 16.818 21.433 12.982 21.844 10.23 24.445 C 7.477 27.046 6.85 30.851 8.829 32.945 C 10.808 35.039 14.644 34.628 17.397 32.027 Z" fill="transparent" height="34.28174552559008px" id="dF4j8UJU9" transform="translate(40.584 32.056) rotate(10 9.976 17.141)" width="19.952413363989574px"><path d="M 13.216 7.187 L 6.762 14.164 L 17.451 25.47 L 15.3 28.065 L 4.61 16.759 L 0.495 12.403 C -0.137 11.744 -0.164 10.709 0.414 10.01 L 8.832 0.653 C 9.518 -0.18 10.795 -0.221 11.535 0.559 L 14.345 3.53 C 14.923 4.135 14.951 5.09 14.413 5.735 L 13.203 7.187 Z" fill="rgb(253, 100, 182)" height="28.064982728435368px" id="Zuvd7SJXB" transform="translate(0 0)" width="17.4514656405445px"/><path d="M 9.723 9.837 C 12.475 7.236 13.103 3.43 11.124 1.337 C 9.145 -0.757 5.308 -0.346 2.556 2.255 C -0.197 4.856 -0.824 8.661 1.155 10.755 C 3.134 12.849 6.97 12.438 9.723 9.837 Z" fill="rgb(253, 100, 182)" height="12.091537090531492px" id="WKD5f36Ig" transform="translate(7.674 22.19)" width="12.27851848178743px"/></g></g></svg>