<svg display="block" role="presentation" viewBox="0 0 306 274" xmlns="http://www.w3.org/2000/svg"><path d="M 0 0 C 0 0 15.613 22.182 36.954 12.473" fill="transparent" height="14.931474727069968px" id="pnpHUXhDM" stroke-dasharray="" stroke-linecap="round" stroke-linejoin="round" stroke-width="10.63" stroke="rgb(0, 0, 0)" transform="translate(194.743 237.447)" width="36.95397333333352px"/><path d="M 16.783 23.65 L 0 0" fill="transparent" height="23.64960000000002px" id="ca1Y0fwzl" stroke-dasharray="" stroke-linecap="round" stroke-linejoin="round" stroke-width="10.63" stroke="rgb(0, 0, 0)" transform="translate(229.778 244.417)" width="16.783288888888222px"/><path d="M 7.495 1.484 C 13.198 -1.402 20.146 0.015 24.23 4.921 L 34.513 17.218 C 40.166 23.99 38.05 34.247 30.206 38.231 L 27.765 39.477 C 21.266 42.786 13.322 40.422 9.686 34.124 L 1.842 20.579 C -2.092 13.784 0.498 5.046 7.495 1.484 Z" fill="rgb(20, 30, 33)" height="40.970994481393234px" id="hGpx2TyNQ" transform="translate(173.352 208.876)" width="37.70420731963671px"/><path d="M 0 0 C 0 0 19.795 18.572 38.697 4.731" fill="transparent" height="9.857123816905101px" id="dBMiAPBor" stroke-dasharray="" stroke-linecap="round" stroke-linejoin="round" stroke-width="10.63" stroke="rgb(0, 0, 0)" transform="translate(234.636 218.727)" width="38.697244444443726px"/><path d="M 20.07 22.332 L 0 0" fill="transparent" height="22.332266666666698px" id="SFH5z91rn" stroke-dasharray="" stroke-linecap="round" stroke-linejoin="round" stroke-width="10.63" stroke="rgb(0, 0, 0)" transform="translate(271.166 215.293)" width="20.069688888889345px"/><path d="M 5.174 3 C 10.179 -0.983 17.252 -1.008 22.258 2.975 L 34.807 12.933 C 41.704 18.411 41.729 28.891 34.833 34.394 L 32.69 36.111 C 26.989 40.667 18.745 39.971 13.89 34.542 L 3.481 22.866 C -1.748 16.992 -1.001 7.929 5.15 3.025 Z" fill="rgb(20, 30, 33)" height="39.11882351718228px" id="h60Y92xXQ" transform="translate(210.386 191.999)" width="39.99238047147654px"/><path d="M 98.447 0.379 L 14.38 0.005 C 4.992 -0.244 -1.931 8.569 0.485 17.706 C 8.254 47.058 32.234 101.904 99.493 84.302 C 118.319 79.373 133.16 65.158 136.223 45.863 C 139.908 22.486 122.079 1.001 98.473 0.379 Z" fill="rgb(0, 0, 0)" height="87.71115271431648px" id="to5UlcNPn" transform="translate(0.074 136.614)" width="136.7066944478325px"/><path d="M 50.225 5.763 C 91.276 -10.686 137.965 9.282 154.418 50.324 L 188.537 135.434 C 204.951 176.383 185.022 222.966 144.063 239.377 L 143.9 239.441 C 102.941 255.853 56.35 235.926 39.934 194.978 L 5.751 109.705 C -10.665 68.756 9.266 22.175 50.225 5.763 Z" fill="rgb(29, 43, 48)" height="245.19061370027595px" id="IiLFyusTP" transform="translate(51.955 0.774)" width="194.28730706487156px"/><path d="M 109.773 154.421 C 150.735 137.999 170.594 91.405 154.127 50.35 C 137.661 9.295 91.105 -10.674 50.143 5.747 C 9.181 22.169 -10.677 68.763 5.789 109.818 C 22.256 150.872 68.81 170.842 109.773 154.421 Z" fill="rgb(29, 43, 48)" height="160.16794098192747px" id="n4QQ5cn0p" transform="translate(51.955 0.342)" width="159.91669596897663px"/><path d="M 0 5.228 C 0 5.228 13.422 19.045 30.678 0" fill="transparent" height="10.070532870499335px" id="QbxWrFUJH" stroke-dasharray="" stroke-linecap="round" stroke-linejoin="round" stroke-width="5.58" stroke="rgb(0, 0, 0)" transform="translate(60.199 70.79)" width="30.678382222222304px"/><path d="M 132.106 2.344 L 40.069 33.862 C 4.908 48.252 -10.431 88.807 7.598 119.729 C 22.489 145.272 52.396 156.873 83.324 153.065 C 83.324 153.065 188.385 130.358 188.283 42.177 C 188.234 13.199 159.523 -7.067 132.106 2.319 Z" fill="rgb(29, 43, 48)" height="153.77353522261023px" id="Joo9IytFl" transform="translate(95.009 91.931)" width="188.28288593288323px"/><path d="M 12.643 59.191 L 75.792 3.698 C 82.716 -2.65 93.722 -0.559 97.882 7.931 C 111.302 35.142 129.257 92.278 66.978 123.149 C 49.547 131.788 29.003 130.817 14.037 118.269 C -4.091 103.058 -4.763 75.175 12.618 59.191 Z" fill="rgb(0, 0, 0)" height="128.80621366692267px" id="Svm9nRDhi" transform="translate(194.401 24.125)" width="111.03208973336262px"/><path d="M 10.457 22.929 L 1.292 44.315 C -2.194 52.481 1.617 62.016 9.784 65.527 C 17.952 69.012 27.49 65.203 31.001 57.037 L 35.582 46.306 L 35.656 46.531 C 38.968 54.771 48.406 58.829 56.673 55.518 C 64.915 52.207 68.975 42.771 65.663 34.506 L 65.588 34.282 L 76.321 38.862 C 84.489 42.348 94.026 38.539 97.537 30.373 C 101.023 22.207 97.213 12.672 89.045 9.162 L 67.655 0" fill="rgb(29, 43, 48)" height="66.81889841681993px" id="dMt61JOcf" transform="translate(85.228 144.982)" width="98.82965670618825px"/><path d="M 7.145 21.485 L 1.292 35.153 C -2.194 43.319 1.617 52.855 9.784 56.363 C 17.952 59.851 27.49 56.04 31.001 47.875 L 35.582 37.145 L 35.656 37.369 C 38.968 45.609 48.406 49.667 56.673 46.356 C 64.915 43.045 68.975 33.609 65.663 25.344 L 65.588 25.12 L 76.321 29.701 C 84.489 33.186 94.026 29.377 97.537 21.211 C 101.023 13.046 97.213 3.51 89.045 0" fill="transparent" height="57.65657323219182px" id="zkJXpVjeP" stroke-dasharray="" stroke-linecap="round" stroke-linejoin="round" stroke-width="5.58" stroke="rgb(0, 0, 0)" transform="translate(85.228 154.145)" width="98.82965670618825px"/><path d="M 36.084 61.491 C 47.521 56.907 51.378 39.678 44.697 23.01 C 38.017 6.341 23.329 -3.456 11.891 1.128 C 0.454 5.712 -3.403 22.941 3.278 39.61 C 9.958 56.279 24.646 66.075 36.084 61.491 Z" fill="rgb(253, 251, 253)" height="62.61949360740713px" id="qwDJ2GFjO" transform="translate(126.907 10.679)" width="47.974913261853914px"/><path d="M 1.495 27.749 C -2.331 15.303 1.439 3.101 9.918 0.494 C 17.58 -1.862 26.465 4.425 30.929 14.842 C 30.45 14.782 29.962 14.777 29.473 14.835 L 24.917 15.358 C 21.331 15.781 19.015 19.366 19.737 23.399 C 20.459 27.432 23.97 30.345 27.555 29.922 L 32.113 29.399 C 32.667 29.334 33.19 29.193 33.677 28.986 C 33.401 37.102 29.761 43.725 23.775 45.565 C 15.297 48.172 5.322 40.196 1.495 27.749 Z" fill="rgb(0, 0, 0)" height="46.05897453003145px" id="ExOjRqe4E" transform="translate(139.297 19.07)" width="33.67742583210176px"/><path d="M 2.67 81.989 C 4.637 87.366 9.144 91.151 14.274 88.636 L 26.599 82.636 L 46.048 73.176 L 47.219 75.591 C 53.22 87.914 68.086 93.043 80.437 87.043 C 92.764 81.043 97.894 66.18 91.892 53.856 C 83.849 37.325 79.69 28.811 71.672 12.38 C 65.645 0.007 50.929 -3.031 38.553 2.994 C 3.99 19.824 -5.273 60.304 2.645 81.989 Z" fill="rgb(0, 0, 0)" height="89.55207119558062px" id="C507SGDsW" transform="translate(56.16 50.446)" width="94.40212539385465px"/><path d="M 9.644 11.423 C 11.66 9.871 11.445 6.212 9.163 3.248 C 6.881 0.285 3.397 -0.859 1.381 0.692 C -0.634 2.244 -0.419 5.904 1.863 8.867 C 4.144 11.83 7.628 12.974 9.644 11.423 Z" fill="rgb(79, 94, 99)" height="12.115100643391997px" id="VO1x57LI4" transform="translate(100.601 61.937)" width="11.025806183572172px"/><path d="M 10.474 0.811 C 12.691 -0.583 15.406 -0.135 16.402 1.807 C 19.44 7.558 24.121 18.686 16.999 21.574 C 10.076 24.388 3.652 16.521 0.539 11.741 C -0.631 9.948 0.165 7.334 2.332 5.965 Z" fill="rgb(198, 74, 138)" height="22.16648754836632px" id="lVOuapjnP" transform="translate(115.962 104.633)" width="20.743544683635974px"/></svg>