<svg display="block" role="presentation" viewBox="0 0 312 289" xmlns="http://www.w3.org/2000/svg"><path d="M 31.002 2.992 C 26.469 0.224 20.867 -0.779 15.322 0.643 C 4.418 3.435 -2.156 14.537 0.646 25.44 C 8.824 57.327 25.357 80.402 26.059 81.372 L 59.074 57.478 L 59.108 57.527 C 58.983 57.352 46.305 39.427 40.125 15.324 C 38.754 9.973 35.375 5.667 31.01 3 Z" fill="rgb(217, 200, 237)" height="81.37216782671132px" id="ZkSrhWWUB" transform="translate(27.681 82.639)" width="59.107861088012896px"/><path d="M 54.691 0.067 C 59.984 0.468 65.119 2.934 68.79 7.332 C 75.998 15.968 74.836 28.819 66.198 36.026 C 40.918 57.111 14.007 66.166 12.87 66.541 L 0.058 27.857 L 0 27.874 C 0.209 27.807 20.973 20.676 40.09 4.732 C 44.33 1.195 49.589 -0.326 54.699 0.058 Z" fill="rgb(217, 200, 237)" height="66.54114807662762px" id="q44nkFAJq" transform="translate(190.869 145.827)" width="73.51944868134902px"/><path d="M 3.251 45.718 C 2.732 46.671 2.263 47.666 1.903 48.728 C -1.575 58.794 3.443 69.721 13.143 73.759 C 13.169 82.053 18.352 89.803 26.64 92.663 C 32.1 94.544 37.804 93.925 42.537 91.425 C 43.599 95.229 46.442 98.473 50.456 99.861 C 56.946 102.102 64.021 98.657 66.261 92.169 C 66.329 91.977 66.37 91.785 66.429 91.601 C 75.427 92.437 84.166 87.111 87.243 78.19 C 88.924 73.333 88.606 68.283 86.758 63.886 C 90.923 61.57 94.292 57.791 95.965 52.933 C 99.586 42.457 94.025 31.037 83.547 27.425 C 80.955 26.53 78.304 26.204 75.728 26.363 C 75.954 25.903 76.162 25.427 76.338 24.934 C 78.579 18.446 75.134 11.373 68.645 9.132 C 64.463 7.686 60.048 8.613 56.828 11.18 C 54.571 6.616 50.59 2.895 45.397 1.106 C 34.919 -2.515 23.496 3.046 19.883 13.522 C 19.741 13.939 19.632 14.358 19.523 14.775 C 11.412 15.001 3.902 20.143 1.101 28.261 C -0.998 34.339 0.006 40.718 3.251 45.726 Z" fill="rgb(255, 236, 112)" height="100.54512503220771px" id="WXjTsu4rt" transform="translate(214.705 103.611)" width="97.0712726474658px"/><path d="M 13.188 0 L 0 1.154" fill="transparent" height="1.154089552238787px" id="UPnIaX2wR" stroke-dasharray="" stroke-linecap="round" stroke-linejoin="miter" stroke-miterlimit="10" stroke-width="3.81" stroke="rgb(255, 199, 69)" transform="translate(260.252 168.216)" width="13.18782089552252px"/><path d="M 5.929 0 L 0 5.937" fill="transparent" height="5.9365373134328365px" id="MzcpteTDL" stroke-dasharray="" stroke-linecap="round" stroke-linejoin="miter" stroke-miterlimit="10" stroke-width="3.81" stroke="rgb(255, 199, 69)" transform="translate(257.183 144.571)" width="5.928776119403096px"/><path d="M 43.04 219.856 L 84.408 234.136 C 121.605 246.978 161.461 223.451 168.176 184.675 L 186.197 80.586 C 191.951 47.336 172.742 14.813 140.838 3.794 L 140.797 3.777 C 108.894 -7.234 73.705 6.503 57.708 36.224 L 7.65 129.252 C -10.999 163.899 5.843 207.006 43.04 219.848 Z" fill="rgb(217, 200, 237)" height="237.6631071537068px" id="KXJEjiEoi" transform="translate(42.111 21.982)" width="187.21136429271098px"/><path d="M 28.18 2.93 C 33.549 6.425 38.307 10.522 42.931 14.861 C 47.455 19.158 51.796 23.605 54.698 29.207 C 60.133 40.001 55.776 53.16 44.98 58.587 C 33.424 64.28 21.933 59.088 15.085 49.398 C 9.498 41.807 4.782 33.589 1.236 24.793 C -4.969 8.206 13.462 -6.433 28.18 2.93 Z" fill="rgb(217, 200, 237)" height="60.95003544445876px" id="V6pPYWS9R" transform="translate(137.559 227.856)" width="57.03786826949755px"/><path d="M 58.872 35.088 C 49.841 39.386 40.332 42.471 30.598 44.502 C 27.379 45.079 24.134 45.505 20.798 45.363 C -2.952 43.984 -7.869 11.788 13.932 3.168 C 20.171 0.86 26.718 0.367 33.308 0.108 C 39.981 -0.11 46.613 -0.06 53.303 0.843 C 70.981 3.544 74.552 27.07 58.872 35.088 Z" fill="rgb(217, 200, 237)" height="45.39071592843155px" id="SE3A72VS2" transform="translate(20.048 197.48)" width="68.82997953696392px"/><path d="M 19.679 80.088 L 19.686 80.091 C 34.931 85.354 51.556 77.265 56.821 62.024 L 64.864 38.735 C 70.128 23.494 62.038 6.872 46.793 1.609 L 46.785 1.607 C 31.54 -3.656 14.915 4.433 9.651 19.674 L 1.607 42.963 C -3.657 58.204 4.434 74.826 19.679 80.088 Z" fill="rgb(253, 251, 253)" height="81.69813082325882px" id="REjyjbDKi" transform="translate(102.805 140.336)" width="66.47135031758542px"/><path d="M 167.18 55.798 C 158.206 91.757 120.09 112.909 84.407 100.594 L 43.039 86.315 C 7.356 73.999 -9.587 33.835 5.541 0 Z" fill="rgb(88, 58, 112)" height="104.11911519823246px" id="loL52aFrH" transform="translate(42.112 155.523)" width="167.17959185565087px"/><path d="M 2.887 19.694 C 2.887 19.694 4.543 17.337 4.543 17.328 C 6.299 14.829 7.453 11.827 8.766 9.077 C 12.562 1.134 22.079 -2.236 30.023 1.56 C 37.968 5.356 41.338 14.87 37.542 22.812 C 34.991 28.164 32.407 33.129 29.003 37.987 C 23.952 45.194 14.01 46.941 6.792 41.892 C -0.416 36.842 -2.164 26.901 2.887 19.686 Z" fill="rgb(253, 251, 253)" height="44.77795640750337px" id="gGX0wolMl" transform="translate(141.386 75.341)" width="39.10198251978443px"/><path d="M 5.653 2.565 C 1.253 8.058 -2.752 17.021 2.483 20.917 C 7.986 25.022 15.102 19.052 19.659 12.932 C 24.083 6.988 18.957 6.988 14.976 4.162 C 11.171 1.462 9.925 -2.777 5.653 2.565 Z" fill="rgb(0, 0, 0)" height="22.271090141291126px" id="fni7kxu8N" transform="translate(147.41 89.166)" width="21.36462040017676px"/><path d="M 6.681 2.263 C 10.125 6.277 11.903 12.208 10.361 16.824 C 7.66 18.087 4.914 18.24 2.483 16.426 C -2.177 12.958 0.485 5.476 4.228 0 C 5.075 0.596 5.896 1.348 6.681 2.263 Z" fill="rgb(245, 112, 112)" height="17.78053771590659px" id="yJZoZCiz7" transform="translate(147.41 93.657)" width="10.920686727986403px"/><path d="M 17.738 1.047 C 21.661 2.744 24.294 6.189 25.114 10.076 C 28.509 8.02 32.825 7.577 36.746 9.274 C 43.186 12.058 46.146 19.532 43.361 25.961 C 40.577 32.399 33.1 35.359 26.669 32.575 C 22.748 30.878 20.113 27.433 19.294 23.545 C 15.899 25.602 11.584 26.045 7.661 24.348 C 1.223 21.564 -1.738 14.089 1.047 7.66 C 3.832 1.223 11.308 -1.737 17.738 1.047 Z" fill="rgb(253, 251, 253)" height="33.62170927668802px" id="M7yRDPyAP" transform="translate(153.403 48.733)" width="44.40844249771388px"/><path d="M 0.496 1.652 C -0.942 4.043 0.907 6.593 3.959 8.432 C 7.011 10.272 10.138 10.69 11.569 8.299 C 12.998 5.908 11.159 3.358 8.107 1.518 C 5.046 -0.313 1.927 -0.739 0.496 1.652 Z" fill="rgb(0, 0, 0)" height="9.953799683256285px" id="Q6JxvPnpC" transform="translate(187.947 43.371)" width="12.061512921207509px"/><path d="M 0.6 1.478 C -0.972 3.785 0.717 6.436 3.661 8.442 C 6.604 10.449 9.698 11.051 11.271 8.751 C 12.842 6.444 11.154 3.794 8.21 1.787 C 5.266 -0.219 2.172 -0.821 0.6 1.478 Z" fill="rgb(0, 0, 0)" height="10.229331817163299px" id="gbWpuUeGg" transform="translate(169.354 32.867)" width="11.87075005726797px"/><path d="M 2.514 59.341 C 4.245 60.11 6.344 59.65 7.573 58.094 L 48.081 6.878 C 49.536 5.039 49.227 2.371 47.387 0.917 C 45.547 -0.538 42.88 -0.229 41.424 1.611 L 0.917 52.828 C -0.538 54.667 -0.228 57.334 1.611 58.789 C 1.895 59.014 2.196 59.198 2.514 59.341 Z" fill="rgb(88, 58, 112)" height="59.70584073696003px" id="JtFzbYtAU" transform="translate(175.928 159.373)" width="48.998225878844664px"/><path d="M 3.479 73.665 C 3.813 73.748 4.164 73.79 4.532 73.79 C 6.874 73.783 8.772 71.876 8.764 69.526 L 8.496 4.231 C 8.488 1.89 6.581 -0.009 4.232 0 C 1.89 0.009 -0.008 1.915 0 4.264 L 0.268 69.561 C 0.268 71.542 1.639 73.197 3.479 73.657 Z" fill="rgb(88, 58, 112)" height="73.79035704085062px" id="nDdaRT5iS" transform="translate(63.884 106.707)" width="8.763917989839477px"/><path d="M 15.184 27.398 C 22.73 26.601 28.201 19.839 27.404 12.294 C 26.607 4.75 19.843 -0.72 12.298 0.077 C 4.752 0.874 -0.72 7.636 0.077 15.181 C 0.874 22.725 7.637 28.195 15.184 27.398 Z" fill="rgb(217, 200, 237)" height="27.47522336286429px" id="Nni9Bkrr2" transform="translate(141.19 0.917)" width="27.481414963645477px"/><path d="M 0 0 C 2.324 2.55 3.813 6.58 3.704 10.877" fill="transparent" height="10.877080597014928px" id="nzHyaTnCm" stroke-dasharray="" stroke-linecap="round" stroke-linejoin="round" stroke-width="2.72" stroke="rgb(120, 109, 171)" transform="translate(155.429 8.318)" width="3.7099919517672504px"/><path d="M 15.183 27.398 C 22.729 26.601 28.201 19.839 27.404 12.294 C 26.606 4.75 19.843 -0.72 12.297 0.077 C 4.751 0.874 -0.72 7.636 0.077 15.181 C 0.873 22.725 7.637 28.195 15.183 27.398 Z" fill="rgb(217, 200, 237)" height="27.47518962019212px" id="Q4KY9a2LI" transform="translate(204.632 28.025)" width="27.48064825312329px"/><path d="M 10.419 0 C 6.966 0.084 3.027 1.797 0 4.841" fill="transparent" height="4.840734328358209px" id="hzLwzXW3c" stroke-dasharray="" stroke-linecap="round" stroke-linejoin="round" stroke-width="2.72" stroke="rgb(120, 109, 171)" transform="translate(212.085 36.97)" width="10.419402985074782px"/><path d="M 3.313 12.625 C 0.77 11.524 -0.477 8.567 0.168 5.61 C 0.264 5.67 0.366 5.723 0.473 5.769 L 1.992 6.426 C 3.184 6.941 4.567 6.394 5.082 5.203 L 5.085 5.195 C 5.601 4.004 5.053 2.621 3.861 2.106 L 2.567 1.546 C 4.288 0.067 6.584 -0.445 8.591 0.423 C 11.537 1.698 12.744 5.462 11.286 8.831 C 9.829 12.201 6.26 13.899 3.313 12.625 Z" fill="rgb(0, 0, 0)" height="13.048235966032184px" id="A5NSnC9Hu" transform="translate(176.437 60.864)" width="11.904924473580433px"/><path d="M 3.313 12.625 C 0.769 11.524 -0.478 8.565 0.169 5.608 C 0.263 5.666 0.363 5.718 0.467 5.763 L 1.987 6.42 C 3.178 6.935 4.561 6.387 5.076 5.196 L 5.08 5.189 C 5.595 3.998 5.047 2.615 3.856 2.1 L 2.57 1.544 C 4.29 0.066 6.585 -0.444 8.591 0.423 C 11.537 1.698 12.744 5.462 11.286 8.831 C 9.829 12.2 6.259 13.899 3.313 12.625 Z" fill="rgb(0, 0, 0)" height="13.048235076696649px" id="JUeq9nQy6" transform="translate(154.332 51.307)" width="11.904644202293017px"/><path d="M 16.531 10.351 C 17.943 7.088 15.476 2.88 11.02 0.954 C 6.565 -0.973 1.809 0.111 0.398 3.374 C -1.014 6.638 1.453 10.845 5.908 12.771 C 10.363 14.698 15.119 13.614 16.531 10.351 Z" fill="rgb(0, 0, 0)" height="13.725141742683164px" id="sEBXsan38" transform="translate(163.926 72.557)" width="16.928430956381874px"/><path d="M 96.847 65.601 C 101.154 58.168 100.133 49.131 94.999 42.844 C 95.241 42.484 95.484 42.133 95.71 41.748 C 101.262 32.159 97.993 19.885 88.409 14.334 C 83.651 11.575 78.24 10.998 73.307 12.277 C 73.139 8.164 70.957 4.218 67.127 2.002 C 61.189 -1.442 53.58 0.589 50.134 6.525 C 49.867 6.977 49.649 7.445 49.449 7.921 C 47.885 5.865 45.903 4.076 43.528 2.704 C 33.936 -2.847 21.66 0.422 16.107 10.003 C 13.532 14.451 12.871 19.467 13.841 24.133 C 9.309 25.612 5.278 28.672 2.702 33.12 C -2.031 41.28 -0.342 51.379 6.173 57.633 C 6.064 57.8 5.947 57.959 5.847 58.135 C 2.401 64.071 4.433 71.679 10.37 75.124 C 14.05 77.256 18.357 77.289 21.928 75.592 C 23.14 80.8 26.401 85.532 31.394 88.425 C 38.979 92.823 48.236 91.678 54.525 86.268 C 63.932 90.958 75.473 87.606 80.816 78.393 C 81.377 77.423 81.828 76.419 82.213 75.399 C 88.125 74.58 93.611 71.161 96.83 65.601 Z" fill="rgb(255, 236, 112)" height="91.12777388905627px" id="szjrmYxz8" transform="translate(0.103 34.627)" width="99.54451844300722px"/><path d="M 0 0 L 7.752 10.719" fill="transparent" height="10.718985074626872px" id="xDDWxkEYw" stroke-dasharray="" stroke-linecap="round" stroke-linejoin="miter" stroke-miterlimit="10" stroke-width="3.81" stroke="rgb(255, 199, 69)" transform="translate(31.739 80.438)" width="7.752035820895351px"/><path d="M 0.61 0 L 0 8.369" fill="transparent" height="8.369205970149252px" id="ROJ4lSZde" stroke-dasharray="" stroke-linecap="round" stroke-linejoin="miter" stroke-miterlimit="10" stroke-width="3.81" stroke="rgb(255, 199, 69)" transform="translate(55.773 72.771)" width="1px"/></svg>