<svg display="block" role="presentation" viewBox="0 0 301 311" xmlns="http://www.w3.org/2000/svg"><path d="M 104.247 42.55 C 104.197 30.98 87.456 14.894 63.74 5.195 C 43.017 -3.282 20.355 -0.908 8.43 8.857 C 3.145 13.171 -0.017 18.923 0 25.846 C 0.101 48.352 29.019 55.142 58.622 51.646 C 84.98 48.52 104.297 54.137 104.247 42.567 Z" fill="rgb(79, 80, 110)" height="52.5121906296236px" id="AHNuHZOtj" transform="translate(195.973 145.912)" width="104.24697035169706px"/><path d="M 1.426 9.557 C 8.267 0.21 31.281 -2.967 56.151 3.119 C 77.893 8.436 94.836 23.669 98.766 38.568 C 100.505 45.173 99.686 51.694 95.605 57.262 C 82.308 75.421 54.896 63.917 33.02 43.718 C 13.535 25.709 -5.414 18.904 1.426 9.574 Z" fill="rgb(79, 80, 110)" height="66.32706259047188px" id="h8y1LfgEw" transform="translate(46.18 89.563)" width="99.62683194204801px"/><path d="M 43.063 0.795 C 28.278 -2.316 13.326 4.356 4.529 9.523 C -0.137 12.249 -1.425 18.419 1.736 22.782 C 7.707 31.043 18.711 43.183 33.496 46.276 C 48.281 49.386 63.233 42.715 72.031 37.547 C 76.697 34.822 77.985 28.651 74.823 24.288 C 68.853 16.027 57.848 3.889 43.063 0.795 Z" fill="rgb(79, 80, 110)" height="47.070516207804644px" id="FLjn6Ce7X" transform="translate(0.696 210.691)" width="76.55946179311941px"/><path d="M 0.149 36.683 C -1.222 51.715 7.14 65.811 13.295 73.938 C 16.556 78.252 22.811 78.82 26.792 75.175 C 34.318 68.286 45.072 55.946 46.444 40.897 C 47.815 25.864 39.453 11.785 33.298 3.642 C 30.037 -0.672 23.782 -1.241 19.801 2.405 C 12.275 9.294 1.521 21.634 0.149 36.683 Z" fill="rgb(79, 80, 110)" height="77.57937083546187px" id="ozc3eIQ7C" transform="translate(43.393 233.397)" width="46.59292986711353px"/><path d="M 2.494 29.078 C 1.557 25.367 0.704 20.952 0.286 15.935 C -0.232 9.816 0.019 4.415 0.521 0" fill="transparent" height="29.078089552238794px" id="EW23ExEDp" stroke-dasharray="" stroke-linecap="round" stroke-linejoin="round" stroke-width="4.03" stroke="rgb(54, 56, 73)" transform="translate(65.299 257.001)" width="2.49389862532378px"/><path d="M 27.847 8.644 C 24.05 8.177 19.618 7.373 14.785 5.953 C 8.881 4.23 3.93 2.04 0 0" fill="transparent" height="8.6444179104478px" id="CwUBv8m_e" stroke-dasharray="" stroke-linecap="round" stroke-linejoin="round" stroke-width="4.03" stroke="rgb(54, 56, 73)" transform="translate(27.303 229.93)" width="27.846853731343444px"/><path d="M 169.852 118.605 C 178.482 95.964 188.15 16.187 141.202 0.954 C 119.109 -6.219 77.03 27.625 52.544 82.955 C 30.149 133.553 -11.948 146.076 3.222 169.068 C 13.441 184.552 131.685 218.664 169.852 118.605 Z" fill="rgb(200, 200, 216)" height="187.38921473352855px" id="lYsdoXbuy" transform="translate(53.717 76.445)" width="177.01830400644408px"/><path d="M 137.111 89.458 C 124.752 122.499 95.733 142.196 48.653 124.589 C 2.023 107.165 -7.409 73.105 4.95 40.047 C 17.31 7.006 56.916 -8.729 93.409 4.916 C 129.904 18.56 149.471 56.4 137.111 89.458 Z" fill="rgb(200, 200, 216)" height="131.17920972135613px" id="zPE_e_6p4" transform="translate(133.907 0.867)" width="140.8165085359634px"/><path d="M 0 0.065 C 2.81 -0.119 8.078 -0.069 13.948 2.406 C 18.614 4.362 21.826 7.071 23.683 8.927" fill="transparent" height="8.926879441611675px" id="jTkP701XO" stroke-dasharray="" stroke-linecap="round" stroke-linejoin="round" stroke-width="4.23" stroke="rgb(102, 102, 102)" transform="translate(261.101 74.175)" width="23.682507462685976px"/><path d="M 20.339 15.049 C 18.95 12.591 16.056 8.21 10.771 4.615 C 6.591 1.773 2.56 0.552 0 0" fill="transparent" height="15.049110447761194px" id="MnWnpNYBH" stroke-dasharray="" stroke-linecap="round" stroke-linejoin="round" stroke-width="4.23" stroke="rgb(102, 102, 102)" transform="translate(256.099 87.902)" width="20.338985074626976px"/><path d="M 23.682 8.925 C 21.675 6.935 17.678 3.524 11.623 1.534 C 6.807 -0.037 2.609 -0.104 0 0.063" fill="transparent" height="8.925025648373811px" id="QwmjMb3z3" stroke-dasharray="" stroke-linecap="round" stroke-linejoin="round" stroke-width="4.23" stroke="rgb(102, 102, 102)" transform="translate(133.238 26.369)" width="23.68219701492555px"/><path d="M 0 1.819 C 2.659 0.866 7.727 -0.539 14.066 0.214 C 19.083 0.816 22.93 2.538 25.221 3.792" fill="transparent" height="3.791764521086648px" id="PbsF7LZsr" stroke-dasharray="" stroke-linecap="round" stroke-linejoin="round" stroke-width="4.23" stroke="rgb(102, 102, 102)" transform="translate(126.498 45.098)" width="25.22139701492597px"/><path d="M 0 0.356 C 2.76 -0.447 7.66 -0.113 11.106 3.7" fill="transparent" height="3.6997304053051643px" id="X1FHfxoep" stroke-dasharray="" stroke-linecap="round" stroke-linejoin="round" stroke-width="4.03" stroke="rgb(0, 0, 0)" transform="translate(198.398 9.839)" width="11.106268656716026px"/><path d="M 42.308 29.378 C 41.337 20.951 41.472 20.8 41.957 15.149 C 42.475 8.995 39.046 3.059 33.159 0.852 C 27.273 -1.355 20.783 0.869 17.136 5.869 C 13.791 10.45 13.791 10.667 7.537 16.386 C 4.778 18.844 2.569 22.038 1.248 25.817 C -2.515 36.619 2.502 48.541 12.671 52.888 C 23.844 57.671 36.723 51.801 41.087 40.164 C 42.426 36.602 42.793 32.907 42.342 29.412 Z" fill="rgb(253, 251, 253)" height="54.558709334662px" id="uyI3uFCea" transform="translate(174.588 57.315)" width="42.52535968366908px"/><path d="M 9.309 3.378 C 8.371 5.869 5.611 7.123 3.12 6.187 C 0.627 5.25 -0.626 2.491 0.31 0" fill="transparent" height="6.497116242178208px" id="hdK2OIGRK" stroke-dasharray="" stroke-linecap="round" stroke-linejoin="round" stroke-width="4.03" stroke="rgb(0, 0, 0)" transform="translate(194.041 66.493)" width="9.308529487438648px"/><path d="M 9.308 3.378 C 8.372 5.869 5.612 7.123 3.12 6.187 C 0.628 5.25 -0.626 2.491 0.31 0" fill="transparent" height="6.497116242178208px" id="EAitkb4Ms" stroke-dasharray="" stroke-linecap="round" stroke-linejoin="round" stroke-width="4.03" stroke="rgb(0, 0, 0)" transform="translate(203.156 69.887)" width="9.308347175091626px"/><path d="M 12.451 7.862 C 13.505 5.042 11.64 1.739 8.282 0.484 C 4.926 -0.771 1.35 0.498 0.294 3.318 C -0.76 6.138 1.108 9.441 4.464 10.696 C 7.821 11.951 11.397 10.682 12.451 7.862 Z" fill="rgb(0, 0, 0)" height="11.179922737869099px" id="Uz3IpbP0k" transform="translate(201.058 54.416)" width="12.745703978842783px"/><path d="M 0 8.311 L 3.111 0" fill="transparent" height="8.3105313432836px" id="TjAmHmxc5" stroke-dasharray="" stroke-linecap="round" stroke-linejoin="round" stroke-width="4.03" stroke="rgb(0, 0, 0)" transform="translate(202.479 64.35)" width="3.110686567164038px"/><path d="M 10.571 4.832 C 9.032 2.408 5.102 -0.535 0 0.084" fill="transparent" height="4.8322731005677895px" id="SYdWuwpzR" stroke-dasharray="" stroke-linecap="round" stroke-linejoin="round" stroke-width="4.03" stroke="rgb(0, 0, 0)" transform="translate(236.414 23.524)" width="10.57074626865733px"/><g opacity="0.3"><path d="M 24.33 14.159 C 26.095 9.278 22.174 3.387 15.571 1.001 C 8.969 -1.384 2.188 0.639 0.423 5.52 C -1.342 10.401 2.58 16.292 9.182 18.677 C 15.784 21.063 22.567 19.04 24.33 14.159 Z" fill="rgb(245, 190, 214)" height="19.67847187636552px" id="iBnq4mMBA" transform="translate(228.824 73.625)" width="24.753181459133344px"/></g><g opacity="0.3"><path d="M 24.331 14.159 C 26.095 9.278 22.172 3.388 15.571 1.002 C 8.969 -1.384 2.187 0.638 0.422 5.519 C -1.341 10.4 2.58 16.291 9.183 18.677 C 15.785 21.063 22.567 19.041 24.331 14.159 Z" fill="rgb(245, 190, 214)" height="19.67899341572233px" id="pmxY9jvsm" transform="translate(155.744 46.439)" width="24.753508645294716px"/></g><path d="M 4.379 6.512 C -0.472 18.518 -2.664 30.206 5.147 32.747 C 13.494 35.456 18.56 25.407 22.507 13.066 C 26.104 1.847 20.735 4.823 15.867 3.067 C 11.001 1.312 8.776 -4.407 4.379 6.512 Z" fill="rgb(0, 0, 0)" height="33.1920954804782px" id="DobHGy5hu" transform="translate(185.859 70.686)" width="23.681380094054788px"/><path d="M 12.689 0.612 C 16.898 2.129 19.615 6.058 19.048 11.715 C 15.606 19.295 11.255 24.145 5.147 22.163 C -0.906 20.193 -0.952 12.731 1.591 3.885 C 4.702 0.16 8.851 -0.781 12.689 0.612 Z" fill="rgb(198, 74, 138)" height="22.607585630929876px" id="Dhy6xOH3T" transform="translate(185.859 81.27)" width="19.122548557975144px"/><path d="M 23.498 14.756 C 25.438 9.572 21.742 3.402 15.254 0.978 C 8.764 -1.447 1.923 0.794 0 5.977" fill="transparent" height="14.755997226151173px" id="n4qXR5hzR" stroke-dasharray="" stroke-linecap="round" stroke-linejoin="round" stroke-width="4.03" stroke="rgb(0, 0, 0)" transform="translate(177.944 32.93)" width="24.014301798919547px"/><path d="M 23.499 14.756 C 25.438 9.572 21.742 3.402 15.252 0.978 C 8.764 -1.447 1.923 0.794 0 5.977" fill="transparent" height="14.755926811643278px" id="q4oSg4JZU" stroke-dasharray="" stroke-linecap="round" stroke-linejoin="round" stroke-width="4.03" stroke="rgb(0, 0, 0)" transform="translate(219.74 48.548)" width="24.01514768430883px"/><path d="M 89.418 33.937 C 90.037 21.263 82.794 9.291 71.69 3.338 C 59.346 -3.284 44.729 0.78 33.657 8.254 C 18.889 18.236 7.967 34.221 2.615 51.06 C -4.476 73.417 2.214 100.656 30.596 98.565 C 61.437 96.291 88.013 62.765 89.435 33.92 Z" fill="rgb(218, 218, 232)" height="98.67815587506311px" id="IcobsRyMw" transform="translate(109.165 145.81)" width="89.45447709275088px"/></svg>