<svg display="block" role="presentation" viewBox="0 0 98 168" xmlns="http://www.w3.org/2000/svg"><path d="M 8.324 0 L 0 2.761 L 4.492 16.306 L 12.817 13.545 Z" fill="rgb(236, 198, 168)" height="16.306461538461548px" id="KFEDcg6eD" transform="translate(66.9 145.559)" width="12.816615384615815px"/><path d="M 1.81 2.878 L 10.486 0 L 11.405 2.774 C 11.817 4.014 11.142 5.351 9.906 5.762 L 3.479 7.894 C 2.094 8.353 0.594 7.6 0.135 6.215 C -0.324 4.831 0.428 3.331 1.813 2.872 Z" fill="rgb(37, 32, 24)" height="8.028223059180988px" id="Vx2D04yuu" transform="translate(69.233 159.106)" width="11.526264249742226px"/><path d="M 8.325 0 L 0 2.761 L 4.493 16.306 L 12.817 13.545 Z" fill="rgb(255, 214, 181)" height="16.305846153846204px" id="yfh7MC48g" transform="translate(76.803 142.27)" width="12.817230769230918px"/><path d="M 1.81 2.878 L 10.486 0 L 11.405 2.774 C 11.817 4.014 11.142 5.351 9.906 5.762 L 3.479 7.894 C 2.094 8.353 0.594 7.6 0.135 6.215 C -0.324 4.831 0.428 3.331 1.813 2.872 Z" fill="rgb(56, 48, 36)" height="8.02845874065963px" id="LbZKuqImD" transform="translate(79.138 155.82)" width="11.526264249742255px"/><path d="M 21.257 25.37 C 28.257 21.228 30.865 12.689 27.083 6.295 C 23.3 -0.098 14.56 -1.923 7.56 2.218 C 0.56 6.359 -2.048 14.899 1.735 21.292 C 5.517 27.685 14.258 29.511 21.257 25.37 Z" fill="rgb(117, 117, 117)" height="27.58760397724174px" id="Ig_9XbfMk" transform="translate(5.591 40.139)" width="28.81738059235149px"/><path d="M 28.053 22.713 C 32.242 14.998 29.817 5.584 22.637 1.685 C 15.458 -2.213 6.242 0.881 2.053 8.595 C -2.136 16.31 0.289 25.724 7.469 29.622 C 14.649 33.521 23.865 30.427 28.053 22.713 Z" fill="rgb(117, 117, 117)" height="31.30782392881534px" id="G4D71MhQO" transform="translate(21.539 41.343)" width="30.10640659121249px"/><path d="M 16.143 26.84 C 24.229 25.976 30.145 19.288 29.355 11.902 C 28.567 4.515 21.371 -0.772 13.284 0.093 C 5.197 0.957 -0.719 7.645 0.071 15.031 C 0.86 22.417 8.056 27.704 16.143 26.84 Z" fill="rgb(117, 117, 117)" height="26.932789230592814px" id="TDDaS2nMX" transform="translate(52.432 24.83)" width="29.426127957134597px"/><path d="M 30.141 21.66 C 33.566 14.243 29.883 5.247 21.913 1.566 C 13.944 -2.115 4.706 0.914 1.281 8.331 C -2.145 15.748 1.539 24.745 9.508 28.425 C 17.478 32.106 26.715 29.077 30.141 21.66 Z" fill="rgb(117, 117, 117)" height="29.99143183926357px" id="Eu5ud9cms" transform="translate(39.929 35.68)" width="31.421277142988153px"/><path d="M 11.949 9.111 C 13.499 5.993 12.228 2.21 9.111 0.66 C 5.993 -0.889 2.21 0.382 0.66 3.499 C -0.889 6.617 0.382 10.4 3.499 11.949 C 6.617 13.499 10.4 12.228 11.949 9.111 Z" fill="rgb(255, 214, 181)" height="12.609643695294764px" id="FurkdChJl" transform="translate(19.274 44.139)" width="12.609643695294814px"/><path d="M 5.795 3.176 C 5.607 3.176 5.42 3.095 5.291 2.935 C 3.903 1.217 2.498 0.851 0.995 1.82 C 0.696 2.011 0.294 1.927 0.102 1.623 C -0.089 1.324 -0.005 0.923 0.299 0.731 C 2.369 -0.598 4.496 -0.103 6.294 2.123 C 6.517 2.399 6.473 2.805 6.196 3.028 C 6.076 3.127 5.933 3.171 5.79 3.171 Z" fill="rgb(230, 154, 123)" height="3.175673949496222px" id="r18sAZlX7" transform="translate(23.538 49.888)" width="6.436369936943766px"/><path d="M 10.59 0 L 0 3.512 L 3.81 15 L 14.4 11.487 Z" fill="rgb(240, 181, 134)" height="14.999938461538491px" id="BCo5x62xG" transform="translate(42.386 55.299)" width="14.399876923077343px"/><path d="M 10.59 0 L 0 3.512 L 1.543 8.166 L 12.133 4.653 Z" fill="rgb(255, 239, 102)" height="8.165538461538468px" id="iekcUvvUt" transform="translate(44.513 61.708)" width="12.133169230769361px"/><path d="M 0.004 12.407 L 37.409 0 L 45.32 23.851 C 48.069 32.138 43.574 41.102 35.283 43.851 L 27.911 46.296 C 19.625 49.045 10.661 44.55 7.911 36.259 L 0 12.408 Z" fill="rgb(255, 214, 181)" height="47.103887011546064px" id="OLu0Jqcyc" transform="translate(15.87 15.531)" width="46.12780006015324px"/><path d="M 11.948 9.113 C 13.499 5.997 12.23 2.213 9.113 0.662 C 5.997 -0.889 2.213 0.38 0.662 3.496 C -0.889 6.613 0.38 10.397 3.496 11.948 C 6.613 13.499 10.397 12.23 11.948 9.113 Z" fill="rgb(255, 214, 181)" height="12.609678924778919px" id="tqRDDl5Xn" transform="translate(55.903 32.008)" width="12.609704910689878px"/><path d="M 0.646 2.594 C 0.512 2.594 0.383 2.554 0.267 2.469 C -0.023 2.259 -0.086 1.858 0.124 1.568 C 0.811 0.622 1.833 0.096 3.162 0.002 C 3.51 -0.025 3.826 0.243 3.849 0.6 C 3.876 0.957 3.608 1.264 3.251 1.287 C 2.31 1.354 1.627 1.693 1.168 2.326 C 1.043 2.5 0.847 2.589 0.646 2.589 Z" fill="rgb(230, 154, 123)" height="2.593721851110814px" id="u4Q1n2vWy" transform="translate(60.525 37.399)" width="3.850395290457655px"/><path d="M 4.278 15.194 C 4.149 14.802 8.503 8.766 19.397 7.776 L 17.166 0 L 0 5.692 L 2.239 15.565 L 4.274 15.194 Z" fill="rgb(91, 90, 92)" height="15.56455384615387px" id="hHfTf82Kq" transform="translate(20.763 15.64)" width="19.396615384615707px"/><path d="M 10.298 2.686 C 10.195 2.686 10.093 2.655 10.004 2.588 C 9.312 2.057 5.618 -0.472 0.702 2.097 C 0.466 2.222 0.176 2.129 0.055 1.892 C -0.069 1.656 0.024 1.366 0.261 1.245 C 5.694 -1.596 9.825 1.232 10.597 1.825 C 10.807 1.986 10.847 2.289 10.682 2.499 C 10.588 2.624 10.445 2.686 10.302 2.686 Z" fill="rgb(68, 67, 69)" height="2.686205353388633px" id="rlv1umHUk" transform="translate(25.654 21.252)" width="10.783641580739847px"/><path d="M 0.481 1.937 C 0.307 1.937 0.137 1.843 0.053 1.674 C -0.068 1.437 0.026 1.147 0.262 1.027 C 1.36 0.469 2.586 0.126 3.804 0.027 C 4.804 -0.048 5.794 0.032 6.744 0.277 C 7.003 0.344 7.155 0.603 7.092 0.862 C 7.025 1.12 6.762 1.272 6.508 1.21 C 5.656 0.991 4.772 0.915 3.88 0.987 C 2.787 1.071 1.685 1.384 0.699 1.883 C 0.628 1.919 0.557 1.937 0.481 1.937 Z" fill="rgb(68, 67, 69)" height="1.9368401249219858px" id="kMJWHnblc" transform="translate(25.113 24.111)" width="7.106068463561634px"/><path d="M 43.637 8.085 C 43.637 8.085 35.821 -2.943 24.65 0.76 C 19.404 2.5 14.925 6.14 12.494 11.235 C 11.267 13.804 10.603 16.579 10.282 19.394 C 9.947 22.316 9.505 25.492 6.664 27.08 C -4.899 33.553 -0.603 51.299 13.311 48.391 C 16.795 47.663 20.27 46.026 22.656 43.287 C 25.369 40.178 26.225 35.913 25.654 31.894 C 25.342 29.699 24.601 27.531 25.079 25.26 C 25.494 23.288 26.725 21.009 28.523 20.014 C 34.773 16.561 39.18 22.914 39.18 22.914 L 43.637 8.081 Z" fill="rgb(137, 137, 137)" height="48.70992635281612px" id="e6KQZfXga" transform="translate(0.979 0.498)" width="43.63664384564273px"/><path d="M 5.447 3.699 C 5.447 3.699 13.107 -2.997 20.485 1.629 C 20.485 1.629 23.608 3.249 25.816 9.275 C 26.191 10.301 26.807 11.238 27.641 11.97 C 28.738 12.924 30.411 13.696 32.731 12.965 C 34.48 12.411 36.269 13.536 36.309 15.28 C 36.376 18.282 35.644 22.498 31.968 26.085 C 23.875 33.976 15.284 30.18 12.678 23.881 C 10.073 17.582 0.995 18.536 0.995 18.536 C 0.629 17.693 -0.834 14.049 0.656 9.788 C 1.927 6.153 4.577 4.266 5.452 3.699 Z" fill="rgb(137, 138, 138)" height="30.53207570616084px" id="bVfCoyKFd" transform="translate(39.169 4.884)" width="36.31273755586152px"/><g opacity="0.5"><g d="M 8.769 0.035 C 7.243 -0.072 5.687 0.062 4.183 0.521 C 2.702 0.972 0.623 1.913 0.11 3.724 C -0.59 6.195 2.051 11.433 7.913 12.468 C 10.933 12.999 14.466 11.25 15.461 8.083 C 16.148 5.906 15.416 3.644 13.993 2.114 C 12.659 0.677 10.58 0.169 8.765 0.039 Z" fill="transparent" height="12.561852980875209px" id="ktuNVl82V" transform="translate(20.844 40.114)" width="15.721605997404698px"><path d="M 8.769 0.035 C 7.243 -0.072 5.687 0.062 4.183 0.521 C 2.702 0.972 0.623 1.913 0.11 3.724 C -0.59 6.195 2.051 11.433 7.913 12.468 C 10.933 12.999 14.466 11.25 15.461 8.083 C 16.148 5.906 15.416 3.644 13.993 2.114 C 12.659 0.677 10.58 0.169 8.765 0.039 Z" fill="rgb(235, 248, 250)" height="12.561853004379605px" id="maCtltABe" transform="translate(0 0)" width="15.72160599146289px"/></g></g><g opacity="0.5"><g d="M 6.958 0.567 C 5.477 1.098 4.148 1.919 2.992 2.918 C 1.614 4.105 0.253 5.755 0.039 7.705 C -0.189 9.784 0.579 12.032 2.43 13.37 C 5.124 15.315 9.001 14.606 11.102 12.376 C 15.184 8.044 14.176 2.267 12.133 0.701 C 10.638 -0.446 8.412 0.041 6.953 0.567 Z" fill="transparent" height="14.502782122601134px" id="WfQX3cUTZ" transform="translate(40.138 32.748)" width="13.914383635751445px"><path d="M 6.958 0.567 C 5.477 1.098 4.148 1.919 2.992 2.918 C 1.614 4.105 0.253 5.755 0.039 7.705 C -0.189 9.784 0.579 12.032 2.43 13.37 C 5.124 15.315 9.001 14.606 11.102 12.376 C 15.184 8.044 14.176 2.267 12.133 0.701 C 10.638 -0.446 8.412 0.041 6.953 0.567 Z" fill="rgb(235, 248, 250)" height="14.502782200598974px" id="unROJqmQM" transform="translate(0 0)" width="13.914383607888535px"/></g></g><path d="M 6.723 11.522 C 9.187 10.705 10.344 7.506 9.306 4.377 C 8.269 1.248 5.429 -0.626 2.964 0.192 C 0.5 1.009 -0.657 4.208 0.381 7.337 C 1.419 10.466 4.258 12.34 6.723 11.522 Z" fill="rgb(255, 255, 255)" height="11.713902941321606px" id="UWTCL_ovP" transform="translate(26.658 40.488)" width="9.68713466717388px"/><path d="M 2.12 0.136 C 3.891 -0.451 5.936 0.914 6.689 3.185 C 7.443 5.455 6.618 7.772 4.848 8.359 C 3.694 8.742 2.422 8.295 1.468 7.308 L 1.934 7.153 C 2.652 6.915 3.041 6.141 2.803 5.424 C 2.566 4.708 1.791 4.32 1.073 4.558 L 0.167 4.858 C 0.162 4.86 0.156 4.862 0.151 4.864 C -0.362 2.744 0.466 0.685 2.12 0.136 Z" fill="rgb(0, 0, 0)" height="8.495360253900468px" id="BDnbNBmu2" transform="translate(28.405 42.83)" width="6.968417462412328px"/><path d="M 6.723 11.522 C 9.187 10.705 10.344 7.506 9.306 4.377 C 8.269 1.248 5.429 -0.626 2.964 0.192 C 0.5 1.009 -0.657 4.208 0.381 7.337 C 1.419 10.466 4.258 12.34 6.723 11.522 Z" fill="rgb(255, 255, 255)" height="11.713960326968923px" id="SfCoF_gSF" transform="translate(40.458 35.911)" width="9.687160736079079px"/><path d="M 2.121 0.136 C 3.891 -0.451 5.936 0.914 6.69 3.185 C 7.443 5.455 6.618 7.772 4.848 8.359 C 3.693 8.742 2.421 8.294 1.467 7.306 L 1.933 7.151 C 2.651 6.913 3.04 6.139 2.802 5.422 C 2.565 4.705 1.79 4.317 1.072 4.556 L 0.166 4.856 C 0.161 4.858 0.156 4.86 0.15 4.861 C -0.361 2.742 0.467 0.685 2.121 0.136 Z" fill="rgb(0, 0, 0)" height="8.495339893164179px" id="avIZVzStJ" transform="translate(41.268 37.914)" width="6.968433575747733px"/><path d="M 41.177 0.923 C 39.17 -0.687 35.94 0.129 33.799 0.968 C 31.626 1.815 29.637 3.078 27.875 4.599 C 25.778 6.406 23.458 9.105 22.936 11.973 C 22.789 12.785 22.762 13.592 22.843 14.373 C 22.441 13.699 21.937 13.07 21.335 12.504 C 19.202 10.514 15.732 9.734 12.97 9.542 C 10.651 9.381 8.3 9.555 6.051 10.171 C 3.834 10.777 0.756 12.058 0.109 14.547 C -0.774 17.946 3.727 24.589 12.591 26.65 C 17.94 27.894 22.53 25.258 23.717 20.672 C 23.976 19.673 24.047 18.669 23.949 17.701 C 24.449 18.535 25.104 19.298 25.912 19.945 C 29.61 22.911 34.861 22.282 38.407 18.085 C 44.278 11.134 43.917 3.118 41.177 0.923 Z M 21.357 20.364 C 20.358 23.532 16.829 25.28 13.809 24.749 C 7.947 23.719 5.302 18.482 6.007 16.006 C 6.52 14.195 8.594 13.253 10.08 12.803 C 11.583 12.343 13.14 12.209 14.666 12.316 C 16.481 12.446 18.556 12.954 19.894 14.391 C 21.317 15.925 22.049 18.183 21.362 20.36 Z M 36.288 17.295 C 34.183 19.526 30.306 20.235 27.616 18.29 C 25.765 16.952 24.997 14.703 25.225 12.624 C 25.434 10.675 26.8 9.024 28.178 7.838 C 29.338 6.838 30.667 6.018 32.144 5.487 C 33.603 4.96 35.829 4.474 37.323 5.62 C 39.362 7.182 40.374 12.959 36.293 17.295 Z" fill="rgb(0, 0, 0)" height="26.957669974113042px" id="dVKzsRU4i" transform="translate(14.952 27.828)" width="43.085595787113206px"/><path d="M 0.67 2.728 C 0.567 2.728 0.469 2.705 0.371 2.656 C 0.041 2.491 -0.093 2.094 0.068 1.764 C 0.509 0.868 1.982 -0.605 4.399 0.265 C 4.747 0.39 4.926 0.774 4.801 1.122 C 4.676 1.47 4.292 1.648 3.944 1.523 C 2.098 0.859 1.344 2.201 1.263 2.357 C 1.143 2.589 0.906 2.723 0.666 2.723 Z" fill="rgb(0, 0, 0)" height="2.7277681860329217px" id="B0XHR3Nsm" transform="translate(38.115 28.834)" width="4.840791643029611px"/><path d="M 0.67 2.728 C 0.567 2.728 0.469 2.705 0.371 2.656 C 0.041 2.491 -0.093 2.094 0.068 1.764 C 0.51 0.868 1.982 -0.605 4.399 0.265 C 4.747 0.39 4.926 0.774 4.801 1.122 C 4.676 1.47 4.292 1.648 3.944 1.523 C 2.098 0.859 1.344 2.201 1.263 2.358 C 1.143 2.589 0.906 2.723 0.666 2.723 Z" fill="rgb(0, 0, 0)" height="2.7278230616650845px" id="yocxOGGzf" transform="translate(26.066 32.831)" width="4.840821279295135px"/><path d="M 0.718 1.436 C 1.115 1.436 1.436 1.115 1.436 0.718 C 1.436 0.322 1.115 0 0.718 0 C 0.322 0 0 0.322 0 0.718 C 0 1.115 0.322 1.436 0.718 1.436 Z" fill="rgb(0, 0, 0)" height="1.4364923076923048px" id="Qe4AoD9Pl" transform="translate(39.437 49.664)" width="1.4364923076916654px"/><path d="M 3.721 0.212 C 4.14 -0.132 4.796 -0.047 5.171 0.39 C 7.767 3.442 7.834 5.454 6.581 6.475 C 5.331 7.492 3.204 7.162 0.317 4.378 C -0.107 3.968 -0.107 3.326 0.322 2.978 Z" fill="rgb(0, 0, 0)" height="7.002178344657558px" id="lkxLjSyCU" transform="translate(40.315 50.733)" width="7.373641624657836px"/><path d="M 3.742 4.72 C 2.891 5.413 1.631 5.481 0.001 4.572 C -0.007 4.259 0.023 3.928 0.093 3.587 C 0.469 1.762 1.89 0.248 3.376 0 C 4.917 2.296 4.798 3.859 3.742 4.72 Z" fill="rgb(198, 74, 138)" height="5.24700191956575px" id="zkhSTR5AL" transform="translate(43.153 52.488)" width="4.535239830224229px"/><path d="M 3.34 42.285 C 2.854 42.285 2.359 42.178 1.891 41.95 C 0.227 41.148 -0.469 39.149 0.334 37.485 L 17.513 1.891 C 18.316 0.227 20.319 -0.469 21.979 0.334 C 23.643 1.137 24.339 3.135 23.536 4.799 L 6.356 40.393 C 5.78 41.589 4.585 42.285 3.34 42.285 Z" fill="rgb(255, 214, 181)" height="42.28515735473648px" id="fhMdm1YC0" transform="translate(66.248 22.368)" width="23.869196395829675px"/><path d="M 0.685 6.121 C 0.8 6.901 1.527 7.439 2.307 7.323 C 3.086 7.206 3.624 6.48 3.508 5.7 L 2.84 1.217 C 2.723 0.437 1.997 -0.1 1.218 0.016 C 0.438 0.132 -0.1 0.858 0.016 1.638 Z" fill="rgb(255, 214, 181)" height="7.3383009075739025px" id="aN24hJUv6" transform="translate(80.848 23.681)" width="3.5237782045964963px"/><path d="M 7.547 2.824 L 1.435 0.034 C 1.244 -0.053 1.02 0.031 0.932 0.222 L 0.035 2.19 C -0.053 2.381 0.031 2.606 0.222 2.693 L 6.334 5.482 C 6.524 5.569 6.75 5.485 6.836 5.294 L 7.734 3.326 C 7.822 3.135 7.737 2.911 7.547 2.824 Z" fill="rgb(239, 130, 130)" height="5.516098626141538px" id="KClbcY0uj" transform="translate(79.92 29.17)" width="7.768751995981617px"/><path d="M 2.718 4.458 C 3.936 4.201 4.715 3.005 4.458 1.788 C 4.2 0.571 3.005 -0.208 1.788 0.049 C 0.571 0.306 -0.208 1.501 0.049 2.719 C 0.306 3.936 1.501 4.715 2.718 4.458 Z" fill="rgb(239, 130, 130)" height="4.506566151567895px" id="Ld80CNf6G" transform="translate(81.564 29.625)" width="4.506628480183039px"/><path d="M 0.224 1.603 C 0.193 1.603 0.162 1.598 0.131 1.585 C 0.019 1.531 -0.03 1.402 0.019 1.29 L 0.546 0.13 C 0.594 0.019 0.728 -0.03 0.84 0.019 L 1.795 0.452 C 1.906 0.505 1.955 0.635 1.906 0.746 C 1.857 0.858 1.723 0.907 1.611 0.858 L 0.862 0.514 L 0.425 1.469 C 0.389 1.549 0.304 1.598 0.22 1.598 Z" fill="rgb(201, 77, 77)" height="1.6026831201419576px" id="W0qKZg2Qj" transform="translate(83.06 31.694)" width="1.9249906513404227px"/><path d="M 12.094 32.075 L 23.506 4.751 L 14.775 0 L 0.723 26.731 C -0.95 29.915 0.384 33.855 3.654 35.367 C 6.888 36.861 10.72 35.367 12.09 32.079 Z" fill="rgb(255, 239, 102)" height="35.94766686575385px" id="m1k0KQu_1" transform="translate(61.277 36.335)" width="23.505801381515887px"/><path d="M 21.279 0 L 10.412 2.833 L 0 7.057 C 0 7.057 -0.111 37.839 6.955 60.371 C 7.196 61.138 7.963 61.607 8.753 61.46 L 9.712 61.281 C 22.265 58.948 34.444 54.911 45.9 49.277 L 46.779 48.844 C 47.497 48.492 47.836 47.653 47.568 46.899 C 39.77 24.607 21.275 0 21.275 0 Z" fill="rgb(47, 67, 117)" height="61.486622134256606px" id="jDjDQMsME" transform="translate(49.75 90.773)" width="47.65941189648891px"/><path d="M 13.713 40.79 C 13.495 40.79 13.289 40.656 13.209 40.442 C 11.01 34.571 8.886 28.585 6.897 22.651 C 4.465 15.411 2.155 8.024 0.022 0.685 C -0.063 0.4 0.103 0.101 0.388 0.021 C 0.674 -0.059 0.972 0.101 1.053 0.387 C 3.176 7.707 5.487 15.081 7.914 22.308 C 9.903 28.228 12.022 34.201 14.217 40.063 C 14.32 40.339 14.182 40.652 13.9 40.754 C 13.838 40.777 13.775 40.79 13.713 40.79 Z" fill="rgb(6, 25, 74)" height="40.78974580713961px" id="Z8UuFzpUF" transform="translate(60.957 106.955)" width="14.251192511527755px"/><path d="M 30.264 27.105 L 22.787 0 L 10.39 1.95 L 10.323 1.959 L 1.521 6.611 C 0.245 7.285 -0.326 8.806 0.187 10.158 L 9.297 34.06 Z" fill="rgb(255, 239, 102)" height="34.06030769230766px" id="M13D4tyBJ" transform="translate(39.869 61.611)" width="30.263530780897213px"/><path d="M 21.281 0 L 0 7.058 L 1.666 12.081 L 22.947 5.022 Z" fill="rgb(196, 129, 63)" height="12.080615384615442px" id="B3oyFzX_B" transform="translate(48.079 85.77)" width="22.946769230769874px"/><path d="M 2.002 6.766 C 1.654 6.766 1.333 6.547 1.217 6.199 L 0.043 2.658 C -0.028 2.448 -0.01 2.224 0.088 2.028 C 0.186 1.832 0.36 1.685 0.565 1.613 L 5.299 0.043 C 5.508 -0.028 5.736 -0.01 5.927 0.088 C 6.124 0.186 6.271 0.36 6.342 0.565 L 7.516 4.107 C 7.658 4.54 7.426 5.008 6.994 5.151 L 2.261 6.722 C 2.176 6.748 2.087 6.762 2.002 6.762 Z M 1.872 2.925 L 2.528 4.897 L 5.691 3.848 L 5.035 1.877 Z" fill="rgb(255, 203, 62)" height="6.7659021178069665px" id="UoeHVwDNZ" transform="translate(52.852 89.378)" width="7.557696435352145px"/><path d="M 2.426 0.853 C 2.21 0.201 1.506 -0.153 0.853 0.064 C 0.201 0.28 -0.153 0.984 0.064 1.637 L 0.746 3.694 C 0.963 4.347 1.667 4.701 2.319 4.484 C 2.972 4.267 3.325 3.563 3.109 2.911 Z" fill="rgb(255, 166, 61)" height="4.547688765216293px" id="tKeHikh1K" transform="translate(56.179 68.448)" width="3.1724824314855056px"/><path d="M 4.334 1.26 C 4.405 1.996 3.901 2.625 3.214 2.665 L 1.381 2.772 C 0.694 2.812 0.078 2.25 0.007 1.514 C -0.065 0.778 0.439 0.149 1.126 0.109 L 2.96 0.002 C 3.647 -0.038 4.263 0.524 4.334 1.26 Z" fill="rgb(255, 166, 61)" height="2.7744791887862448px" id="oUlVeMGnb" transform="translate(54.405 71.165)" width="4.340716102470267px"/><path d="M 0.21 3.028 C 0.594 3.657 1.375 3.862 1.95 3.483 L 3.485 2.475 C 4.06 2.095 4.216 1.275 3.833 0.645 C 3.449 0.016 2.668 -0.189 2.093 0.19 L 0.558 1.198 C -0.017 1.578 -0.173 2.398 0.21 3.028 Z" fill="rgb(255, 166, 61)" height="3.673140076431153px" id="GaH4VNN4h" transform="translate(57.797 69.638)" width="4.042968043767971px"/><path d="M 3.713 3.447 C 4.133 2.88 4.026 2.041 3.477 1.569 L 2.014 0.311 C 1.465 -0.162 0.675 -0.086 0.256 0.476 C -0.163 1.043 -0.056 1.881 0.493 2.354 L 1.956 3.612 C 2.505 4.085 3.294 4.009 3.713 3.447 Z" fill="rgb(255, 166, 61)" height="3.922823808245795px" id="BiC_fTIwt" transform="translate(58.006 71.605)" width="3.969734574773838px"/><path d="M 0.926 4.468 C 0.257 4.245 -0.135 3.491 0.043 2.791 L 0.525 0.926 C 0.708 0.226 1.395 -0.162 2.064 0.065 C 2.733 0.288 3.126 1.042 2.947 1.742 L 2.465 3.607 C 2.282 4.307 1.595 4.696 0.926 4.468 Z" fill="rgb(255, 166, 61)" height="4.5332147153253715px" id="Sw88Nbgek" transform="translate(56.234 72.11)" width="2.990155408604487px"/><path d="M 1.445 2.253 C 2.007 2.066 2.298 1.423 2.096 0.815 C 1.895 0.207 1.276 -0.136 0.715 0.051 C 0.154 0.237 -0.138 0.88 0.064 1.488 C 0.266 2.096 0.884 2.439 1.445 2.253 Z" fill="rgb(9, 0, 1)" height="2.3033130409359472px" id="xDtzHkXhG" transform="translate(57.261 71.326)" width="2.1602423750286093px"/><path d="M 3.341 22.266 C 1.601 22.266 0.133 20.919 0.008 19.156 C -0.085 17.805 0.633 16.587 1.748 15.98 C 2.15 15.32 2.845 13.87 3.466 12.568 C 4.732 9.913 6.468 6.278 9.113 1.678 C 10.032 0.077 12.08 -0.476 13.681 0.447 C 15.283 1.366 15.836 3.414 14.913 5.015 C 12.396 9.392 10.724 12.893 9.506 15.454 C 7.472 19.719 6.347 22.065 3.586 22.262 C 3.506 22.266 3.425 22.27 3.345 22.27 Z" fill="rgb(255, 214, 181)" height="22.27032525100128px" id="BlQxl8h7V" transform="translate(26.081 74.449)" width="15.359743803865253px"/><path d="M 0.004 24.073 L 10.791 3.927 C 12.473 0.564 16.345 -0.971 19.321 0.648 C 22.296 2.268 23.108 6.354 21.194 9.592 L 9.217 29.092 L 0 24.073 Z" fill="rgb(255, 239, 102)" height="29.09151943308349px" id="fbjYYR5yI" transform="translate(25.527 68.395)" width="22.2279456607195px"/><path d="M 0.969 7.019 C 0.215 6.765 -0.182 5.957 0.081 5.216 L 1.585 0.956 C 1.848 0.216 2.669 -0.177 3.418 0.077 C 4.172 0.331 4.569 1.139 4.306 1.88 L 2.803 6.14 C 2.539 6.88 1.719 7.273 0.969 7.019 Z" fill="rgb(255, 214, 181)" height="7.096224135273246px" id="YmDRIRZVZ" transform="translate(18.58 67.083)" width="4.387166860516942px"/><path d="M 18.323 30.345 L 16.172 27.784 L 14.08 25.175 C 12.724 26.259 12.572 28.003 13.126 29.163 C 12.831 28.543 8.901 20.905 0.394 4.917 C -0.476 3.284 0.144 1.259 1.777 0.393 C 3.409 -0.476 5.435 0.144 6.3 1.777 C 11.007 10.619 14.174 16.654 16.007 20.156 C 17.074 22.195 17.863 23.72 18.385 24.737 C 18.653 25.255 18.849 25.643 18.978 25.902 C 20.223 28.378 18.938 29.841 18.327 30.35 Z" fill="rgb(255, 214, 181)" height="30.349720421233286px" id="XGS3CGxt1" transform="translate(13.026 65.879)" width="19.50220593709139px"/><path d="M 8.101 0.004 L 16.943 15.092 C 18.281 17.438 17.327 20.521 14.775 21.863 C 12.223 23.206 9.141 22.247 7.963 19.811 L 0 4.26 L 8.097 0 Z" fill="rgb(255, 239, 102)" height="22.47306174748121px" id="zgTYwMcuv" transform="translate(17.729 77.64)" width="17.547391868640418px"/><path d="M 3.98 7.133 C 3.757 7.133 3.538 7.017 3.418 6.807 L 0.085 0.963 C -0.093 0.655 0.018 0.259 0.326 0.084 C 0.634 -0.09 1.031 0.013 1.205 0.326 L 4.537 6.169 C 4.716 6.477 4.604 6.874 4.297 7.048 C 4.194 7.106 4.087 7.133 3.975 7.133 Z" fill="rgb(242, 203, 109)" height="7.132972522338889px" id="xsW9uKe1P" transform="translate(29.283 83.778)" width="4.622724079434391px"/></svg>