<svg display="block" role="presentation" viewBox="0 0 249 311" xmlns="http://www.w3.org/2000/svg"><path d="M 52.954 0.996 C 41.437 -0.272 9.728 -2.49 2.278 10.309 C -2.723 19.19 1.283 28.858 6.844 35.724 L 9.147 38.463 C 14.294 44.832 24.254 43.961 28.736 36.7 C 32.326 31.036 31.497 23.629 27.035 19.294 C 30.916 18.298 48.347 17.842 51.875 17.405 C 61.151 16.721 62.168 2.448 52.954 0.974 Z" fill="rgb(0, 0, 0)" height="42.740245590057185px" id="fphFyecFg" transform="translate(12.574 202.783)" width="59.37032122515427px"/><path d="M 97.413 45.394 C 99.384 72.198 77.076 89.874 62.301 98.567 C 54.54 103.131 44.932 103.256 37.026 98.899 C 22.417 90.87 0.4 74.605 0.006 49.502 C -0.409 22.282 21.566 -0.062 48.916 0 C 74.316 0.062 95.545 20.062 97.413 45.394 Z" fill="rgb(255, 135, 200)" height="102.08071787102364px" id="bl9r0I2Xv" transform="translate(42.405 0.901)" width="97.53483945613934px"/><path d="M 20.627 50.663 C 25.462 38.215 24.86 12.697 0 0" fill="transparent" height="50.66340740740742px" id="CsPbUd0b3" stroke-dasharray="" stroke-linecap="round" stroke-linejoin="round" stroke-width="5.73" stroke="rgb(237, 97, 173)" transform="translate(87.254 27.29)" width="23.003286805128013px"/><path d="M 4.319 15.808 C 7.39 17.572 23.265 24.771 26.461 27.219 C 20.671 29.459 16.999 35.953 18.098 42.57 C 19.385 51.016 28.246 55.703 35.467 51.824 L 38.663 50.207 C 46.487 46.035 53.936 38.713 52.774 28.567 C 50.906 13.878 20.838 3.568 9.736 0.248 C 0.668 -1.992 -3.961 11.555 4.319 15.808 Z" fill="rgb(0, 0, 0)" height="53.20357804437285px" id="gssxMWje7" transform="translate(105.553 213.612)" width="52.89404951983603px"/><path d="M 0 2.614 C 0.436 8.113 6.246 11.556 11.102 12.531 C 16.145 13.548 21.374 12.24 25.503 9.213 C 30.069 5.831 33.409 -0.082 39.78 0.001 C 45.466 0.084 51.567 4.979 50.322 11.1" fill="transparent" height="12.87117643010049px" id="NhP7xLtci" stroke-dasharray="" stroke-linecap="round" stroke-linejoin="round" stroke-width="5.73" stroke="rgb(237, 97, 173)" transform="translate(109.521 273.302)" width="50.485288286495006px"/><path d="M 0.439 40.697 C 4.298 28.269 8.74 15.966 16.273 5.366 C 26.15 -6.958 45.366 3.85 40.24 18.582 C 35.301 30.634 27.271 40.945 18.825 50.843 C 11.168 59.224 -2.57 51.486 0.418 40.697 Z" fill="rgb(0, 0, 0)" height="54.38745645941779px" id="lJUvcRgS7" transform="translate(37.157 245.798)" width="41.093983285735035px"/><path d="M 9.794 53.061 C 5.001 40.404 0.768 27.5 0 13.974 C 0 -1.897 21.913 -5.383 26.997 9.429 C 30.691 22.458 30.92 36.048 30.525 49.575 C 29.82 60.986 14.111 63.475 9.815 53.061 Z" fill="rgb(0, 0, 0)" height="59.654467626408405px" id="mwdmJN0JZ" transform="translate(81.652 251.089)" width="30.66490909434748px"/><path d="M 101.427 50.812 C 105.826 29.117 86.829 6.957 58.995 1.316 C 31.162 -4.325 5.032 8.689 0.633 30.384 C -3.766 52.08 15.231 74.239 43.064 79.882 C 70.898 85.523 97.027 72.508 101.427 50.812 Z" fill="rgb(250, 202, 228)" height="81.19831903806258px" id="xUfNmrNL1" transform="translate(32.316 205.503)" width="102.05962101453251px"/><path d="M 151.952 89.26 C 144.586 128.721 101.09 158.678 59.588 149.384 C 18.106 140.089 -6.92 94.094 1.691 55.63 C 10.801 14.967 51.08 -7.191 92.562 2.104 C 134.044 11.398 159.588 48.286 151.931 89.26 Z" fill="rgb(250, 202, 228)" height="151.0874403189346px" id="QIdinjI68" transform="translate(25.343 72.196)" width="153.28327781910133px"/><path d="M 0 0 L 6.141 11.597" fill="transparent" height="11.597348148148129px" id="ZlASBOR8K" stroke-dasharray="" stroke-linecap="round" stroke-linejoin="miter" stroke-miterlimit="10" stroke-width="4.44" stroke="rgb(4, 0, 1)" transform="translate(83.955 105.625)" width="6.141007407407301px"/><path d="M 0 5.104 L 14.111 0" fill="transparent" height="5.103703703703687px" id="D1N0kVNXX" stroke-dasharray="" stroke-linecap="round" stroke-linejoin="miter" stroke-miterlimit="10" stroke-width="4.44" stroke="rgb(4, 0, 1)" transform="translate(112.944 122.097)" width="14.111451851851783px"/><path d="M 9.815 68.568 C 17.141 69.542 24.134 72.052 30.339 76.058 C 31.21 76.616 32.082 77.177 32.974 77.716 C 58.436 93.193 88.878 98.753 94.253 98.526 L 52.48 15.809 L 18.22 0 C 16.871 5.685 15.895 10 15.003 14.419 C 12.907 25.02 7.761 34.833 0 42.323 L 9.815 68.589 Z" fill="rgb(250, 202, 228)" height="98.5324102124727px" id="iBhbhzTy8" transform="translate(8.835 127.72)" width="94.25250370370351px"/><path d="M 32.102 18.294 C 33.301 9.472 27.12 1.348 18.297 0.149 C 9.473 -1.05 1.348 5.129 0.149 13.951 C -1.05 22.772 5.131 30.896 13.955 32.096 C 22.778 33.296 30.903 27.115 32.102 18.294 Z" fill="rgb(4, 0, 1)" height="32.24485869892695px" id="r4BlMO9D2" transform="translate(0.389 165.695)" width="32.25117705381162px"/><path d="M 40.101 13.759 C 41.595 14.34 42.322 16.02 41.782 17.514 C 41.699 17.784 41.595 18.033 41.491 18.282 C 39.748 22.659 37.383 25.917 34.084 29.506 C 27.796 35.564 19.121 36.995 11.921 34.132 C 1.213 29.879 -3.062 15.419 2.333 1.83 C 2.935 0.336 4.617 -0.39 6.111 0.212 L 40.08 13.738 Z" fill="rgb(253, 251, 253)" height="35.551663764525415px" id="WqF48kjJh" transform="translate(95.172 140.89)" width="41.9598680550279px"/><path d="M 28.19 9.875 C 29.285 10.329 29.979 11.372 30.023 12.498 C 29.624 12.209 29.183 11.964 28.704 11.774 L 24.733 10.193 C 21.623 8.955 18.1 10.472 16.862 13.58 C 15.624 16.689 17.141 20.212 20.25 21.449 L 23.829 22.874 C 23.146 23.51 22.432 24.088 21.695 24.605 C 17.586 27.469 12.792 28.423 8.518 26.722 C 0.84 23.672 -2.211 13.195 1.711 3.34 C 2.188 2.158 2.748 1.037 3.35 0 Z" fill="rgb(0, 0, 0)" height="27.565459294036224px" id="CticKs1vG" transform="translate(106.565 144.666)" width="30.022987685629353px"/><path d="M 0 0 C 1.411 13.796 16.393 18.61 27.827 13.008" fill="transparent" height="15.296308462946428px" id="hM9m1NMop" stroke-dasharray="" stroke-linecap="round" stroke-linejoin="miter" stroke-miterlimit="10" stroke-width="4.44" stroke="rgb(4, 0, 1)" transform="translate(55.671 132.699)" width="27.826933333333656px"/><path d="M 43.278 20.872 C 45.061 12.08 36.873 3 24.989 0.59 C 13.106 -1.817 2.027 3.358 0.244 12.152 C -1.539 20.943 6.649 30.022 18.533 32.432 C 30.417 34.841 41.495 29.666 43.278 20.872 Z" fill="rgb(253, 251, 253)" height="33.022542082340124px" id="gGXiGshEf" transform="translate(59.332 239.02)" width="43.5221459443578px"/><path d="M 0 4.689 C 3.403 9.689 18.967 13.672 22.204 0" fill="transparent" height="9.349112062361911px" id="P3nxOPleS" stroke-dasharray="" stroke-linecap="round" stroke-linejoin="miter" stroke-miterlimit="10" stroke-width="4.44" stroke="rgb(4, 0, 1)" transform="translate(92.587 189.213)" width="22.20438518518509px"/><path d="M 18.601 0 L 8.557 4.855 C 2.767 7.095 -0.905 13.589 0.194 20.207 C 1.481 28.652 10.342 33.34 17.563 29.461 L 20.759 27.843 C 28.583 23.672 36.032 16.349 34.87 6.203" fill="rgb(0, 0, 0)" height="30.840016288133995px" id="yGTMvXDGz" transform="translate(123.457 235.982)" width="34.9901361555922px"/><path d="M 74.551 91.045 C 51.289 104.53 25.641 92.186 11.384 82.684 C 3.873 77.684 -0.423 69.095 0.033 60.112 C 0.884 43.452 5.886 16.565 28.318 5.237 C 52.64 -7.024 82.333 2.976 94.224 27.602 C 105.264 50.485 96.549 78.307 74.572 91.045 Z" fill="rgb(255, 135, 200)" height="96.99604092343809px" id="kZLFR2oV_" transform="translate(149.703 48.297)" width="99.00344040248734px"/><path d="M 0 18.609 C 7.055 7.261 28.45 -7.739 52.915 4.667" fill="transparent" height="18.609221189712315px" id="ZBgyoY610" stroke-dasharray="" stroke-linecap="round" stroke-linejoin="round" stroke-width="5.73" stroke="rgb(237, 97, 173)" transform="translate(167.935 80.902)" width="52.915199999999714px"/><path d="M 2.279 0 C -2.722 8.879 1.282 18.547 6.843 25.415 L 9.147 28.153 C 14.294 34.522 24.254 33.65 28.737 26.389 C 32.327 20.725 31.497 13.318 27.035 8.983 L 19.668 0.601" fill="rgb(0, 0, 0)" height="32.42999719764967px" id="Di984cvh2" transform="translate(12.595 213.092)" width="30.9795733985536px"/></svg>