<svg xmlns="http://www.w3.org/2000/svg" xmlns:xlink="http://www.w3.org/1999/xlink" id="Calque_1" x="0px" y="0px" viewBox="0 0 400 400" style="enable-background:new 0 0 400 400;" xml:space="preserve"><style type="text/css">	.st0{clip-path:url(#SVGID_00000121240723430435188300000017597458686889898384_);}	.st1{clip-path:url(#SVGID_00000080164379357537743010000015389415947139077280_);}	.st2{fill:#EE4037;}	.st3{fill:#EE4138;}	.st4{fill:#EE4238;}	.st5{fill:#EE4239;}	.st6{fill:#EE4339;}	.st7{fill:#EE433A;}	.st8{fill:#EE443A;}	.st9{fill:#EF443A;}	.st10{fill:#EF453B;}	.st11{fill:#EF463B;}	.st12{fill:#EF463C;}	.st13{fill:#EF473C;}	.st14{fill:#EF473D;}	.st15{fill:#EF483D;}	.st16{fill:#EF483E;}	.st17{fill:#EF493E;}	.st18{fill:#EF4A3F;}	.st19{fill:#EF4B3F;}	.st20{fill:#EF4B40;}	.st21{fill:#EF4C40;}	.st22{fill:#F04C41;}	.st23{fill:#F04D41;}	.st24{fill:#F04D42;}	.st25{fill:#F04E42;}	.st26{fill:#F04F43;}	.st27{fill:#F05043;}	.st28{fill:#F05044;}	.st29{fill:#F05144;}	.st30{fill:#F05145;}	.st31{fill:#F05245;}	.st32{fill:#F05346;}	.st33{fill:#F05446;}	.st34{fill:#F15447;}	.st35{fill:#F15547;}	.st36{fill:#F15548;}	.st37{fill:#F15648;}	.st38{fill:#F15649;}	.st39{fill:#F15749;}	.st40{fill:#F1584A;}	.st41{fill:#F1594A;}	.st42{fill:#F1594B;}	.st43{fill:#F15A4B;}	.st44{fill:#F15A4C;}	.st45{fill:#F15B4C;}	.st46{fill:#F25B4D;}	.st47{fill:#F25C4D;}	.st48{fill:#F25D4E;}	.st49{fill:#F25E4E;}	.st50{fill:#F25E4F;}	.st51{fill:#F25F4F;}	.st52{fill:#F25F50;}	.st53{fill:#F26050;}	.st54{fill:#F26151;}	.st55{fill:#F26251;}	.st56{fill:#F26252;}	.st57{fill:#F26352;}	.st58{fill:#F36353;}	.st59{fill:#F36453;}	.st60{fill:#F36454;}	.st61{fill:#F36554;}	.st62{fill:#F36655;}	.st63{fill:#F36755;}	.st64{fill:#F36756;}	.st65{fill:#F36856;}	.st66{fill:#F36857;}	.st67{fill:#F36957;}	.st68{fill:#F36958;}	.st69{fill:#F36A58;}	.st70{fill:#F36B59;}	.st71{fill:#F46B59;}	.st72{fill:#F46C59;}	.st73{fill:#F46C5A;}	.st74{fill:#F46D5A;}	.st75{fill:#F46D5B;}	.st76{fill:#F46E5B;}	.st77{fill:#F46F5C;}	.st78{fill:#FFBDFD;}	.st79{fill:#13A69C;}	.st80{clip-path:url(#SVGID_00000113331809664710166740000006557716514061604767_);}	.st81{clip-path:url(#SVGID_00000145753739444564954020000004449303996239709322_);}	.st82{clip-path:url(#SVGID_00000131367697773067793170000014799150928460080001_);}	.st83{fill:none;}	.st84{clip-path:url(#SVGID_00000047026065491980012070000015308758679623910535_);}</style><g>	<g>		<path d="M172.1,275.8c0,0-58.6,66.6-60.4,74.8c-1.8,8.2,11.7,42.3-22.1,38.4c-33.8-3.9-84.3-50.9-51.4-53.1   c32.8-2.3,52.8,3.9,52.8,3.9l45.7-58.1L172.1,275.8z"></path>		<g>			<g>				<defs>					<path id="SVGID_1_" d="M172.1,275.8c0,0-58.6,66.6-60.4,74.8c-1.8,8.2,11.7,42.3-22.1,38.4c-33.8-3.9-84.3-50.9-51.4-53.1      c32.8-2.3,52.8,3.9,52.8,3.9l45.7-58.1L172.1,275.8z"></path>				</defs>				<clipPath id="SVGID_00000078727903181273636010000009644836336538832556_">					<use xlink:href="#SVGID_1_" style="overflow:visible;"></use>				</clipPath>				<g transform="matrix(1 0 0 1 0 0)" style="clip-path:url(#SVGID_00000078727903181273636010000009644836336538832556_);">				</g>			</g>		</g>		<path d="M230.1,259.1c0,0,75.5,46.4,79.6,53.8c4.1,7.3,1.2,43.9,32.4,30.2c31.2-13.7,65.6-73.4,33.6-65.9   c-32,7.5-49.3,19.2-49.3,19.2L261,251.3L230.1,259.1z"></path>		<g>			<g>				<defs>					<path id="SVGID_00000067917900497889159900000012574624644244692127_" d="M230.1,259.1c0,0,75.5,46.4,79.6,53.8      c4.1,7.3,1.2,43.9,32.4,30.2c31.2-13.7,65.6-73.4,33.6-65.9c-32,7.5-49.3,19.2-49.3,19.2L261,251.3L230.1,259.1z"></path>				</defs>				<clipPath id="SVGID_00000170240304023715572380000008495372159280818872_">					<use xlink:href="#SVGID_00000067917900497889159900000012574624644244692127_" style="overflow:visible;"></use>				</clipPath>				<g transform="matrix(1 0 0 1 0 0)" style="clip-path:url(#SVGID_00000170240304023715572380000008495372159280818872_);">				</g>			</g>		</g>		<ellipse cx="85.8" cy="217.5" rx="10.4" ry="11.1"></ellipse>		<g>			<path class="st2" d="M112,290.6c-34.5,2.4-60.5,2.6-71.4,0c-11-2.6-13.3-6.3-17.1-10.7c-16.3-19-8.9-80.6,19.9-237.7l0.1-0.4    l0.1-0.4c2.7-10.1,12.4-27.2,32-27.2c6.9,0,14.2,2.2,21.7,6.7c6.7,3.9,14.5,9.3,23.6,15.6c24.2,16.6,57.3,39.4,78,39.4    c3.2,0,5.8-0.6,8-1.7c6.8-3.6,13.5-9,19.9-14.2c11.7-9.4,23.8-19.1,38.1-19.1c13.5,0,25.4,8.5,36.6,25.9    c27,42.1,56.1,92.5,60.1,99.5c2.8,3.5,10.5,14.6,7.8,28.5c-2.3,11.8-11.2,21.6-26.4,29.2C303.6,243.5,235.8,275.8,112,290.6z"></path>			<path class="st2" d="M44.2,41.8c0.9-3.3,2.6-7.5,5.1-11.5c1.8-2.8,4-5.5,6.7-7.9c5-4.4,11.6-7.6,20-7.5c3.4,0,6.8,0.6,10.4,1.6    c3.7,1.1,7.4,2.8,11.2,5c6.7,3.9,14.5,9.3,23.5,15.5c24.1,16.5,57,39.2,77.7,39.2c3.2,0,5.8-0.6,8-1.7    c5.4-2.8,10.6-6.8,15.7-10.8c1.4-1.1,2.7-2.2,4.1-3.3c8.5-6.8,17.2-13.9,26.9-17.1c3.5-1.2,7.2-1.9,11-1.9    c6.8,0,13.3,2.1,19.4,6.5c5.9,4.2,11.6,10.6,17,19.1c26.9,42,55.9,92.2,59.9,99.2c0.7,0.8,1.6,2.1,2.6,3.7c0.5,0.8,1,1.7,1.5,2.7    c2.6,5,5,12.2,3.8,20.5c-0.1,0.5-0.2,0.9-0.2,1.4c-2.3,11.7-11.1,21.4-26.2,29c-39.2,19.5-106.9,51.7-230.1,66.4    c-34.3,2.4-60.2,2.6-71.2,0c-10.9-2.6-13.3-6.3-17-10.6c-9.3-10.8-10.8-35.7-5-84.5C23.4,158.7,31.8,109.2,44.2,41.8z"></path>			<path class="st3" d="M44.8,42.2c0.9-3.3,2.6-7.5,5.1-11.4c1.8-2.8,4-5.4,6.7-7.8c5-4.3,11.5-7.4,19.9-7.4c3.3,0,6.8,0.6,10.3,1.7    c3.7,1.1,7.4,2.8,11.2,5c6.6,3.9,14.4,9.3,23.4,15.4c24,16.5,56.8,38.9,77.4,38.9c3.2,0,5.8-0.6,7.9-1.7    c5.3-2.8,10.6-6.7,15.7-10.7c1.4-1.1,2.7-2.2,4.1-3.2c8.5-6.8,17.2-13.8,26.7-17.1c3.5-1.2,7.2-1.9,11-2c6.8-0.1,13.2,2,19.3,6.4    c5.9,4.2,11.5,10.5,17,19c26.9,41.9,55.8,92,59.8,98.9c0.7,0.8,1.6,2.1,2.6,3.7c0.5,0.8,1,1.7,1.5,2.6c2.6,5,5,12.1,3.8,20.4    c-0.1,0.5-0.2,0.9-0.2,1.4c-2.3,11.6-11.1,21.3-26,28.7c-39,19.4-106.6,51.5-229.3,66.2c-34.1,2.4-59.9,2.7-70.9,0.1    c-10.8-2.5-13.2-6.2-17-10.5c-9.2-10.8-10.7-35.5-5-84.2C24.1,158.5,32.5,109.2,44.8,42.2z"></path>			<path class="st3" d="M45.4,42.5c0.9-3.3,2.6-7.4,5.1-11.4c1.8-2.7,4-5.4,6.7-7.7c5-4.2,11.5-7.3,19.8-7.2c3.3,0,6.7,0.6,10.2,1.7    c3.6,1.1,7.4,2.8,11.1,5c6.6,3.9,14.4,9.2,23.3,15.4c23.9,16.4,56.5,38.7,77.1,38.7c3.2,0,5.7-0.5,7.9-1.7    c5.3-2.8,10.5-6.7,15.6-10.7c1.4-1.1,2.7-2.2,4.1-3.2c8.5-6.8,17.1-13.7,26.6-17c3.5-1.2,7.1-1.9,10.9-2c6.8-0.1,13.2,2,19.2,6.3    c5.8,4.2,11.4,10.4,16.9,18.9c26.8,41.8,55.7,91.8,59.6,98.6c0.7,0.8,1.6,2.1,2.6,3.7c0.5,0.8,1,1.7,1.5,2.6    c2.6,4.9,5,12.1,3.8,20.2c-0.1,0.5-0.2,0.9-0.2,1.4c-2.3,11.5-11,21.1-25.9,28.5C302.6,242.1,235,274.1,113,288.7    c-33.9,2.4-59.6,2.7-70.6,0.1c-10.8-2.5-13.2-6.1-16.9-10.4c-9.1-10.7-10.7-35.3-4.9-83.9C24.8,158.4,33.2,109.1,45.4,42.5z"></path>			<path class="st4" d="M46,42.9c0.9-3.3,2.6-7.4,5.1-11.3c1.8-2.7,4-5.3,6.7-7.6c5-4.2,11.4-7.2,19.7-7.1c3.3,0,6.7,0.6,10.2,1.7    c3.6,1.1,7.3,2.8,11.1,5c6.6,3.9,14.3,9.2,23.2,15.3c23.8,16.3,56.3,38.5,76.8,38.5c3.1,0,5.7-0.5,7.9-1.7    c5.3-2.8,10.5-6.6,15.6-10.6c1.4-1.1,2.7-2.1,4-3.2c8.4-6.7,17-13.6,26.5-16.9c3.5-1.2,7.1-1.9,10.9-2c6.7-0.1,13.1,1.9,19.1,6.2    c5.8,4.1,11.4,10.4,16.8,18.9c26.7,41.7,55.5,91.6,59.4,98.3c0.6,0.8,1.6,2.1,2.6,3.7c0.5,0.8,1,1.7,1.5,2.6    c2.6,4.9,5,12,3.7,20.1c-0.1,0.5-0.1,0.9-0.2,1.4c-2.3,11.4-10.9,20.9-25.7,28.3c-38.6,19.2-106.1,51.1-227.6,65.7    c-33.7,2.4-59.3,2.7-70.4,0.2c-10.7-2.5-13.1-6.1-16.9-10.3c-9-10.6-10.6-35.1-4.8-83.6C25.5,158.3,33.8,109.1,46,42.9z"></path>			<path class="st5" d="M46.7,43.3c0.9-3.3,2.6-7.4,5.1-11.2c1.8-2.7,4-5.3,6.7-7.5c5-4.1,11.4-7.1,19.6-7c3.3,0.1,6.7,0.6,10.1,1.7    c3.6,1.1,7.3,2.8,11,5c6.6,3.9,14.3,9.2,23.1,15.2c23.7,16.3,56,38.3,76.5,38.3c3.1,0,5.7-0.5,7.8-1.7    c5.3-2.8,10.5-6.5,15.5-10.5c1.4-1.1,2.7-2.1,4-3.2c8.4-6.7,17-13.6,26.4-16.9c3.5-1.2,7.1-1.9,10.8-2c6.7-0.1,13,1.8,19,6    c5.7,4.1,11.3,10.3,16.8,18.8c26.7,41.5,55.4,91.4,59.2,98c0.6,0.8,1.6,2.1,2.6,3.6c0.5,0.8,1,1.6,1.5,2.6    c2.5,4.9,4.9,11.9,3.7,19.9c-0.1,0.5-0.1,0.9-0.2,1.4c-2.2,11.3-10.8,20.8-25.5,28.1c-38.4,19.1-105.9,50.9-226.7,65.4    c-33.5,2.4-59,2.8-70.1,0.2c-10.6-2.4-13.1-6-16.9-10.1c-8.9-10.6-10.5-34.9-4.8-83.3C26.2,158.1,34.5,109.1,46.7,43.3z"></path>			<path class="st6" d="M47.3,43.6c0.9-3.2,2.6-7.4,5.1-11.2c1.7-2.6,4-5.2,6.7-7.4c5-4,11.3-7,19.5-6.8c3.3,0.1,6.6,0.6,10.1,1.7    c3.6,1.1,7.3,2.8,11,5c6.5,3.9,14.2,9.1,23,15.2c23.7,16.2,55.8,38.1,76.2,38.1c3.1,0,5.7-0.5,7.8-1.6    c5.3-2.7,10.4-6.5,15.4-10.4c1.3-1.1,2.7-2.1,4-3.2c8.4-6.7,16.9-13.5,26.2-16.8c3.4-1.2,7-1.9,10.7-2c6.7-0.2,13,1.7,18.9,5.9    c5.7,4,11.3,10.2,16.7,18.7c26.6,41.4,55.3,91.1,59.1,97.7c0.6,0.8,1.6,2.1,2.5,3.6c0.5,0.8,1,1.6,1.5,2.6    c2.5,4.8,4.9,11.8,3.7,19.8c-0.1,0.5-0.1,0.9-0.2,1.4c-2.2,11.2-10.8,20.6-25.4,27.9c-38.2,19.1-105.6,50.7-225.9,65.2    c-33.3,2.4-58.7,2.8-69.8,0.3c-10.6-2.4-13-5.9-16.8-10c-8.9-10.5-10.4-34.8-4.7-83C26.9,158,35.2,109.1,47.3,43.6z"></path>			<path class="st7" d="M47.9,44c0.9-3.2,2.6-7.3,5.1-11.1c1.7-2.6,3.9-5.1,6.6-7.3c4.9-3.9,11.3-6.9,19.5-6.7    c3.3,0.1,6.6,0.7,10,1.7c3.6,1.1,7.2,2.8,10.9,5c6.5,3.9,14.1,9.1,22.9,15.1c23.6,16.1,55.5,37.9,75.9,37.9    c3.1,0,5.6-0.5,7.8-1.6c5.3-2.7,10.4-6.4,15.4-10.3c1.3-1,2.7-2.1,4-3.2c8.3-6.6,16.8-13.4,26.1-16.7c3.4-1.2,7-2,10.7-2.1    c6.6-0.2,12.9,1.7,18.8,5.8c5.7,4,11.2,10.1,16.6,18.6c26.5,41.3,55.1,90.9,58.9,97.4c0.6,0.8,1.6,2.1,2.5,3.6    c0.5,0.7,1,1.6,1.5,2.5c2.5,4.8,4.9,11.7,3.7,19.6c-0.1,0.4-0.1,0.9-0.2,1.4c-2.2,11.1-10.7,20.4-25.2,27.7    c-38,19-105.4,50.4-225,64.9c-33.1,2.4-58.4,2.8-69.6,0.3c-10.5-2.3-13-5.9-16.8-9.9c-8.8-10.4-10.4-34.6-4.7-82.7    C27.6,157.9,35.9,109.1,47.9,44z"></path>			<path class="st8" d="M48.5,44.3c0.9-3.2,2.6-7.3,5.1-11.1c1.7-2.6,3.9-5.1,6.6-7.2c4.9-3.9,11.2-6.7,19.4-6.5    c3.2,0.1,6.6,0.7,10,1.8c3.6,1.1,7.2,2.8,10.9,5c6.5,3.9,14.1,9.1,22.8,15.1c23.5,16.1,55.3,37.7,75.6,37.7    c3.1,0,5.6-0.5,7.7-1.6c5.2-2.7,10.4-6.4,15.3-10.3c1.3-1,2.7-2.1,4-3.1c8.3-6.6,16.7-13.4,26-16.7c3.4-1.2,6.9-2,10.6-2.1    c6.6-0.2,12.9,1.6,18.7,5.7c5.6,4,11.1,10,16.6,18.5c26.5,41.2,55,90.7,58.7,97.2c0.6,0.8,1.6,2,2.5,3.6c0.5,0.7,1,1.6,1.5,2.5    c2.5,4.7,4.8,11.6,3.7,19.5c-0.1,0.4-0.1,0.9-0.2,1.3c-2.2,11-10.6,20.3-25,27.5c-37.8,18.9-105.1,50.2-224.2,64.6    c-32.9,2.4-58.1,2.8-69.3,0.4c-10.5-2.3-12.9-5.8-16.7-9.8c-8.7-10.4-10.3-34.4-4.6-82.4C28.3,157.7,36.6,109.1,48.5,44.3z"></path>			<path class="st9" d="M49.1,44.7c0.9-3.2,2.6-7.3,5.1-11c1.7-2.5,3.9-5,6.6-7.1c4.9-3.8,11.2-6.6,19.3-6.4    c3.2,0.1,6.5,0.7,9.9,1.8c3.5,1.1,7.1,2.8,10.8,5c6.5,3.8,14,9,22.7,15c23.4,16,55.1,37.5,75.3,37.5c3.1,0,5.6-0.5,7.7-1.6    c5.2-2.7,10.3-6.3,15.3-10.2c1.3-1,2.7-2.1,4-3.1c8.3-6.5,16.7-13.3,25.9-16.6c3.4-1.2,6.9-2,10.5-2.1c6.6-0.2,12.8,1.5,18.7,5.6    c5.6,3.9,11.1,10,16.5,18.4c26.4,41.1,54.9,90.5,58.5,96.9c0.6,0.8,1.5,2,2.5,3.5c0.5,0.7,1,1.6,1.4,2.5    c2.5,4.7,4.8,11.5,3.6,19.3c-0.1,0.4-0.1,0.9-0.2,1.3c-2.2,10.9-10.5,20.1-24.8,27.2c-37.6,18.8-104.9,50-223.3,64.4    c-32.7,2.4-57.8,2.9-69,0.4c-10.4-2.3-12.9-5.7-16.7-9.7c-8.6-10.3-10.2-34.2-4.5-82.2C29,157.6,37.2,109.1,49.1,44.7z"></path>			<path class="st10" d="M49.7,45.1c0.9-3.2,2.6-7.3,5.1-10.9c1.7-2.5,3.9-4.9,6.6-7c4.9-3.7,11.1-6.5,19.2-6.2    c3.2,0.1,6.5,0.7,9.9,1.8c3.5,1.1,7.1,2.8,10.8,5c6.4,3.8,14,9,22.6,14.9c23.3,15.9,54.8,37.3,74.9,37.3c3,0,5.5-0.5,7.7-1.6    c5.2-2.6,10.3-6.3,15.2-10.1c1.3-1,2.6-2.1,4-3.1c8.2-6.5,16.6-13.2,25.7-16.5c3.4-1.2,6.9-2,10.5-2.1c6.6-0.3,12.8,1.4,18.6,5.4    c5.5,3.9,11,9.9,16.4,18.3c26.3,41,54.7,90.2,58.4,96.6c0.6,0.8,1.5,2,2.5,3.5c0.4,0.7,1,1.6,1.4,2.5c2.4,4.6,4.8,11.4,3.6,19.2    c-0.1,0.4-0.1,0.9-0.2,1.3c-2.2,10.8-10.5,19.9-24.7,27c-37.4,18.7-104.6,49.8-222.5,64.1c-32.5,2.4-57.5,2.9-68.8,0.4    c-10.3-2.2-12.9-5.7-16.6-9.6c-8.5-10.3-10.1-34-4.5-81.9C29.7,157.5,37.9,109,49.7,45.1z"></path>			<path class="st10" d="M50.3,45.4c0.9-3.1,2.6-7.3,5.1-10.9c1.7-2.5,3.9-4.9,6.6-6.9c4.9-3.7,11.1-6.4,19.1-6.1    c3.2,0.1,6.5,0.7,9.8,1.8c3.5,1.1,7.1,2.8,10.7,5c6.4,3.8,13.9,9,22.5,14.9c23.2,15.9,54.6,37.1,74.6,37.1c3,0,5.5-0.5,7.6-1.6    c5.2-2.6,10.3-6.2,15.2-10c1.3-1,2.6-2.1,3.9-3.1c8.2-6.5,16.5-13.2,25.6-16.5c3.3-1.2,6.8-2,10.4-2.1c6.5-0.3,12.7,1.3,18.5,5.3    c5.5,3.8,11,9.8,16.3,18.2c26.3,40.9,54.6,90,58.2,96.3c0.6,0.7,1.5,2,2.4,3.5c0.4,0.7,1,1.6,1.4,2.5c2.4,4.6,4.8,11.4,3.6,19    c-0.1,0.4-0.1,0.9-0.2,1.3c-2.1,10.7-10.4,19.8-24.5,26.8c-37.2,18.6-104.4,49.6-221.6,63.9c-32.3,2.4-57.2,2.9-68.5,0.5    c-10.3-2.2-12.8-5.6-16.6-9.5c-8.5-10.2-10.1-33.9-4.4-81.6C30.4,157.4,38.6,109,50.3,45.4z"></path>			<path class="st11" d="M50.9,45.8c0.8-3.1,2.6-7.2,5.1-10.8c1.7-2.5,3.9-4.8,6.6-6.8c4.9-3.6,11-6.3,19-5.9    c3.2,0.1,6.4,0.7,9.8,1.8c3.5,1.1,7,2.8,10.7,4.9c6.4,3.8,13.9,8.9,22.4,14.8c23.2,15.8,54.3,36.9,74.3,36.9c3,0,5.5-0.5,7.6-1.6    c5.2-2.6,10.2-6.2,15.1-10c1.3-1,2.6-2,3.9-3.1c8.2-6.4,16.5-13.1,25.5-16.4c3.3-1.2,6.8-2,10.4-2.1c6.5-0.3,12.7,1.3,18.4,5.2    c5.5,3.8,10.9,9.7,16.3,18.1c26.2,40.8,54.4,89.8,58,96c0.6,0.7,1.5,2,2.4,3.5c0.4,0.7,1,1.6,1.4,2.4c2.4,4.6,4.7,11.3,3.6,18.9    c-0.1,0.4-0.1,0.9-0.2,1.3c-2.1,10.7-10.3,19.6-24.3,26.6c-37,18.5-104.1,49.4-220.8,63.6c-32.1,2.4-56.9,2.9-68.2,0.5    c-10.2-2.2-12.8-5.5-16.6-9.4c-8.4-10.1-10-33.7-4.3-81.3C31.1,157.2,39.3,109,50.9,45.8z"></path>			<path class="st12" d="M51.5,46.2c0.8-3.1,2.6-7.2,5-10.7c1.7-2.4,3.9-4.7,6.6-6.7c4.9-3.5,11-6.2,18.9-5.8    c3.1,0.1,6.4,0.8,9.7,1.9c3.5,1.1,7,2.8,10.6,4.9c6.4,3.8,13.8,8.9,22.3,14.7c23.1,15.7,54.1,36.6,74,36.6c3,0,5.5-0.5,7.5-1.5    c5.2-2.6,10.2-6.1,15.1-9.9c1.3-1,2.6-2,3.9-3c8.1-6.4,16.4-13,25.4-16.3c3.3-1.2,6.7-2,10.3-2.2c6.5-0.3,12.6,1.2,18.3,5.1    c5.4,3.7,10.8,9.6,16.2,18c26.1,40.7,54.3,89.6,57.8,95.7c0.6,0.7,1.5,2,2.4,3.4c0.4,0.7,1,1.6,1.4,2.4    c2.4,4.5,4.7,11.2,3.6,18.7c-0.1,0.4-0.1,0.9-0.2,1.3c-2.1,10.6-10.3,19.5-24.1,26.4c-36.8,18.4-103.9,49.2-219.9,63.3    c-31.9,2.4-56.6,3-68,0.6c-10.1-2.1-12.7-5.5-16.5-9.3c-8.3-10.1-9.9-33.5-4.3-81C31.8,157.1,40,109,51.5,46.2z"></path>			<path class="st13" d="M52.2,46.5c0.8-3.1,2.6-7.2,5-10.7c1.7-2.4,3.9-4.7,6.6-6.6c4.9-3.4,10.9-6,18.8-5.7    c3.1,0.2,6.4,0.8,9.7,1.9c3.4,1.1,7,2.8,10.6,4.9c6.4,3.8,13.8,8.9,22.2,14.7c23,15.7,53.8,36.4,73.7,36.4c3,0,5.4-0.5,7.5-1.5    c5.1-2.5,10.1-6.1,15-9.8c1.3-1,2.6-2,3.9-3c8.1-6.4,16.3-13,25.3-16.3c3.3-1.2,6.7-2,10.2-2.2c6.4-0.4,12.6,1.1,18.2,5    c5.4,3.7,10.8,9.6,16.1,17.9c26.1,40.6,54.2,89.4,57.7,95.4c0.6,0.7,1.5,2,2.4,3.4c0.4,0.7,1,1.6,1.4,2.4    c2.4,4.5,4.7,11.1,3.6,18.6c-0.1,0.4-0.1,0.9-0.2,1.3c-2.1,10.5-10.2,19.3-24,26.2c-36.6,18.3-103.6,49-219.1,63.1    c-31.8,2.4-56.3,3-67.7,0.6c-10.1-2.1-12.7-5.4-16.5-9.2c-8.2-10-9.8-33.3-4.2-80.7C32.5,157,40.7,109,52.2,46.5z"></path>			<path class="st13" d="M52.8,46.9c0.8-3.1,2.6-7.2,5-10.6c1.7-2.4,3.9-4.6,6.6-6.5c4.8-3.4,10.9-5.9,18.7-5.5    c3.1,0.2,6.3,0.8,9.6,1.9c3.4,1.1,6.9,2.8,10.5,4.9c6.3,3.8,13.7,8.8,22.1,14.6c22.9,15.6,53.6,36.2,73.4,36.2    c3,0,5.4-0.5,7.5-1.5c5.1-2.5,10.1-6,15-9.7c1.3-1,2.6-2,3.9-3c8.1-6.3,16.2-12.9,25.1-16.2c3.3-1.2,6.7-2,10.2-2.2    c6.4-0.4,12.5,1,18.1,4.8c5.4,3.6,10.7,9.5,16.1,17.8c26,40.5,54,89.1,57.5,95.1c0.6,0.7,1.5,2,2.4,3.4c0.4,0.7,1,1.5,1.4,2.4    c2.4,4.4,4.7,11,3.5,18.4c-0.1,0.4-0.1,0.8-0.2,1.3c-2.1,10.4-10.1,19.1-23.8,25.9c-36.5,18.2-103.4,48.8-218.2,62.8    c-31.6,2.4-56,3-67.4,0.7c-10-2-12.6-5.3-16.4-9.1c-8.1-9.9-9.8-33.1-4.2-80.4C33.2,156.8,41.3,109,52.8,46.9z"></path>			<path class="st14" d="M53.4,47.2c0.8-3,2.6-7.1,5-10.6c1.7-2.3,3.8-4.5,6.5-6.4c4.8-3.3,10.8-5.8,18.6-5.4    c3.1,0.2,6.3,0.8,9.6,1.9c3.4,1.1,6.9,2.8,10.4,4.9c6.3,3.8,13.6,8.8,22,14.5c22.8,15.5,53.3,36,73.1,36c2.9,0,5.4-0.5,7.4-1.5    c5.1-2.5,10.1-6,14.9-9.7c1.3-1,2.6-2,3.9-3c8-6.3,16.2-12.8,25-16.1c3.2-1.2,6.6-2,10.1-2.2c6.4-0.4,12.5,1,18,4.7    c5.3,3.6,10.6,9.4,16,17.7c25.9,40.4,53.9,88.9,57.3,94.8c0.6,0.7,1.5,2,2.3,3.4c0.4,0.7,1,1.5,1.4,2.3    c2.3,4.4,4.6,10.9,3.5,18.3c-0.1,0.4-0.1,0.8-0.2,1.3c-2.1,10.3-10,19-23.6,25.7c-36.3,18.1-103.1,48.6-217.4,62.6    c-31.4,2.4-55.7,3-67.2,0.7c-9.9-2-12.6-5.3-16.4-8.9c-8.1-9.9-9.7-33-4.1-80.1C33.9,156.7,42,109,53.4,47.2z"></path>			<path class="st15" d="M54,47.6c0.8-3,2.6-7.1,5-10.5c1.6-2.3,3.8-4.5,6.5-6.3c4.8-3.2,10.8-5.7,18.5-5.2c3.1,0.2,6.3,0.8,9.5,1.9    c3.4,1.2,6.9,2.8,10.4,4.9c6.3,3.8,13.6,8.8,21.9,14.5c22.7,15.5,53.1,35.8,72.8,35.8c2.9,0,5.4-0.5,7.4-1.5    c5.1-2.5,10-5.9,14.8-9.6c1.3-1,2.6-2,3.9-3c8-6.3,16.1-12.8,24.9-16.1c3.2-1.2,6.6-2,10.1-2.2c6.4-0.4,12.4,0.9,17.9,4.6    c5.3,3.6,10.6,9.3,15.9,17.6c25.9,40.3,53.8,88.7,57.1,94.6c0.6,0.7,1.5,2,2.3,3.3c0.4,0.7,1,1.5,1.4,2.3    c2.3,4.4,4.6,10.8,3.5,18.1c-0.1,0.4-0.1,0.8-0.2,1.2c-2.1,10.2-10,18.8-23.4,25.5c-36.1,18-102.9,48.4-216.5,62.3    c-31.2,2.4-55.4,3.1-66.9,0.8c-9.9-2-12.5-5.2-16.4-8.8c-8-9.8-9.6-32.8-4-79.8C34.6,156.6,42.7,108.9,54,47.6z"></path>			<path class="st16" d="M54.6,48c0.8-3,2.6-7.1,5-10.4c1.6-2.3,3.8-4.4,6.5-6.2c4.8-3.1,10.7-5.6,18.4-5.1c3.1,0.2,6.2,0.9,9.4,1.9    c3.4,1.2,6.8,2.8,10.3,4.9c6.3,3.8,13.5,8.7,21.8,14.4c22.7,15.4,52.8,35.6,72.5,35.6c2.9,0,5.3-0.5,7.4-1.5    c5.1-2.4,10-5.9,14.8-9.5c1.3-1,2.6-2,3.8-3c8-6.2,16-12.7,24.8-16c3.2-1.2,6.5-2,10-2.3c6.3-0.5,12.3,0.8,17.8,4.5    c5.2,3.5,10.5,9.2,15.8,17.5c25.8,40.2,53.6,88.5,57,94.3c0.6,0.7,1.5,1.9,2.3,3.3c0.4,0.7,0.9,1.5,1.4,2.3    c2.3,4.3,4.6,10.7,3.5,18c-0.1,0.4-0.1,0.8-0.2,1.2c-2,10.1-9.9,18.6-23.3,25.3c-35.9,17.9-102.6,48.2-215.7,62    c-31,2.4-55.1,3.1-66.6,0.8c-9.8-1.9-12.5-5.1-16.3-8.7c-7.9-9.7-9.5-32.6-4-79.5C35.3,156.4,43.4,108.9,54.6,48z"></path>			<path class="st17" d="M55.2,48.3c0.8-3,2.6-7.1,5-10.4c1.6-2.3,3.8-4.4,6.5-6.1c4.8-3.1,10.7-5.5,18.3-4.9c3,0.2,6.2,0.9,9.4,2    c3.4,1.2,6.8,2.8,10.3,4.9c6.2,3.8,13.5,8.7,21.7,14.3C149,63.4,179,83.5,198.6,83.5c2.9,0,5.3-0.5,7.3-1.5    c5-2.4,10-5.8,14.7-9.4c1.3-1,2.6-2,3.8-2.9c7.9-6.2,16-12.6,24.6-15.9c3.2-1.2,6.5-2,9.9-2.3c6.3-0.5,12.3,0.7,17.7,4.4    c5.2,3.5,10.5,9.2,15.8,17.4c25.7,40.1,53.5,88.2,56.8,94c0.5,0.7,1.4,1.9,2.3,3.3c0.4,0.7,0.9,1.5,1.4,2.3    c2.3,4.3,4.5,10.7,3.5,17.8c-0.1,0.4-0.1,0.8-0.2,1.2c-2,10-9.8,18.5-23.1,25.1c-35.7,17.8-102.4,48-214.8,61.8    c-30.8,2.4-54.8,3.1-66.4,0.8c-9.8-1.9-12.4-5.1-16.3-8.6c-7.8-9.7-9.5-32.4-3.9-79.2C36,156.3,44.1,108.9,55.2,48.3z"></path>			<path class="st17" d="M55.8,48.7c0.8-3,2.6-7,5-10.3c1.6-2.2,3.8-4.3,6.5-6c4.8-3,10.6-5.3,18.2-4.8c3,0.2,6.2,0.9,9.3,2    c3.3,1.2,6.8,2.8,10.2,4.9c6.2,3.7,13.4,8.7,21.6,14.3c22.5,15.3,52.3,35.2,71.8,35.2c2.9,0,5.3-0.5,7.3-1.4    c5-2.4,9.9-5.8,14.7-9.4c1.3-1,2.6-1.9,3.8-2.9c7.9-6.1,15.9-12.6,24.5-15.9c3.2-1.2,6.5-2,9.9-2.3c6.3-0.5,12.2,0.6,17.6,4.2    c5.1,3.4,10.4,9.1,15.7,17.4c25.7,40,53.4,88,56.6,93.7c0.5,0.7,1.4,1.9,2.3,3.3c0.4,0.6,0.9,1.5,1.3,2.3    c2.3,4.2,4.5,10.6,3.4,17.7c-0.1,0.4-0.1,0.8-0.2,1.2c-2,9.9-9.8,18.3-22.9,24.9c-35.5,17.7-102.1,47.8-214,61.5    c-30.6,2.4-54.5,3.1-66.1,0.9c-9.7-1.9-12.4-5-16.2-8.5c-7.7-9.6-9.4-32.2-3.9-79C36.7,156.2,44.7,108.9,55.8,48.7z"></path>			<path class="st18" d="M56.4,49.1c0.8-2.9,2.6-7,5-10.3c1.6-2.2,3.8-4.2,6.5-5.9c4.8-2.9,10.6-5.2,18.1-4.6c3,0.2,6.1,0.9,9.3,2    c3.3,1.2,6.7,2.8,10.2,4.9c6.2,3.7,13.4,8.6,21.5,14.2c22.4,15.2,52.1,35,71.5,35c2.9,0,5.3-0.5,7.3-1.4c5-2.4,9.9-5.7,14.6-9.3    c1.3-1,2.5-1.9,3.8-2.9c7.9-6.1,15.8-12.5,24.4-15.8c3.1-1.2,6.4-2,9.8-2.3c6.2-0.6,12.2,0.6,17.5,4.1c5.1,3.4,10.3,9,15.6,17.3    c25.6,39.9,53.2,87.8,56.4,93.4c0.5,0.7,1.4,1.9,2.2,3.2c0.4,0.6,0.9,1.5,1.3,2.3c2.2,4.2,4.5,10.5,3.4,17.6    c-0.1,0.4-0.1,0.8-0.2,1.2c-2,9.8-9.7,18.1-22.7,24.7c-35.3,17.6-101.9,47.6-213.1,61.3c-30.4,2.4-54.2,3.1-65.8,0.9    c-9.6-1.8-12.3-4.9-16.2-8.4c-7.7-9.5-9.3-32.1-3.8-78.7C37.4,156.1,45.4,108.9,56.4,49.1z"></path>			<path class="st18" d="M57.1,49.4c0.8-2.9,2.6-7,5-10.2c1.6-2.2,3.8-4.2,6.5-5.8c4.7-2.8,10.5-5.1,18-4.5c3,0.2,6.1,0.9,9.2,2    c3.3,1.2,6.7,2.8,10.1,4.8c6.2,3.7,13.3,8.6,21.4,14.1c22.3,15.1,51.8,34.8,71.2,34.8c2.8,0,5.2-0.5,7.2-1.4    c5-2.4,9.9-5.7,14.6-9.2c1.3-1,2.5-1.9,3.8-2.9c7.8-6.1,15.7-12.4,24.3-15.7c3.1-1.2,6.4-2,9.8-2.3c6.2-0.6,12.1,0.5,17.4,4    c5.1,3.3,10.3,8.9,15.6,17.2c25.5,39.8,53.1,87.6,56.3,93.1c0.5,0.7,1.4,1.9,2.2,3.2c0.4,0.6,0.9,1.5,1.3,2.2    c2.2,4.2,4.5,10.4,3.4,17.4c-0.1,0.4-0.1,0.8-0.2,1.2c-2,9.7-9.6,18-22.6,24.4c-35.1,17.5-101.6,47.3-212.3,61    c-30.2,2.4-53.9,3.2-65.6,1c-9.6-1.8-12.3-4.9-16.2-8.3c-7.6-9.5-9.2-31.9-3.7-78.4C38.1,155.9,46.1,108.9,57.1,49.4z"></path>			<path class="st19" d="M57.7,49.8c0.8-2.9,2.6-7,5-10.1c1.6-2.1,3.8-4.1,6.5-5.7c4.7-2.8,10.5-5,17.9-4.4c3,0.3,6,0.9,9.2,2    c3.3,1.2,6.7,2.8,10.1,4.8c6.2,3.7,13.3,8.6,21.3,14.1c22.2,15.1,51.6,34.6,70.9,34.6c2.8,0,5.2-0.5,7.2-1.4    c5-2.3,9.8-5.6,14.5-9.1c1.3-1,2.5-1.9,3.8-2.9c7.8-6,15.7-12.4,24.1-15.7c3.1-1.2,6.3-2,9.7-2.4c6.2-0.6,12.1,0.4,17.4,3.9    c5,3.3,10.2,8.8,15.5,17.1c25.5,39.7,52.9,87.4,56.1,92.8c0.5,0.6,1.4,1.9,2.2,3.2c0.4,0.6,0.9,1.5,1.3,2.2    c2.2,4.1,4.4,10.3,3.4,17.3c-0.1,0.4-0.1,0.8-0.2,1.2c-2,9.6-9.5,17.8-22.4,24.2c-34.9,17.4-101.3,47.1-211.4,60.8    c-30,2.4-53.6,3.2-65.3,1c-9.5-1.8-12.3-4.8-16.1-8.2c-7.5-9.4-9.2-31.7-3.7-78.1C38.8,155.8,46.8,108.9,57.7,49.8z"></path>			<path class="st20" d="M58.3,50.1c0.8-2.9,2.6-6.9,5-10.1c1.6-2.1,3.7-4,6.5-5.6c4.7-2.7,10.5-4.9,17.9-4.2c3,0.3,6,1,9.1,2.1    c3.3,1.2,6.6,2.8,10,4.8c6.1,3.7,13.2,8.5,21.2,14c22.1,15,51.3,34.4,70.6,34.4c2.8,0,5.2-0.5,7.2-1.4c5-2.3,9.8-5.6,14.5-9.1    c1.3-0.9,2.5-1.9,3.8-2.9c7.8-6,15.6-12.3,24-15.6c3.1-1.2,6.3-2,9.6-2.4c6.2-0.6,12,0.3,17.3,3.8c5,3.2,10.1,8.8,15.4,17    c25.4,39.6,52.8,87.1,55.9,92.5c0.5,0.6,1.4,1.9,2.2,3.2c0.4,0.6,0.9,1.4,1.3,2.2c2.2,4.1,4.4,10.2,3.4,17.1    c-0.1,0.4-0.1,0.8-0.2,1.2c-1.9,9.5-9.5,17.7-22.2,24C295.9,232.4,229.5,262,120,275.6c-29.8,2.4-53.3,3.2-65,1.1    c-9.4-1.7-12.2-4.7-16.1-8.1c-7.4-9.3-9.1-31.5-3.6-77.8C39.5,155.7,47.5,108.8,58.3,50.1z"></path>			<path class="st21" d="M58.9,50.5c0.8-2.9,2.6-6.9,5-10c1.6-2.1,3.7-4,6.4-5.5c4.7-2.6,10.4-4.7,17.8-4.1c2.9,0.3,6,1,9.1,2.1    c3.3,1.2,6.6,2.8,10,4.8c6.1,3.7,13.1,8.5,21.1,13.9c22.1,14.9,51.1,34.1,70.3,34.1c2.8,0,5.1-0.4,7.1-1.4    c4.9-2.3,9.8-5.5,14.4-9c1.3-0.9,2.5-1.9,3.7-2.8c7.8-6,15.5-12.2,23.9-15.5c3.1-1.2,6.3-2,9.6-2.4c6.1-0.7,12,0.3,17.2,3.6    c4.9,3.2,10.1,8.7,15.4,16.9c25.3,39.5,52.7,86.9,55.7,92.3c0.5,0.6,1.4,1.9,2.2,3.1c0.4,0.6,0.9,1.4,1.3,2.2    c2.2,4,4.4,10.1,3.3,17c-0.1,0.4-0.1,0.8-0.2,1.2c-1.9,9.4-9.4,17.5-22,23.8C295.6,232,229.2,261.5,120.4,275    c-29.6,2.4-53,3.2-64.8,1.1c-9.4-1.7-12.2-4.7-16-8c-7.3-9.3-9-31.3-3.6-77.5C40.2,155.5,48.1,108.8,58.9,50.5z"></path>			<path class="st22" d="M59.5,50.9c0.8-2.8,2.6-6.9,5-10c1.6-2,3.7-3.9,6.4-5.4c4.7-2.6,10.4-4.6,17.7-3.9c2.9,0.3,5.9,1,9,2.1    c3.2,1.2,6.6,2.8,9.9,4.8c6.1,3.7,13.1,8.5,21,13.9c22,14.9,50.8,33.9,70,33.9c2.8,0,5.1-0.4,7.1-1.4c4.9-2.3,9.7-5.5,14.3-8.9    c1.3-0.9,2.5-1.9,3.7-2.8c7.7-5.9,15.5-12.1,23.8-15.5c3-1.2,6.2-2.1,9.5-2.4c6.1-0.7,11.9,0.2,17.1,3.5    c4.9,3.2,10,8.6,15.3,16.8c25.3,39.4,52.5,86.7,55.6,92c0.5,0.6,1.4,1.9,2.1,3.1c0.4,0.6,0.9,1.4,1.3,2.1c2.1,4,4.4,10,3.3,16.8    c-0.1,0.4-0.1,0.8-0.2,1.2c-1.9,9.3-9.3,17.3-21.9,23.6c-34.3,17.1-100.6,46.5-208.9,60c-29.4,2.4-52.7,3.3-64.5,1.2    c-9.3-1.7-12.1-4.6-16-7.9c-7.3-9.2-8.9-31.2-3.5-77.2C40.9,155.4,48.8,108.8,59.5,50.9z"></path>			<path class="st23" d="M60.1,51.2c0.8-2.8,2.6-6.9,4.9-9.9c1.6-2,3.7-3.8,6.4-5.3c4.7-2.5,10.3-4.5,17.6-3.8c2.9,0.3,5.9,1,9,2.1    c3.2,1.2,6.5,2.8,9.9,4.8c6.1,3.7,13,8.4,20.9,13.8c21.9,14.8,50.6,33.7,69.7,33.7c2.8,0,5.1-0.4,7.1-1.3    c4.9-2.2,9.7-5.4,14.3-8.8c1.2-0.9,2.5-1.9,3.7-2.8c7.7-5.9,15.4-12.1,23.6-15.4c3-1.2,6.2-2.1,9.4-2.4c6.1-0.7,11.9,0.1,17,3.4    c4.9,3.1,10,8.5,15.2,16.7c25.2,39.3,52.4,86.5,55.4,91.7c0.5,0.6,1.4,1.9,2.1,3.1c0.4,0.6,0.9,1.4,1.3,2.1    c2.1,3.9,4.3,10,3.3,16.7c-0.1,0.4-0.1,0.8-0.2,1.1c-1.9,9.3-9.2,17.2-21.7,23.4c-34.1,17-100.3,46.3-208,59.7    c-29.2,2.4-52.4,3.3-64.2,1.2c-9.2-1.6-12.1-4.5-15.9-7.7c-7.2-9.1-8.9-31-3.4-76.9C41.6,155.3,49.5,108.8,60.1,51.2z"></path>			<path class="st23" d="M60.7,51.6c0.8-2.8,2.6-6.8,4.9-9.8c1.5-2,3.7-3.8,6.4-5.2c4.6-2.4,10.3-4.4,17.5-3.6    c2.9,0.3,5.9,1,8.9,2.1c3.2,1.2,6.5,2.8,9.8,4.8c6,3.7,13,8.4,20.8,13.7c21.8,14.7,50.3,33.5,69.4,33.5c2.8,0,5.1-0.4,7-1.3    c4.9-2.2,9.7-5.4,14.2-8.7c1.2-0.9,2.5-1.9,3.7-2.8c7.7-5.9,15.3-12,23.5-15.3c3-1.2,6.1-2.1,9.4-2.5c6-0.7,11.8,0,16.9,3.3    c4.8,3.1,9.9,8.4,15.1,16.6c25.1,39.2,52.3,86.2,55.2,91.4c0.5,0.6,1.4,1.9,2.1,3c0.4,0.6,0.9,1.4,1.3,2.1    c2.1,3.9,4.3,9.9,3.3,16.5c-0.1,0.4-0.1,0.8-0.2,1.1c-1.9,9.2-9.2,17-21.5,23.2c-33.9,16.9-100.1,46.1-207.2,59.5    c-29,2.4-52.1,3.3-64,1.2c-9.2-1.6-12-4.5-15.9-7.6c-7.1-9.1-8.8-30.8-3.4-76.6C42.3,155.2,50.2,108.8,60.7,51.6z"></path>			<path class="st24" d="M61.3,51.9c0.8-2.8,2.6-6.8,4.9-9.8c1.5-2,3.7-3.7,6.4-5.1c4.6-2.3,10.2-4.3,17.4-3.5    c2.9,0.3,5.8,1,8.9,2.1c3.2,1.2,6.4,2.8,9.8,4.8c6,3.7,12.9,8.4,20.7,13.7c21.7,14.7,50.1,33.3,69,33.3c2.7,0,5-0.4,7-1.3    c4.9-2.2,9.6-5.3,14.2-8.7c1.2-0.9,2.5-1.8,3.7-2.8c7.6-5.8,15.2-11.9,23.4-15.3c3-1.2,6.1-2.1,9.3-2.5c6-0.8,11.7,0,16.8,3.2    c4.8,3,9.8,8.4,15.1,16.5c25.1,39.1,52.1,86,55.1,91.1c0.5,0.6,1.4,1.8,2.1,3c0.4,0.6,0.9,1.4,1.3,2.1c2.1,3.9,4.3,9.8,3.3,16.4    c-0.1,0.4-0.1,0.7-0.2,1.1c-1.9,9.1-9.1,16.8-21.3,22.9c-33.7,16.8-99.8,45.9-206.3,59.2c-28.9,2.4-51.8,3.3-63.7,1.3    c-9.1-1.6-12-4.4-15.9-7.5c-7-9-8.7-30.6-3.3-76.3C43,155,50.9,108.8,61.3,51.9z"></path>			<path class="st25" d="M61.9,52.3c0.8-2.8,2.6-6.8,4.9-9.7c1.5-1.9,3.6-3.6,6.4-5c4.6-2.3,10.2-4.2,17.3-3.4    c2.9,0.3,5.8,1,8.8,2.2c3.2,1.2,6.4,2.8,9.7,4.8c6,3.6,12.9,8.3,20.6,13.6c21.6,14.6,49.9,33.1,68.7,33.1c2.7,0,5-0.4,7-1.3    c4.9-2.2,9.6-5.2,14.1-8.6c1.2-0.9,2.5-1.8,3.7-2.8c7.6-5.8,15.2-11.9,23.3-15.2c3-1.2,6.1-2.1,9.3-2.5c6-0.8,11.7-0.1,16.7,3    c4.7,3,9.8,8.3,15,16.4c25,39,52,85.8,54.9,90.8c0.5,0.6,1.3,1.8,2.1,3c0.4,0.6,0.9,1.4,1.3,2.1c2.1,3.8,4.2,9.7,3.2,16.2    c-0.1,0.4-0.1,0.7-0.2,1.1c-1.8,9-9,16.7-21.2,22.7c-33.5,16.7-99.6,45.7-205.5,58.9c-28.7,2.4-51.5,3.3-63.4,1.3    c-9-1.5-11.9-4.4-15.8-7.4c-6.9-9-8.6-30.4-3.2-76C43.7,154.9,51.5,108.8,61.9,52.3z"></path>			<path class="st25" d="M62.6,52.7c0.8-2.7,2.6-6.8,4.9-9.7c1.5-1.9,3.6-3.6,6.4-4.9c4.6-2.2,10.1-4,17.2-3.2    c2.8,0.3,5.8,1.1,8.8,2.2c3.2,1.2,6.4,2.8,9.7,4.8c6,3.6,12.8,8.3,20.5,13.5c21.6,14.5,49.6,32.9,68.4,32.9c2.7,0,5-0.4,6.9-1.3    c4.8-2.1,9.5-5.2,14.1-8.5c1.2-0.9,2.4-1.8,3.6-2.7c7.6-5.7,15.1-11.8,23.1-15.1c2.9-1.2,6-2.1,9.2-2.5c6-0.8,11.6-0.2,16.6,2.9    c4.7,2.9,9.7,8.2,14.9,16.3c24.9,38.9,51.9,85.6,54.7,90.5c0.5,0.6,1.3,1.8,2,3c0.3,0.6,0.9,1.4,1.2,2c2,3.8,4.2,9.6,3.2,16.1    c-0.1,0.4-0.1,0.7-0.2,1.1c-1.8,8.9-9,16.5-21,22.5c-33.3,16.6-99.3,45.5-204.6,58.7c-28.5,2.4-51.2,3.4-63.2,1.4    c-9-1.5-11.9-4.3-15.8-7.3c-6.9-8.9-8.5-30.3-3.2-75.8C44.4,154.8,52.2,108.7,62.6,52.7z"></path>			<path class="st26" d="M63.2,53c0.8-2.7,2.6-6.8,4.9-9.6c1.5-1.9,3.6-3.5,6.4-4.8c4.6-2.1,10.1-3.9,17.1-3.1    c2.8,0.4,5.7,1.1,8.7,2.2c3.1,1.2,6.3,2.8,9.6,4.8c5.9,3.6,12.8,8.3,20.4,13.5c21.5,14.5,49.4,32.7,68.1,32.7    c2.7,0,5-0.4,6.9-1.3c4.8-2.1,9.5-5.1,14-8.4c1.2-0.9,2.4-1.8,3.6-2.7c7.5-5.7,15-11.7,23-15.1c2.9-1.2,6-2.1,9.1-2.5    c5.9-0.8,11.6-0.3,16.5,2.8c4.7,2.9,9.7,8.1,14.9,16.2c24.9,38.8,51.7,85.4,54.5,90.2c0.5,0.6,1.3,1.8,2,2.9    c0.3,0.5,0.9,1.4,1.2,2c2,3.7,4.2,9.5,3.2,15.9c-0.1,0.4-0.1,0.7-0.2,1.1c-1.8,8.8-8.9,16.3-20.8,22.3    c-33.1,16.5-99.1,45.3-203.8,58.4C94.5,273,71.9,274,59.8,272c-8.9-1.5-11.8-4.2-15.7-7.2c-6.8-8.8-8.5-30.1-3.1-75.5    C45.1,154.6,52.9,108.7,63.2,53z"></path>			<path class="st26" d="M63.8,53.4c0.8-2.7,2.6-6.7,4.9-9.5c1.5-1.8,3.6-3.4,6.4-4.7c4.5-2,10-3.8,17-2.9c2.8,0.4,5.7,1.1,8.7,2.2    c3.1,1.2,6.3,2.8,9.6,4.7c5.9,3.6,12.7,8.2,20.3,13.4C152,71,179.7,89.1,198.4,89.1c2.7,0,4.9-0.4,6.9-1.3    c4.8-2.1,9.5-5.1,14-8.4c1.2-0.9,2.4-1.8,3.6-2.7c7.5-5.7,15-11.7,22.9-15c2.9-1.2,5.9-2.1,9.1-2.6c5.9-0.9,11.5-0.4,16.4,2.7    c4.6,2.9,9.6,8,14.8,16.1c24.8,38.6,51.6,85.1,54.4,90c0.5,0.6,1.3,1.8,2,2.9c0.3,0.5,0.9,1.4,1.2,2c2,3.7,4.2,9.4,3.2,15.8    c-0.1,0.4-0.1,0.7-0.2,1.1c-1.8,8.7-8.8,16.2-20.6,22.1c-33,16.4-98.8,45.1-202.9,58.2c-28.1,2.4-50.6,3.4-62.6,1.5    c-8.8-1.4-11.8-4.2-15.7-7.1c-6.7-8.8-8.4-29.9-3.1-75.2C45.8,154.5,53.6,108.7,63.8,53.4z"></path>			<path class="st27" d="M64.4,53.8c0.8-2.7,2.6-6.7,4.9-9.5c1.5-1.8,3.6-3.4,6.3-4.6c4.5-2,10-3.7,16.9-2.8    c2.8,0.4,5.7,1.1,8.6,2.2c3.1,1.2,6.3,2.8,9.5,4.7c5.9,3.6,12.6,8.2,20.2,13.3c21.3,14.3,48.9,32.3,67.5,32.3    c2.7,0,4.9-0.4,6.8-1.2c4.8-2.1,9.4-5,13.9-8.3c1.2-0.9,2.4-1.8,3.6-2.7c7.5-5.6,14.9-11.6,22.8-14.9c2.9-1.2,5.9-2.1,9-2.6    c5.9-0.9,11.5-0.4,16.3,2.6c4.6,2.8,9.5,7.9,14.7,16c24.7,38.5,51.4,84.9,54.2,89.7c0.4,0.6,1.3,1.8,2,2.9c0.3,0.5,0.9,1.3,1.2,2    c2,3.7,4.1,9.3,3.2,15.6c-0.1,0.4-0.1,0.7-0.2,1.1c-1.8,8.6-8.7,16-20.5,21.9c-32.8,16.3-98.6,44.9-202.1,57.9    c-27.9,2.4-50.2,3.4-62.4,1.5c-8.8-1.4-11.7-4.1-15.7-7c-6.6-8.7-8.3-29.7-3-74.9C46.5,154.4,54.3,108.7,64.4,53.8z"></path>			<path class="st28" d="M65,54.1c0.8-2.7,2.6-6.7,4.9-9.4c1.5-1.8,3.6-3.3,6.3-4.5c4.5-1.9,9.9-3.6,16.8-2.6    c2.8,0.4,5.6,1.1,8.5,2.3c3.1,1.2,6.2,2.8,9.4,4.7c5.9,3.6,12.6,8.2,20.1,13.3c21.2,14.3,48.6,32.1,67.2,32.1    c2.6,0,4.9-0.4,6.8-1.2c4.8-2,9.4-5,13.8-8.2c1.2-0.9,2.4-1.8,3.6-2.7c7.4-5.6,14.8-11.5,22.6-14.9c2.9-1.2,5.9-2.1,9-2.6    c5.8-0.9,11.4-0.5,16.2,2.4c4.5,2.8,9.5,7.9,14.7,15.9c24.7,38.4,51.3,84.7,54,89.4c0.4,0.5,1.3,1.8,2,2.9c0.3,0.5,0.9,1.3,1.2,2    c2,3.6,4.1,9.3,3.1,15.5c-0.1,0.3-0.1,0.7-0.2,1.1c-1.8,8.5-8.7,15.9-20.3,21.7c-32.6,16.2-98.3,44.7-201.2,57.6    c-27.7,2.4-49.9,3.5-62.1,1.6c-8.7-1.4-11.7-4-15.6-6.9c-6.5-8.6-8.2-29.5-2.9-74.6C47.2,154.2,55,108.7,65,54.1z"></path>			<path class="st29" d="M65.6,54.5c0.7-2.6,2.6-6.7,4.9-9.4c1.5-1.7,3.6-3.2,6.3-4.4c4.5-1.8,9.9-3.5,16.7-2.5    c2.8,0.4,5.6,1.2,8.5,2.3c3.1,1.2,6.2,2.8,9.4,4.7c5.9,3.6,12.5,8.1,20,13.2c21.1,14.2,48.4,31.8,66.9,31.8    c2.6,0,4.8-0.4,6.8-1.2c4.8-2,9.4-4.9,13.8-8.1c1.2-0.9,2.4-1.8,3.6-2.6c7.4-5.6,14.7-11.5,22.5-14.8c2.9-1.2,5.8-2.1,8.9-2.6    c5.8-1,11.4-0.6,16.1,2.3c4.5,2.7,9.4,7.8,14.6,15.9c24.6,38.3,51.2,84.5,53.8,89.1c0.4,0.5,1.3,1.8,1.9,2.8    c0.3,0.5,0.9,1.3,1.2,1.9c1.9,3.6,4.1,9.2,3.1,15.3c-0.1,0.3-0.1,0.7-0.2,1c-1.8,8.4-8.6,15.7-20.1,21.4    c-32.4,16.1-98.1,44.5-200.4,57.4c-27.5,2.4-49.6,3.5-61.8,1.6c-8.6-1.3-11.7-4-15.6-6.8c-6.5-8.6-8.2-29.4-2.9-74.3    C47.9,154.1,55.6,108.7,65.6,54.5z"></path>			<path class="st30" d="M66.2,54.8c0.7-2.6,2.6-6.6,4.9-9.3c1.5-1.7,3.5-3.2,6.3-4.3c4.5-1.8,9.8-3.3,16.6-2.3    c2.7,0.4,5.6,1.2,8.4,2.3c3.1,1.2,6.2,2.8,9.3,4.7c5.8,3.6,12.5,8.1,19.9,13.1c21,14.1,48.1,31.6,66.6,31.6    c2.6,0,4.8-0.4,6.7-1.2c4.7-2,9.3-4.9,13.7-8.1c1.2-0.9,2.4-1.7,3.6-2.6c7.4-5.5,14.7-11.4,22.4-14.7c2.8-1.2,5.8-2.1,8.8-2.6    c5.8-1,11.3-0.7,16.1,2.2c4.5,2.7,9.3,7.7,14.5,15.8c24.5,38.2,51,84.2,53.7,88.8c0.4,0.5,1.3,1.8,1.9,2.8    c0.3,0.5,0.9,1.3,1.2,1.9c1.9,3.5,4.1,9.1,3.1,15.2c-0.1,0.3-0.1,0.7-0.2,1c-1.7,8.3-8.5,15.5-19.9,21.2    c-32.2,16-97.8,44.3-199.5,57.1c-27.3,2.4-49.3,3.5-61.6,1.6c-8.6-1.3-11.6-3.9-15.5-6.7c-6.4-8.5-8.1-29.2-2.8-74    C48.6,154,56.3,108.7,66.2,54.8z"></path>			<path class="st31" d="M66.8,55.2c0.7-2.6,2.6-6.6,4.9-9.2c1.4-1.7,3.5-3.1,6.3-4.2c4.4-1.7,9.8-3.2,16.5-2.2    c2.7,0.4,5.5,1.2,8.4,2.3c3,1.2,6.1,2.8,9.3,4.7c5.8,3.6,12.4,8.1,19.8,13.1c21,14.1,47.9,31.4,66.3,31.4c2.6,0,4.8-0.4,6.7-1.2    c4.7-2,9.3-4.8,13.7-8c1.2-0.9,2.4-1.7,3.6-2.6c7.3-5.5,14.6-11.3,22.3-14.7c2.8-1.2,5.8-2.1,8.8-2.7c5.8-1,11.3-0.7,16,2.1    c4.4,2.6,9.3,7.6,14.4,15.7c24.5,38.1,50.9,84,53.5,88.5c0.4,0.5,1.3,1.8,1.9,2.8c0.3,0.5,0.9,1.3,1.2,1.9c1.9,3.5,4,9,3.1,15    c-0.1,0.3-0.1,0.7-0.2,1c-1.7,8.2-8.5,15.4-19.8,21c-32,15.9-97.6,44-198.7,56.9c-27.1,2.3-49,3.5-61.3,1.7    c-8.5-1.3-11.6-3.8-15.5-6.6c-6.3-8.4-8-29-2.8-73.7C49.3,153.9,57,108.6,66.8,55.2z"></path>			<path class="st31" d="M67.4,55.6c0.7-2.6,2.6-6.6,4.9-9.2c1.4-1.7,3.5-3.1,6.3-4.1c4.4-1.6,9.7-3.1,16.4-2.1    c2.7,0.4,5.5,1.2,8.3,2.3c3,1.2,6.1,2.8,9.2,4.7c5.8,3.6,12.4,8.1,19.7,13c20.9,14,47.6,31.2,65.9,31.2c2.6,0,4.8-0.4,6.7-1.2    c4.7-1.9,9.3-4.8,13.6-7.9c1.2-0.9,2.4-1.7,3.5-2.6c7.3-5.4,14.5-11.3,22.1-14.6c2.8-1.2,5.7-2.1,8.7-2.7c5.7-1,11.2-0.8,15.9,2    c4.4,2.6,9.2,7.5,14.4,15.6c24.4,38,50.8,83.8,53.3,88.2c0.4,0.5,1.3,1.7,1.9,2.8c0.3,0.5,0.9,1.3,1.2,1.9    c1.9,3.4,4,8.9,3.1,14.9c-0.1,0.3-0.1,0.7-0.2,1c-1.7,8.1-8.4,15.2-19.6,20.8c-31.8,15.9-97.3,43.8-197.8,56.6    c-26.9,2.3-48.7,3.5-61,1.7c-8.4-1.2-11.5-3.8-15.4-6.4c-6.2-8.4-7.9-28.8-2.7-73.4C49.9,153.7,57.7,108.6,67.4,55.6z"></path>			<path class="st32" d="M68.1,55.9c0.7-2.6,2.6-6.6,4.8-9.1c1.4-1.6,3.5-3,6.3-4c4.4-1.6,9.7-3,16.3-1.9c2.7,0.4,5.5,1.2,8.3,2.3    c3,1.2,6.1,2.8,9.2,4.7c5.8,3.6,12.3,8,19.6,12.9c20.8,13.9,47.4,31,65.6,31c2.6,0,4.7-0.4,6.6-1.2c4.7-1.9,9.2-4.7,13.6-7.8    c1.2-0.8,2.4-1.7,3.5-2.6c7.3-5.4,14.5-11.2,22-14.5c2.8-1.2,5.7-2.1,8.7-2.7c5.7-1.1,11.1-0.9,15.8,1.8    c4.3,2.6,9.2,7.5,14.3,15.5c24.3,37.9,50.6,83.6,53.1,87.9c0.4,0.5,1.2,1.7,1.9,2.7c0.3,0.5,0.9,1.3,1.2,1.9    c1.9,3.4,4,8.8,3,14.7c-0.1,0.3-0.1,0.7-0.2,1c-1.7,8-8.3,15-19.4,20.6c-31.6,15.8-97.1,43.6-196.9,56.3    c-26.7,2.3-48.4,3.6-60.8,1.8c-8.4-1.2-11.5-3.7-15.4-6.3c-6.1-8.3-7.9-28.6-2.6-73.1C50.6,153.6,58.4,108.6,68.1,55.9z"></path>			<path class="st32" d="M68.7,56.3c0.7-2.5,2.6-6.5,4.8-9.1c1.4-1.6,3.5-2.9,6.3-3.9c4.4-1.5,9.6-2.9,16.3-1.8    c2.7,0.5,5.4,1.2,8.2,2.4c3,1.2,6,2.8,9.1,4.7c5.7,3.5,12.3,8,19.5,12.9c20.7,13.9,47.1,30.8,65.3,30.8c2.5,0,4.7-0.4,6.6-1.1    c4.7-1.9,9.2-4.7,13.5-7.8c1.2-0.8,2.3-1.7,3.5-2.6c7.2-5.4,14.4-11.1,21.9-14.5c2.8-1.2,5.6-2.1,8.6-2.7    c5.7-1.1,11.1-1,15.7,1.7c4.3,2.5,9.1,7.4,14.2,15.4c24.3,37.8,50.5,83.3,53,87.7c0.4,0.5,1.2,1.7,1.8,2.7    c0.3,0.5,0.9,1.3,1.2,1.8c1.9,3.4,3.9,8.7,3,14.6c-0.1,0.3-0.1,0.7-0.2,1c-1.7,7.9-8.2,14.9-19.2,20.4    c-31.4,15.7-96.8,43.4-196.1,56.1c-26.5,2.3-48.1,3.6-60.5,1.8c-8.3-1.2-11.4-3.6-15.4-6.2c-6.1-8.2-7.8-28.5-2.6-72.9    C51.3,153.5,59,108.6,68.7,56.3z"></path>			<path class="st33" d="M69.3,56.7c0.7-2.5,2.6-6.5,4.8-9c1.4-1.6,3.4-2.9,6.3-3.8c4.3-1.4,9.6-2.7,16.2-1.6    c2.7,0.5,5.4,1.3,8.2,2.4c3,1.2,6,2.8,9.1,4.7c5.7,3.5,12.2,8,19.4,12.8c20.6,13.8,46.9,30.6,65,30.6c2.5,0,4.7-0.4,6.6-1.1    c4.7-1.9,9.2-4.6,13.5-7.7c1.2-0.8,2.3-1.7,3.5-2.5c7.2-5.3,14.3-11.1,21.8-14.4c2.7-1.2,5.6-2.1,8.5-2.7c5.6-1.1,11-1,15.6,1.6    c4.3,2.5,9,7.3,14.2,15.3c24.2,37.7,50.4,83.1,52.8,87.4c0.4,0.5,1.2,1.7,1.8,2.7c0.3,0.5,0.9,1.3,1.2,1.8    c1.8,3.3,3.9,8.6,3,14.4c-0.1,0.3-0.1,0.7-0.2,1c-1.7,7.9-8.2,14.7-19.1,20.1c-31.2,15.6-96.6,43.2-195.2,55.8    c-26.3,2.3-47.8,3.6-60.2,1.9c-8.3-1.2-11.4-3.6-15.3-6.1c-6-8.2-7.7-28.3-2.5-72.6C52,153.3,59.7,108.6,69.3,56.7z"></path>			<path class="st34" d="M69.9,57c0.7-2.5,2.6-6.5,4.8-8.9c1.4-1.5,3.4-2.8,6.3-3.7c4.3-1.4,9.5-2.6,16.1-1.5    c2.6,0.5,5.4,1.3,8.1,2.4c2.9,1.2,6,2.8,9,4.6c5.7,3.5,12.1,7.9,19.3,12.8c20.5,13.7,46.6,30.4,64.7,30.4c2.5,0,4.7-0.4,6.5-1.1    c4.6-1.9,9.1-4.6,13.4-7.6c1.2-0.8,2.3-1.7,3.5-2.5c7.2-5.3,14.2-11,21.6-14.3c2.7-1.2,5.6-2.2,8.5-2.8c5.6-1.2,11-1.1,15.5,1.5    c4.2,2.4,9,7.2,14.1,15.2c24.1,37.6,50.2,82.9,52.6,87.1c0.4,0.5,1.2,1.7,1.8,2.7c0.3,0.5,0.9,1.2,1.1,1.8    c1.8,3.3,3.9,8.6,3,14.3c-0.1,0.3-0.1,0.6-0.2,1c-1.6,7.8-8.1,14.5-18.9,19.9c-31,15.5-96.3,43-194.4,55.6    c-26.1,2.3-47.5,3.6-60,1.9c-8.2-1.1-11.3-3.5-15.3-6c-5.9-8.1-7.6-28.1-2.4-72.3C52.7,153.2,60.4,108.6,69.9,57z"></path>			<path class="st34" d="M70.5,57.4c0.7-2.5,2.6-6.5,4.8-8.9c1.4-1.5,3.4-2.7,6.2-3.6c4.3-1.3,9.5-2.5,16-1.3    c2.6,0.5,5.3,1.3,8.1,2.4c2.9,1.2,5.9,2.8,9,4.6c5.7,3.5,12.1,7.9,19.2,12.7c20.5,13.7,46.4,30.2,64.4,30.2    c2.5,0,4.6-0.4,6.5-1.1c4.6-1.8,9.1-4.5,13.3-7.5c1.2-0.8,2.3-1.7,3.5-2.5c7.1-5.3,14.2-10.9,21.5-14.3c2.7-1.2,5.5-2.2,8.4-2.8    c5.6-1.2,10.9-1.2,15.4,1.4c4.2,2.4,8.9,7.1,14,15.1c24.1,37.5,50.1,82.7,52.4,86.8c0.4,0.5,1.2,1.7,1.8,2.6    c0.3,0.5,0.8,1.2,1.1,1.8c1.8,3.2,3.9,8.5,3,14.1c-0.1,0.3-0.1,0.6-0.2,1c-1.6,7.7-8,14.4-18.7,19.7    c-30.8,15.4-96.1,42.8-193.5,55.3c-26,2.3-47.2,3.6-59.7,1.9c-8.1-1.1-11.3-3.4-15.2-5.9c-5.8-8-7.6-27.9-2.4-72    C53.4,153.1,61.1,108.6,70.5,57.4z"></path>			<path class="st35" d="M71.1,57.7c0.7-2.5,2.6-6.4,4.8-8.8c1.4-1.5,3.4-2.7,6.2-3.5c4.3-1.2,9.4-2.4,15.9-1.2    c2.6,0.5,5.3,1.3,8,2.4c2.9,1.2,5.9,2.8,8.9,4.6c5.7,3.5,12,7.9,19.1,12.6c20.4,13.6,46.1,30,64.1,30c2.5,0,4.6-0.4,6.5-1.1    c4.6-1.8,9.1-4.5,13.3-7.5c1.2-0.8,2.3-1.6,3.4-2.5c7.1-5.2,14.1-10.8,21.4-14.2c2.7-1.2,5.5-2.2,8.3-2.8    c5.6-1.2,10.9-1.3,15.3,1.2c4.1,2.3,8.9,7.1,13.9,15c24,37.4,49.9,82.5,52.3,86.5c0.4,0.5,1.2,1.7,1.8,2.6    c0.3,0.4,0.8,1.2,1.1,1.8c1.8,3.2,3.8,8.4,2.9,14c-0.1,0.3-0.1,0.6-0.2,0.9c-1.6,7.6-7.9,14.2-18.5,19.5    c-30.6,15.3-95.8,42.6-192.7,55.1c-25.8,2.3-46.9,3.6-59.4,2c-8.1-1.1-11.2-3.4-15.2-5.8c-5.7-8-7.5-27.7-2.3-71.7    C54.1,152.9,61.8,108.5,71.1,57.7z"></path>			<path class="st36" d="M71.7,58.1c0.7-2.4,2.6-6.4,4.8-8.8c1.4-1.4,3.4-2.6,6.2-3.4c4.2-1.2,9.4-2.3,15.8-1c2.6,0.5,5.2,1.3,8,2.5    c2.9,1.2,5.9,2.8,8.9,4.6c5.6,3.5,12,7.8,19,12.6c20.3,13.5,45.9,29.8,63.8,29.8c2.5,0,4.6-0.4,6.4-1.1c4.6-1.8,9-4.4,13.2-7.4    c1.2-0.8,2.3-1.6,3.4-2.5c7.1-5.2,14-10.8,21.3-14.1c2.7-1.2,5.4-2.2,8.3-2.8c5.5-1.2,10.8-1.4,15.2,1.1c4.1,2.3,8.8,7,13.9,14.9    c23.9,37.3,49.8,82.2,52.1,86.2c0.4,0.5,1.2,1.7,1.8,2.6c0.3,0.4,0.8,1.2,1.1,1.7c1.8,3.2,3.8,8.3,2.9,13.8    c0,0.3-0.1,0.6-0.2,0.9c-1.6,7.5-7.9,14.1-18.4,19.3c-30.4,15.2-95.6,42.4-191.8,54.8c-25.6,2.3-46.6,3.7-59.2,2    c-8-1-11.2-3.3-15.2-5.7c-5.7-7.9-7.4-27.6-2.3-71.4C54.8,152.8,62.4,108.5,71.7,58.1z"></path>			<path class="st37" d="M72.3,58.5c0.7-2.4,2.6-6.4,4.8-8.7c1.4-1.4,3.3-2.5,6.2-3.3c4.2-1.1,9.3-2.2,15.7-0.9    c2.6,0.5,5.2,1.3,7.9,2.5c2.9,1.2,5.8,2.8,8.8,4.6c5.6,3.5,11.9,7.8,18.9,12.5c20.2,13.5,45.6,29.5,63.5,29.5    c2.4,0,4.6-0.3,6.4-1.1c4.6-1.8,9-4.4,13.2-7.3c1.2-0.8,2.3-1.6,3.4-2.4c7-5.2,14-10.7,21.1-14.1c2.6-1.2,5.4-2.2,8.2-2.8    c5.5-1.3,10.8-1.4,15.1,1c4.1,2.3,8.7,6.9,13.8,14.8c23.9,37.2,49.7,82,51.9,85.9c0.4,0.4,1.2,1.7,1.7,2.6    c0.3,0.4,0.8,1.2,1.1,1.7c1.7,3.1,3.8,8.2,2.9,13.7c0,0.3-0.1,0.6-0.2,0.9c-1.6,7.4-7.8,13.9-18.2,19.1    c-30.2,15.1-95.3,42.2-191,54.5c-25.4,2.3-46.3,3.7-58.9,2.1c-7.9-1-11.1-3.2-15.1-5.6c-5.6-7.8-7.3-27.4-2.2-71.1    C55.5,152.7,63.1,108.5,72.3,58.5z"></path>			<path class="st38" d="M73,58.8c0.7-2.4,2.6-6.4,4.8-8.6c1.3-1.4,3.3-2.5,6.2-3.2c4.2-1,9.3-2,15.6-0.8c2.5,0.5,5.2,1.4,7.9,2.5    c2.9,1.2,5.8,2.8,8.8,4.6c5.6,3.5,11.9,7.8,18.8,12.4c20.1,13.4,45.4,29.3,63.2,29.3c2.4,0,4.5-0.3,6.4-1c4.6-1.7,9-4.3,13.1-7.2    c1.1-0.8,2.3-1.6,3.4-2.4c7-5.1,13.9-10.6,21-14c2.6-1.2,5.4-2.2,8.2-2.9c5.5-1.3,10.7-1.5,15,0.9c4,2.2,8.7,6.8,13.7,14.7    c23.8,37.1,49.5,81.8,51.7,85.6c0.4,0.4,1.2,1.7,1.7,2.5c0.3,0.4,0.8,1.2,1.1,1.7c1.7,3.1,3.8,8.1,2.9,13.5    c0,0.3-0.1,0.6-0.2,0.9c-1.6,7.3-7.7,13.7-18,18.9c-30,15-95.1,42-190.1,54.3c-25.2,2.3-46,3.7-58.6,2.1    c-7.9-1-11.1-3.2-15.1-5.5c-5.5-7.8-7.3-27.2-2.1-70.8C56.2,152.6,63.8,108.5,73,58.8z"></path>			<path class="st39" d="M73.6,59.2c0.7-2.4,2.6-6.3,4.8-8.6c1.3-1.4,3.3-2.4,6.2-3.1c4.2-1,9.2-1.9,15.5-0.6    c2.5,0.5,5.1,1.4,7.8,2.5c2.8,1.2,5.8,2.8,8.7,4.6c5.6,3.5,11.8,7.7,18.7,12.4c20,13.3,45.1,29.1,62.8,29.1c2.4,0,4.5-0.3,6.3-1    c4.5-1.7,8.9-4.3,13.1-7.2c1.1-0.8,2.3-1.6,3.4-2.4c7-5.1,13.8-10.6,20.9-13.9c2.6-1.2,5.3-2.2,8.1-2.9    c5.4-1.3,10.6-1.6,14.9,0.8c4,2.2,8.6,6.7,13.7,14.6c23.7,37,49.4,81.6,51.6,85.4c0.3,0.4,1.2,1.7,1.7,2.5    c0.3,0.4,0.8,1.2,1.1,1.7c1.7,3,3.7,8,2.9,13.4c0,0.3-0.1,0.6-0.2,0.9c-1.6,7.2-7.7,13.6-17.8,18.6    c-29.8,14.9-94.8,41.8-189.3,54c-25,2.3-45.7,3.7-58.4,2.2c-7.8-1-11-3.1-15-5.4c-5.4-7.7-7.2-27-2.1-70.5    C56.9,152.4,64.5,108.5,73.6,59.2z"></path>			<path class="st39" d="M74.2,59.6c0.7-2.4,2.6-6.3,4.8-8.5c1.3-1.3,3.3-2.4,6.2-3c4.1-0.9,9.2-1.8,15.4-0.5    c2.5,0.6,5.1,1.4,7.7,2.5c2.8,1.2,5.7,2.8,8.7,4.6c5.5,3.5,11.8,7.7,18.6,12.3c19.9,13.3,44.9,28.9,62.5,28.9    c2.4,0,4.5-0.3,6.3-1c4.5-1.7,8.9-4.2,13-7.1c1.1-0.8,2.3-1.6,3.4-2.4c6.9-5,13.7-10.5,20.8-13.9c2.6-1.2,5.3-2.2,8-2.9    c5.4-1.4,10.6-1.7,14.8,0.6c3.9,2.1,8.5,6.7,13.6,14.5c23.7,36.9,49.3,81.3,51.4,85.1c0.3,0.4,1.2,1.6,1.7,2.5    c0.3,0.4,0.8,1.2,1.1,1.7c1.7,3,3.7,7.9,2.8,13.2c0,0.3-0.1,0.6-0.2,0.9c-1.5,7.1-7.6,13.4-17.7,18.4    c-29.6,14.8-94.5,41.6-188.4,53.8c-24.8,2.3-45.4,3.7-58.1,2.2c-7.7-0.9-11-3-15-5.2c-5.3-7.7-7.1-26.8-2-70.2    C57.6,152.3,65.2,108.5,74.2,59.6z"></path>			<path class="st40" d="M74.8,59.9c0.7-2.3,2.6-6.3,4.8-8.5c1.3-1.3,3.3-2.3,6.2-2.9c4.1-0.8,9.1-1.7,15.3-0.3    c2.5,0.6,5.1,1.4,7.7,2.5c2.8,1.2,5.7,2.8,8.6,4.6c5.5,3.5,11.7,7.7,18.5,12.2c19.9,13.2,44.7,28.7,62.2,28.7    c2.4,0,4.4-0.3,6.3-1c4.5-1.7,8.8-4.2,13-7c1.1-0.8,2.3-1.6,3.4-2.4c6.9-5,13.7-10.4,20.6-13.8c2.6-1.2,5.2-2.2,8-2.9    c5.4-1.4,10.5-1.7,14.8,0.5c3.9,2.1,8.5,6.6,13.5,14.4c23.6,36.8,49.1,81.1,51.2,84.8c0.3,0.4,1.1,1.6,1.7,2.5    c0.2,0.4,0.8,1.2,1.1,1.6c1.7,2.9,3.7,7.9,2.8,13.1c0,0.3-0.1,0.6-0.2,0.9c-1.5,7-7.5,13.2-17.5,18.2    c-29.5,14.7-94.3,41.4-187.6,53.5c-24.6,2.3-45.1,3.8-57.8,2.3c-7.7-0.9-11-3-15-5.1c-5.3-7.6-7-26.7-2-69.9    C58.3,152.2,65.9,108.5,74.8,59.9z"></path>			<path class="st40" d="M75.4,60.3c0.7-2.3,2.6-6.3,4.8-8.4c1.3-1.3,3.2-2.2,6.2-2.8c4.1-0.8,9.1-1.6,15.2-0.2    c2.5,0.6,5,1.4,7.6,2.6c2.8,1.2,5.6,2.8,8.6,4.6c5.5,3.4,11.6,7.6,18.4,12.2c19.8,13.1,44.4,28.5,61.9,28.5c2.4,0,4.4-0.3,6.2-1    c4.5-1.6,8.8-4.1,12.9-6.9c1.1-0.8,2.2-1.6,3.3-2.4c6.9-5,13.6-10.4,20.5-13.7c2.5-1.2,5.2-2.2,7.9-2.9    c5.4-1.4,10.5-1.8,14.7,0.4c3.8,2,8.4,6.5,13.5,14.4c23.5,36.7,49,80.9,51,84.5c0.3,0.4,1.1,1.6,1.6,2.4c0.2,0.4,0.8,1.2,1.1,1.6    c1.6,2.9,3.6,7.8,2.8,12.9c0,0.3-0.1,0.6-0.2,0.9c-1.5,6.9-7.4,13.1-17.3,18c-29.3,14.6-94,41.2-186.7,53.2    c-24.4,2.3-44.8,3.8-57.6,2.3c-7.6-0.9-10.9-2.9-14.9-5c-5.2-7.5-7-26.5-1.9-69.7C59,152,66.5,108.4,75.4,60.3z"></path>			<path class="st41" d="M76,60.6c0.7-2.3,2.6-6.2,4.8-8.3c1.3-1.2,3.2-2.2,6.1-2.7c4.1-0.7,9-1.5,15.1,0c2.5,0.6,5,1.4,7.6,2.6    c2.8,1.2,5.6,2.8,8.5,4.6c5.5,3.4,11.6,7.6,18.3,12.1c19.7,13.1,44.2,28.3,61.6,28.3c2.3,0,4.4-0.3,6.2-1c4.5-1.6,8.8-4,12.8-6.9    c1.1-0.8,2.2-1.6,3.3-2.3c6.9-4.9,13.5-10.3,20.4-13.7c2.5-1.2,5.2-2.2,7.9-2.9c5.3-1.4,10.4-1.9,14.6,0.3    c3.8,2,8.4,6.4,13.4,14.3c23.5,36.6,48.8,80.7,50.9,84.2c0.3,0.4,1.1,1.6,1.6,2.4c0.2,0.4,0.8,1.1,1.1,1.6    c1.6,2.9,3.6,7.7,2.8,12.8c0,0.3-0.1,0.6-0.2,0.9c-1.5,6.8-7.4,12.9-17.1,17.8c-29.1,14.5-93.8,41-185.9,53    c-24.2,2.3-44.5,3.8-57.3,2.3c-7.5-0.8-10.9-2.8-14.9-4.9c-5.1-7.5-6.9-26.3-1.8-69.4C59.7,151.9,67.2,108.4,76,60.6z"></path>			<path class="st42" d="M76.6,61c0.7-2.3,2.6-6.2,4.7-8.3c1.3-1.2,3.2-2.1,6.1-2.6c4-0.7,9-1.4,15,0.1c2.4,0.6,5,1.5,7.5,2.6    c2.8,1.2,5.6,2.8,8.4,4.5c5.4,3.4,11.5,7.6,18.2,12c19.6,13,43.9,28.1,61.3,28.1c2.3,0,4.4-0.3,6.2-1c4.5-1.6,8.7-4,12.8-6.8    c1.1-0.8,2.2-1.5,3.3-2.3c6.8-4.9,13.5-10.2,20.3-13.6c2.5-1.2,5.1-2.2,7.8-3c5.3-1.5,10.4-2,14.5,0.2c3.8,1.9,8.3,6.3,13.3,14.2    c23.4,36.5,48.7,80.5,50.7,83.9c0.3,0.4,1.1,1.6,1.6,2.4c0.2,0.4,0.8,1.1,1,1.6c1.6,2.8,3.6,7.6,2.8,12.7c0,0.3-0.1,0.6-0.2,0.9    c-1.5,6.7-7.3,12.7-17,17.6c-28.9,14.4-93.5,40.7-185,52.7c-24,2.3-44.2,3.8-57,2.4c-7.5-0.8-10.8-2.8-14.8-4.8    c-5-7.4-6.8-26.1-1.8-69.1C60.4,151.8,67.9,108.4,76.6,61z"></path>			<path class="st43" d="M77.2,61.4c0.7-2.3,2.6-6.2,4.7-8.2c1.3-1.2,3.2-2.1,6.1-2.5c4-0.6,8.9-1.2,14.9,0.3    c2.4,0.6,4.9,1.5,7.5,2.6c2.7,1.2,5.5,2.8,8.4,4.5c5.4,3.4,11.5,7.5,18.1,12c19.5,12.9,43.7,27.9,61,27.9c2.3,0,4.3-0.3,6.1-0.9    c4.4-1.6,8.7-3.9,12.7-6.7c1.1-0.8,2.2-1.5,3.3-2.3c6.8-4.9,13.4-10.2,20.1-13.5c2.5-1.2,5.1-2.2,7.7-3c5.3-1.5,10.3-2,14.4,0    c3.7,1.9,8.2,6.3,13.2,14.1c23.3,36.4,48.6,80.2,50.5,83.6c0.3,0.4,1.1,1.6,1.6,2.4c0.2,0.4,0.8,1.1,1,1.6    c1.6,2.8,3.6,7.5,2.7,12.5c0,0.3-0.1,0.6-0.2,0.8c-1.5,6.6-7.2,12.6-16.8,17.4c-28.7,14.3-93.3,40.5-184.2,52.5    c-23.8,2.3-43.9,3.8-56.8,2.4c-7.4-0.8-10.8-2.7-14.8-4.7c-5-7.3-6.7-25.9-1.7-68.8C61.1,151.7,68.6,108.4,77.2,61.4z"></path>			<path class="st44" d="M77.8,61.7c0.7-2.3,2.6-6.2,4.7-8.1c1.3-1.2,3.2-2,6.1-2.4c4-0.5,8.9-1.1,14.8,0.4c2.4,0.6,4.9,1.5,7.4,2.6    c2.7,1.2,5.5,2.8,8.3,4.5c5.4,3.4,11.4,7.5,18,11.9c19.4,12.9,43.4,27.7,60.7,27.7c2.3,0,4.3-0.3,6.1-0.9    c4.4-1.5,8.7-3.9,12.7-6.6c1.1-0.8,2.2-1.5,3.3-2.3c6.8-4.8,13.3-10.1,20-13.5c2.5-1.2,5-2.2,7.7-3c5.2-1.5,10.3-2.1,14.3-0.1    c3.7,1.9,8.2,6.2,13.2,14c23.3,36.3,48.4,80,50.4,83.3c0.3,0.4,1.1,1.6,1.6,2.3c0.2,0.4,0.8,1.1,1,1.5c1.6,2.7,3.5,7.4,2.7,12.4    c0,0.3-0.1,0.6-0.2,0.8c-1.4,6.5-7.2,12.4-16.6,17.1c-28.5,14.2-93,40.3-183.3,52.2c-23.6,2.3-43.6,3.8-56.5,2.5    c-7.3-0.8-10.7-2.7-14.7-4.6c-4.9-7.3-6.7-25.8-1.6-68.5C61.8,151.5,69.3,108.4,77.8,61.7z"></path>			<path class="st45" d="M78.5,62.1c0.7-2.2,2.6-6.1,4.7-8.1c1.2-1.1,3.3-1.2,6.1-2.3c3.7-1.4,8.8-1,14.7,0.5    c2.4,0.6,4.9,1.5,7.4,2.7c2.7,1.2,5.5,2.8,8.3,4.5c5.4,3.4,11.4,7.5,17.9,11.8C157,84,180.8,98.7,198,98.7c2.3,0,4.3-0.3,6.1-0.9    c4.4-1.5,8.6-3.8,12.6-6.5c1.1-0.7,2.2-1.5,3.3-2.3c6.7-4.8,13.2-10,19.9-13.4c2.4-1.2,5-2.3,7.6-3c5.2-1.6,10.2-2.2,14.2-0.2    c3.6,1.8,8.1,6.1,13.1,13.9c23.2,36.2,48.3,79.8,50.2,83.1c0.3,0.4,1.1,1.6,1.5,2.3c0.2,0.3,0.8,1.1,1,1.5    c1.5,2.7,3.5,7.3,2.7,12.2c0,0.3-0.1,0.5-0.2,0.8c-1.4,6.5-7.1,12.3-16.4,16.9c-28.3,14.1-92.8,40.1-182.5,51.9    c-23.4,2.3-43.3,3.8-56.2,2.5c-7.3-0.7-10.7-2.6-14.7-4.5c-4.8-7.2-6.6-25.6-1.6-68.2C62.5,151.4,69.9,108.4,78.5,62.1z"></path>			<path class="st45" d="M79.1,62.5c0.7-2.2,2.6-6.1,4.7-8c1.2-1.1,3.3-1.2,6.1-2.2c3.7-1.4,8.8-0.9,14.7,0.7    c2.4,0.6,4.8,1.5,7.3,2.7c2.7,1.2,5.4,2.8,8.2,4.5c5.4,3.4,11.3,7.4,17.8,11.8c19.3,12.7,42.9,27.2,60.1,27.2    c2.3,0,4.3-0.3,6-0.9c4.4-1.5,8.6-3.8,12.6-6.5c1.1-0.7,2.2-1.5,3.3-2.3c6.7-4.8,13.2-10,19.8-13.3c2.4-1.2,5-2.3,7.6-3    c5.2-1.6,10.2-2.3,14.1-0.3c3.6,1.8,8.1,6,13,13.8c23.1,36.1,48.2,79.6,50,82.8c0.3,0.4,1.1,1.6,1.5,2.3c0.2,0.3,0.8,1.1,1,1.5    c1.5,2.7,3.5,7.2,2.7,12.1c0,0.3-0.1,0.5-0.2,0.8c-1.4,6.4-7,12.1-16.3,16.7c-28.1,14-92.5,39.9-181.6,51.7    c-23.2,2.3-43,3.9-56,2.6c-7.2-0.7-10.6-2.5-14.7-4.4c-4.7-7.1-6.5-25.4-1.5-67.9C63.2,151.3,70.6,108.4,79.1,62.5z"></path>			<path class="st46" d="M79.7,62.8c0.7-2.2,2.6-6.1,4.7-8c1.2-1.1,3.3-1.1,6.1-2.1c3.7-1.3,8.7-0.8,14.6,0.8    c2.4,0.6,4.8,1.5,7.3,2.7c2.7,1.2,5.4,2.7,8.2,4.5c5.3,3.4,11.3,7.4,17.7,11.7c19.2,12.7,42.7,27,59.7,27c2.3,0,4.2-0.3,6-0.9    c4.4-1.5,8.6-3.7,12.5-6.4c1.1-0.7,2.2-1.5,3.2-2.2c6.7-4.7,13.1-9.9,19.6-13.3c2.4-1.2,4.9-2.3,7.5-3.1c5.2-1.6,10.1-2.4,14-0.4    c3.6,1.7,8,5.9,13,13.7c23.1,36,48,79.3,49.8,82.5c0.3,0.3,1.1,1.6,1.5,2.2c0.2,0.3,0.8,1.1,1,1.5c1.5,2.6,3.5,7.2,2.7,11.9    c0,0.3-0.1,0.5-0.2,0.8c-1.4,6.3-6.9,11.9-16.1,16.5c-27.9,13.9-92.3,39.7-180.8,51.4c-23,2.3-42.7,3.9-55.7,2.6    c-7.1-0.7-10.6-2.5-14.6-4.3c-4.6-7.1-6.4-25.2-1.5-67.6C63.9,151.1,71.3,108.3,79.7,62.8z"></path>			<path class="st47" d="M80.3,63.2c0.6-2.2,2.6-6.1,4.7-7.9c1.2-1,3.2-1,6.1-2c3.7-1.2,8.7-0.6,14.5,1c2.3,0.7,4.8,1.6,7.2,2.7    c2.7,1.2,5.4,2.7,8.1,4.5c5.3,3.4,11.2,7.4,17.6,11.6C157.6,85.7,181,99.9,198,99.9c2.2,0,4.2-0.3,6-0.9    c4.4-1.5,8.5-3.7,12.5-6.3c1.1-0.7,2.2-1.5,3.2-2.2c6.6-4.7,13-9.8,19.5-13.2c2.4-1.2,4.9-2.3,7.4-3.1c5.1-1.6,10-2.4,13.9-0.6    c3.5,1.7,7.9,5.9,12.9,13.6c23,35.9,47.9,79.1,49.7,82.2c0.3,0.3,1.1,1.6,1.5,2.2c0.2,0.3,0.8,1.1,1,1.5    c1.5,2.6,3.4,7.1,2.6,11.8c0,0.3-0.1,0.5-0.2,0.8c-1.4,6.2-6.9,11.8-15.9,16.3c-27.7,13.8-92,39.5-179.9,51.2    c-22.9,2.3-42.4,3.9-55.4,2.7c-7.1-0.7-10.5-2.4-14.6-4.2c-4.6-7-6.4-25-1.4-67.3C64.6,151,72,108.3,80.3,63.2z"></path>			<path class="st47" d="M80.9,63.5c0.6-2.2,2.6-6,4.7-7.8c1.2-1,3.2-1,6.1-1.9c3.7-1.2,8.6-0.5,14.4,1.1c2.3,0.7,4.7,1.6,7.2,2.7    c2.6,1.2,5.3,2.7,8.1,4.5c5.3,3.4,11.1,7.3,17.5,11.6c19,12.5,42.2,26.6,59.1,26.6c2.2,0,4.2-0.3,5.9-0.9    c4.3-1.4,8.5-3.6,12.4-6.2c1.1-0.7,2.2-1.5,3.2-2.2c6.6-4.6,13-9.8,19.4-13.1c2.4-1.2,4.9-2.3,7.4-3.1c5.1-1.7,10-2.5,13.8-0.7    c3.5,1.6,7.9,5.8,12.8,13.5c22.9,35.8,47.8,78.9,49.5,81.9c0.3,0.3,1,1.5,1.5,2.2c0.2,0.3,0.8,1.1,1,1.4c1.5,2.5,3.4,7,2.6,11.6    c0,0.3-0.1,0.5-0.2,0.8c-1.4,6.1-6.8,11.6-15.7,16.1c-27.5,13.7-91.8,39.3-179.1,50.9c-22.7,2.3-42.1,3.9-55.2,2.7    c-7-0.6-10.5-2.3-14.5-4c-4.5-6.9-6.3-24.9-1.3-67C65.3,150.9,72.7,108.3,80.9,63.5z"></path>			<path class="st48" d="M81.5,63.9c0.6-2.1,2.6-6,4.7-7.8c1.2-1,3.2-0.9,6.1-1.8c3.6-1.1,8.6-0.4,14.3,1.3c2.3,0.7,4.7,1.6,7.1,2.7    c2.6,1.2,5.3,2.7,8,4.5c5.3,3.3,11.1,7.3,17.4,11.5c18.9,12.5,41.9,26.4,58.8,26.4c2.2,0,4.1-0.3,5.9-0.8    c4.3-1.4,8.5-3.6,12.3-6.2c1.1-0.7,2.1-1.4,3.2-2.2c6.6-4.6,12.9-9.7,19.3-13.1c2.3-1.2,4.8-2.3,7.3-3.1    c5.1-1.7,9.9-2.6,13.7-0.8c3.4,1.6,7.8,5.7,12.8,13.4c22.9,35.6,47.6,78.7,49.3,81.6c0.3,0.3,1,1.5,1.4,2.2c0.2,0.3,0.8,1,1,1.4    c1.4,2.5,3.4,6.9,2.6,11.5c0,0.3-0.1,0.5-0.2,0.8c-1.4,6-6.7,11.4-15.6,15.9c-27.3,13.6-91.5,39.1-178.2,50.7    c-22.5,2.3-41.8,3.9-54.9,2.7c-6.9-0.6-10.4-2.3-14.5-3.9c-4.4-6.9-6.2-24.7-1.3-66.8C66,150.7,73.3,108.3,81.5,63.9z"></path>			<path class="st48" d="M82.1,64.3c0.6-2.1,2.6-6,4.7-7.7c1.2-1,3.1-0.9,6-1.7c3.6-1,8.5-0.3,14.2,1.4c2.3,0.7,4.7,1.6,7.1,2.8    c2.6,1.2,5.3,2.7,8,4.5c5.2,3.3,11,7.3,17.3,11.4c18.8,12.4,41.7,26.2,58.5,26.2c2.2,0,4.1-0.3,5.9-0.8c4.3-1.4,8.4-3.5,12.3-6.1    c1.1-0.7,2.1-1.4,3.2-2.2c6.5-4.6,12.8-9.6,19.1-13c2.3-1.2,4.8-2.3,7.2-3.1c5-1.7,9.9-2.7,13.6-0.9c3.4,1.6,7.7,5.6,12.7,13.3    c22.8,35.5,47.5,78.5,49.1,81.3c0.3,0.3,1,1.5,1.4,2.1c0.2,0.3,0.8,1,1,1.4c1.4,2.4,3.3,6.8,2.6,11.3c0,0.3-0.1,0.5-0.2,0.8    c-1.3,5.9-6.6,11.3-15.4,15.6c-27.1,13.5-91.3,38.9-177.4,50.4c-22.3,2.3-41.5,3.9-54.6,2.8c-6.9-0.6-10.4-2.2-14.5-3.8    c-4.3-6.8-6.1-24.5-1.2-66.5C66.7,150.6,74,108.3,82.1,64.3z"></path>			<path class="st49" d="M82.7,64.6c0.6-2.1,2.6-6,4.7-7.7c1.2-0.9,3.1-0.8,6-1.6c3.6-1,8.5-0.2,14.1,1.6c2.3,0.7,4.6,1.6,7,2.8    c2.6,1.2,5.2,2.7,7.9,4.4c5.2,3.3,11,7.2,17.2,11.4c18.8,12.3,41.4,26,58.2,26c2.2,0,4.1-0.3,5.8-0.8c4.3-1.4,8.4-3.5,12.2-6    c1.1-0.7,2.1-1.4,3.2-2.1c6.5-4.5,12.7-9.6,19-12.9c2.3-1.2,4.7-2.3,7.2-3.2c5-1.8,9.8-2.7,13.5-1c3.4,1.5,7.7,5.5,12.6,13.2    c22.7,35.4,47.3,78.2,49,81c0.2,0.3,1,1.5,1.4,2.1c0.2,0.3,0.8,1,1,1.4c1.4,2.4,3.3,6.7,2.6,11.2c0,0.2-0.1,0.5-0.1,0.7    c-1.3,5.8-6.6,11.1-15.2,15.4c-26.9,13.4-91,38.7-176.5,50.1c-22.1,2.3-41.2,3.9-54.4,2.8c-6.8-0.6-10.4-2.1-14.4-3.7    c-4.2-6.7-6-24.3-1.2-66.2C67.4,150.5,74.7,108.3,82.7,64.6z"></path>			<path class="st50" d="M83.3,65c0.6-2.1,2.5-5.9,4.7-7.6c1.1-0.9,3.1-0.8,6-1.5c3.6-0.9,8.4-0.1,14,1.7c2.3,0.7,4.6,1.6,7,2.8    c2.6,1.3,5.2,2.7,7.9,4.4c5.2,3.3,10.9,7.2,17.1,11.3c18.7,12.2,41.2,25.8,57.9,25.8c2.2,0,4.1-0.3,5.8-0.8    c4.3-1.3,8.4-3.4,12.2-5.9c1.1-0.7,2.1-1.4,3.2-2.1c6.5-4.5,12.7-9.5,18.9-12.9c2.3-1.2,4.7-2.3,7.1-3.2c5-1.8,9.8-2.8,13.5-1.2    c3.3,1.5,7.6,5.5,12.5,13.1c22.7,35.3,47.2,78,48.8,80.7c0.2,0.3,1,1.5,1.4,2.1c0.2,0.3,0.8,1,0.9,1.4c1.4,2.4,3.3,6.6,2.5,11    c0,0.2-0.1,0.5-0.1,0.7c-1.3,5.7-6.5,10.9-15,15.2c-26.7,13.3-90.8,38.5-175.7,49.9c-21.9,2.3-40.9,3.9-54.1,2.9    c-6.7-0.5-10.3-2.1-14.4-3.6c-4.2-6.7-6-24.1-1.1-65.9C68.1,150.4,75.4,108.3,83.3,65z"></path>			<path class="st51" d="M84,65.4c0.6-2.1,2.5-5.9,4.7-7.5c1.1-0.9,3-0.7,6-1.4c3.6-0.9,8.4,0.1,13.9,1.8c2.2,0.7,4.5,1.7,6.9,2.8    c2.6,1.3,5.2,2.7,7.8,4.4c5.2,3.3,10.9,7.2,17.1,11.2c18.6,12.2,40.9,25.6,57.6,25.6c2.1,0,4-0.3,5.8-0.8    c4.3-1.3,8.3-3.4,12.1-5.9c1.1-0.7,2.1-1.4,3.1-2.1c6.4-4.5,12.6-9.4,18.8-12.8c2.3-1.2,4.7-2.3,7.1-3.2c5-1.8,9.7-2.9,13.4-1.3    c3.3,1.4,7.6,5.4,12.5,13c22.6,35.2,47.1,77.8,48.6,80.5c0.2,0.3,1,1.5,1.4,2.1c0.2,0.3,0.8,1,0.9,1.3c1.4,2.3,3.3,6.5,2.5,10.9    c0,0.2-0.1,0.5-0.1,0.7c-1.3,5.6-6.4,10.8-14.9,15c-26.5,13.2-90.5,38.3-174.8,49.6c-21.7,2.3-40.5,4-53.8,2.9    c-6.7-0.5-10.3-2-14.3-3.5c-4.1-6.6-5.9-24-1-65.6C68.8,150.2,76.1,108.2,84,65.4z"></path>			<path class="st52" d="M84.6,65.7c0.6-2,2.5-5.9,4.7-7.5c1.1-0.8,3-0.6,6-1.3c3.6-0.8,8.3,0.2,13.8,2c2.2,0.7,4.5,1.7,6.8,2.8    c2.5,1.3,5.1,2.7,7.8,4.4c5.2,3.3,10.8,7.1,17,11.2c18.5,12.1,40.7,25.4,57.3,25.4c2.1,0,4-0.3,5.7-0.8c4.2-1.3,8.3-3.3,12.1-5.8    c1.1-0.7,2.1-1.4,3.1-2.1c6.4-4.4,12.5-9.4,18.6-12.7c2.2-1.2,4.6-2.3,7-3.2c4.9-1.9,9.7-3,13.3-1.4c3.2,1.4,7.5,5.3,12.4,12.9    c22.5,35.1,46.9,77.6,48.4,80.2c0.2,0.3,1,1.5,1.3,2c0.2,0.3,0.8,1,0.9,1.3c1.3,2.3,3.2,6.5,2.5,10.7c0,0.2-0.1,0.5-0.1,0.7    c-1.3,5.5-6.4,10.6-14.7,14.8c-26.3,13.1-90.3,38.1-174,49.4c-21.5,2.3-40.2,4-53.6,3c-6.6-0.5-10.2-1.9-14.3-3.4    c-4-6.6-5.8-23.8-1-65.3C69.5,150.1,76.7,108.2,84.6,65.7z"></path>			<path class="st53" d="M85.2,66.1c0.6-2,2.5-5.9,4.6-7.4c1.1-0.8,3-0.6,6-1.2c3.6-0.7,8.3,0.3,13.7,2.1c2.2,0.7,4.5,1.7,6.8,2.9    c2.5,1.3,5.1,2.7,7.7,4.4c5.1,3.3,10.8,7.1,16.9,11.1c18.4,12,40.4,25.2,57,25.2c2.1,0,4-0.3,5.7-0.8c4.2-1.3,8.2-3.3,12-5.7    c1-0.7,2.1-1.4,3.1-2.1c6.4-4.4,12.5-9.3,18.5-12.7c2.2-1.2,4.6-2.3,6.9-3.2c4.9-1.9,9.6-3,13.2-1.5c3.2,1.3,7.4,5.2,12.3,12.9    c22.5,35,46.8,77.3,48.3,79.9c0.2,0.3,1,1.5,1.3,2c0.2,0.3,0.8,1,0.9,1.3c1.3,2.2,3.2,6.4,2.5,10.6c0,0.2-0.1,0.5-0.1,0.7    c-1.3,5.4-6.3,10.5-14.5,14.6c-26.1,13-90,37.9-173.1,49.1c-21.3,2.3-39.9,4-53.3,3c-6.5-0.5-10.2-1.9-14.2-3.3    c-3.9-6.5-5.7-23.6-0.9-65C70.2,150,77.4,108.2,85.2,66.1z"></path>			<path class="st53" d="M85.8,66.4c0.6-2,2.5-5.9,4.6-7.4c1.1-0.8,2.9-0.6,6-1.1c3.6-0.6,8.2,0.4,13.6,2.3c2.2,0.8,4.4,1.7,6.7,2.9    c2.5,1.3,5.1,2.7,7.7,4.4c5.1,3.3,10.7,7.1,16.8,11c18.3,12,40.2,24.9,56.6,24.9c2.1,0,4-0.2,5.7-0.7c4.2-1.2,8.2-3.2,12-5.6    c1-0.7,2.1-1.4,3.1-2.1c6.3-4.4,12.4-9.2,18.4-12.6c2.2-1.2,4.5-2.3,6.9-3.3c4.9-1.9,9.5-3.1,13.1-1.6c3.1,1.3,7.4,5.1,12.3,12.8    c22.4,34.9,46.7,77.1,48.1,79.6c0.2,0.3,1,1.5,1.3,2c0.2,0.3,0.7,1,0.9,1.3c1.3,2.2,3.2,6.3,2.5,10.4c0,0.2-0.1,0.5-0.1,0.7    c-1.3,5.3-6.2,10.3-14.3,14.3c-26,12.9-89.8,37.6-172.3,48.8c-21.1,2.3-39.6,4-53,3.1c-6.5-0.4-10.1-1.8-14.2-3.2    c-3.8-6.4-5.7-23.4-0.9-64.7C70.9,149.8,78.1,108.2,85.8,66.4z"></path>			<path class="st54" d="M86.4,66.8c0.6-2,2.5-5.8,4.6-7.3c1.1-0.8,2.9-0.5,6-1c3.5-0.6,8.2,0.5,13.5,2.4c2.2,0.8,4.4,1.7,6.7,2.9    c2.5,1.3,5,2.7,7.6,4.4c5.1,3.3,10.6,7,16.7,11c18.3,11.9,40,24.7,56.3,24.7c2.1,0,3.9-0.2,5.6-0.7c4.2-1.2,8.2-3.2,11.9-5.6    c1-0.7,2.1-1.3,3.1-2c6.3-4.3,12.3-9.1,18.3-12.5c2.2-1.2,4.5-2.3,6.8-3.3c4.8-1.9,9.5-3.2,13-1.8c3.1,1.3,7.3,5.1,12.2,12.7    c22.3,34.8,46.5,76.9,47.9,79.3c0.2,0.3,1,1.5,1.3,2c0.2,0.2,0.7,1,0.9,1.3c1.3,2.2,3.2,6.2,2.4,10.3c0,0.2-0.1,0.5-0.1,0.7    c-1.2,5.2-6.1,10.1-14.2,14.1c-25.8,12.8-89.5,37.4-171.4,48.6c-20.9,2.3-39.3,4-52.8,3.1c-6.4-0.4-10.1-1.7-14.2-3.1    c-3.8-6.4-5.6-23.2-0.8-64.4C71.6,149.7,78.8,108.2,86.4,66.8z"></path>			<path class="st54" d="M87,67.2c0.6-2,2.5-5.8,4.6-7.2c1.1-0.7,2.9-0.5,6-0.9c3.5-0.5,8.1,0.6,13.4,2.6c2.2,0.8,4.4,1.8,6.6,2.9    c2.5,1.3,5,2.7,7.6,4.4c5.1,3.3,10.6,7,16.6,10.9c18.2,11.8,39.7,24.5,56,24.5c2.1,0,3.9-0.2,5.6-0.7c4.2-1.2,8.1-3.1,11.8-5.5    c1-0.7,2.1-1.3,3.1-2c6.3-4.3,12.2-9.1,18.1-12.5c2.2-1.2,4.5-2.4,6.8-3.3c4.8-2,9.4-3.3,12.9-1.9c3.1,1.2,7.2,5,12.1,12.6    c22.3,34.7,46.4,76.7,47.7,79c0.2,0.2,1,1.4,1.3,1.9c0.1,0.2,0.7,1,0.9,1.2c1.3,2.1,3.1,6.1,2.4,10.1c0,0.2-0.1,0.4-0.1,0.7    c-1.2,5.1-6.1,10-14,13.9c-25.6,12.7-89.3,37.2-170.6,48.3c-20.7,2.3-39,4-52.5,3.1c-6.3-0.4-10-1.7-14.1-3    c-3.7-6.3-5.5-23.1-0.7-64.1C72.3,149.6,79.5,108.2,87,67.2z"></path>			<path class="st55" d="M87.6,67.5c0.6-1.9,2.5-5.8,4.6-7.2c1-0.7,2.8-0.4,5.9-0.8c3.5-0.4,8.1,0.8,13.3,2.7    c2.1,0.8,4.3,1.8,6.6,2.9c2.5,1.3,5,2.7,7.5,4.4c5,3.3,10.5,7,16.5,10.8c18.1,11.8,39.5,24.3,55.7,24.3c2,0,3.9-0.2,5.6-0.7    c4.2-1.2,8.1-3.1,11.8-5.4c1-0.7,2.1-1.3,3.1-2c6.2-4.2,12.2-9,18-12.4c2.1-1.2,4.4-2.4,6.7-3.3c4.8-2,9.4-3.3,12.8-2    c3,1.2,7.2,4.9,12,12.5c22.2,34.6,46.3,76.5,47.6,78.7c0.2,0.2,0.9,1.4,1.2,1.9c0.1,0.2,0.7,0.9,0.9,1.2c1.3,2.1,3.1,6,2.4,10    c0,0.2-0.1,0.4-0.1,0.7c-1.2,5.1-6,9.8-13.8,13.7c-25.4,12.7-89,37-169.7,48.1c-20.5,2.3-38.7,4-52.2,3.2    c-6.3-0.4-10-1.6-14.1-2.8c-3.6-6.2-5.4-22.9-0.7-63.8C73,149.4,80.2,108.2,87.6,67.5z"></path>			<path class="st56" d="M88.2,67.9c0.6-1.9,2.5-5.8,4.6-7.1c1-0.7,2.8-1.1,5.9-0.7c3.5,0.4,8,0.9,13.2,2.9c2.1,0.8,4.3,1.8,6.5,2.9    c2.4,1.3,4.9,2.7,7.4,4.4c5,3.2,10.5,6.9,16.4,10.8c18,11.7,39.2,24.1,55.4,24.1c2,0,3.9-0.2,5.5-0.7c4.1-1.1,8.1-3,11.7-5.3    c1-0.6,2-1.3,3-2c6.2-4.2,12.1-8.9,17.9-12.3c2.1-1.2,4.4-2.4,6.6-3.3c4.8-2,9.3-3.4,12.7-2.1c3,1.1,7.1,4.8,12,12.4    c22.1,34.5,46.1,76.2,47.4,78.4c0.2,0.2,0.9,1.4,1.2,1.9c0.1,0.2,0.7,0.9,0.9,1.2c1.2,2,3.1,5.9,2.4,9.8c0,0.2-0.1,0.4-0.1,0.6    c-1.2,5-5.9,9.6-13.6,13.5c-25.2,12.6-88.8,36.8-168.9,47.8c-20.3,2.3-38.4,4-52,3.2c-6.2-0.4-9.9-1.5-14-2.7    c-3.5-6.2-5.4-22.7-0.6-63.6C73.7,149.3,80.8,108.1,88.2,67.9z"></path>			<path class="st56" d="M88.9,68.3c0.6-1.9,2.5-5.7,4.6-7.1c1-0.6,2.8-1,5.9-0.6c3.5,0.5,8,1,13.2,3c2.1,0.8,4.3,1.8,6.5,3    c2.4,1.3,4.9,2.7,7.4,4.4c5,3.2,10.4,6.9,16.3,10.7c17.9,11.6,39,23.9,55.1,23.9c2,0,3.8-0.2,5.5-0.7c4.1-1.1,8-3,11.7-5.3    c1-0.6,2-1.3,3-2c6.2-4.2,12-8.9,17.8-12.3c2.1-1.2,4.3-2.4,6.6-3.4c4.7-2.1,9.3-3.5,12.6-2.3c2.9,1.1,7.1,4.7,11.9,12.3    c22.1,34.4,46,76,47.2,78.2c0.2,0.2,0.9,1.4,1.2,1.9c0.1,0.2,0.7,0.9,0.9,1.2c1.2,2,3,5.8,2.4,9.7c0,0.2-0.1,0.4-0.1,0.6    c-1.2,4.9-5.8,9.5-13.5,13.3c-25,12.5-88.5,36.6-168,47.5c-20.2,2.3-38.1,4-51.7,3.3c-6.1-0.3-9.9-1.5-14-2.6    c-3.4-6.1-5.3-22.5-0.5-63.3C74.4,149.2,81.5,108.1,88.9,68.3z"></path>			<path class="st57" d="M89.5,68.6c0.6-1.9,2.5-5.7,4.6-7c1-0.6,2.8-1,5.9-0.5c3.5,0.5,7.9,1.1,13.1,3.1c2.1,0.8,4.2,1.8,6.4,3    c2.4,1.3,4.8,2.7,7.3,4.3c5,3.2,10.4,6.9,16.2,10.7c17.8,11.6,38.7,23.7,54.8,23.7c2,0,3.8-0.2,5.5-0.7c4.1-1.1,8-2.9,11.6-5.2    c1-0.6,2-1.3,3-2c6.1-4.1,12-8.8,17.6-12.2c2.1-1.2,4.3-2.4,6.5-3.4c4.7-2.1,9.2-3.6,12.5-2.4c2.9,1.1,7,4.7,11.8,12.2    c22,34.3,45.8,75.8,47,77.9c0.2,0.2,0.9,1.4,1.2,1.8c0.1,0.2,0.7,0.9,0.9,1.2c1.2,2,3,5.8,2.3,9.5c0,0.2-0.1,0.4-0.1,0.6    c-1.2,4.8-5.8,9.3-13.3,13.1c-24.8,12.4-88.2,36.4-167.2,47.3c-20,2.3-37.8,4-51.4,3.3c-6.1-0.3-9.8-1.4-14-2.5    c-3.4-6-5.2-22.3-0.5-63C75.1,149.1,82.2,108.1,89.5,68.6z"></path>			<path class="st58" d="M90.1,69c0.6-1.9,2.5-5.7,4.6-6.9c1-0.6,2.8-0.9,5.9-0.4c3.4,0.6,7.9,1.2,13,3.3c2.1,0.8,4.2,1.8,6.4,3    c2.4,1.3,4.8,2.7,7.3,4.3c4.9,3.2,10.3,6.8,16.1,10.6c17.7,11.5,38.5,23.5,54.5,23.5c2,0,3.8-0.2,5.4-0.6c4.1-1.1,8-2.9,11.6-5.1    c1-0.6,2-1.3,3-1.9c6.1-4.1,11.9-8.7,17.5-12.1c2.1-1.2,4.3-2.4,6.5-3.4c4.7-2.1,9.2-3.6,12.4-2.5c2.9,1,6.9,4.6,11.8,12.1    c21.9,34.2,45.7,75.6,46.9,77.6c0.2,0.2,0.9,1.4,1.2,1.8c0.1,0.2,0.7,0.9,0.8,1.1c1.2,1.9,3,5.7,2.3,9.4c0,0.2-0.1,0.4-0.1,0.6    c-1.1,4.7-5.7,9.1-13.1,12.8c-24.6,12.3-88,36.2-166.3,47c-19.8,2.3-37.5,4-51.2,3.4c-6-0.3-9.8-1.3-13.9-2.4    c-3.3-6-5.1-22.2-0.4-62.7C75.8,148.9,82.9,108.1,90.1,69z"></path>			<path class="st59" d="M90.7,69.3c0.6-1.8,2.5-5.7,4.6-6.9c1-0.6,2.7-0.9,5.9-0.3c3.4,0.6,7.8,1.4,12.9,3.4c2,0.8,4.2,1.9,6.3,3    c2.4,1.3,4.8,2.7,7.2,4.3c4.9,3.2,10.3,6.8,16,10.5c17.7,11.4,38.2,23.3,54.2,23.3c2,0,3.7-0.2,5.4-0.6c4.1-1,7.9-2.8,11.5-5    c1-0.6,2-1.3,3-1.9c6.1-4.1,11.8-8.7,17.4-12.1c2-1.2,4.2-2.4,6.4-3.4c4.6-2.2,9.1-3.7,12.3-2.6c2.8,1,6.9,4.5,11.7,12    c21.9,34.1,45.6,75.3,46.7,77.3c0.2,0.2,0.9,1.4,1.1,1.8c0.1,0.2,0.7,0.9,0.8,1.1c1.2,1.9,3,5.6,2.3,9.2c0,0.2-0.1,0.4-0.1,0.6    c-1.1,4.6-5.6,9-12.9,12.6c-24.4,12.2-87.7,36-165.5,46.8c-19.6,2.3-37.2,4-50.9,3.4c-5.9-0.3-9.8-1.3-13.9-2.3    c-3.2-5.9-5.1-22-0.4-62.4C76.5,148.8,83.6,108.1,90.7,69.3z"></path>			<path class="st60" d="M91.3,69.7c0.6-1.8,2.5-5.7,4.6-6.8c1-0.5,2.7-0.8,5.9-0.2c3.4,0.7,7.8,1.5,12.8,3.6c2,0.9,4.1,1.9,6.3,3    c2.3,1.3,4.7,2.7,7.2,4.3c4.9,3.2,10.2,6.8,15.9,10.5c17.6,11.4,38,23.1,53.9,23.1c1.9,0,3.7-0.2,5.4-0.6c4.1-1,7.9-2.7,11.5-5    c1-0.6,2-1.3,3-1.9c6.1-4,11.7-8.6,17.3-12c2-1.2,4.2-2.4,6.3-3.4c4.6-2.2,9-3.8,12.2-2.7c2.8,0.9,6.8,4.4,11.6,11.9    c21.8,34,45.4,75.1,46.5,77c0.2,0.2,0.9,1.4,1.1,1.8c0.1,0.2,0.7,0.9,0.8,1.1c1.1,1.8,2.9,5.5,2.3,9.1c0,0.2-0.1,0.4-0.1,0.6    c-1.1,4.5-5.6,8.8-12.8,12.4c-24.2,12.1-87.5,35.8-164.6,46.5c-19.4,2.3-36.9,4-50.6,3.5c-5.9-0.2-9.7-1.2-13.8-2.2    c-3.1-5.8-5-21.8-0.3-62.1C77.2,148.7,84.2,108.1,91.3,69.7z"></path>			<path class="st61" d="M91.9,70.1c0.6-1.8,2.5-5.6,4.6-6.8c0.9-0.5,2.7-0.8,5.9-0.1c3.4,0.7,7.7,1.6,12.7,3.7    c2,0.9,4.1,1.9,6.2,3.1c2.3,1.3,4.7,2.7,7.1,4.3c4.9,3.2,10.1,6.7,15.8,10.4c17.5,11.3,37.7,22.9,53.5,22.9    c1.9,0,3.7-0.2,5.3-0.6c4-1,7.9-2.7,11.4-4.9c1-0.6,2-1.2,3-1.9c6-4,11.7-8.5,17.1-11.9c2-1.2,4.1-2.4,6.3-3.5    c4.6-2.2,9-3.9,12.2-2.9c2.7,0.9,6.8,4.3,11.6,11.8c21.7,33.9,45.3,74.9,46.3,76.7c0.1,0.2,0.9,1.4,1.1,1.7    c0.1,0.2,0.7,0.9,0.8,1.1c1.1,1.8,2.9,5.4,2.3,8.9c0,0.2-0.1,0.4-0.1,0.6c-1.1,4.4-5.5,8.7-12.6,12.2    c-24,12-87.2,35.6-163.8,46.2c-19.2,2.3-36.6,4-50.4,3.5c-5.8-0.2-9.7-1.1-13.8-2.1c-3-5.8-4.9-21.6-0.2-61.8    C77.9,148.5,84.9,108.1,91.9,70.1z"></path>			<path class="st61" d="M92.5,70.4c0.6-1.8,2.5-5.6,4.6-6.7c0.9-0.5,2.7-0.7,5.9,0c3.3,0.8,7.7,1.7,12.6,3.9c2,0.9,4.1,1.9,6.2,3.1    c2.3,1.3,4.7,2.7,7.1,4.3c4.9,3.2,10.1,6.7,15.7,10.3c17.4,11.2,37.5,22.7,53.2,22.7c1.9,0,3.7-0.2,5.3-0.6c4-1,7.8-2.6,11.3-4.8    c1-0.6,2-1.2,2.9-1.9c6-4,11.6-8.5,17-11.9c2-1.2,4.1-2.4,6.2-3.5c4.5-2.3,8.9-4,12.1-3c2.7,0.8,6.7,4.2,11.5,11.7    c21.7,33.8,45.2,74.7,46.2,76.4c0.1,0.2,0.9,1.4,1.1,1.7c0.1,0.2,0.7,0.9,0.8,1.1c1.1,1.7,2.9,5.3,2.3,8.8c0,0.2-0.1,0.4-0.1,0.6    c-1.1,4.3-5.4,8.5-12.4,12c-23.8,11.9-87,35.4-162.9,46c-19,2.3-36.3,4-50.1,3.5c-5.7-0.2-9.6-1.1-13.8-2    c-3-5.7-4.8-21.4-0.2-61.5C78.6,148.4,85.6,108,92.5,70.4z"></path>			<path class="st62" d="M93.1,70.8c0.6-1.8,2.4-5.6,4.6-6.6c0.9-0.5,2.7-0.7,5.8,0.1c3.3,0.8,7.6,1.8,12.5,4c2,0.9,4,1.9,6.1,3.1    c2.3,1.3,4.6,2.7,7,4.3c4.8,3.2,10,6.7,15.6,10.3c17.3,11.2,37.2,22.4,52.9,22.4c1.9,0,3.6-0.2,5.3-0.6c4-1,7.8-2.6,11.3-4.7    c1-0.6,2-1.2,2.9-1.8c6-3.9,11.5-8.4,16.9-11.8c2-1.2,4.1-2.4,6.1-3.5c4.5-2.3,8.9-4,12-3.1c2.6,0.8,6.6,4.2,11.4,11.6    c21.6,33.7,45,74.5,46,76.1c0.1,0.2,0.9,1.4,1.1,1.7c0.1,0.2,0.7,0.8,0.8,1c1.1,1.7,2.9,5.2,2.2,8.6c0,0.2-0.1,0.4-0.1,0.6    c-1.1,4.2-5.3,8.3-12.2,11.8c-23.6,11.8-86.7,35.2-162.1,45.7c-18.8,2.3-36,4-49.8,3.6c-5.7-0.2-9.6-1-13.7-1.9    c-2.9-5.6-4.8-21.3-0.1-61.2C79.3,148.3,86.3,108,93.1,70.8z"></path>			<path class="st62" d="M93.7,71.2c0.6-1.7,2.4-5.6,4.5-6.6c0.9-0.4,2.7-0.6,5.8,0.2c3.3,0.8,7.6,1.9,12.4,4.2c2,0.9,4,1.9,6,3.1    c2.3,1.3,4.6,2.7,7,4.3c4.8,3.2,10,6.6,15.5,10.2c17.2,11.1,37,22.2,52.6,22.2c1.9,0,3.6-0.2,5.2-0.6c4-0.9,7.8-2.5,11.2-4.6    c1-0.6,2-1.2,2.9-1.8c5.9-3.9,11.5-8.3,16.8-11.7c1.9-1.2,4-2.4,6.1-3.5c4.5-2.3,8.8-4.1,11.9-3.2c2.6,0.8,6.6,4.1,11.3,11.5    c21.5,33.6,44.9,74.2,45.8,75.9c0.1,0.2,0.8,1.3,1,1.7c0.1,0.2,0.7,0.8,0.8,1c1.1,1.7,2.8,5.1,2.2,8.5c0,0.2-0.1,0.4-0.1,0.6    c-1,4.1-5.3,8.2-12.1,11.6c-23.4,11.7-86.5,35-161.2,45.5c-18.6,2.3-35.7,4-49.6,3.6c-5.6-0.2-9.5-0.9-13.7-1.8    c-2.8-5.6-4.7-21.1-0.1-60.9C80,148.1,87,108,93.7,71.2z"></path>			<path class="st63" d="M94.4,71.5c0.6-1.7,2.4-5.6,4.5-6.5c0.9-0.4,2.6-0.6,5.8,0.3c3.3,0.9,7.5,2.1,12.3,4.3c1.9,0.9,4,2,6,3.1    c2.3,1.3,4.6,2.7,6.9,4.3c4.8,3.1,9.9,6.6,15.4,10.1c17.2,11,36.7,22,52.3,22c1.9,0,3.6-0.2,5.2-0.5c4-0.9,7.7-2.5,11.2-4.6    c1-0.6,1.9-1.2,2.9-1.8c5.9-3.8,11.4-8.3,16.6-11.7c1.9-1.2,4-2.5,6-3.5c4.5-2.4,8.8-4.2,11.8-3.3c2.6,0.7,6.5,4,11.3,11.4    c21.5,33.5,44.8,74,45.6,75.6c0.1,0.1,0.8,1.3,1,1.6c0.1,0.1,0.7,0.8,0.8,1c1,1.6,2.8,5.1,2.2,8.3c0,0.2-0.1,0.4-0.1,0.5    c-1,4-5.2,8-11.9,11.3c-23.2,11.6-86.2,34.8-160.4,45.2c-18.4,2.3-35.4,4-49.3,3.7c-5.5-0.1-9.5-0.9-13.6-1.6    c-2.7-5.5-4.6-20.9,0-60.6C80.7,148,87.6,108,94.4,71.5z"></path>			<path class="st64" d="M95,71.9c0.6-1.7,2.4-5.5,4.5-6.5c0.9-0.4,2.6-0.5,5.8,0.4c3.2,0.9,7.5,2.2,12.2,4.4c1.9,0.9,3.9,2,5.9,3.1    c2.2,1.3,4.5,2.7,6.9,4.3c4.8,3.1,9.9,6.6,15.3,10.1c17.1,11,36.5,21.8,52,21.8c1.8,0,3.6-0.2,5.2-0.5c4-0.9,7.7-2.4,11.1-4.5    c1-0.6,1.9-1.2,2.9-1.8c5.9-3.8,11.3-8.2,16.5-11.6c1.9-1.3,3.9-2.5,6-3.6c4.4-2.4,8.7-4.3,11.7-3.5c2.5,0.7,6.4,3.9,11.2,11.3    c21.4,33.4,44.6,73.8,45.5,75.3c0.1,0.1,0.8,1.3,1,1.6c0.1,0.1,0.7,0.8,0.8,1c1,1.6,2.8,5,2.2,8.2c0,0.2-0.1,0.4-0.1,0.5    c-1,3.9-5.1,7.8-11.7,11.1c-23,11.5-86,34.6-159.5,45c-18.2,2.3-35.1,4-49,3.7c-5.5-0.1-9.4-0.8-13.6-1.5    c-2.6-5.4-4.5-20.7,0.1-60.4C81.4,147.9,88.3,108,95,71.9z"></path>			<path class="st65" d="M95.6,72.2c0.5-1.7,2.4-5.5,4.5-6.4c0.9-0.4,2.6-0.5,5.8,0.5c3.2,1,7.4,2.3,12.1,4.6c1.9,0.9,3.9,2,5.9,3.2    c2.2,1.3,4.5,2.7,6.8,4.2c4.7,3.1,9.8,6.5,15.2,10c17,10.9,36.2,21.6,51.7,21.6c1.8,0,3.5-0.2,5.1-0.5c3.9-0.9,7.6-2.4,11.1-4.4    c1-0.6,1.9-1.2,2.9-1.8c5.8-3.8,11.2-8.1,16.4-11.5c1.9-1.3,3.9-2.5,5.9-3.6c4.4-2.4,8.7-4.3,11.6-3.6c2.5,0.6,6.4,3.8,11.1,11.3    c21.3,33.3,44.5,73.6,45.3,75c0.1,0.1,0.8,1.3,1,1.6c0.1,0.1,0.7,0.8,0.8,1c1,1.5,2.7,4.9,2.2,8c0,0.2-0.1,0.3-0.1,0.5    c-1,3.8-5.1,7.7-11.5,10.9c-22.8,11.4-85.7,34.3-158.7,44.7c-18,2.3-34.8,4-48.8,3.8c-5.4-0.1-9.4-0.8-13.5-1.4    c-2.6-5.4-4.5-20.5,0.1-60.1C82.1,147.8,89,108,95.6,72.2z"></path>			<path class="st66" d="M96.2,72.6c0.5-1.7,2.4-5.5,4.5-6.3c0.8-0.3,2.6-0.4,5.8,0.6c3.2,1,7.4,2.4,12,4.7c1.9,0.9,3.8,2,5.8,3.2    c2.2,1.3,4.5,2.7,6.8,4.2c4.7,3.1,9.8,6.5,15.1,9.9c16.9,10.8,36,21.4,51.4,21.4c1.8,0,3.5-0.2,5.1-0.5c3.9-0.8,7.6-2.3,11-4.3    c1-0.6,1.9-1.2,2.9-1.8c5.8-3.7,11.2-8.1,16.3-11.5c1.9-1.3,3.9-2.5,5.8-3.6c4.4-2.5,8.6-4.4,11.5-3.7c2.4,0.6,6.3,3.8,11.1,11.2    c21.3,33.2,44.3,73.3,45.1,74.7c0.1,0.1,0.8,1.3,1,1.6c0.1,0.1,0.7,0.8,0.8,0.9c1,1.5,2.7,4.8,2.1,7.9c0,0.2-0.1,0.3-0.1,0.5    c-1,3.7-5,7.5-11.4,10.7c-22.6,11.3-85.5,34.1-157.8,44.4c-17.8,2.3-34.5,4-48.5,3.8c-5.3-0.1-9.3-0.7-13.5-1.3    c-2.5-5.3-4.4-20.4,0.2-59.8C82.8,147.6,89.7,108,96.2,72.6z"></path>			<path class="st66" d="M96.8,73c0.5-1.6,2.4-5.5,4.5-6.3c0.8-0.3,2.6-0.4,5.8,0.7c3.2,1.1,7.3,2.5,11.9,4.9c1.9,1,3.8,2,5.8,3.2    c2.2,1.3,4.4,2.7,6.7,4.2c4.7,3.1,9.7,6.5,15,9.9c16.8,10.8,35.7,21.2,51.1,21.2c1.8,0,3.5-0.2,5.1-0.5c3.9-0.8,7.6-2.3,11-4.3    c1-0.6,1.9-1.1,2.8-1.7c5.8-3.7,11.1-8,16.1-11.4c1.8-1.3,3.8-2.5,5.8-3.6c4.3-2.5,8.5-4.5,11.4-3.8c2.4,0.6,6.3,3.7,11,11.1    c21.2,33.1,44.2,73.1,45,74.4c0.1,0.1,0.8,1.3,0.9,1.5c0.1,0.1,0.7,0.8,0.8,0.9c1,1.5,2.7,4.7,2.1,7.8c0,0.2-0.1,0.3-0.1,0.5    c-1,3.7-4.9,7.3-11.2,10.5c-22.5,11.2-85.2,33.9-157,44.2c-17.6,2.3-34.2,4-48.2,3.9c-5.3-0.1-9.3-0.6-13.5-1.2    c-2.4-5.3-4.3-20.2,0.3-59.5C83.5,147.5,90.4,108,96.8,73z"></path>			<path class="st67" d="M97.4,73.3c0.5-1.6,2.4-5.5,4.5-6.2c0.8-0.3,2.6-0.4,5.8,0.8c3.2,1.1,7.3,2.7,11.8,5c1.9,1,3.8,2,5.7,3.2    c2.2,1.3,4.4,2.7,6.7,4.2c4.7,3.1,9.6,6.4,14.9,9.8c16.7,10.7,35.5,21,50.8,21c1.8,0,3.4-0.2,5-0.5c3.9-0.8,7.5-2.2,10.9-4.2    c1-0.6,1.9-1.1,2.8-1.7c5.7-3.7,11-7.9,16-11.3c1.8-1.3,3.8-2.5,5.7-3.6c4.3-2.5,8.5-4.6,11.3-3.9c2.4,0.5,6.2,3.6,10.9,11    c21.1,33,44.1,72.9,44.8,74.1c0.1,0.1,0.8,1.3,0.9,1.5c0.1,0.1,0.7,0.8,0.7,0.9c0.9,1.4,2.7,4.6,2.1,7.6c0,0.2-0.1,0.3-0.1,0.5    c-1,3.6-4.8,7.2-11,10.3c-22.3,11.1-85,33.7-156.1,43.9c-17.4,2.3-33.9,4-48,3.9c-5.2,0-9.2-0.6-13.4-1.1    c-2.3-5.2-4.2-20,0.3-59.2C84.1,147.4,91.1,107.9,97.4,73.3z"></path>			<path class="st68" d="M98,73.7c0.5-1.6,2.4-5.5,4.5-6.2c0.8-0.3,2.6-0.3,5.8,0.9c3.1,1.2,7.2,2.8,11.7,5.2c1.8,1,3.7,2.1,5.7,3.2    c2.2,1.3,4.4,2.7,6.6,4.2c4.7,3.1,9.6,6.4,14.8,9.7c16.6,10.6,35.2,20.8,50.4,20.8c1.8,0,3.4-0.2,5-0.5c3.9-0.8,7.5-2.2,10.8-4.1    c1-0.5,1.9-1.1,2.8-1.7c5.7-3.6,11-7.8,15.9-11.3c1.8-1.3,3.7-2.5,5.7-3.6c4.3-2.6,8.4-4.6,11.2-4.1c2.3,0.5,6.1,3.5,10.9,10.9    c21.1,32.9,43.9,72.7,44.6,73.8c0.1,0.1,0.8,1.3,0.9,1.5c0.1,0.1,0.7,0.8,0.7,0.9c0.9,1.4,2.6,4.5,2.1,7.5c0,0.2-0.1,0.3-0.1,0.5    c-0.9,3.5-4.8,7-10.8,10.1c-22.1,11-84.7,33.5-155.3,43.7c-17.2,2.3-33.6,4-47.7,3.9c-5.1,0-9.2-0.5-13.4-1    c-2.2-5.1-4.2-19.8,0.4-58.9C84.8,147.2,91.7,107.9,98,73.7z"></path>			<path class="st69" d="M98.6,74.1c0.5-1.6,2.4-5.5,4.5-6.1c0.8-0.2,2.5-0.3,5.7,1c3.1,1.2,7.2,2.9,11.6,5.3c1.8,1,3.7,2.1,5.6,3.3    c2.1,1.3,4.3,2.7,6.6,4.2c4.6,3.1,9.5,6.4,14.7,9.7c16.6,10.6,35,20.6,50.1,20.6c1.7,0,3.4-0.1,5-0.4c3.9-0.7,7.5-2.1,10.8-4    c0.9-0.5,1.9-1.1,2.8-1.7c5.7-3.6,10.9-7.8,15.8-11.2c1.8-1.3,3.7-2.5,5.6-3.7c4.2-2.6,8.4-4.7,11.1-4.2    c2.3,0.4,6.1,3.4,10.8,10.8c21,32.7,43.8,72.4,44.4,73.6c0.1,0.1,0.8,1.3,0.9,1.4c0.1,0.1,0.7,0.8,0.7,0.9    c0.9,1.3,2.6,4.4,2.1,7.3c0,0.2-0.1,0.3-0.1,0.5c-0.9,3.4-4.7,6.9-10.7,9.8c-21.9,10.9-84.5,33.3-154.4,43.4    c-17.1,2.3-33.3,4-47.4,4c-5.1,0-9.2-0.4-13.3-0.9c-2.2-5.1-4.1-19.6,0.4-58.6C85.5,147.1,92.4,107.9,98.6,74.1z"></path>			<path class="st69" d="M99.2,74.4c0.5-1.6,2.4-5.4,4.5-6c0.8-0.2,2.5-0.2,5.7,1.1c3.1,1.3,7.1,3,11.6,5.5c1.8,1,3.7,2.1,5.6,3.3    c2.1,1.3,4.3,2.7,6.5,4.2c4.6,3.1,9.5,6.3,14.6,9.6c16.5,10.5,34.8,20.4,49.8,20.4c1.7,0,3.4-0.1,4.9-0.4c3.8-0.7,7.4-2.1,10.7-4    c0.9-0.5,1.9-1.1,2.8-1.7c5.6-3.5,10.8-7.7,15.6-11.1c1.8-1.3,3.7-2.5,5.5-3.7c4.2-2.6,8.3-4.8,11-4.3c2.2,0.4,6,3.4,10.7,10.7    c20.9,32.6,43.7,72.2,44.3,73.3c0.1,0.1,0.8,1.3,0.9,1.4c0,0.1,0.7,0.7,0.7,0.8c0.9,1.3,2.6,4.4,2,7.2c0,0.2-0.1,0.3-0.1,0.5    c-0.9,3.3-4.6,6.7-10.5,9.6c-21.7,10.8-84.2,33.1-153.6,43.1c-16.9,2.3-33,4-47.2,4c-5,0-9.1-0.4-13.3-0.8    c-2.1-5-4-19.5,0.5-58.3C86.2,147,93.1,107.9,99.2,74.4z"></path>			<path class="st70" d="M99.9,74.8c0.5-1.5,2.3-5.4,4.5-6c0.8-0.2,2.5-0.2,5.7,1.2c3.1,1.3,7.1,3.1,11.5,5.6c1.8,1,3.6,2.1,5.5,3.3    c2.1,1.3,4.3,2.7,6.4,4.2c4.6,3.1,9.4,6.3,14.5,9.5c16.4,10.4,34.5,20.1,49.5,20.1c1.7,0,3.3-0.1,4.9-0.4c3.8-0.7,7.4-2,10.7-3.9    c0.9-0.5,1.9-1.1,2.8-1.7c5.6-3.5,10.7-7.6,15.5-11.1c1.7-1.3,3.6-2.5,5.5-3.7c4.2-2.7,8.3-4.8,10.9-4.4c2.2,0.4,6,3.3,10.6,10.6    c20.9,32.5,43.5,72,44.1,73c0.1,0.1,0.8,1.2,0.8,1.4c0,0.1,0.7,0.7,0.7,0.8c0.9,1.2,2.6,4.3,2,7c0,0.1-0.1,0.3-0.1,0.4    c-0.9,3.2-4.5,6.5-10.3,9.4c-21.5,10.7-84,32.9-152.7,42.9c-16.7,2.3-32.7,4-46.9,4.1c-4.9,0-9.1-0.3-13.3-0.7    c-2-4.9-3.9-19.3,0.6-58C86.9,146.8,93.8,107.9,99.9,74.8z"></path>			<path class="st71" d="M100.5,75.1c0.5-1.5,2.3-5.4,4.5-5.9c0.7-0.2,2.5-0.1,5.7,1.3c3.1,1.4,7,3.2,11.4,5.7    c1.8,1,3.6,2.1,5.5,3.3c2.1,1.3,4.2,2.7,6.4,4.2c4.6,3.1,9.4,6.3,14.4,9.5c16.3,10.4,34.3,19.9,49.2,19.9c1.7,0,3.3-0.1,4.9-0.4    c3.8-0.7,7.4-2,10.6-3.8c0.9-0.5,1.8-1.1,2.8-1.6c5.6-3.5,10.7-7.6,15.4-11c1.7-1.3,3.6-2.5,5.4-3.7c4.1-2.7,8.2-4.9,10.9-4.5    c2.1,0.3,5.9,3.2,10.6,10.5c20.8,32.4,43.4,71.8,43.9,72.7c0.1,0.1,0.7,1.2,0.8,1.4c0,0.1,0.7,0.7,0.7,0.8c0.8,1.2,2.5,4.2,2,6.9    c0,0.1-0.1,0.3-0.1,0.4c-0.9,3.1-4.5,6.4-10.2,9.2c-21.3,10.6-83.7,32.7-151.9,42.6c-16.5,2.3-32.3,4-46.6,4.1    c-4.9,0-9-0.2-13.2-0.6c-1.9-4.9-3.9-19.1,0.6-57.7C87.6,146.7,94.5,107.9,100.5,75.1z"></path>			<path class="st72" d="M101.1,75.5c0.5-1.5,2.3-5.4,4.5-5.9c0.7-0.1,2.5-0.1,5.7,1.4c3.1,1.4,7,3.4,11.3,5.9    c1.8,1,3.6,2.2,5.4,3.3c2.1,1.3,4.2,2.7,6.3,4.2c4.5,3,9.3,6.3,14.3,9.4c16.2,10.3,34,19.7,48.9,19.7c1.7,0,3.3-0.1,4.8-0.4    c3.8-0.6,7.3-1.9,10.6-3.7c0.9-0.5,1.8-1.1,2.7-1.6c5.5-3.4,10.6-7.5,15.3-10.9c1.7-1.3,3.5-2.5,5.4-3.7c4.1-2.7,8.1-5,10.8-4.7    c2.1,0.3,5.8,3.1,10.5,10.4c20.7,32.3,43.3,71.6,43.7,72.4c0,0.1,0.7,1.2,0.8,1.3c0,0.1,0.7,0.7,0.7,0.8c0.8,1.2,2.5,4.1,2,6.7    c0,0.1-0.1,0.3-0.1,0.4c-0.9,3-4.4,6.2-10,9c-21.1,10.5-83.5,32.5-151,42.4c-16.3,2.3-32,4-46.4,4.2c-4.8,0.1-9-0.2-13.2-0.5    c-1.8-4.8-3.8-18.9,0.7-57.5C88.3,146.6,95.1,107.9,101.1,75.5z"></path>			<path class="st73" d="M101.7,75.9c0.5-1.5,2.3-5.4,4.4-5.8c0.7-0.1,2.5-0.1,5.7,1.5c3,1.5,6.9,3.5,11.2,6c1.7,1,3.5,2.2,5.4,3.3    c2.1,1.3,4.2,2.7,6.3,4.2c4.5,3,9.3,6.2,14.2,9.3c16.1,10.2,33.8,19.5,48.6,19.5c1.7,0,3.3-0.1,4.8-0.4c3.8-0.6,7.3-1.9,10.5-3.7    c0.9-0.5,1.8-1,2.7-1.6c5.5-3.4,10.5-7.4,15.1-10.9c1.7-1.3,3.5-2.6,5.3-3.8c4.1-2.8,8.1-5.1,10.7-4.8c2.1,0.2,5.8,3,10.4,10.3    c20.7,32.2,43.1,71.3,43.6,72.1c0,0,0.7,1.2,0.8,1.3c0,0,0.6,0.7,0.7,0.8c0.8,1.1,2.5,4,2,6.6c0,0.1-0.1,0.3-0.1,0.4    c-0.8,2.9-4.3,6-9.8,8.8c-20.9,10.4-83.2,32.3-150.2,42.1c-16.1,2.3-31.7,3.9-46.1,4.2c-4.7,0.1-8.9-0.1-13.1-0.3    c-1.8-4.7-3.7-18.7,0.7-57.2C89,146.5,95.8,107.8,101.7,75.9z"></path>			<path class="st74" d="M102.3,76.2c0.5-1.5,2.3-5.4,4.4-5.7c0.7-0.1,2.5,0,5.7,1.6c3,1.5,6.9,3.6,11.1,6.2    c1.7,1.1,3.5,2.2,5.3,3.4c2,1.3,4.1,2.7,6.2,4.1c4.5,3,9.2,6.2,14.1,9.3c16.1,10.2,33.5,19.3,48.3,19.3c1.6,0,3.2-0.1,4.8-0.4    c3.8-0.6,7.3-1.8,10.5-3.6c0.9-0.5,1.8-1,2.7-1.6c5.5-3.4,10.5-7.4,15-10.8c1.7-1.3,3.5-2.6,5.2-3.8c4.1-2.8,8-5.1,10.6-4.9    c2,0.2,5.7,3,10.4,10.2c20.6,32.1,43,71.1,43.4,71.8c0,0,0.7,1.2,0.8,1.3c0,0,0.6,0.7,0.7,0.7c0.8,1.1,2.4,3.9,1.9,6.4    c0,0.1-0.1,0.3-0.1,0.4c-0.8,2.8-4.3,5.9-9.6,8.6c-20.7,10.3-83,32.1-149.3,41.8c-15.9,2.3-31.4,3.9-45.8,4.3    c-4.7,0.1-8.9,0-13.1-0.2c-1.7-4.7-3.6-18.6,0.8-56.9C89.7,146.3,96.5,107.8,102.3,76.2z"></path>			<path class="st75" d="M102.9,76.6c0.5-1.4,2.3-5.4,4.4-5.7c0.7-0.1,2.5,0,5.7,1.7c3,1.6,6.8,3.7,11,6.3c1.7,1.1,3.5,2.2,5.3,3.4    c2,1.3,4.1,2.7,6.2,4.1c4.5,3,9.1,6.2,14,9.2c16,10.1,33.3,19.1,48,19.1c1.6,0,3.2-0.1,4.7-0.3c3.7-0.6,7.2-1.8,10.4-3.5    c0.9-0.5,1.8-1,2.7-1.6c5.4-3.3,10.4-7.3,14.9-10.7c1.6-1.3,3.4-2.6,5.2-3.8c4-2.8,8-5.2,10.5-5c2,0.2,5.6,2.9,10.3,10.1    c20.5,32,42.8,70.9,43.2,71.5c0,0,0.7,1.2,0.7,1.3c0,0,0.6,0.7,0.7,0.7c0.8,1,2.4,3.8,1.9,6.3c0,0.1-0.1,0.3-0.1,0.4    c-0.8,2.7-4.2,5.7-9.5,8.3c-20.5,10.2-82.7,31.9-148.5,41.6c-15.7,2.2-31.1,3.9-45.6,4.3c-4.6,0.1-8.8,0-13.1-0.1    c-1.6-4.6-3.6-18.4,0.9-56.6C90.4,146.2,97.2,107.8,102.9,76.6z"></path>			<path class="st76" d="M103.5,76.9c0.5-1.4,2.3-5.4,4.4-5.6c0.7-0.1,2.5,0.1,5.7,1.8c3,1.6,6.8,3.8,10.9,6.5    c1.7,1.1,3.4,2.2,5.2,3.4c2,1.3,4,2.7,6.1,4.1c4.4,3,9.1,6.1,13.9,9.1c15.9,10,33,18.9,47.7,18.9c1.6,0,3.2-0.1,4.7-0.3    c3.7-0.6,7.2-1.7,10.3-3.4c0.9-0.5,1.8-1,2.7-1.5c5.4-3.3,10.3-7.2,14.8-10.7c1.6-1.3,3.4-2.6,5.1-3.8c4-2.9,7.9-5.3,10.4-5.1    c1.9,0.1,5.6,2.8,10.2,10c20.5,31.9,42.7,70.7,43,71.3c0,0,0.7,1.2,0.7,1.2c0,0,0.6,0.7,0.7,0.7c0.8,1,2.4,3.8,1.9,6.1    c0,0.1-0.1,0.3-0.1,0.4c-0.8,2.6-4.1,5.5-9.3,8.1c-20.3,10.1-82.5,31.7-147.6,41.3c-15.5,2.2-30.8,3.9-45.3,4.3    c-4.5,0.1-8.8,0.1-13,0c-1.5-4.5-3.5-18.2,0.9-56.3C91.1,146.1,97.9,107.8,103.5,76.9z"></path>			<path class="st76" d="M104.1,77.3c0.5-1.4,2.3-5.4,4.4-5.6c0.7,0,2.4,0.1,5.7,1.9c3,1.6,6.7,3.9,10.8,6.6    c1.7,1.1,3.4,2.2,5.1,3.4c2,1.3,4,2.7,6.1,4.1c4.4,3,9,6.1,13.8,9.1c15.8,10,32.8,18.7,47.3,18.7c1.6,0,3.2-0.1,4.7-0.3    c3.7-0.5,7.2-1.7,10.3-3.4c0.9-0.5,1.8-1,2.7-1.5c5.4-3.3,10.2-7.2,14.6-10.6c1.6-1.3,3.3-2.6,5-3.8c4-2.9,7.9-5.4,10.3-5.3    c1.9,0.1,5.5,2.7,10.1,9.9c20.4,31.8,42.6,70.4,42.9,71c0,0,0.7,1.2,0.7,1.2c0,0,0.6,0.7,0.6,0.7c0.7,1,2.4,3.7,1.9,6    c0,0.1-0.1,0.2-0.1,0.4c-0.8,2.5-4,5.4-9.1,7.9c-20.1,10-82.2,31.5-146.8,41.1c-15.3,2.2-30.5,3.9-45,4.4    c-4.5,0.2-8.7,0.2-13,0.1c-1.4-4.5-3.4-18,1-56C91.8,145.9,98.5,107.8,104.1,77.3z"></path>			<path class="st77" d="M104.8,77.7c0.5-1.4,2.3-5.4,4.4-5.5c0.6,0,2.4,0.2,5.6,2c3,1.7,6.7,4.1,10.7,6.7c1.7,1.1,3.4,2.3,5.1,3.4    c2,1.3,4,2.7,6,4.1c4.4,3,9,6.1,13.7,9c15.7,9.9,32.5,18.5,47,18.5c1.6,0,3.1-0.1,4.6-0.3c3.7-0.5,7.1-1.6,10.2-3.3    c0.9-0.5,1.8-1,2.6-1.5c5.3-3.2,10.2-7.1,14.5-10.6c1.6-1.3,3.3-2.6,5-3.9c3.9-2.9,7.8-5.4,10.2-5.4c1.9,0,5.5,2.6,10.1,9.8    c20.3,31.7,42.4,70.2,42.7,70.7c0,0,0.7,1.2,0.7,1.2c0,0,0.6,0.6,0.6,0.7c0.7,0.9,2.3,3.6,1.9,5.8c0,0.1-0.1,0.2-0.1,0.4    c-0.8,2.4-4,5.2-8.9,7.7c-19.9,9.9-82,31.2-145.9,40.8c-15.1,2.2-30.2,3.9-44.8,4.4c-4.4,0.2-8.7,0.2-12.9,0.2    c-1.4-4.4-3.3-17.8,1-55.7C92.5,145.8,99.2,107.8,104.8,77.7z"></path>			<path class="st77" d="M88.5,232.3c-1.3-4.3-3.2-17.7,1.1-55.4c3.6-31.2,10.3-69.1,15.7-98.8c0.5-1.4,2.3-5.4,4.4-5.4    c0.6,0,2.4,0.2,5.6,2.1c4.2,2.5,9.7,6.3,15.7,10.3c20.3,13.9,45.5,31.3,66.3,31.3c5.5,0,10.4-1.2,14.8-3.5c6.4-3.4,12-8,17-12    c5.2-4.2,11.7-9.4,15-9.4c1.8,0,5.4,2.6,10,9.8c20.3,31.6,42.3,70,42.5,70.4l0.7,1.2l0.6,0.6c0.7,0.9,2.3,3.5,1.8,5.7    c-0.5,2.4-3.7,5.3-8.8,7.8C265.2,199.8,167.4,232,88.5,232.3z"></path>		</g>		<g>			<path d="M194.6,185.6c-0.5,0.3-1,0.6-1.4,0.8c-1.9,1-3.7,1.9-5.6,2.5c-1.9,0.6-3.8,1.1-6,1.4c-2.1,0.3-4.4,0.4-7.2,0.4    c1.5,2.3,4,3.9,6.7,4.6c2.7,0.7,5.8,0.6,8.5-0.3c2.7-0.9,5.2-2.7,6.9-4.9c0.5-0.5,0.8-1.1,1.2-1.7c0.3-0.6,0.6-1.1,0.9-1.7    c0.5-1.2,1-2.4,1.3-3.8c-1.3,0.4-2.5,1-3.6,1.6C195.7,184.9,195.1,185.3,194.6,185.6z"></path>			<path d="M142.8,143.2l-5.2-3.8c-11.1,15.4-24.2,28-61.6,12.5l-2.5,6c4.2,1.7,8,3.1,11.7,4.2l-3.4,8.6l6,2.4l3.7-9.3    c2.6,0.6,5.1,1,7.4,1.3l1.5,12.8l6.4-0.7l-1.4-11.6c2.1,0,4.1-0.2,6.1-0.4l4.6,13.5l6.1-2.1l-4.4-12.8c3.5-1.1,6.6-2.6,9.4-4.4    l6,7l4.9-4.2l-5.8-6.7C136.4,151.7,139.7,147.5,142.8,143.2z"></path>			<path d="M282.5,125.7l-4.2-4.9c-22.6,19.4-43.5,22.3-62.2,8.8l-3.8,5.2c4.5,3.2,9,5.7,13.7,7.3l-4.7,10.9l5.9,2.5l5-11.8    c2.6,0.5,5.3,0.8,8,0.8c0.5,0,1.1,0,1.7,0l-0.5,10.3l6.4,0.3l0.5-11.3c1.9-0.3,3.7-0.8,5.6-1.4l2.3,12.4l6.3-1.2l-2.5-13.5    c2.2-0.9,4.4-2,6.6-3.3l10.2,12.4l5-4.1l-9.7-11.7C275.7,131.2,279.1,128.6,282.5,125.7z"></path>		</g>		<ellipse class="st78" cx="297.2" cy="179.1" rx="10.4" ry="11.1"></ellipse>		<circle class="st78" cx="82.5" cy="232.6" r="10.4"></circle>		<path class="st79" d="M90.9,340c0.2,0-0.1,0-0.3-0.2c-7.4-4.5-22.3-17.1-60.3-6C0,342.8,53,380.5,74.7,389.3s46.4-5.2,41.7-22   l-4.7-16.7c0,0-2.6,14.8-11.9,16.7c-9.3,2-35.9-13.2-27.7-21.2C78.4,340,86.9,340.5,90.9,340z"></path>		<path class="st79" d="M309.7,312.8c0,0-2.1,24,12.8,33.3c14.9,9.3,38.1-6.9,59.1-37c8.8-12.6,12.2-25.2,6.9-33.3   c-7.4-11.3-69,24.5-62.1,20.6c6.8-3.8,22.7,8.7,13,14.7C325.4,321.6,309.7,312.8,309.7,312.8z"></path>	</g>	<g>		<g>			<defs>				<path id="SVGID_00000018958635307434538800000016255388863963745676_" d="M90.9,340c0.2,0-0.1,0-0.3-0.2     c-7.4-4.5-22.3-17.1-60.3-6C0,342.8,53,380.5,74.7,389.3s46.4-5.2,41.7-22l-4.7-16.7c0,0-2.6,14.8-11.9,16.7     c-9.3,2-35.9-13.2-27.7-21.2C78.4,340,86.9,340.5,90.9,340z"></path>			</defs>			<clipPath id="SVGID_00000146481141261629956600000009027685634562289597_">				<use xlink:href="#SVGID_00000018958635307434538800000016255388863963745676_" style="overflow:visible;"></use>			</clipPath>							<g transform="matrix(1 0 0 1 0 7.629395e-06)" style="clip-path:url(#SVGID_00000146481141261629956600000009027685634562289597_);">			</g>		</g>	</g>	<g>		<g>			<defs>				<path id="SVGID_00000046337488608680769670000016115786219573609360_" d="M309.7,312.8c0,0-2.1,24,12.8,33.3     c14.9,9.3,38.1-6.9,59.1-37c8.8-12.6,12.2-25.2,6.9-33.3c-7.4-11.3-69,24.5-62.1,20.6c6.8-3.8,22.7,8.7,13,14.7     C325.4,321.6,309.7,312.8,309.7,312.8z"></path>			</defs>			<clipPath id="SVGID_00000143577654154260397740000003321588926244821916_">				<use xlink:href="#SVGID_00000046337488608680769670000016115786219573609360_" style="overflow:visible;"></use>			</clipPath>			<g transform="matrix(1 0 0 1 0 0)" style="clip-path:url(#SVGID_00000143577654154260397740000003321588926244821916_);">			</g>		</g>		<g>			<defs>				<path id="SVGID_00000005255859901256481830000001057489317286723243_" d="M309.7,312.8c0,0-2.1,24,12.8,33.3     c14.9,9.3,38.1-6.9,59.1-37c8.8-12.6,12.2-25.2,6.9-33.3c-7.4-11.3-69,24.5-62.1,20.6c6.8-3.8,22.7,8.7,13,14.7     C325.4,321.6,309.7,312.8,309.7,312.8z"></path>			</defs>			<clipPath id="SVGID_00000061437697082434640930000006358984520875851402_">				<use xlink:href="#SVGID_00000005255859901256481830000001057489317286723243_" style="overflow:visible;"></use>			</clipPath>							<g transform="matrix(1 0 0 1 0 7.629395e-06)" style="clip-path:url(#SVGID_00000061437697082434640930000006358984520875851402_);">			</g>		</g>	</g>	<g>		<path class="st83" d="M202.2,130.7"></path>	</g>	<g>		<path class="st83" d="M171.7,172.4"></path>	</g>	<g>		<g>			<defs>				<path id="SVGID_00000109721214581836662160000014326649574621455288_" d="M112,290.6c-34.5,2.4-60.5,2.6-71.4,0     c-11-2.6-13.3-6.3-17.1-10.7c-16.3-19-8.9-80.6,19.9-237.7l0.1-0.4l0.1-0.4c2.7-10.1,12.4-27.2,32-27.2c6.9,0,14.2,2.2,21.7,6.7     c6.7,3.9,14.5,9.3,23.6,15.6c24.2,16.6,57.3,39.4,78,39.4c3.2,0,5.8-0.6,8-1.7c6.8-3.6,13.5-9,19.9-14.2     c11.7-9.4,23.8-19.1,38.1-19.1c13.5,0,25.4,8.5,36.6,25.9c27,42.1,56.1,92.5,60.1,99.5c2.8,3.5,10.5,14.6,7.8,28.5     c-2.3,11.8-11.2,21.6-26.4,29.2C303.6,243.5,235.8,275.8,112,290.6z"></path>			</defs>			<clipPath id="SVGID_00000164482330143245766370000014019228917559586492_">				<use xlink:href="#SVGID_00000109721214581836662160000014326649574621455288_" style="overflow:visible;"></use>			</clipPath>			<g transform="matrix(1 0 0 1 0 0)" style="clip-path:url(#SVGID_00000164482330143245766370000014019228917559586492_);">			</g>		</g>	</g></g></svg>